<?xml version="1.0" standalone="no"?>
<!DOCTYPE svg PUBLIC "-//W3C//DTD SVG 1.1//EN" "http://www.w3.org/Graphics/SVG/1.1/DTD/svg11.dtd" >
<svg xmlns="http://www.w3.org/2000/svg" xmlns:xlink="http://www.w3.org/1999/xlink" version="1.1">
<metadata>
Created by FontForge 20170731 at Fri Nov 26 20:17:50 2004
 By Aleksey,,,
4.1 (c)1986-92 by Richard A. Ware. All Rights Reserved.
</metadata>
<defs>
<font id="MicroExtendFLF" horiz-adv-x="861" >
  <font-face 
    font-family="MicroExtendFLF"
    font-weight="500"
    font-stretch="normal"
    units-per-em="1000"
    panose-1="2 0 6 5 2 0 0 2 0 4"
    ascent="800"
    descent="-200"
    x-height="494"
    cap-height="694"
    bbox="-62 -212 1614 876"
    underline-thickness="30"
    underline-position="-175"
    unicode-range="U+0005-E010"
  />
<missing-glyph horiz-adv-x="500" 
 />
    <glyph glyph-name=".notdef" horiz-adv-x="500" 
 />
    <glyph glyph-name=".null" horiz-adv-x="0" 
 />
    <glyph glyph-name="nonmarkingreturn" unicode="&#xe002;" horiz-adv-x="0" 
 />
    <glyph glyph-name="breve" horiz-adv-x="387" 
d="M193 541q45 0 86 12.5t69 34.5l-34 39q-23 -18 -55.5 -26t-65.5 -8q-28 0 -61.5 7.5t-59.5 25.5l-34 -38q30 -21 70.5 -34t84.5 -13z" />
    <glyph glyph-name="dotaccent" horiz-adv-x="178" 
d="M51 647v-78h78v78h-78z" />
    <glyph glyph-name="ring" horiz-adv-x="271" 
d="M118 731q-37 0 -51.5 -18t-14.5 -41v-33q0 -23 15.5 -40t50.5 -17h54q35 0 50 17t15 40v33q0 23 -15 41t-50 18h-54zM74 639v33q0 20 12 28t32 8h54q19 0 30.5 -8t11.5 -28v-33q0 -19 -11.5 -27.5t-30.5 -8.5h-54q-20 0 -32 8.5t-12 27.5z" />
    <glyph glyph-name="hungarumlaut" unicode="&#xa;" horiz-adv-x="412" 
d="M209 744l-59 27l-82 -188l34 -12zM333 744l-59 27l-82 -188l35 -12z" />
    <glyph glyph-name="ogonek" horiz-adv-x="222" 
d="M111 -48v48h-63v-53q0 -24 5.5 -41.5t20 -29.5t39.5 -18t64 -6v64q-38 0 -52 9t-14 27z" />
    <glyph glyph-name="caron" horiz-adv-x="396" 
d="M223 531l147 140h-32l-135 -75l-133 75h-33l146 -140h40z" />
    <glyph glyph-name="dotlessi" unicode="&#xd;" horiz-adv-x="222" 
d="M149 494h-72v-494h72v494z" />
    <glyph glyph-name="fraction" horiz-adv-x="684" 
d="M86 -89l577 817h-77l-578 -817h78z" />
    <glyph glyph-name="fi" horiz-adv-x="542" 
d="M377 494h-213v42q0 44 20.5 65t65.5 21h244v72h-247q-74 0 -114.5 -40.5t-40.5 -103.5v-56h-61v-68h61v-426h72v426h213v68zM494 494h-72v-494h72v494z" />
    <glyph glyph-name="fl" horiz-adv-x="556" 
d="M499 0v694h-238q-44 0 -76 -11.5t-52.5 -31.5t-30.5 -47.5t-10 -59.5v-50h-61v-68h61v-426h72v426h213v68h-213v39q0 41 20.5 64.5t65.5 23.5h178l-1 -621h72z" />
    <glyph glyph-name="Lslash" horiz-adv-x="710" 
d="M139 280l121 121v95l-121 -121v319h-72v-378l-65 -65v-95l65 64v-220h594v72h-522v208z" />
    <glyph glyph-name="lslash" horiz-adv-x="234" 
d="M158 304l66 66v95l-66 -66v295h-72v-359l-69 -69v-95l69 68v-239h72v304z" />
    <glyph glyph-name="Zcaron" horiz-adv-x="782" 
d="M739 694h-691v-72h566l-566 -566v-56h691v72h-561l561 567v55zM418 736l147 140h-32l-135 -75l-133 75h-33l146 -140h40z" />
    <glyph glyph-name="zcaron" horiz-adv-x="628" 
d="M572 494h-529v-61h416l-420 -377v-56h533v61h-419l419 378v55zM328 531l147 140h-32l-135 -75l-133 75h-33l146 -140h40z" />
    <glyph glyph-name="space" unicode=" " horiz-adv-x="500" 
 />
    <glyph glyph-name="exclam" unicode="!" horiz-adv-x="189" 
d="M61 167h72v527h-72v-527zM61 78v-78h72v78h-72z" />
    <glyph glyph-name="quotedbl" unicode="&#x22;" horiz-adv-x="328" 
d="M261 708h-55l11 -174h33zM128 708h-56l11 -174h34z" />
    <glyph glyph-name="numbersign" unicode="#" horiz-adv-x="633" 
d="M309 677h-55l-32 -130h-134l-16 -56h136l-32 -124h-136l-12 -56h134l-33 -131h55l33 131h149l-35 -135h55l34 135h130l14 56h-130l31 124h131l13 56h-130l33 130h-54l-34 -130h-148zM262 491h149l-32 -124h-148z" />
    <glyph glyph-name="dollar" unicode="$" horiz-adv-x="894" 
d="M240 624h172v-232h-172q-53 0 -86 23.5t-33 82.5q0 37 8 61.5t23.5 38.5t37.5 20t50 6zM648 69h-164v251h164q42 0 68 -7t39.5 -21.5t18 -37.5t4.5 -54q0 -29 -6 -53.5t-21 -41.5t-40 -26.5t-63 -9.5zM251 320h161v-251h-159q-71 0 -100.5 33t-31.5 91h-72
q0 -100 57.5 -148t153.5 -48h152v-86h72v86h157q66 0 108 17t65.5 45.5t32.5 65t9 75.5q0 50 -11.5 86.5t-37.5 60t-68.5 34.5t-104.5 11h-150v232h124q51 0 83.5 -8t51.5 -23t26.5 -37.5t8.5 -51.5h72q0 100 -56 146.5t-182 46.5h-128v63h-72v-63h-156q-53 0 -93 -14.5
t-66.5 -41t-40 -63t-13.5 -80.5q0 -40 10 -73t34 -56t64 -36t100 -13z" />
    <glyph glyph-name="percent" unicode="%" horiz-adv-x="1144" 
d="M300 633q51 0 81.5 -4.5t46.5 -18.5t20.5 -40.5t4.5 -71.5v-37q0 -45 -4.5 -71.5t-20.5 -40.5t-46.5 -18.5t-82.5 -4.5h-35q-52 0 -82.5 4.5t-46.5 18t-20.5 39.5t-4.5 70v40q0 45 4.5 71.5t20.5 40.5t46.5 18.5t82.5 4.5h36zM515 461v37q0 57 -9 94.5t-33 60t-65.5 31.5
t-107.5 9h-36q-66 0 -108 -9t-66 -31.5t-33 -60t-9 -94.5v-40q0 -56 9 -93t33 -59t66 -31t108 -9h35q66 0 108 9t66 31.5t33 60t9 94.5zM506 -33l205 761h-59l-205 -761h59zM895 367q51 0 81.5 -4.5t46.5 -18.5t20.5 -40.5t4.5 -71.5v-37q0 -45 -4.5 -71.5t-20.5 -40.5
t-46.5 -18.5t-82.5 -4.5h-35q-52 0 -82.5 4.5t-46.5 18t-20.5 39.5t-4.5 70v40q0 45 4.5 71.5t20.5 40.5t46.5 18.5t82.5 4.5h36zM1110 195v37q0 57 -9 94.5t-33 60t-65.5 31.5t-107.5 9h-36q-66 0 -108 -9t-66 -31.5t-33 -60t-9 -94.5v-40q0 -56 9 -93t33 -59t66 -31
t108 -9h35q66 0 108 9t66 31.5t33 60t9 94.5z" />
    <glyph glyph-name="ampersand" unicode="&#x26;" horiz-adv-x="986" 
d="M486 0q87 0 142 4t89 10t50.5 14t25.5 16l84 -51l44 65l-67 40q13 14 28 33t28 43.5t22 54t9 64.5h-72q-1 -24 -8.5 -45.5t-18.5 -41t-25 -36t-27 -30.5l-464 276q-23 14 -39 24.5t-25.5 21.5t-13.5 24.5t-4 33.5q0 26 11 45t36 32t66.5 19t102.5 6h111q113 0 163 -31.5
t50 -97.5h73q0 46 -12 83t-44 63t-88 40.5t-145 14.5h-106q-149 0 -220.5 -39.5t-71.5 -133.5q0 -22 2.5 -36.5t7 -24t10 -16t12.5 -12.5q-32 -6 -59.5 -19.5t-48 -36.5t-32.5 -56.5t-12 -79.5v-32q0 -62 15 -102t53.5 -63.5t105 -33t169.5 -9.5h93zM122 239
q0 70 35.5 102.5t90.5 36.5l469 -287q-6 -3 -15.5 -6.5t-33 -6.5t-66.5 -4.5t-118 -1.5h-90q-84 0 -137 5.5t-83 21t-41 43t-11 71.5v26z" />
    <glyph glyph-name="quotesingle" unicode="'" horiz-adv-x="200" 
d="M128 708h-56l11 -174h34z" />
    <glyph glyph-name="parenleft" unicode="(" horiz-adv-x="314" 
d="M34 512v-388q0 -59 18.5 -103.5t52.5 -75.5t80 -47.5t102 -18.5v78q-91 4 -133 46.5t-42 121.5v386q0 79 42 121.5t133 46.5v78q-56 -2 -102 -18.5t-80 -47.5t-52.5 -76t-18.5 -103z" />
    <glyph glyph-name="parenright" unicode=")" horiz-adv-x="314" 
d="M27 -121q55 2 101.5 18.5t80.5 47.5t52.5 75.5t18.5 103.5v388q0 58 -18.5 103t-52.5 76t-80.5 47.5t-101.5 18.5v-78q91 -4 133 -46.5t42 -121.5v-386q0 -79 -42 -121.5t-133 -46.5v-78z" />
    <glyph glyph-name="asterisk" unicode="*" horiz-adv-x="344" 
d="M276 529l-89 19l85 21q21 5 30 16t9 22q0 14 -10 24.5t-25 10.5q-8 0 -17.5 -4t-18.5 -15l-59 -67l26 86q3 10 3 20q0 20 -10.5 29t-24.5 9t-24.5 -9.5t-10.5 -28.5q0 -10 3 -20l29 -86l-64 64q-11 11 -19.5 15t-16.5 4q-15 0 -24.5 -10.5t-9.5 -24.5q0 -12 9 -22.5
t30 -15.5l89 -18l-88 -24q-22 -6 -31 -16.5t-9 -21.5q0 -14 10.5 -24.5t25.5 -10.5q8 0 17.5 4t18.5 15l61 68l-28 -86q-3 -11 -3 -20q0 -19 10.5 -28.5t23.5 -9.5q14 0 25 9.5t11 28.5q0 9 -3 20l-25 87l62 -65q19 -20 37 -20q15 0 24.5 11t9.5 25q0 13 -9 23.5t-30 15.5z
" />
    <glyph glyph-name="plus" unicode="+" horiz-adv-x="464" 
d="M198 326h-145v-67h145v-145h66v145h145v67h-145v144h-66v-144z" />
    <glyph glyph-name="comma" unicode="," horiz-adv-x="183" 
d="M59 78v-78h41v-51q0 -18 -8 -32t-21 -23h38q13 8 20.5 22.5t7.5 32.5v129h-78z" />
    <glyph glyph-name="hyphen" unicode="-" horiz-adv-x="428" 
d="M372 327h-319v-73h319v73z" />
    <glyph glyph-name="period" unicode="." horiz-adv-x="183" 
d="M59 78v-78h78v78h-78z" />
    <glyph glyph-name="slash" unicode="/" horiz-adv-x="306" 
d="M86 -89l222 817h-78l-222 -817h78z" />
    <glyph glyph-name="zero" unicode="0" 
d="M752 318q0 -83 -8.5 -131.5t-37.5 -74t-84 -32.5t-149 -7h-79q-94 0 -149.5 7t-84.5 32.5t-37.5 74t-8.5 131.5v60q0 84 8.5 133t37.5 74.5t84.5 32.5t149.5 7h79q62 0 107 -3t76 -11.5t50 -25t29 -44t13.5 -67.5t3.5 -96v-60zM394 0h80q109 0 177 12.5t106.5 47.5
t52.5 97t14 161v60q0 99 -14 161.5t-52.5 98t-106.5 48t-177 12.5h-80q-110 0 -178.5 -12.5t-107 -48t-52.5 -98t-14 -161.5v-60q0 -99 14 -161t52.5 -97t107 -47.5t178.5 -12.5z" />
    <glyph glyph-name="one" unicode="1" 
d="M447 0h77v694h-111l-205 -208l50 -49l189 185v-622z" />
    <glyph glyph-name="two" unicode="2" 
d="M478 253q107 0 172 12.5t100.5 38.5t47.5 65.5t12 94.5q0 64 -13.5 108.5t-50.5 72.5t-102 40.5t-168 12.5h-82q-95 0 -159 -11.5t-103 -35.5t-56 -60.5t-17 -86.5h78q1 30 10 53t36.5 38.5t77.5 23t133 7.5h82q85 0 136.5 -8.5t79.5 -28t37 -50t9 -75.5q0 -39 -10 -65.5
t-38.5 -42.5t-80 -23t-133.5 -7h-116q-86 0 -144.5 -12t-94.5 -37.5t-52 -64.5t-16 -93v-119h754v72h-681v48q0 33 8.5 57.5t34.5 41.5t73 25.5t125 8.5h111z" />
    <glyph glyph-name="three" unicode="3" 
d="M359 394v-72h217q39 0 68 -2.5t47.5 -14.5t28 -36t9.5 -66q0 -38 -10 -63.5t-37.5 -40.5t-76.5 -21.5t-127 -6.5h-114q-65 0 -107 6t-67 20.5t-35 38.5t-11 60h-72q1 -54 13.5 -91.5t44 -61t85.5 -33.5t140 -10h136q96 0 156.5 11t94.5 35.5t46.5 63.5t12.5 94
q0 46 -8 75t-21 45.5t-31 24.5t-37 13q19 7 36.5 15t31 24t21.5 41.5t8 67.5q0 52 -13.5 87.5t-48 57t-94.5 30.5t-154 9h-138q-92 0 -147 -15.5t-84.5 -42.5t-39.5 -64t-10 -79h72q1 33 10.5 57.5t34 40t68.5 23.5t115 8h104q83 0 133 -6.5t76.5 -20.5t35 -35t8.5 -50
q0 -36 -10 -59t-29.5 -35.5t-48 -17t-65.5 -4.5h-217z" />
    <glyph glyph-name="four" unicode="4" 
d="M717 222v472h-77l-574 -472v-72h578v-150h73v150h94v72h-94zM644 611v-389h-472z" />
    <glyph glyph-name="five" unicode="5" 
d="M526 0q76 0 129.5 12.5t87 39.5t49 69.5t15.5 102.5v41q0 109 -68 162t-219 53h-199q-88 0 -130.5 -13t-56.5 -33v188h655v72h-727v-332h73q14 23 59.5 34.5t111.5 11.5h240q188 0 188 -150v-34q0 -40 -9 -69t-34.5 -47.5t-70.5 -27t-116 -8.5h-158q-67 0 -110 7.5
t-68 23t-35 39t-11 55.5h-72q0 -101 66.5 -149t215.5 -48h194z" />
    <glyph glyph-name="six" unicode="6" 
d="M558 411h-249q-51 0 -82 -6t-50 -15.5t-28 -21t-15 -23.5v114q0 48 8.5 80.5t29.5 52.5t56.5 28.5t89.5 8.5h220q58 0 96 -8.5t60.5 -24.5t32 -39.5t10.5 -52.5h72q0 50 -16.5 87t-53 61.5t-95.5 36.5t-143 12h-149q-83 0 -139 -13.5t-90.5 -42.5t-49.5 -76t-15 -113
v-208q0 -74 13.5 -121.5t43.5 -76t79 -39.5t120 -11h244q73 0 122 12t79 35.5t42.5 58t12.5 78.5v41q0 43 -13.5 77.5t-44 58.5t-79.5 37t-119 13zM578 72h-292q-84 0 -118 31.5t-34 86.5v30q0 25 8.5 46.5t27 37.5t47.5 25.5t71 9.5h292q42 0 72 -9.5t48.5 -25.5t27 -37.5
t8.5 -46.5v-30q0 -55 -35 -86.5t-123 -31.5z" />
    <glyph glyph-name="seven" unicode="7" 
d="M850 694h-828v-72h720l-620 -622h101l627 628v66z" />
    <glyph glyph-name="eight" unicode="8" 
d="M300 629h283q47 0 78 -7t49 -21t25.5 -34t7.5 -47v-17q0 -29 -8 -50.5t-28 -36t-53.5 -22t-85.5 -7.5h-255q-51 0 -84.5 7.5t-53 22t-27.5 36t-8 50.5v17q0 27 7.5 47t25.5 34t49 21t78 7zM62 498q0 -39 11 -65.5t30 -43.5t43 -24.5t51 -8.5q-27 -1 -51 -9t-43 -25
t-30 -43.5t-11 -65.5v-34q0 -84 55 -131t174 -47h296q123 0 178.5 47t55.5 131v34q0 39 -11 65.5t-29.5 43.5t-43 25t-50.5 9q26 1 50.5 8.5t43 24.5t29.5 43.5t11 65.5v25q0 84 -55.5 131t-178.5 47h-296q-119 0 -174 -47t-55 -131v-25zM743 182q0 -27 -7.5 -47t-25.5 -34
t-49 -21t-78 -7h-283q-47 0 -78 7t-49 21t-25.5 34t-7.5 47v26q0 28 8 50t27.5 36.5t53 22t84.5 7.5h255q52 0 85.5 -7.5t53.5 -22t28 -36.5t8 -50v-26z" />
    <glyph glyph-name="nine" unicode="9" 
d="M314 289h249q51 0 82 6t50 15.5t28 21t15 23.5v-114q0 -48 -8.5 -80.5t-29.5 -52.5t-56.5 -28.5t-89.5 -8.5h-220q-59 0 -96.5 8.5t-60 24.5t-32 39.5t-10.5 52.5h-72q0 -50 16.5 -87t53 -61.5t95.5 -36.5t143 -12h149q83 0 139 13.5t90.5 42.5t49.5 76t15 113v208
q0 73 -13.5 121t-43.5 76.5t-79 39.5t-120 11h-244q-73 0 -122 -12t-79 -35.5t-42.5 -58t-12.5 -78.5v-41q0 -44 13.5 -78.5t44 -58.5t79.5 -36.5t119 -12.5zM294 628h292q84 0 118 -31.5t34 -86.5v-30q0 -25 -8.5 -46.5t-27 -37.5t-47.5 -25.5t-71 -9.5h-292q-42 0 -72 9.5
t-48.5 25.5t-27 37.5t-8.5 46.5v30q0 27 8 49t26.5 37.5t49 23.5t74.5 8z" />
    <glyph glyph-name="colon" unicode=":" horiz-adv-x="183" 
d="M59 441v-78h78v78h-78zM59 78v-78h78v78h-78z" />
    <glyph glyph-name="semicolon" unicode=";" horiz-adv-x="183" 
d="M59 441v-78h78v78h-78zM59 76v-78h41v-51q0 -18 -8 -32t-21 -23h38q13 8 20.5 22.5t7.5 32.5v129h-78z" />
    <glyph glyph-name="less" unicode="&#x3c;" horiz-adv-x="367" 
d="M317 500l-286 -194l286 -189v77l-169 112l169 116v78z" />
    <glyph glyph-name="equal" unicode="=" horiz-adv-x="428" 
d="M372 243h-319v-72h319v72zM372 404h-319v-72h319v72z" />
    <glyph glyph-name="greater" unicode="&#x3e;" horiz-adv-x="361" 
d="M52 117l286 189l-286 194v-78l169 -116l-169 -112v-77z" />
    <glyph glyph-name="question" unicode="?" horiz-adv-x="867" 
d="M333 78v-78h78v78h-78zM411 227q0 46 22 64t78 18q77 0 135.5 9t97.5 31t59 59.5t20 94.5q0 52 -13 89.5t-43 61.5t-79 35.5t-121 11.5h-277q-120 0 -183 -48t-63 -149h78q1 29 9 51.5t27.5 37.5t53 22.5t84.5 7.5h271q53 0 87.5 -5.5t55 -19t28.5 -36.5t8 -59
q0 -39 -17.5 -62t-48.5 -35t-74.5 -15.5t-94.5 -3.5q-87 0 -132.5 -36.5t-45.5 -114.5v-69h78v60z" />
    <glyph glyph-name="at" unicode="@" horiz-adv-x="649" 
d="M206 414q0 21 7 41.5t21 37t35 26.5t49 10q22 0 39.5 -8.5t28.5 -22.5t17 -32.5t6 -37.5q0 -21 -7 -41t-20.5 -35.5t-34 -25.5t-48.5 -10q-23 0 -40.5 8.5t-29 22t-17.5 31t-6 36.5zM76 430q0 46 15.5 90.5t47 79t78.5 56t110 21.5q61 0 108 -20t78.5 -53.5t47.5 -77
t16 -90.5q0 -21 -4 -42t-13.5 -38.5t-25 -28t-37.5 -10.5q-24 0 -33 16t-9 36v13t1 13l21 162h-33l-11 -70q-12 31 -38.5 53.5t-75.5 22.5q-38 0 -66 -13.5t-47 -35t-28.5 -48.5t-9.5 -54q0 -25 8 -48.5t24 -42t40.5 -29.5t57.5 -11q29 0 49.5 6t35 16t23.5 22.5t15 26.5
q3 -32 21.5 -51.5t49.5 -19.5q35 0 58.5 13.5t37.5 35.5t19.5 49t5.5 53q0 57 -20 108t-57.5 89t-90 60t-118.5 22q-72 0 -125.5 -24.5t-89.5 -64t-54 -90.5t-18 -104t17.5 -103t53 -89t89 -63t124.5 -24q32 0 62.5 6t56 15t44 20.5t27.5 23.5l-22 27q-9 -12 -26.5 -22.5
t-40 -18.5t-48 -12.5t-50.5 -4.5q-63 0 -110 21t-78.5 56t-47 79t-15.5 91z" />
    <glyph glyph-name="A" unicode="A" horiz-adv-x="842" 
d="M367 694l-360 -694h81l86 167h494l86 -167h84l-360 694h-111zM422 643l209 -404h-418z" />
    <glyph glyph-name="B" unicode="B" horiz-adv-x="879" 
d="M562 694h-500v-694h534q60 0 105.5 10t76.5 34t46.5 63t15.5 97q0 44 -10 73.5t-24.5 48t-32 28t-32.5 15.5q15 8 26.5 18.5t19.5 28t12.5 42.5t4.5 63q0 89 -58.5 131t-183.5 42zM134 400v222h456q78 0 110 -28.5t32 -85.5q0 -33 -9 -54t-27 -33t-44.5 -16.5t-60.5 -4.5
h-457zM134 72v256h484q78 0 114 -27.5t36 -97.5q0 -72 -36.5 -101.5t-108.5 -29.5h-489z" />
    <glyph glyph-name="C" unicode="C" horiz-adv-x="903" 
d="M40 318q0 -98 13.5 -160t48 -97t93.5 -48t149 -13h261q69 0 116.5 12.5t77 37t42.5 61t13 85.5h-72q0 -33 -9.5 -56.5t-30.5 -39t-55.5 -22.5t-84.5 -7h-266q-70 0 -114 8.5t-68.5 34.5t-33 74.5t-8.5 129.5v64q0 79 10 127.5t37 75t74 35.5t121 9h248q51 0 85.5 -8.5
t55.5 -24.5t29.5 -39.5t8.5 -52.5h72q0 101 -62 149t-189 48h-238q-93 0 -155.5 -14t-100 -50t-53 -98t-15.5 -158v-63z" />
    <glyph glyph-name="D" unicode="D" horiz-adv-x="894" 
d="M782 318q0 -83 -7.5 -131.5t-31.5 -74t-68 -33t-117 -7.5h-418v550h400q74 0 121 -9t74 -35.5t37 -75t10 -127.5v-57zM68 0h482q91 0 150 12.5t93.5 47.5t47.5 97t13 161v56q0 96 -15.5 158t-53 98t-100 50t-155.5 14h-462v-694z" />
    <glyph glyph-name="E" unicode="E" horiz-adv-x="736" 
d="M59 694v-694h617v72h-545v250h528v72h-528v228h545v72h-617z" />
    <glyph glyph-name="F" unicode="F" horiz-adv-x="736" 
d="M59 694v-694h72v322h528v72h-528v228h545v72h-617z" />
    <glyph glyph-name="G" unicode="G" horiz-adv-x="894" 
d="M48 318q0 -98 13.5 -160t48 -97t93.5 -48t149 -13h257q81 0 130.5 14t76.5 50.5t36 100.5t9 164h-418v-72h340q0 -60 -8 -96.5t-27.5 -56.5t-53 -26.5t-85.5 -6.5h-265q-70 0 -114 8.5t-68.5 34.5t-33 74.5t-8.5 129.5v64q0 79 10 127.5t37 75t74 35.5t121 9h247
q51 0 85.5 -8.5t55 -24.5t29 -39.5t9.5 -52.5h72q0 101 -62 149t-189 48h-237q-93 0 -155.5 -14t-100 -50t-53 -98t-15.5 -158v-63z" />
    <glyph glyph-name="H" unicode="H" horiz-adv-x="871" 
d="M67 694v-694h72v322h617v-322h72v694h-72v-300h-617v300h-72z" />
    <glyph glyph-name="I" unicode="I" horiz-adv-x="272" 
d="M101 0h72v694h-72v-694z" />
    <glyph glyph-name="J" unicode="J" horiz-adv-x="780" 
d="M109 232h-72v-52q0 -42 14 -75.5t44.5 -56.5t79.5 -35.5t119 -12.5h188q75 0 124 14.5t78 45t40.5 77t11.5 110.5v447h-73v-482q0 -74 -42 -107t-139 -33h-188q-53 0 -88 8.5t-57 24.5t-31 39t-9 53v35z" />
    <glyph glyph-name="K" unicode="K" horiz-adv-x="839" 
d="M49 694v-694h72v342h119l437 -342h117l-486 377l491 317h-116l-445 -287h-117v287h-72z" />
    <glyph glyph-name="L" unicode="L" horiz-adv-x="710" 
d="M67 694v-694h594v72h-522v622h-72z" />
    <glyph glyph-name="M" unicode="M" horiz-adv-x="1124" 
d="M57 694v-694h72v639h39l366 -639h50l373 639h39v-639h72v694h-155l-351 -592l-342 592h-163z" />
    <glyph glyph-name="N" unicode="N" horiz-adv-x="874" 
d="M58 694v-694h72v639h39l551 -639h104v694h-72v-622l-535 622h-159z" />
    <glyph glyph-name="O" unicode="O" horiz-adv-x="906" 
d="M792 318q0 -83 -8.5 -131.5t-37.5 -74t-84 -32.5t-149 -7h-109q-94 0 -149.5 7t-84.5 32.5t-37.5 74t-8.5 131.5v60q0 84 8.5 133t37.5 74.5t84.5 32.5t149.5 7h109q62 0 107 -3t76 -11.5t50 -25t29 -44t13.5 -67.5t3.5 -96v-60zM404 0h110q109 0 177 12.5t106.5 47.5
t52.5 97t14 161v60q0 99 -14 161.5t-52.5 98t-106.5 48t-177 12.5h-110q-110 0 -178.5 -12.5t-107 -48t-52.5 -98t-14 -161.5v-60q0 -99 14 -161t52.5 -97t107 -47.5t178.5 -12.5z" />
    <glyph glyph-name="P" unicode="P" horiz-adv-x="811" 
d="M772 516q0 84 -55.5 131t-178.5 47h-481v-694h77v298h404q123 0 178.5 47t55.5 131v40zM134 622h400q47 0 78 -7t49 -21t25.5 -34t7.5 -47v-34q0 -27 -7.5 -47t-25.5 -34t-49 -21t-78 -7h-400v252z" />
    <glyph glyph-name="Q" unicode="Q" horiz-adv-x="906" 
d="M482 242l231 -149q-32 -13 -80.5 -16.5t-119.5 -3.5h-109q-94 0 -149.5 7t-84.5 32.5t-37.5 74t-8.5 131.5v60q0 84 8.5 133t37.5 74.5t84.5 32.5t149.5 7h109q62 0 107 -3t76 -11.5t50 -25t29 -44t13.5 -67.5t3.5 -96v-60q0 -64 -4.5 -106.5t-18.5 -69.5l-247 160z
M514 0q100 0 164 10t104 38l74 -48l40 60l-66 42q20 37 27 89.5t7 126.5v60q0 99 -14 161.5t-52.5 98t-106.5 48t-177 12.5h-110q-110 0 -178.5 -12.5t-107 -48t-52.5 -98t-14 -161.5v-60q0 -99 14 -161t52.5 -97t107 -47.5t178.5 -12.5h110z" />
    <glyph glyph-name="R" unicode="R" horiz-adv-x="887" 
d="M136 400v217h455q77 0 109.5 -30t32.5 -79q0 -52 -32.5 -80t-114.5 -28h-450zM806 513q0 92 -55.5 136.5t-178.5 44.5h-509v-694h73v322h477q45 0 74 -6t46 -20t23.5 -37t6.5 -56v-203h78v204q0 45 -9.5 76t-24 51.5t-32.5 31t-35 13.5q13 5 25 13.5t21 24t14.5 39.5
t5.5 60z" />
    <glyph glyph-name="S" unicode="S" horiz-adv-x="914" 
d="M266 694q-108 0 -160.5 -44t-52.5 -142q0 -47 10.5 -81t40.5 -56t83 -33t138 -13l243 -6q73 -2 118.5 -8.5t70.5 -20.5t33.5 -36.5t8.5 -55.5q0 -71 -39 -98.5t-121 -27.5h-329q-51 0 -85.5 8.5t-55 24.5t-29 39.5t-9.5 52.5h-72q0 -101 61.5 -149t165.5 -48h357
q60 0 103 10t71 33t41 60.5t13 92.5q0 53 -15 89t-51.5 59t-99 34t-157.5 13l-215 5q-67 1 -108 7t-63 18.5t-29 33t-7 52.5q0 28 5.5 49.5t21 36t42 22t68.5 7.5h351q51 0 85.5 -8.5t55 -24.5t29 -39t9.5 -52h73q0 99 -60 147.5t-176 48.5h-364z" />
    <glyph glyph-name="T" unicode="T" horiz-adv-x="790" 
d="M771 694h-750v-72h339v-622h72v622h339v72z" />
    <glyph glyph-name="U" unicode="U" horiz-adv-x="916" 
d="M412 73q-94 0 -149.5 7t-84.5 32.5t-37.5 74t-8.5 131.5v376h-72v-376q0 -99 14 -161t52.5 -97t107 -47.5t178.5 -12.5h108q109 0 177 12.5t106.5 47.5t52.5 97t14 161v376h-72v-376q0 -83 -8.5 -131.5t-37.5 -74t-84 -32.5t-149 -7h-107z" />
    <glyph glyph-name="V" unicode="V" horiz-adv-x="823" 
d="M90 694h-83l360 -694h102l360 694h-83l-320 -616h-17z" />
    <glyph glyph-name="W" unicode="W" horiz-adv-x="1272" 
d="M400 0l233 614l237 -614h107l286 694h-83l-247 -621h-16l-243 621h-83l-241 -621h-16l-246 621h-84l284 -694h112z" />
    <glyph glyph-name="X" unicode="X" horiz-adv-x="847" 
d="M128 694h-100l330 -327l-365 -367h100l328 333l335 -333h95l-367 367l326 327h-96l-293 -294z" />
    <glyph glyph-name="Y" unicode="Y" horiz-adv-x="799" 
d="M102 694h-101l361 -362v-332h78v332l361 362h-101l-299 -300z" />
    <glyph glyph-name="Z" unicode="Z" horiz-adv-x="782" 
d="M739 694h-691v-72h566l-566 -566v-56h691v72h-561l561 567v55z" />
    <glyph glyph-name="bracketleft" unicode="[" horiz-adv-x="253" 
d="M204 723v38h-140v-872l144 -1v36l-77 2v797h73z" />
    <glyph glyph-name="backslash" unicode="\" horiz-adv-x="306" 
d="M314 -89l-222 817h-78l223 -817h77z" />
    <glyph glyph-name="bracketright" unicode="]" horiz-adv-x="253" 
d="M193 -111v872h-140v-38h74v-797l-77 -2v-36z" />
    <glyph glyph-name="asciicircum" unicode="^" horiz-adv-x="387" 
d="M173 668l-146 -257h32l134 197l134 -197h33l-147 257h-40z" />
    <glyph glyph-name="underscore" unicode="_" horiz-adv-x="389" 
d="M389 -1h-388v-39h388v39z" />
    <glyph glyph-name="grave" unicode="`" horiz-adv-x="271" 
d="M204 567l27 25l-154 136l-41 -49z" />
    <glyph glyph-name="a" unicode="a" horiz-adv-x="718" 
d="M192 302q-81 0 -118 -32.5t-37 -83.5v-60q0 -65 37.5 -95.5t114.5 -30.5h314q35 0 55 11.5t34 27.5v-39h72v320q0 40 -10.5 72.5t-33 55t-58 34.5t-85.5 12h-236q-85 0 -131.5 -35t-46.5 -96v-12h74v12q0 30 29.5 50t93.5 20h210q65 0 93 -29.5t28 -72.5v-70
q-5 17 -27 29t-64 12h-308zM481 241q53 0 81 -21.5t28 -68.5t-26 -68.5t-83 -21.5h-264q-32 0 -53 5t-33 14.5t-17 22.5t-5 30v36q0 18 4 31.5t16 22.5t33 13.5t55 4.5h264z" />
    <glyph glyph-name="b" unicode="b" horiz-adv-x="716" 
d="M123 54q11 -11 23 -21t28 -17.5t38 -12t55 -4.5h194q109 0 159.5 51t50.5 143v108q0 44 -13 80t-39.5 61.5t-66 39.5t-91.5 14h-194q-65 0 -97.5 -17t-46.5 -39v254h-72v-694h72v54zM276 60q-40 0 -69 10t-48 28t-28.5 42.5t-9.5 52.5v108q0 57 37.5 95t117.5 38h160
q85 0 124 -34.5t39 -98.5v-108q0 -69 -38 -101t-125 -32h-160z" />
    <glyph glyph-name="c" unicode="c" horiz-adv-x="708" 
d="M600 175q0 -114 -137 -114h-222q-26 0 -49 7.5t-40 23t-27.5 38.5t-10.5 53v123q0 66 35 97t98 31h216q75 0 106 -31t31 -82h72q0 84 -51.5 129.5t-157.5 45.5h-216q-52 0 -90.5 -15t-64 -40.5t-38 -60t-12.5 -74.5v-123q0 -85 48 -134t151 -49h222q61 0 101.5 14.5
t64.5 39t33.5 56t9.5 65.5h-72z" />
    <glyph glyph-name="d" unicode="d" horiz-adv-x="716" 
d="M47 193q0 -97 53.5 -145.5t156.5 -48.5h194q36 0 60 4t39.5 10.5t25.5 15.5t18 19v-48h73v694h-73v-254q-7 11 -15.5 21t-23.5 18t-40 12.5t-64 4.5h-194q-54 0 -93.5 -14.5t-65.5 -40.5t-38.5 -62t-12.5 -78v-108zM442 434q80 0 117.5 -38t37.5 -95v-108
q0 -28 -9.5 -52.5t-28.5 -42.5t-48 -28t-69 -10h-160q-83 0 -123 32t-40 101v108q0 64 38 98.5t125 34.5h160z" />
    <glyph glyph-name="e" unicode="e" horiz-adv-x="724" 
d="M474 434q63 0 98.5 -34.5t35.5 -88.5h-486q0 54 34.5 88.5t91.5 34.5h226zM261 0h242q51 0 85 14.5t54 36.5t28.5 48t8.5 49v10h-72v-10q0 -35 -27 -61t-86 -26h-235q-30 0 -55 6.5t-43 22t-28.5 41t-10.5 63.5v56h557v72q0 34 -13 65.5t-39.5 55.5t-66.5 38.5t-93 14.5
h-208q-51 0 -90 -16t-65.5 -42.5t-40 -61.5t-13.5 -73v-118q0 -92 51 -138.5t160 -46.5z" />
    <glyph glyph-name="f" unicode="f" horiz-adv-x="390" 
d="M363 498h-212v10q0 66 27 90t79 24h105v72h-105q-85 0 -131.5 -44.5t-46.5 -139.5v-12h-61v-72h61v-426h72v426h212v72z" />
    <glyph glyph-name="g" unicode="g" horiz-adv-x="729" 
d="M258 494q-104 0 -153 -51t-49 -145v-114q0 -93 50.5 -138.5t159.5 -45.5h203q37 0 61.5 5t40.5 13t24 18.5t13 21.5v-92q0 -60 -35 -88t-109 -28h-186q-64 0 -92 21.5t-28 49.5h-78q0 -60 51 -96t139 -36h199q59 0 99.5 11.5t65 33t35.5 54t11 74.5v532h-72v-54
q-8 10 -18 19.5t-25.5 17t-39 12.5t-59.5 5h-208zM456 434q79 0 116.5 -39.5t37.5 -106.5v-95q0 -28 -9.5 -52.5t-29 -42.5t-48 -28t-67.5 -10h-165q-83 0 -123 31.5t-40 101.5v99q0 75 37 108.5t126 33.5h165z" />
    <glyph glyph-name="h" unicode="h" horiz-adv-x="722" 
d="M459 494h-190q-35 0 -59.5 -6t-41 -15.5t-27.5 -22.5t-18 -27v271h-72v-695h75v301q0 66 39.5 101t103.5 35h190q63 0 103 -35t40 -101v-301h72v301q0 40 -11.5 75t-37 61.5t-66.5 42t-100 15.5z" />
    <glyph glyph-name="i" unicode="i" horiz-adv-x="222" 
d="M149 494h-72v-494h72v494zM149 694h-72v-72h72v72z" />
    <glyph glyph-name="j" unicode="j" horiz-adv-x="277" 
d="M109 494v-550q0 -45 -21.5 -64.5t-70.5 -19.5v-72q82 0 123 34t41 109v563h-72zM181 694h-72v-72h72v72z" />
    <glyph glyph-name="k" unicode="k" horiz-adv-x="609" 
d="M57 694v-694h72v261h119l266 -261h100l-302 298l264 196h-106l-224 -161h-117v361h-72z" />
    <glyph glyph-name="l" unicode="l" horiz-adv-x="234" 
d="M156 694h-72v-694h72v694z" />
    <glyph glyph-name="m" unicode="m" horiz-adv-x="1264" 
d="M1007 494h-184q-49 0 -81 -8.5t-52.5 -22.5t-32 -31.5t-19.5 -35.5q-8 19 -20.5 36.5t-33.5 31t-54 22t-82 8.5h-170q-71 0 -107 -22.5t-50 -53.5v76h-72v-494h72v302q0 22 9 45.5t29 42.5t52 31t79 12h149q35 0 64.5 -8t51 -24.5t33.5 -41.5t12 -59v-300h72v298
q0 71 45.5 103t126.5 32h145q79 0 121 -33t42 -98v-302h72v318q0 36 -14 68t-42 56t-68.5 38t-92.5 14z" />
    <glyph glyph-name="n" unicode="n" horiz-adv-x="732" 
d="M464 494h-190q-60 0 -94 -21t-51 -59v80h-72v-494h72v298q0 30 11 55t30 42.5t45.5 27.5t58.5 10h190q64 0 104 -35t40 -100v-298h72v287q0 42 -11 79.5t-36.5 66t-66.5 45t-102 16.5z" />
    <glyph glyph-name="o" unicode="o" horiz-adv-x="712" 
d="M259 496q-59 0 -100 -14.5t-66.5 -40.5t-37.5 -62t-12 -78v-108q0 -95 53 -144.5t163 -49.5h199q60 0 101 15.5t66.5 42.5t36.5 62t11 74v108q0 38 -10.5 73.5t-35.5 62.5t-66.5 43t-102.5 16h-199zM116 193v108q0 72 37.5 102.5t112.5 30.5h185q73 0 111.5 -33.5
t38.5 -98.5v-109q0 -72 -40.5 -102.5t-109.5 -30.5h-185q-150 0 -150 133z" />
    <glyph glyph-name="p" unicode="p" horiz-adv-x="714" 
d="M263 496q-48 0 -82.5 -12.5t-57.5 -35.5v46h-72v-695h72v245q24 -22 58.5 -33.5t81.5 -11.5h195q60 0 101 15.5t66.5 42.5t36.5 62t11 74v108q0 38 -10.5 73.5t-35.5 62.5t-66.5 43t-102.5 16h-195zM120 193v108q0 72 37.5 102.5t112.5 30.5h181q73 0 111.5 -33.5
t38.5 -98.5v-109q0 -72 -40.5 -102.5t-109.5 -30.5h-181q-150 0 -150 133z" />
    <glyph glyph-name="q" unicode="q" horiz-adv-x="721" 
d="M601 494v-46q-23 23 -57.5 35.5t-82.5 12.5h-195q-62 0 -103 -16t-66 -43t-35.5 -62.5t-10.5 -73.5v-108q0 -39 11 -74t36.5 -62t66.5 -42.5t101 -15.5h195q47 0 81.5 11.5t58.5 33.5v-245h72v695h-72zM454 434q75 0 112.5 -30.5t37.5 -102.5v-108q0 -133 -150 -133h-181
q-69 0 -109.5 30.5t-40.5 102.5v109q0 65 38.5 98.5t111.5 33.5h181z" />
    <glyph glyph-name="r" unicode="r" horiz-adv-x="714" 
d="M274 496q-60 0 -93.5 -17t-49.5 -48v63h-71v-494h71v301q0 72 37.5 102.5t112.5 30.5h178q73 0 111.5 -34t38.5 -99h72q0 38 -10.5 73.5t-35.5 62.5t-66.5 43t-102.5 16h-192z" />
    <glyph glyph-name="s" unicode="s" horiz-adv-x="720" 
d="M48 122q0 -24 7 -46t25.5 -39t50.5 -27t82 -10h281q93 0 135 33.5t42 87.5v28q0 69 -44 99t-125 32l-288 6q-45 1 -69.5 14t-24.5 47v21q0 66 94 66h281q36 0 57 -6t32.5 -16t14.5 -22.5t3 -25.5v-25h72v34q0 21 -7.5 42.5t-28 39.5t-57.5 29.5t-96 11.5h-264
q-89 0 -130.5 -36t-41.5 -90v-23q0 -68 45 -94.5t125 -27.5l287 -6q45 -1 69.5 -19t24.5 -51v-21q0 -34 -28 -51t-80 -17h-269q-31 0 -51 5t-31.5 14t-16 22t-4.5 30v26h-72v-35z" />
    <glyph glyph-name="t" unicode="t" horiz-adv-x="582" 
d="M253 61q-45 0 -75 26.5t-30 87.5v247h372v72h-372v95h-72v-95h-62v-72h62v-238q0 -95 47.5 -139.5t129.5 -44.5h143q49 0 82.5 12.5t54.5 32t30 43t9 44.5h-78q0 -9 -4.5 -21.5t-16 -23.5t-32 -18.5t-51.5 -7.5h-137z" />
    <glyph glyph-name="u" unicode="u" horiz-adv-x="726" 
d="M269 0h194q34 0 58.5 6t41.5 15t28 19.5t18 18.5v-59h70v494h-72v-309q0 -32 -12 -55t-32 -38.5t-46 -23t-54 -7.5h-194q-67 0 -105 31.5t-38 95.5v306h-73v-300q0 -91 51 -142.5t165 -51.5z" />
    <glyph glyph-name="v" unicode="v" horiz-adv-x="627" 
d="M86 494h-80l264 -494h94l263 494h-80l-223 -416h-16z" />
    <glyph glyph-name="w" unicode="w" horiz-adv-x="1171" 
d="M362 0l226 424l226 -424h95l262 494h-80l-222 -416h-17l-222 416h-86l-222 -416h-16l-223 416h-80l265 -494h94z" />
    <glyph glyph-name="x" unicode="x" horiz-adv-x="632" 
d="M132 494h-89l228 -227l-265 -267h86l224 222l221 -222h90l-267 267l228 227h-89l-182 -183z" />
    <glyph glyph-name="y" unicode="y" horiz-adv-x="628" 
d="M81 494h-80l265 -494q-15 -30 -36 -55.5t-45.5 -43.5t-50.5 -28.5t-51 -10.5v-73q56 0 100 22.5t77.5 55.5t57 69.5t38.5 63.5l266 494h-80l-222 -416h-17z" />
    <glyph glyph-name="z" unicode="z" horiz-adv-x="623" 
d="M572 494h-529v-61h416l-420 -377v-56h533v61h-419l419 378v55z" />
    <glyph glyph-name="braceleft" unicode="{" horiz-adv-x="283" 
d="M152 421v179q0 50 21.5 73.5t73.5 23.5v55q-42 0 -70.5 -11t-46 -31t-25.5 -48t-8 -62v-179q0 -24 -6.5 -41.5t-16.5 -31t-21.5 -23.5t-21.5 -17q11 -8 22.5 -18.5t21.5 -24.5t16 -31.5t6 -38.5v-179q0 -75 39.5 -111.5t111.5 -36.5v55q-51 0 -73.5 22.5t-22.5 70.5v175
q0 44 -18 71.5t-42 45.5q13 8 24 17.5t19 22.5t12.5 30.5t4.5 42.5z" />
    <glyph glyph-name="bar" unicode="|" horiz-adv-x="167" 
d="M114 -133v872h-55v-872h55z" />
    <glyph glyph-name="braceright" unicode="}" horiz-adv-x="283" 
d="M49 697q52 0 73.5 -23.5t21.5 -73.5v-179q0 -25 4.5 -42.5t12.5 -30.5t19 -22.5t24 -17.5q-24 -18 -42 -45.5t-18 -71.5v-175q0 -48 -22.5 -70.5t-73.5 -22.5v-55q74 0 112.5 36.5t38.5 111.5v179q0 21 6 38.5t16 31.5t21.5 24.5t22.5 18.5q-10 7 -21.5 17t-21.5 23.5
t-16.5 31t-6.5 41.5v179q0 34 -8 62t-25.5 48t-46 31t-70.5 11v-55z" />
    <glyph glyph-name="asciitilde" unicode="~" horiz-adv-x="551" 
d="M82 344h67q3 17 17 33.5t43 16.5t45 -7.5t30 -17.5q15 -10 34 -18.5t54 -8.5q36 0 60.5 11.5t39.5 27.5t22 33.5t8 29.5h-66q-2 -7 -4.5 -15.5t-9.5 -15.5t-19 -12t-31 -5q-26 0 -40.5 9t-29.5 19q-15 9 -34 16t-50 7q-34 0 -58.5 -11t-40.5 -26.5t-25 -33.5t-12 -32z
" />
    <glyph glyph-name="exclamdown" unicode="&#xa1;" horiz-adv-x="256" 
d="M169 383h-72v-527h72v527zM169 472v78h-72v-78h72z" />
    <glyph glyph-name="cent" unicode="&#xa2;" horiz-adv-x="787" 
d="M531 141h-100v375h91q30 0 52.5 -10t37.5 -26t22.5 -36.5t7.5 -42.5h72q0 34 -10.5 65.5t-34 56t-61 39t-91.5 14.5h-86v64h-71v-64h-88q-44 0 -78.5 -14.5t-59 -39t-37.5 -57t-13 -69.5v-143q0 -38 12 -69.5t35 -54.5t56 -36t74 -13h99v-56h71v56h98q50 0 85.5 15
t57.5 39.5t32 56t10 63.5h-72q0 -17 -6 -37t-19.5 -37t-34.5 -28t-51 -11zM289 516h71v-375h-77q-60 0 -93 32t-33 89v119q0 66 36 100.5t96 34.5z" />
    <glyph glyph-name="sterling" unicode="&#xa3;" horiz-adv-x="782" 
d="M260 628h316q51 0 79 -24t29 -66h67q0 41 -12.5 70.5t-35.5 48.5t-55.5 28t-71.5 9h-309q-47 0 -82.5 -13t-59 -35t-35.5 -51t-12 -62q0 -39 7.5 -62.5t18.5 -41.5q14 -21 29 -41t23 -56h-103v-72h114q-5 -33 -14 -58t-23.5 -46.5t-35.5 -41.5t-51 -42v-72h698v72h-603
q25 20 42 40t28.5 42.5t18 48t11.5 57.5h426v72h-434q-8 35 -20 56.5t-25 40.5q-11 19 -20 41t-9 58q0 48 27 74t77 26z" />
    <glyph glyph-name="yen" unicode="&#xa5;" horiz-adv-x="844" 
d="M122 694h-100l364 -364h-167v-56h164v-44h-164v-56h164v-174h78v174h167v56h-167v44h167v56h-167l361 364h-100l-300 -300z" />
    <glyph glyph-name="brokenbar" unicode="&#xa6;" horiz-adv-x="167" 
d="M114 452v287h-55v-287h55zM114 0v287h-55v-287h55z" />
    <glyph glyph-name="section" unicode="&#xa7;" horiz-adv-x="751" 
d="M666 340v-42q0 -21 -5.5 -37.5t-18.5 -28.5t-35.5 -18.5t-55.5 -6.5h-390q-37 0 -55.5 21t-18.5 56v36q0 45 20.5 72t70.5 27h405q40 0 61.5 -24t21.5 -55zM673 84q0 33 -10.5 50t-25.5 29q45 8 66 44t21 80v64q0 29 -11 52.5t-30 40.5t-45.5 26.5t-57.5 9.5h-372
q-38 0 -56.5 17t-18.5 61q0 38 18.5 57t62.5 19h295q54 0 76.5 -22t22.5 -63v-10h63v10q0 30 -8.5 57t-27.5 47t-48.5 31.5t-72.5 11.5h-293q-76 0 -112.5 -36.5t-36.5 -91.5v-34q0 -36 9.5 -50t22.5 -24q-11 -3 -24.5 -13t-25.5 -25.5t-20 -37t-8 -48.5v-60q0 -29 10 -53
t27 -41t41 -26.5t53 -9.5h379q35 0 55.5 -22.5t20.5 -56.5q0 -43 -21 -61.5t-55 -18.5h-310q-43 0 -68.5 23.5t-25.5 62.5v10h-61v-10q0 -30 10 -57t29.5 -47t47 -31.5t63.5 -11.5h303q68 0 108.5 33.5t40.5 89.5v35z" />
    <glyph glyph-name="dieresis" unicode="&#xa8;" horiz-adv-x="339" 
d="M120 694h-72v-72h72v72zM298 694h-72v-72h72v72z" />
    <glyph glyph-name="copyright" unicode="&#xa9;" horiz-adv-x="640" 
d="M210 360q0 22 7.5 43.5t22 37.5t37 26t52.5 10q40 0 64.5 -13.5t38.5 -23.5v24q-14 10 -39.5 22.5t-63.5 12.5q-36 0 -62.5 -12.5t-44 -32t-26.5 -44.5t-9 -50q0 -26 9 -49t27 -40t44.5 -27.5t61.5 -10.5q44 0 66.5 11.5t36.5 22.5v26q-17 -14 -40.5 -26.5t-62.5 -12.5
q-59 0 -89 31.5t-30 74.5zM63 364q0 55 20.5 103t56.5 84t84 56.5t103 20.5t103 -20.5t84 -56.5t56.5 -84t20.5 -103t-20.5 -103t-56.5 -84t-84 -56.5t-103 -20.5t-103 20.5t-84 56.5t-56.5 84t-20.5 103zM614 363q0 59 -22.5 111t-61.5 91t-91 61.5t-111 22.5t-111 -22.5
t-91 -61.5t-61.5 -91t-22.5 -111t22.5 -111t61.5 -91t91 -61.5t111 -22.5t111 22.5t91 61.5t61.5 91t22.5 111z" />
    <glyph glyph-name="ordfeminine" unicode="&#xaa;" horiz-adv-x="384" 
d="M351 336h-312v-38h312v38zM112 532q-41 0 -59 -16t-18 -42v-30q0 -64 76 -64h158q17 0 27 6t17 14v-20h37v161q0 41 -21.5 64.5t-72.5 23.5h-119q-42 0 -65.5 -17.5t-23.5 -48.5v-6h37v6q0 15 15 25t47 10h105q32 0 46.5 -14.5t14.5 -36.5v-35q-3 8 -14 14t-32 6h-155z
M258 501q54 0 54 -45q0 -23 -12.5 -34t-41.5 -11h-133q-32 0 -43 9.5t-11 26.5v18q0 18 10 27t44 9h133z" />
    <glyph glyph-name="guillemotleft" unicode="&#xab;" horiz-adv-x="544" 
d="M253 76l34 33l-169 169l172 172l-33 33l-206 -205zM433 76l34 33l-169 169l172 172l-33 33l-206 -205z" />
    <glyph glyph-name="logicalnot" unicode="&#xac;" horiz-adv-x="482" 
d="M441 382h-388v-30h388v30zM255 413h35v312h-50l-92 -93l22 -23l85 84v-280zM81 222q0 -35 18.5 -49t42.5 -15q-24 -1 -42.5 -15t-18.5 -49v-15q0 -38 25 -59t79 -21h133q55 0 80 21t25 59v15q0 35 -18.5 49t-41.5 15q23 1 41.5 15t18.5 49v11q0 38 -25 59t-80 21h-133
q-54 0 -79 -21t-25 -59v-11zM189 281h127q43 0 57.5 -12.5t14.5 -36.5v-8q0 -26 -16 -39t-63 -13h-115q-46 0 -61.5 13t-15.5 39v8q0 24 14.5 36.5t57.5 12.5zM388 80q0 -24 -14.5 -36.5t-57.5 -12.5h-127q-43 0 -57.5 12.5t-14.5 36.5v12q0 26 15.5 39t61.5 13h115
q47 0 63 -13t16 -39v-12z" />
    <glyph glyph-name="registered" unicode="&#xae;" horiz-adv-x="393" 
d="M265 585q0 21 -14 35t-37 14h-70v-182h14v84h31l58 -84h18l-59 84h8q23 0 37 12t14 37zM251 585q0 -35 -36 -35h-57v70h57q18 0 27 -10.5t9 -24.5zM357 539q0 33 -12.5 61.5t-34 50t-50 34t-61.5 12.5t-61.5 -12.5t-50 -34t-34 -50t-12.5 -61.5t12.5 -61.5t34 -50t50 -34
t61.5 -12.5t61.5 12.5t50 34t34 50t12.5 61.5zM56 539q0 30 11 56t30.5 45.5t45.5 30.5t56 11t56 -11t45.5 -30.5t30.5 -45.5t11 -56t-11 -56t-30.5 -45.5t-45.5 -30.5t-56 -11t-56 11t-45.5 30.5t-30.5 45.5t-11 56z" />
    <glyph glyph-name="macron" unicode="&#xaf;" horiz-adv-x="467" 
d="M428 603h-388v-39h388v39z" />
    <glyph glyph-name="degree" unicode="&#xb0;" horiz-adv-x="272" 
d="M118 666q-37 0 -51.5 -18t-14.5 -41v-33q0 -23 15.5 -40t50.5 -17h54q35 0 50 17t15 40v33q0 23 -15 41t-50 18h-54zM74 574v33q0 20 12 28t32 8h54q19 0 30.5 -8t11.5 -28v-33q0 -19 -11.5 -27.5t-30.5 -8.5h-54q-20 0 -32 8.5t-12 27.5z" />
    <glyph glyph-name="plusminus" unicode="&#xb1;" horiz-adv-x="439" 
d="M372 220h-319v-72h319v72zM180 454h-144v-66h144v-145h67v145h144v66h-144v145h-67v-145z" />
    <glyph glyph-name="twosuperior" unicode="&#xb2;" horiz-adv-x="482" 
d="M270 527q48 0 77.5 5.5t45.5 17t21.5 29.5t5.5 43q0 29 -6 49t-23 32.5t-46.5 18t-75.5 5.5h-37q-42 0 -71 -5t-46.5 -16t-25 -27.5t-7.5 -38.5h35q0 13 4.5 23.5t16.5 17.5t34.5 10.5t59.5 3.5h37q38 0 61.5 -4t36 -12.5t16.5 -22.5t4 -34q0 -18 -4.5 -29.5t-17.5 -19
t-36 -10.5t-60 -3h-52q-77 0 -107.5 -22.5t-30.5 -70.5v-54h339v32h-306v22q0 15 4 26t15.5 18.5t32.5 11.5t56 4h50z" />
    <glyph glyph-name="threesuperior" unicode="&#xb3;" horiz-adv-x="482" 
d="M221 593v-32h98q18 0 31 -1.5t21.5 -6.5t12.5 -16t4 -30q0 -17 -4.5 -28.5t-17 -18.5t-34.5 -9.5t-57 -2.5h-51q-30 0 -49 2.5t-30 9t-15.5 17.5t-4.5 27h-33q1 -24 6.5 -41t19.5 -27.5t38.5 -15t63.5 -4.5h61q43 0 70 5t42.5 16t21 28.5t5.5 42.5q0 21 -3.5 33.5
t-9.5 20t-13.5 11t-16.5 6.5q9 3 16.5 6.5t13.5 10.5t9.5 18.5t3.5 30.5q0 24 -6 39.5t-21.5 25.5t-42.5 14t-69 4h-62q-41 0 -66 -7t-38.5 -19t-18 -28.5t-4.5 -35.5h33q0 15 4.5 25.5t15.5 18t30.5 11t51.5 3.5h47q37 0 59.5 -3t34.5 -9.5t16 -16t4 -22.5q0 -32 -18 -42
t-51 -10h-98z" />
    <glyph glyph-name="acute" unicode="&#xb4;" horiz-adv-x="236" 
d="M217 679l-41 49l-152 -134l24 -27z" />
    <glyph glyph-name="mu" unicode="&#xb5;" horiz-adv-x="482" 
d="M441 378h-388v-30h388v30zM270 116q48 0 77.5 5.5t45.5 17t21.5 29.5t5.5 43q0 29 -6 49t-23 32.5t-46.5 18t-75.5 5.5h-37q-42 0 -71 -5t-46.5 -16t-25 -27.5t-7.5 -38.5h35q0 13 4.5 23.5t16.5 17.5t34.5 10.5t59.5 3.5h37q38 0 61.5 -4t36 -12.5t16.5 -22.5t4 -34
q0 -18 -4.5 -29.5t-17.5 -19t-36 -10.5t-60 -3h-52q-77 0 -107.5 -22.5t-30.5 -70.5v-54h339v32h-306v22q0 15 4 26t15.5 18.5t32.5 11.5t56 4h50zM255 413h35v312h-50l-92 -93l22 -23l85 84v-280z" />
    <glyph glyph-name="paragraph" unicode="&#xb6;" horiz-adv-x="713" 
d="M434 -56h78v750h-228q-126 0 -185 -53.5t-59 -150.5q0 -44 13.5 -79t42.5 -60.5t75 -39t111 -13.5h152v-354zM581 -56h72v750h-72v-750z" />
    <glyph glyph-name="periodcentered" unicode="&#xb7;" horiz-adv-x="191" 
d="M59 378v-78h78v78h-78z" />
    <glyph glyph-name="periodcentered" unicode="&#x2219;" horiz-adv-x="191" 
d="M59 378v-78h78v78h-78z" />
    <glyph glyph-name="cedilla" unicode="&#xb8;" horiz-adv-x="209" 
d="M173 0h-63v-48q0 -18 -14 -27t-52 -9v-64q39 0 64 6t39.5 18t20 29.5t5.5 41.5v53z" />
    <glyph glyph-name="onesuperior" unicode="&#xb9;" horiz-adv-x="312" 
d="M195 413h35v312h-50l-92 -93l22 -23l85 84v-280z" />
    <glyph glyph-name="ordmasculine" unicode="&#xba;" horiz-adv-x="384" 
d="M351 336h-312v-38h312v38zM145 631q-59 0 -83.5 -27.5t-24.5 -69.5v-54q0 -48 26.5 -73t81.5 -25h99q30 0 50.5 8t33.5 21.5t18.5 31t5.5 37.5v54q0 19 -5.5 36.5t-18 31t-33 21.5t-51.5 8h-99zM73 480v54q0 36 19 51t56 15h93q36 0 55.5 -17t19.5 -49v-54
q0 -36 -20.5 -51.5t-54.5 -15.5h-93q-75 0 -75 67z" />
    <glyph glyph-name="guillemotright" unicode="&#xbb;" horiz-adv-x="544" 
d="M79 451l172 -173l-168 -168l34 -32l201 200l-206 205zM264 451l173 -173l-168 -168l33 -32l201 200l-205 205z" />
    <glyph glyph-name="onequarter" unicode="&#xbc;" horiz-adv-x="482" 
d="M441 378h-388v-30h388v30zM363 99v212h-35l-258 -212v-33h260v-67h33v67h42v33h-42zM255 413h35v312h-50l-92 -93l22 -23l85 84v-280zM330 274v-175h-213z" />
    <glyph glyph-name="onehalf" unicode="&#xbd;" horiz-adv-x="482" 
d="M441 378h-388v-30h388v30zM270 116q48 0 77.5 5.5t45.5 17t21.5 29.5t5.5 43q0 29 -6 49t-23 32.5t-46.5 18t-75.5 5.5h-37q-42 0 -71 -5t-46.5 -16t-25 -27.5t-7.5 -38.5h35q0 13 4.5 23.5t16.5 17.5t34.5 10.5t59.5 3.5h37q38 0 61.5 -4t36 -12.5t16.5 -22.5t4 -34
q0 -18 -4.5 -29.5t-17.5 -19t-36 -10.5t-60 -3h-52q-77 0 -107.5 -22.5t-30.5 -70.5v-54h339v32h-306v22q0 15 4 26t15.5 18.5t32.5 11.5t56 4h50zM255 413h35v312h-50l-92 -93l22 -23l85 84v-280z" />
    <glyph glyph-name="threequarters" unicode="&#xbe;" horiz-adv-x="482" 
d="M446 372h-393v-30h393v30zM221 593v-32h98q18 0 31 -1.5t21.5 -6.5t12.5 -16t4 -30q0 -17 -4.5 -28.5t-17 -18.5t-34.5 -9.5t-57 -2.5h-51q-30 0 -49 2.5t-30 9t-15.5 17.5t-4.5 27h-33q1 -24 6.5 -41t19.5 -27.5t38.5 -15t63.5 -4.5h61q43 0 70 5t42.5 16t21 28.5
t5.5 42.5q0 21 -3.5 33.5t-9.5 20t-13.5 11t-16.5 6.5q9 3 16.5 6.5t13.5 10.5t9.5 18.5t3.5 30.5q0 24 -6 39.5t-21.5 25.5t-42.5 14t-69 4h-62q-41 0 -66 -7t-38.5 -19t-18 -28.5t-4.5 -35.5h33q0 15 4.5 25.5t15.5 18t30.5 11t51.5 3.5h47q37 0 59.5 -3t34.5 -9.5t16 -16
t4 -22.5q0 -32 -18 -42t-51 -10h-98zM362 99v212h-35l-258 -212v-33h260v-67h33v67h42v33h-42zM329 274v-175h-213z" />
    <glyph glyph-name="questiondown" unicode="&#xbf;" horiz-adv-x="867" 
d="M542 466v78h-78v-78h78zM464 317q0 -46 -22 -64t-78 -18q-77 0 -135.5 -9t-97.5 -31t-59 -59.5t-20 -94.5q0 -52 13 -89.5t43 -61.5t79 -35.5t121 -11.5h277q120 0 183 48t63 149h-78q-1 -29 -9 -51.5t-27.5 -37.5t-53 -22.5t-84.5 -7.5h-271q-53 0 -88 5t-55 18.5
t-28 37t-8 59.5q0 39 17.5 62t48.5 35t74.5 15.5t94.5 3.5q87 0 132.5 36.5t45.5 114.5v69h-78v-60z" />
    <glyph glyph-name="Agrave" unicode="&#xc0;" horiz-adv-x="842" 
d="M408 732l22 20l-124 109l-33 -39zM367 694l-360 -694h81l86 167h494l86 -167h84l-360 694h-111zM422 643l209 -404h-418z" />
    <glyph glyph-name="Aacute" unicode="&#xc1;" horiz-adv-x="842" 
d="M569 822l-32 39l-125 -109l22 -20zM367 694l-360 -694h81l86 167h494l86 -167h84l-360 694h-111zM422 643l209 -404h-418z" />
    <glyph glyph-name="Acircumflex" unicode="&#xc2;" horiz-adv-x="842" 
d="M403 863l-146 -140h32l134 76l134 -76h33l-147 140h-40zM367 694l-360 -694h81l86 167h494l86 -167h84l-360 694h-111zM422 643l209 -404h-418z" />
    <glyph glyph-name="Atilde" unicode="&#xc3;" horiz-adv-x="842" 
d="M254 745h54q2 14 13 27t35 13q23 0 35.5 -6t24.5 -14t26.5 -15t43.5 -7t48.5 9t31.5 22t17.5 27t6.5 24h-53q-1 -6 -3.5 -12.5t-7.5 -12t-14.5 -9.5t-25.5 -4q-20 0 -32 7t-24 15t-27 13t-40 5q-27 0 -46.5 -8.5t-32.5 -21t-20 -27t-10 -25.5zM367 694l-360 -694h81
l86 167h494l86 -167h84l-360 694h-111zM422 643l209 -404h-418z" />
    <glyph glyph-name="Adieresis" unicode="&#xc4;" horiz-adv-x="842" 
d="M376 808h-65v-65h65v65zM529 808h-65v-65h65v65zM367 694l-360 -694h81l86 167h494l86 -167h84l-360 694h-111zM422 643l209 -404h-418z" />
    <glyph glyph-name="Aring" unicode="&#xc5;" horiz-adv-x="842" 
d="M396 852q-34 0 -47 -16.5t-13 -37.5v-29q0 -21 14 -36.5t46 -15.5h48q32 0 45.5 15.5t13.5 36.5v29q0 20 -13.5 37t-45.5 17h-48zM356 769v29q0 18 11 25.5t29 7.5h48q17 0 27.5 -7t10.5 -26v-29q0 -17 -10.5 -25t-27.5 -8h-48q-18 0 -29 8t-11 25zM367 694l-360 -694h81
l86 167h494l86 -167h84l-360 694h-111zM422 643l209 -404h-418z" />
    <glyph glyph-name="AE" unicode="&#xc6;" horiz-adv-x="1210" 
d="M120 0l222 322h211v-322h617v72h-544v250h527v72h-527v228h544v72h-641l-500 -694h91zM553 394h-155l155 217v-217z" />
    <glyph glyph-name="Ccedilla" unicode="&#xc7;" horiz-adv-x="903" 
d="M504 -61v61h101q69 0 116.5 12.5t77 37t42.5 61t13 85.5h-72q0 -33 -9.5 -56.5t-30.5 -39t-55.5 -22.5t-84.5 -7h-266q-70 0 -114 8.5t-68.5 34.5t-33 74.5t-8.5 129.5v64q0 79 10 127.5t37 75t74 35.5t121 9h248q51 0 85.5 -8.5t55.5 -24.5t29.5 -39.5t8.5 -52.5h72
q0 101 -62 149t-189 48h-238q-93 0 -155.5 -14t-100 -50t-53 -98t-15.5 -158v-63q0 -98 13.5 -160t48 -97t93.5 -48t149 -13h83v-47q0 -23 -16.5 -30t-64.5 -7v-79q51 0 82.5 6.5t48 19.5t22 31.5t5.5 44.5z" />
    <glyph glyph-name="Egrave" unicode="&#xc8;" horiz-adv-x="736" 
d="M392 732l22 20l-124 109l-32 -39zM59 694v-694h617v72h-545v250h528v72h-528v228h545v72h-617z" />
    <glyph glyph-name="Eacute" unicode="&#xc9;" horiz-adv-x="736" 
d="M502 822l-32 39l-124 -109l22 -20zM59 694v-694h617v72h-545v250h528v72h-528v228h545v72h-617z" />
    <glyph glyph-name="Ecircumflex" unicode="&#xca;" horiz-adv-x="736" 
d="M359 863l-147 -140h32l135 76l133 -76h34l-147 140h-40zM59 694v-694h617v72h-545v250h528v72h-528v228h545v72h-617z" />
    <glyph glyph-name="Edieresis" unicode="&#xcb;" horiz-adv-x="736" 
d="M327 808h-65v-65h65v65zM480 808h-64v-65h64v65zM59 694v-694h617v72h-545v250h528v72h-528v228h545v72h-617z" />
    <glyph glyph-name="Igrave" unicode="&#xcc;" horiz-adv-x="272" 
d="M143 732l23 20l-125 109l-32 -39zM101 0h72v694h-72v-694z" />
    <glyph glyph-name="Iacute" unicode="&#xcd;" horiz-adv-x="272" 
d="M284 822l-32 39l-124 -109l22 -20zM101 0h72v694h-72v-694z" />
    <glyph glyph-name="Icircumflex" unicode="&#xce;" horiz-adv-x="272" 
d="M117 863l-147 -140h32l135 76l133 -76h33l-146 140h-40zM101 0h72v694h-72v-694z" />
    <glyph glyph-name="Idieresis" unicode="&#xcf;" horiz-adv-x="272" 
d="M92 808h-64v-65h64v65zM246 808h-65v-65h65v65zM101 0h72v694h-72v-694z" />
    <glyph glyph-name="Eth" unicode="&#xd0;" horiz-adv-x="894" 
d="M140 377v245h400q74 0 121 -9t74 -35.5t37 -75t10 -127.5v-57q0 -83 -7.5 -131.5t-31.5 -74t-68 -33t-117 -7.5h-418v232h197v73h-197zM68 304v-304h482q91 0 150 12.5t93.5 47.5t47.5 97t13 161v56q0 96 -15.5 158t-53 98t-100 50t-155.5 14h-462v-317h-65v-73h65z" />
    <glyph glyph-name="Ntilde" unicode="&#xd1;" horiz-adv-x="874" 
d="M278 745h54q2 14 13 27t35 13q23 0 35.5 -6t24.5 -14t26.5 -15t43.5 -7t48.5 9t31.5 22t17.5 27t6.5 24h-53q-1 -6 -3.5 -12.5t-7.5 -12t-14.5 -9.5t-25.5 -4q-20 0 -32 7t-24 15t-27 13t-40 5q-27 0 -46.5 -8.5t-32.5 -21t-20 -27t-10 -25.5zM58 694v-694h72v639h39
l551 -639h104v694h-72v-622l-535 622h-159z" />
    <glyph glyph-name="Ograve" unicode="&#xd2;" horiz-adv-x="906" 
d="M443 732l23 20l-125 109l-32 -39zM792 318q0 -83 -8.5 -131.5t-37.5 -74t-84 -32.5t-149 -7h-109q-94 0 -149.5 7t-84.5 32.5t-37.5 74t-8.5 131.5v60q0 84 8.5 133t37.5 74.5t84.5 32.5t149.5 7h109q62 0 107 -3t76 -11.5t50 -25t29 -44t13.5 -67.5t3.5 -96v-60zM404 0
h110q109 0 177 12.5t106.5 47.5t52.5 97t14 161v60q0 99 -14 161.5t-52.5 98t-106.5 48t-177 12.5h-110q-110 0 -178.5 -12.5t-107 -48t-52.5 -98t-14 -161.5v-60q0 -99 14 -161t52.5 -97t107 -47.5t178.5 -12.5z" />
    <glyph glyph-name="Oacute" unicode="&#xd3;" horiz-adv-x="906" 
d="M598 822l-32 39l-125 -109l22 -20zM792 318q0 -83 -8.5 -131.5t-37.5 -74t-84 -32.5t-149 -7h-109q-94 0 -149.5 7t-84.5 32.5t-37.5 74t-8.5 131.5v60q0 84 8.5 133t37.5 74.5t84.5 32.5t149.5 7h109q62 0 107 -3t76 -11.5t50 -25t29 -44t13.5 -67.5t3.5 -96v-60zM404 0
h110q109 0 177 12.5t106.5 47.5t52.5 97t14 161v60q0 99 -14 161.5t-52.5 98t-106.5 48t-177 12.5h-110q-110 0 -178.5 -12.5t-107 -48t-52.5 -98t-14 -161.5v-60q0 -99 14 -161t52.5 -97t107 -47.5t178.5 -12.5z" />
    <glyph glyph-name="Ocircumflex" unicode="&#xd4;" horiz-adv-x="906" 
d="M439 863l-147 -140h32l135 76l133 -76h34l-147 140h-40zM792 318q0 -83 -8.5 -131.5t-37.5 -74t-84 -32.5t-149 -7h-109q-94 0 -149.5 7t-84.5 32.5t-37.5 74t-8.5 131.5v60q0 84 8.5 133t37.5 74.5t84.5 32.5t149.5 7h109q62 0 107 -3t76 -11.5t50 -25t29 -44
t13.5 -67.5t3.5 -96v-60zM404 0h110q109 0 177 12.5t106.5 47.5t52.5 97t14 161v60q0 99 -14 161.5t-52.5 98t-106.5 48t-177 12.5h-110q-110 0 -178.5 -12.5t-107 -48t-52.5 -98t-14 -161.5v-60q0 -99 14 -161t52.5 -97t107 -47.5t178.5 -12.5z" />
    <glyph glyph-name="Otilde" unicode="&#xd5;" horiz-adv-x="906" 
d="M278 745h54q2 14 13 27t35 13q23 0 35.5 -6t24.5 -14t26.5 -15t43.5 -7t48.5 9t31.5 22t17.5 27t6.5 24h-53q-1 -6 -3.5 -12.5t-7.5 -12t-14.5 -9.5t-25.5 -4q-20 0 -32 7t-24 15t-27 13t-40 5q-27 0 -46.5 -8.5t-32.5 -21t-20 -27t-10 -25.5zM792 318q0 -83 -8.5 -131.5
t-37.5 -74t-84 -32.5t-149 -7h-109q-94 0 -149.5 7t-84.5 32.5t-37.5 74t-8.5 131.5v60q0 84 8.5 133t37.5 74.5t84.5 32.5t149.5 7h109q62 0 107 -3t76 -11.5t50 -25t29 -44t13.5 -67.5t3.5 -96v-60zM404 0h110q109 0 177 12.5t106.5 47.5t52.5 97t14 161v60
q0 99 -14 161.5t-52.5 98t-106.5 48t-177 12.5h-110q-110 0 -178.5 -12.5t-107 -48t-52.5 -98t-14 -161.5v-60q0 -99 14 -161t52.5 -97t107 -47.5t178.5 -12.5z" />
    <glyph glyph-name="Odieresis" unicode="&#xd6;" horiz-adv-x="906" 
d="M409 808h-65v-65h65v65zM562 808h-64v-65h64v65zM792 318q0 -83 -8.5 -131.5t-37.5 -74t-84 -32.5t-149 -7h-109q-94 0 -149.5 7t-84.5 32.5t-37.5 74t-8.5 131.5v60q0 84 8.5 133t37.5 74.5t84.5 32.5t149.5 7h109q62 0 107 -3t76 -11.5t50 -25t29 -44t13.5 -67.5
t3.5 -96v-60zM404 0h110q109 0 177 12.5t106.5 47.5t52.5 97t14 161v60q0 99 -14 161.5t-52.5 98t-106.5 48t-177 12.5h-110q-110 0 -178.5 -12.5t-107 -48t-52.5 -98t-14 -161.5v-60q0 -99 14 -161t52.5 -97t107 -47.5t178.5 -12.5z" />
    <glyph glyph-name="multiply" unicode="&#xd7;" horiz-adv-x="516" 
d="M128 494l-56 -43l140 -185l-168 -224l59 -42l158 209l159 -209l59 42l-169 225l140 184l-57 43l-132 -177z" />
    <glyph glyph-name="Oslash" unicode="&#xd8;" horiz-adv-x="906" 
d="M52 318q0 -75 7.5 -129t28 -90t55.5 -56.5t89 -30.5l-44 -92h83l39 83q43 -3 94 -3h110q109 0 177 12.5t106.5 47.5t52.5 97t14 161v60q0 84 -9.5 141t-34.5 93.5t-68.5 55t-111.5 25.5l38 79h-84l-35 -74h-45h-110q-110 0 -178.5 -12.5t-107 -48t-52.5 -98t-14 -161.5
v-60zM524 625l-260 -546q-46 6 -73.5 20.5t-42.5 42t-19.5 70.5t-4.5 106v60q0 84 8.5 133t37.5 74.5t84.5 32.5t149.5 7h109h11zM404 73h-31q-14 0 -28 1l262 549q61 -3 98 -15t56 -39.5t25 -73.5t6 -117v-60q0 -83 -8.5 -131.5t-37.5 -74t-84 -32.5t-149 -7h-109z" />
    <glyph glyph-name="Ugrave" unicode="&#xd9;" horiz-adv-x="916" 
d="M486 732l22 20l-125 109l-32 -39zM412 73q-94 0 -149.5 7t-84.5 32.5t-37.5 74t-8.5 131.5v376h-72v-376q0 -99 14 -161t52.5 -97t107 -47.5t178.5 -12.5h108q109 0 177 12.5t106.5 47.5t52.5 97t14 161v376h-72v-376q0 -83 -8.5 -131.5t-37.5 -74t-84 -32.5t-149 -7
h-107z" />
    <glyph glyph-name="Uacute" unicode="&#xda;" horiz-adv-x="916" 
d="M607 822l-33 39l-124 -109l22 -20zM412 73q-94 0 -149.5 7t-84.5 32.5t-37.5 74t-8.5 131.5v376h-72v-376q0 -99 14 -161t52.5 -97t107 -47.5t178.5 -12.5h108q109 0 177 12.5t106.5 47.5t52.5 97t14 161v376h-72v-376q0 -83 -8.5 -131.5t-37.5 -74t-84 -32.5t-149 -7
h-107z" />
    <glyph glyph-name="Ucircumflex" unicode="&#xdb;" horiz-adv-x="916" 
d="M443 863l-146 -140h32l134 76l134 -76h33l-147 140h-40zM412 73q-94 0 -149.5 7t-84.5 32.5t-37.5 74t-8.5 131.5v376h-72v-376q0 -99 14 -161t52.5 -97t107 -47.5t178.5 -12.5h108q109 0 177 12.5t106.5 47.5t52.5 97t14 161v376h-72v-376q0 -83 -8.5 -131.5t-37.5 -74
t-84 -32.5t-149 -7h-107z" />
    <glyph glyph-name="Udieresis" unicode="&#xdc;" horiz-adv-x="916" 
d="M416 808h-65v-65h65v65zM569 808h-65v-65h65v65zM412 73q-94 0 -149.5 7t-84.5 32.5t-37.5 74t-8.5 131.5v376h-72v-376q0 -99 14 -161t52.5 -97t107 -47.5t178.5 -12.5h108q109 0 177 12.5t106.5 47.5t52.5 97t14 161v376h-72v-376q0 -83 -8.5 -131.5t-37.5 -74
t-84 -32.5t-149 -7h-107z" />
    <glyph glyph-name="Yacute" unicode="&#xdd;" horiz-adv-x="799" 
d="M102 694h-101l361 -362v-332h78v332l361 362h-101l-299 -300zM532 822l-32 39l-124 -109l22 -20z" />
    <glyph glyph-name="Thorn" unicode="&#xde;" horiz-adv-x="811" 
d="M772 374q0 84 -55.5 131t-178.5 47h-404v142h-77v-694h77v156h404q123 0 178.5 47t55.5 131v40zM134 480h400q47 0 78 -7t49 -21t25.5 -34t7.5 -47v-34q0 -27 -7.5 -47t-25.5 -34t-49 -21t-78 -7h-400v252z" />
    <glyph glyph-name="germandbls" unicode="&#xdf;" horiz-adv-x="689" 
d="M66 0h72v528q0 53 25.5 77t79.5 24h133q65 0 89.5 -26.5t24.5 -79.5q0 -38 -8 -58.5t-24.5 -31t-42 -12.5t-61.5 -2v-60q52 0 95.5 -3.5t74 -18.5t47.5 -44t17 -80q0 -43 -9 -71t-26 -44.5t-42 -23t-57 -6.5h-196v-68h201q44 0 80 10t61.5 34t39 65t13.5 104
q0 62 -17 98.5t-41 55.5t-50 26t-44 10q13 3 24 8.5t19 18t13 34.5t5 59q0 88 -45.5 130.5t-142.5 42.5h-132q-88 0 -132 -44t-44 -127v-31h-39v-54h39v-440z" />
    <glyph glyph-name="agrave" unicode="&#xe0;" horiz-adv-x="718" 
d="M356 567l26 25l-154 136l-41 -49zM192 302q-81 0 -118 -32.5t-37 -83.5v-60q0 -65 37.5 -95.5t114.5 -30.5h314q35 0 55 11.5t34 27.5v-39h72v320q0 40 -10.5 72.5t-33 55t-58 34.5t-85.5 12h-236q-85 0 -131.5 -35t-46.5 -96v-12h74v12q0 30 29.5 50t93.5 20h210
q65 0 93 -29.5t28 -72.5v-70q-5 17 -27 29t-64 12h-308zM481 241q53 0 81 -21.5t28 -68.5t-26 -68.5t-83 -21.5h-264q-32 0 -53 5t-33 14.5t-17 22.5t-5 30v36q0 18 4 31.5t16 22.5t33 13.5t55 4.5h264z" />
    <glyph glyph-name="aacute" unicode="&#xe1;" horiz-adv-x="718" 
d="M508 679l-41 49l-155 -136l27 -25zM192 302q-81 0 -118 -32.5t-37 -83.5v-60q0 -65 37.5 -95.5t114.5 -30.5h314q35 0 55 11.5t34 27.5v-39h72v320q0 40 -10.5 72.5t-33 55t-58 34.5t-85.5 12h-236q-85 0 -131.5 -35t-46.5 -96v-12h74v12q0 30 29.5 50t93.5 20h210
q65 0 93 -29.5t28 -72.5v-70q-5 17 -27 29t-64 12h-308zM481 241q53 0 81 -21.5t28 -68.5t-26 -68.5t-83 -21.5h-264q-32 0 -53 5t-33 14.5t-17 22.5t-5 30v36q0 18 4 31.5t16 22.5t33 13.5t55 4.5h264z" />
    <glyph glyph-name="acircumflex" unicode="&#xe2;" horiz-adv-x="718" 
d="M332 694l-146 -140h32l134 76l134 -76h33l-147 140h-40zM192 302q-81 0 -118 -32.5t-37 -83.5v-60q0 -65 37.5 -95.5t114.5 -30.5h314q35 0 55 11.5t34 27.5v-39h72v320q0 40 -10.5 72.5t-33 55t-58 34.5t-85.5 12h-236q-85 0 -131.5 -35t-46.5 -96v-12h74v12
q0 30 29.5 50t93.5 20h210q65 0 93 -29.5t28 -72.5v-70q-5 17 -27 29t-64 12h-308zM481 241q53 0 81 -21.5t28 -68.5t-26 -68.5t-83 -21.5h-264q-32 0 -53 5t-33 14.5t-17 22.5t-5 30v36q0 18 4 31.5t16 22.5t33 13.5t55 4.5h264z" />
    <glyph glyph-name="atilde" unicode="&#xe3;" horiz-adv-x="718" 
d="M146 588h67q3 17 17 33.5t43 16.5t45 -7.5t30 -17.5q15 -10 34 -18.5t54 -8.5q36 0 60.5 11.5t39.5 27.5t22 33.5t8 29.5h-66q-2 -7 -4.5 -15.5t-9.5 -15.5t-19 -12t-31 -5q-26 0 -40.5 9t-29.5 19q-15 9 -34 16t-50 7q-34 0 -58.5 -11t-40.5 -26.5t-25 -33.5t-12 -32z
M192 302q-81 0 -118 -32.5t-37 -83.5v-60q0 -65 37.5 -95.5t114.5 -30.5h314q35 0 55 11.5t34 27.5v-39h72v320q0 40 -10.5 72.5t-33 55t-58 34.5t-85.5 12h-236q-85 0 -131.5 -35t-46.5 -96v-12h74v12q0 30 29.5 50t93.5 20h210q65 0 93 -29.5t28 -72.5v-70q-5 17 -27 29
t-64 12h-308zM481 241q53 0 81 -21.5t28 -68.5t-26 -68.5t-83 -21.5h-264q-32 0 -53 5t-33 14.5t-17 22.5t-5 30v36q0 18 4 31.5t16 22.5t33 13.5t55 4.5h264z" />
    <glyph glyph-name="adieresis" unicode="&#xe4;" horiz-adv-x="718" 
d="M302 694h-72v-72h72v72zM480 694h-72v-72h72v72zM192 302q-81 0 -118 -32.5t-37 -83.5v-60q0 -65 37.5 -95.5t114.5 -30.5h314q35 0 55 11.5t34 27.5v-39h72v320q0 40 -10.5 72.5t-33 55t-58 34.5t-85.5 12h-236q-85 0 -131.5 -35t-46.5 -96v-12h74v12q0 30 29.5 50
t93.5 20h210q65 0 93 -29.5t28 -72.5v-70q-5 17 -27 29t-64 12h-308zM481 241q53 0 81 -21.5t28 -68.5t-26 -68.5t-83 -21.5h-264q-32 0 -53 5t-33 14.5t-17 22.5t-5 30v36q0 18 4 31.5t16 22.5t33 13.5t55 4.5h264z" />
    <glyph glyph-name="aring" unicode="&#xe5;" horiz-adv-x="718" 
d="M326 731q-37 0 -51.5 -18t-14.5 -41v-33q0 -23 15.5 -40t50.5 -17h54q35 0 50 17t15 40v33q0 23 -15 41t-50 18h-54zM282 639v33q0 20 12 28t32 8h54q19 0 30.5 -8t11.5 -28v-33q0 -19 -11.5 -27.5t-30.5 -8.5h-54q-20 0 -32 8.5t-12 27.5zM192 302q-81 0 -118 -32.5
t-37 -83.5v-60q0 -65 37.5 -95.5t114.5 -30.5h314q35 0 55 11.5t34 27.5v-39h72v320q0 40 -10.5 72.5t-33 55t-58 34.5t-85.5 12h-236q-85 0 -131.5 -35t-46.5 -96v-12h74v12q0 30 29.5 50t93.5 20h210q65 0 93 -29.5t28 -72.5v-70q-5 17 -27 29t-64 12h-308zM481 241
q53 0 81 -21.5t28 -68.5t-26 -68.5t-83 -21.5h-264q-32 0 -53 5t-33 14.5t-17 22.5t-5 30v36q0 18 4 31.5t16 22.5t33 13.5t55 4.5h264z" />
    <glyph glyph-name="ae" unicode="&#xe6;" horiz-adv-x="1269" 
d="M799 496q-55 0 -96 -18.5t-67 -48.5q-21 31 -60 48t-99 17h-236q-85 0 -131.5 -35t-46.5 -96v-12h74v12q0 30 29.5 50t93.5 20h210q65 0 93 -29.5t28 -72.5v-70q-5 17 -27 29t-64 12h-308q-81 0 -118 -32.5t-37 -83.5v-60q0 -65 37.5 -95.5t114.5 -30.5h314
q35 0 54.5 9.5t34.5 29.5v-39h72v43q25 -23 57 -33t80 -10h242q51 0 85 14.5t54 36.5t28.5 48t8.5 49v10h-72v-10q0 -35 -27 -61t-86 -26h-235q-30 0 -55 6.5t-43 22t-28.5 41t-10.5 63.5v56h557v72q0 34 -13 65.5t-39.5 55.5t-66.5 38.5t-93 14.5h-208zM481 241
q53 0 81 -21.5t28 -68.5t-26 -68.5t-83 -21.5h-264q-32 0 -53 5t-33 14.5t-17 22.5t-5 30v36q0 18 4 31.5t16 22.5t33 13.5t55 4.5h264zM1014 434q63 0 98.5 -34.5t35.5 -88.5h-486q0 54 34.5 88.5t91.5 34.5h226z" />
    <glyph glyph-name="ccedilla" unicode="&#xe7;" horiz-adv-x="708" 
d="M241 0h73v-40q0 -23 -16.5 -33.5t-64.5 -10.5v-79q48 0 79 7.5t48.5 22t24.5 36t7 50.5v47h71q61 0 101.5 14.5t64.5 39t33.5 56t9.5 65.5h-72q0 -114 -137 -114h-222q-26 0 -49 7.5t-40 23t-27.5 38.5t-10.5 53v123q0 66 35 97t98 31h216q75 0 106 -31t31 -82h72
q0 84 -51.5 129.5t-157.5 45.5h-216q-52 0 -90.5 -15t-64 -40.5t-38 -60t-12.5 -74.5v-123q0 -85 48 -134t151 -49z" />
    <glyph glyph-name="egrave" unicode="&#xe8;" horiz-adv-x="724" 
d="M367 567l26 25l-154 136l-41 -49zM474 434q63 0 98.5 -34.5t35.5 -88.5h-486q0 54 34.5 88.5t91.5 34.5h226zM261 0h242q51 0 85 14.5t54 36.5t28.5 48t8.5 49v10h-72v-10q0 -35 -27 -61t-86 -26h-235q-30 0 -55 6.5t-43 22t-28.5 41t-10.5 63.5v56h557v72q0 34 -13 65.5
t-39.5 55.5t-66.5 38.5t-93 14.5h-208q-51 0 -90 -16t-65.5 -42.5t-40 -61.5t-13.5 -73v-118q0 -92 51 -138.5t160 -46.5z" />
    <glyph glyph-name="eacute" unicode="&#xe9;" horiz-adv-x="724" 
d="M506 679l-42 49l-154 -136l27 -25zM474 434q63 0 98.5 -34.5t35.5 -88.5h-486q0 54 34.5 88.5t91.5 34.5h226zM261 0h242q51 0 85 14.5t54 36.5t28.5 48t8.5 49v10h-72v-10q0 -35 -27 -61t-86 -26h-235q-30 0 -55 6.5t-43 22t-28.5 41t-10.5 63.5v56h557v72
q0 34 -13 65.5t-39.5 55.5t-66.5 38.5t-93 14.5h-208q-51 0 -90 -16t-65.5 -42.5t-40 -61.5t-13.5 -73v-118q0 -92 51 -138.5t160 -46.5z" />
    <glyph glyph-name="ecircumflex" unicode="&#xea;" horiz-adv-x="724" 
d="M343 694l-146 -140h32l134 76l134 -76h33l-147 140h-40zM474 434q63 0 98.5 -34.5t35.5 -88.5h-486q0 54 34.5 88.5t91.5 34.5h226zM261 0h242q51 0 85 14.5t54 36.5t28.5 48t8.5 49v10h-72v-10q0 -35 -27 -61t-86 -26h-235q-30 0 -55 6.5t-43 22t-28.5 41t-10.5 63.5v56
h557v72q0 34 -13 65.5t-39.5 55.5t-66.5 38.5t-93 14.5h-208q-51 0 -90 -16t-65.5 -42.5t-40 -61.5t-13.5 -73v-118q0 -92 51 -138.5t160 -46.5z" />
    <glyph glyph-name="edieresis" unicode="&#xeb;" horiz-adv-x="724" 
d="M309 694h-72v-72h72v72zM487 694h-73v-72h73v72zM474 434q63 0 98.5 -34.5t35.5 -88.5h-486q0 54 34.5 88.5t91.5 34.5h226zM261 0h242q51 0 85 14.5t54 36.5t28.5 48t8.5 49v10h-72v-10q0 -35 -27 -61t-86 -26h-235q-30 0 -55 6.5t-43 22t-28.5 41t-10.5 63.5v56h557v72
q0 34 -13 65.5t-39.5 55.5t-66.5 38.5t-93 14.5h-208q-51 0 -90 -16t-65.5 -42.5t-40 -61.5t-13.5 -73v-118q0 -92 51 -138.5t160 -46.5z" />
    <glyph glyph-name="igrave" unicode="&#xec;" horiz-adv-x="222" 
d="M107 567l26 25l-154 136l-41 -49zM149 494h-72v-494h72v494z" />
    <glyph glyph-name="iacute" unicode="&#xed;" horiz-adv-x="222" 
d="M281 679l-41 49l-154 -136l26 -25zM149 494h-72v-494h72v494z" />
    <glyph glyph-name="icircumflex" unicode="&#xee;" horiz-adv-x="222" 
d="M94 694l-146 -140h32l134 76l134 -76h33l-147 140h-40zM149 494h-72v-494h72v494z" />
    <glyph glyph-name="idieresis" unicode="&#xef;" horiz-adv-x="222" 
d="M58 694h-72v-72h72v72zM236 694h-73v-72h73v72zM149 494h-72v-494h72v494z" />
    <glyph glyph-name="eth" unicode="&#xf0;" horiz-adv-x="712" 
d="M116 193v108q0 72 37.5 102.5t112.5 30.5h185q73 0 111.5 -33.5t38.5 -98.5v-109q0 -72 -40.5 -102.5t-109.5 -30.5h-185q-150 0 -150 133zM353 648l-45 -45l46 -47l73 73q33 -11 64 -26.5t55.5 -37t40.5 -49t20 -61.5q-26 19 -62 30t-87 11h-199q-59 0 -100 -14.5
t-66.5 -40.5t-37.5 -62t-12 -78v-108q0 -95 53 -144.5t163 -49.5h199q60 0 101 15.5t66.5 42.5t36.5 62t11 74v3q0 -1 0.5 -1.5t0.5 -1.5v247q0 48 -16 85.5t-43 67t-63 50.5t-75 36l46 46l-46 47l-72 -72q-42 11 -82.5 15t-72.5 4h-49v-61h49q23 0 49 -2.5t54 -7.5z" />
    <glyph glyph-name="ntilde" unicode="&#xf1;" horiz-adv-x="732" 
d="M158 588h67q3 17 17 33.5t43 16.5t45 -7.5t30 -17.5q15 -10 34 -18.5t54 -8.5q36 0 60.5 11.5t39.5 27.5t22 33.5t8 29.5h-66q-2 -7 -4.5 -15.5t-9.5 -15.5t-19 -12t-31 -5q-26 0 -40.5 9t-29.5 19q-15 9 -34 16t-50 7q-34 0 -58.5 -11t-40.5 -26.5t-25 -33.5t-12 -32z
M464 494h-190q-60 0 -94 -21t-51 -59v80h-72v-494h72v298q0 30 11 55t30 42.5t45.5 27.5t58.5 10h190q64 0 104 -35t40 -100v-298h72v287q0 42 -11 79.5t-36.5 66t-66.5 45t-102 16.5z" />
    <glyph glyph-name="ograve" unicode="&#xf2;" horiz-adv-x="712" 
d="M333 567l27 25l-154 136l-42 -49zM259 496q-59 0 -100 -14.5t-66.5 -40.5t-37.5 -62t-12 -78v-108q0 -95 53 -144.5t163 -49.5h199q60 0 101 15.5t66.5 42.5t36.5 62t11 74v108q0 38 -10.5 73.5t-35.5 62.5t-66.5 43t-102.5 16h-199zM116 193v108q0 72 37.5 102.5
t112.5 30.5h185q73 0 111.5 -33.5t38.5 -98.5v-109q0 -72 -40.5 -102.5t-109.5 -30.5h-185q-150 0 -150 133z" />
    <glyph glyph-name="oacute" unicode="&#xf3;" horiz-adv-x="712" 
d="M528 679l-41 49l-155 -136l27 -25zM259 496q-59 0 -100 -14.5t-66.5 -40.5t-37.5 -62t-12 -78v-108q0 -95 53 -144.5t163 -49.5h199q60 0 101 15.5t66.5 42.5t36.5 62t11 74v108q0 38 -10.5 73.5t-35.5 62.5t-66.5 43t-102.5 16h-199zM116 193v108q0 72 37.5 102.5
t112.5 30.5h185q73 0 111.5 -33.5t38.5 -98.5v-109q0 -72 -40.5 -102.5t-109.5 -30.5h-185q-150 0 -150 133z" />
    <glyph glyph-name="ocircumflex" unicode="&#xf4;" horiz-adv-x="712" 
d="M339 694l-147 -140h32l135 76l133 -76h34l-147 140h-40zM259 496q-59 0 -100 -14.5t-66.5 -40.5t-37.5 -62t-12 -78v-108q0 -95 53 -144.5t163 -49.5h199q60 0 101 15.5t66.5 42.5t36.5 62t11 74v108q0 38 -10.5 73.5t-35.5 62.5t-66.5 43t-102.5 16h-199zM116 193v108
q0 72 37.5 102.5t112.5 30.5h185q73 0 111.5 -33.5t38.5 -98.5v-109q0 -72 -40.5 -102.5t-109.5 -30.5h-185q-150 0 -150 133z" />
    <glyph glyph-name="otilde" unicode="&#xf5;" horiz-adv-x="712" 
d="M141 588h67q3 17 17 33.5t43 16.5t45 -7.5t30 -17.5q15 -10 34 -18.5t54 -8.5q36 0 60.5 11.5t39.5 27.5t22 33.5t8 29.5h-66q-2 -7 -4.5 -15.5t-9.5 -15.5t-19 -12t-31 -5q-26 0 -40.5 9t-29.5 19q-15 9 -34 16t-50 7q-34 0 -58.5 -11t-40.5 -26.5t-25 -33.5t-12 -32z
M259 496q-59 0 -100 -14.5t-66.5 -40.5t-37.5 -62t-12 -78v-108q0 -95 53 -144.5t163 -49.5h199q60 0 101 15.5t66.5 42.5t36.5 62t11 74v108q0 38 -10.5 73.5t-35.5 62.5t-66.5 43t-102.5 16h-199zM116 193v108q0 72 37.5 102.5t112.5 30.5h185q73 0 111.5 -33.5
t38.5 -98.5v-109q0 -72 -40.5 -102.5t-109.5 -30.5h-185q-150 0 -150 133z" />
    <glyph glyph-name="odieresis" unicode="&#xf6;" horiz-adv-x="712" 
d="M302 694h-72v-72h72v72zM480 694h-72v-72h72v72zM259 496q-59 0 -100 -14.5t-66.5 -40.5t-37.5 -62t-12 -78v-108q0 -95 53 -144.5t163 -49.5h199q60 0 101 15.5t66.5 42.5t36.5 62t11 74v108q0 38 -10.5 73.5t-35.5 62.5t-66.5 43t-102.5 16h-199zM116 193v108
q0 72 37.5 102.5t112.5 30.5h185q73 0 111.5 -33.5t38.5 -98.5v-109q0 -72 -40.5 -102.5t-109.5 -30.5h-185q-150 0 -150 133z" />
    <glyph glyph-name="divide" unicode="&#xf7;" horiz-adv-x="433" 
d="M381 327h-328v-73h328v73zM181 166v-78h78v78h-78zM181 494v-78h78v78h-78z" />
    <glyph glyph-name="oslash" unicode="&#xf8;" horiz-adv-x="712" 
d="M395 434l-175 -370q-104 18 -104 129v108q0 72 37.5 102.5t112.5 30.5h129zM483 495l-58 1h-166q-59 0 -100 -14.5t-66.5 -40.5t-37.5 -62t-12 -78v-108q0 -79 37 -126.5t112 -61.5l-30 -63h60l27 57h10h199q60 0 101 15.5t66.5 42.5t36.5 62t11 74v108q0 36 -9.5 70
t-31.5 60t-58.5 43.5t-90.5 20.5zM455 434q71 -1 108.5 -34.5t37.5 -97.5v-109q0 -72 -40.5 -102.5t-109.5 -30.5h-173zM425 496l58 -1l26 54h-59z" />
    <glyph glyph-name="ugrave" unicode="&#xf9;" horiz-adv-x="726" 
d="M360 567l27 25l-155 136l-41 -49zM269 0h194q34 0 58.5 6t41.5 15t28 19.5t18 18.5v-59h70v494h-72v-309q0 -32 -12 -55t-32 -38.5t-46 -23t-54 -7.5h-194q-67 0 -105 31.5t-38 95.5v306h-73v-300q0 -91 51 -142.5t165 -51.5z" />
    <glyph glyph-name="uacute" unicode="&#xfa;" horiz-adv-x="726" 
d="M526 679l-42 49l-154 -136l27 -25zM269 0h194q34 0 58.5 6t41.5 15t28 19.5t18 18.5v-59h70v494h-72v-309q0 -32 -12 -55t-32 -38.5t-46 -23t-54 -7.5h-194q-67 0 -105 31.5t-38 95.5v306h-73v-300q0 -91 51 -142.5t165 -51.5z" />
    <glyph glyph-name="ucircumflex" unicode="&#xfb;" horiz-adv-x="726" 
d="M343 694l-146 -140h32l134 76l134 -76h33l-147 140h-40zM269 0h194q34 0 58.5 6t41.5 15t28 19.5t18 18.5v-59h70v494h-72v-309q0 -32 -12 -55t-32 -38.5t-46 -23t-54 -7.5h-194q-67 0 -105 31.5t-38 95.5v306h-73v-300q0 -91 51 -142.5t165 -51.5z" />
    <glyph glyph-name="udieresis" unicode="&#xfc;" horiz-adv-x="726" 
d="M324 694h-72v-72h72v72zM502 694h-72v-72h72v72zM269 0h194q34 0 58.5 6t41.5 15t28 19.5t18 18.5v-59h70v494h-72v-309q0 -32 -12 -55t-32 -38.5t-46 -23t-54 -7.5h-194q-67 0 -105 31.5t-38 95.5v306h-73v-300q0 -91 51 -142.5t165 -51.5z" />
    <glyph glyph-name="yacute" unicode="&#xfd;" horiz-adv-x="628" 
d="M81 494h-80l265 -494q-15 -30 -36 -55.5t-45.5 -43.5t-50.5 -28.5t-51 -10.5v-73q56 0 100 22.5t77.5 55.5t57 69.5t38.5 63.5l266 494h-80l-222 -416h-17zM462 679l-41 49l-152 -134l24 -27z" />
    <glyph glyph-name="thorn" unicode="&#xfe;" horiz-adv-x="714" 
d="M263 496q-48 0 -82.5 -12.5t-57.5 -35.5v246h-72v-895h72v245q24 -22 58.5 -33.5t81.5 -11.5h195q60 0 101 15.5t66.5 42.5t36.5 62t11 74v108q0 38 -10.5 73.5t-35.5 62.5t-66.5 43t-102.5 16h-195zM120 193v108q0 72 37.5 102.5t112.5 30.5h181q73 0 111.5 -33.5
t38.5 -98.5v-109q0 -72 -40.5 -102.5t-109.5 -30.5h-181q-150 0 -150 133z" />
    <glyph glyph-name="ydieresis" unicode="&#xff;" horiz-adv-x="628" 
d="M251 694h-72v-72h72v72zM429 694h-72v-72h72v72zM81 494h-80l265 -494q-15 -30 -36 -55.5t-45.5 -43.5t-50.5 -28.5t-51 -10.5v-73q56 0 100 22.5t77.5 55.5t57 69.5t38.5 63.5l266 494h-80l-222 -416h-17z" />
    <glyph glyph-name="OE" unicode="&#x152;" horiz-adv-x="1431" 
d="M514 0q100 0 164.5 10t103.5 38v-48h617v72h-539v143v107h522v72h-522v228h539v72h-617v-44q-40 28 -105 38t-163 10h-110q-110 0 -178.5 -12.5t-107 -48t-52.5 -98t-14 -161.5v-60q0 -99 14 -161t52.5 -97t107 -47.5t178.5 -12.5h110zM792 318q0 -83 -8.5 -131.5
t-37.5 -74t-84 -32.5t-149 -7h-109q-94 0 -149.5 7t-84.5 32.5t-37.5 74t-8.5 131.5v60q0 84 8.5 133t37.5 74.5t84.5 32.5t149.5 7h109q62 0 107 -3t76 -11.5t50 -25t29 -44t13.5 -67.5t3.5 -96v-60z" />
    <glyph glyph-name="oe" unicode="&#x153;" horiz-adv-x="1249" 
d="M811 496q-60 0 -102.5 -21t-68.5 -56q-23 35 -67 56t-115 21h-199q-59 0 -100 -14.5t-66.5 -40.5t-37.5 -62t-12 -78v-108q0 -95 53 -144.5t163 -49.5h199q66 0 109 18.5t67 50.5q50 -68 179 -68h223q51 0 85 14.5t54 36.5t28.5 48t8.5 49v10h-72v-10q0 -35 -27 -61
t-86 -26h-216q-30 0 -55 6.5t-43 22t-28.5 41t-10.5 63.5v56h538v72q0 34 -13 65.5t-39.5 55.5t-66.5 38.5t-93 14.5h-189zM116 193v108q0 72 37.5 102.5t112.5 30.5h185q73 0 111.5 -33.5t38.5 -98.5v-109q0 -72 -40.5 -102.5t-109.5 -30.5h-185q-150 0 -150 133zM1007 434
q63 0 98.5 -34.5t35.5 -88.5h-467q0 54 34.5 88.5t91.5 34.5h207z" />
    <glyph glyph-name="Scaron" unicode="&#x160;" horiz-adv-x="914" 
d="M266 694q-108 0 -160.5 -44t-52.5 -142q0 -47 10.5 -81t40.5 -56t83 -33t138 -13l243 -6q73 -2 118.5 -8.5t70.5 -20.5t33.5 -36.5t8.5 -55.5q0 -71 -39 -98.5t-121 -27.5h-329q-51 0 -85.5 8.5t-55 24.5t-29 39.5t-9.5 52.5h-72q0 -101 61.5 -149t165.5 -48h357
q60 0 103 10t71 33t41 60.5t13 92.5q0 53 -15 89t-51.5 59t-99 34t-157.5 13l-215 5q-67 1 -108 7t-63 18.5t-29 33t-7 52.5q0 28 5.5 49.5t21 36t42 22t68.5 7.5h351q51 0 85.5 -8.5t55 -24.5t29 -39t9.5 -52h73q0 99 -60 147.5t-176 48.5h-364zM473 736l147 140h-32
l-135 -75l-133 75h-33l146 -140h40z" />
    <glyph glyph-name="scaron" unicode="&#x161;" horiz-adv-x="720" 
d="M48 122q0 -24 7 -46t25.5 -39t50.5 -27t82 -10h281q93 0 135 33.5t42 87.5v28q0 69 -44 99t-125 32l-288 6q-45 1 -69.5 14t-24.5 47v21q0 66 94 66h281q36 0 57 -6t32.5 -16t14.5 -22.5t3 -25.5v-25h72v34q0 21 -7.5 42.5t-28 39.5t-57.5 29.5t-96 11.5h-264
q-89 0 -130.5 -36t-41.5 -90v-23q0 -68 45 -94.5t125 -27.5l287 -6q45 -1 69.5 -19t24.5 -51v-21q0 -34 -28 -51t-80 -17h-269q-31 0 -51 5t-31.5 14t-16 22t-4.5 30v26h-72v-35zM383 531l147 140h-32l-135 -75l-133 75h-33l146 -140h40z" />
    <glyph glyph-name="Ydieresis" unicode="&#x178;" horiz-adv-x="799" 
d="M358 808h-65v-65h65v65zM511 808h-64v-65h64v65zM102 694h-101l361 -362v-332h78v332l361 362h-101l-299 -300z" />
    <glyph glyph-name="florin" unicode="&#x192;" horiz-adv-x="649" 
d="M591 533h-533v-533h533v533z" />
    <glyph glyph-name="circumflex" unicode="&#x2c6;" horiz-adv-x="418" 
d="M192 694l-146 -140h32l134 76l134 -76h33l-147 140h-40z" />
    <glyph glyph-name="tilde" unicode="&#x2dc;" horiz-adv-x="498" 
d="M41 588h67q3 17 17 33.5t43 16.5t45 -7.5t30 -17.5q15 -10 34 -18.5t54 -8.5q36 0 60.5 11.5t39.5 27.5t22 33.5t8 29.5h-66q-2 -7 -4.5 -15.5t-9.5 -15.5t-19 -12t-31 -5q-26 0 -40.5 9t-29.5 19q-15 9 -34 16t-50 7q-34 0 -58.5 -11t-40.5 -26.5t-25 -33.5t-12 -32z
" />
    <glyph glyph-name="endash" unicode="&#x2013;" horiz-adv-x="572" 
d="M511 327h-458v-73h458v73z" />
    <glyph glyph-name="emdash" unicode="&#x2014;" horiz-adv-x="944" 
d="M856 327h-764v-73h764v73z" />
    <glyph glyph-name="quoteleft" unicode="&#x2018;" horiz-adv-x="183" 
d="M136 546v77h-42v51q0 18 9 32t20 23h-37q-12 -8 -20 -22.5t-8 -32.5v-128h78z" />
    <glyph glyph-name="quoteright" unicode="&#x2019;" horiz-adv-x="183" 
d="M59 693v-77h41v-51q0 -18 -8.5 -32t-19.5 -23h37q12 8 20 22.5t8 32.5v128h-78z" />
    <glyph glyph-name="quotesinglbase" unicode="&#x201a;" horiz-adv-x="183" 
d="M55 157v-77h41v-51q0 -18 -8.5 -32t-19.5 -23h37q12 8 20 22.5t8 32.5v128h-78z" />
    <glyph glyph-name="quotedblleft" unicode="&#x201c;" horiz-adv-x="344" 
d="M297 546v77h-41v51q0 18 8.5 32t19.5 23h-37q-12 -8 -20 -22.5t-8 -32.5v-128h78zM136 546v77h-42v51q0 18 9 32t20 23h-37q-12 -8 -20 -22.5t-8 -32.5v-128h78z" />
    <glyph glyph-name="quotedblright" unicode="&#x201d;" horiz-adv-x="350" 
d="M59 693v-77h41v-51q0 -18 -8.5 -32t-19.5 -23h37q12 8 20 22.5t8 32.5v128h-78zM220 693v-77h42v-51q0 -18 -9 -32t-20 -23h37q12 8 20 22.5t8 32.5v128h-78z" />
    <glyph glyph-name="quotedblbase" unicode="&#x201e;" horiz-adv-x="350" 
d="M55 157v-77h41v-51q0 -18 -8.5 -32t-19.5 -23h37q12 8 20 22.5t8 32.5v128h-78zM216 157v-77h42v-51q0 -18 -9 -32t-20 -23h37q12 8 20 22.5t8 32.5v128h-78z" />
    <glyph glyph-name="dagger" unicode="&#x2020;" horiz-adv-x="244" 
d="M142 736h-26v-166h-68v-27h68v-420h26v420h68v27h-68v166z" />
    <glyph glyph-name="daggerdbl" unicode="&#x2021;" horiz-adv-x="244" 
d="M116 86h26v293h68v27h-68v131h68v27h-68v172h-26v-172h-68v-27h68v-131h-68v-27h68v-293z" />
    <glyph glyph-name="bullet" unicode="&#x2022;" horiz-adv-x="467" 
d="M401 277q0 34 -13 64t-35.5 52.5t-52.5 35.5t-64 13t-64 -13t-52.5 -35.5t-35.5 -52.5t-13 -64t13 -64t35.5 -52.5t52.5 -35.5t64 -13t64 13t52.5 35.5t35.5 52.5t13 64z" />
    <glyph glyph-name="ellipsis" unicode="&#x2026;" 
d="M120 78v-78h78v78h-78zM387 78v-78h78v78h-78zM653 78v-78h78v78h-78z" />
    <glyph glyph-name="perthousand" unicode="&#x2030;" horiz-adv-x="1640" 
d="M300 633q51 0 81.5 -4.5t46.5 -18.5t20.5 -40.5t4.5 -71.5v-37q0 -45 -4.5 -71.5t-20.5 -40.5t-46.5 -18.5t-82.5 -4.5h-35q-52 0 -82.5 4.5t-46.5 18t-20.5 39.5t-4.5 70v40q0 45 4.5 71.5t20.5 40.5t46.5 18.5t82.5 4.5h36zM515 461v37q0 57 -9 94.5t-33 60t-65.5 31.5
t-107.5 9h-36q-66 0 -108 -9t-66 -31.5t-33 -60t-9 -94.5v-40q0 -56 9 -93t33 -59t66 -31t108 -9h35q66 0 108 9t66 31.5t33 60t9 94.5zM506 -33l205 761h-59l-205 -761h59zM895 367q51 0 81.5 -4.5t46.5 -18.5t20.5 -40.5t4.5 -71.5v-37q0 -45 -4.5 -71.5t-20.5 -40.5
t-46.5 -18.5t-82.5 -4.5h-35q-52 0 -82.5 4.5t-46.5 18t-20.5 39.5t-4.5 70v40q0 45 4.5 71.5t20.5 40.5t46.5 18.5t82.5 4.5h36zM1110 195v37q0 57 -9 94.5t-33 60t-65.5 31.5t-107.5 9h-36q-66 0 -108 -9t-66 -31.5t-33 -60t-9 -94.5v-40q0 -56 9 -93t33 -59t66 -31
t108 -9h35q66 0 108 9t66 31.5t33 60t9 94.5zM1399 367q51 0 81.5 -4.5t46.5 -18.5t20.5 -40.5t4.5 -71.5v-37q0 -45 -4.5 -71.5t-20.5 -40.5t-46.5 -18.5t-82.5 -4.5h-35q-52 0 -82.5 4.5t-46.5 18t-20.5 39.5t-4.5 70v40q0 45 4.5 71.5t20.5 40.5t46.5 18.5t82.5 4.5h36z
M1614 195v37q0 57 -9 94.5t-33 60t-65.5 31.5t-107.5 9h-36q-66 0 -108 -9t-66 -31.5t-33 -60t-9 -94.5v-40q0 -56 9 -93t33 -59t66 -31t108 -9h35q66 0 108 9t66 31.5t33 60t9 94.5z" />
    <glyph glyph-name="guilsinglleft" unicode="&#x2039;" horiz-adv-x="333" 
d="M236 76l33 33l-169 169l172 172l-33 33l-206 -205z" />
    <glyph glyph-name="guilsinglright" unicode="&#x203a;" horiz-adv-x="342" 
d="M79 451l172 -173l-168 -168l34 -32l201 200l-206 205z" />
    <glyph glyph-name="trademark" unicode="&#x2122;" horiz-adv-x="400" 
d="M174 769h-124v-13h56v-162h13v162h55v13zM208 771l-39 -175h13l28 131l53 -140l54 140l26 -131h14l-37 175l-57 -148z" />
    <glyph glyph-name="NUL" unicode="&#xe000;" horiz-adv-x="0" 
 />
    <glyph glyph-name="HT" unicode="&#xe001;" horiz-adv-x="0" 
 />
    <glyph glyph-name="minus" unicode="&#xe003;" horiz-adv-x="488" 
d="M443 327h-390v-73h390v73z" />
    <glyph glyph-name="notequal" unicode="&#xe004;" horiz-adv-x="428" 
d="M372 243h-143l43 89h100v72h-66l33 69h-77l-33 -69h-176v-72h143l-43 -89h-100v-72h65l-31 -67h77l32 67h176v72z" />
    <glyph glyph-name="lessequal" unicode="&#xe005;" horiz-adv-x="427" 
d="M372 220h-319v-72h319v72zM357 629l-286 -195l286 -188v77l-169 111l169 117v78z" />
    <glyph glyph-name="greaterequal" unicode="&#xe006;" horiz-adv-x="422" 
d="M372 220h-319v-72h319v72zM70 319v-78l286 189l-286 194v-77l169 -117z" />
    <glyph glyph-name="partialdiff" unicode="&#xe007;" horiz-adv-x="482" 
d="M441 378h-388v-30h388v30zM217 177v-32h98q18 0 31 -1.5t21.5 -6.5t12.5 -16t4 -30q0 -17 -4.5 -28.5t-17 -18.5t-34.5 -9.5t-57 -2.5h-51q-30 0 -49 2.5t-30 9t-15.5 17.5t-4.5 27h-33q1 -24 6.5 -41t19.5 -27.5t38.5 -15t63.5 -4.5h61q43 0 70 5t42.5 16t21 28.5
t5.5 42.5q0 21 -3.5 33.5t-9.5 20t-13.5 11t-16.5 6.5q9 3 16.5 6.5t13.5 10.5t9.5 18.5t3.5 30.5q0 24 -6 39.5t-21.5 25.5t-42.5 14t-69 4h-62q-41 0 -66 -7t-38.5 -19t-18 -28.5t-4.5 -35.5h33q0 15 4.5 25.5t15.5 18t30.5 11t51.5 3.5h47q37 0 59.5 -3t34.5 -9.5t16 -16
t4 -22.5q0 -32 -18 -42t-51 -10h-98zM255 413h35v312h-50l-92 -93l22 -23l85 84v-280z" />
    <glyph glyph-name="summation" unicode="&#xe008;" horiz-adv-x="482" 
d="M441 378h-388v-30h388v30zM363 99v212h-35l-258 -212v-33h260v-67h33v67h42v33h-42zM255 413h35v312h-50l-92 -93l22 -23l85 84v-280zM330 274v-175h-213z" />
    <glyph glyph-name="product" unicode="&#xe009;" horiz-adv-x="482" 
d="M441 378h-388v-30h388v30zM270 527q48 0 77.5 5.5t45.5 17t21.5 29.5t5.5 43q0 29 -6 49t-23 32.5t-46.5 18t-75.5 5.5h-37q-42 0 -71 -5t-46.5 -16t-25 -27.5t-7.5 -38.5h35q0 13 4.5 23.5t16.5 17.5t34.5 10.5t59.5 3.5h37q38 0 61.5 -4t36 -12.5t16.5 -22.5t4 -34
q0 -18 -4.5 -29.5t-17.5 -19t-36 -10.5t-60 -3h-52q-77 0 -107.5 -22.5t-30.5 -70.5v-54h339v32h-306v22q0 15 4 26t15.5 18.5t32.5 11.5t56 4h50zM214 177v-32h98q18 0 31 -1.5t21.5 -6.5t12.5 -16t4 -30q0 -17 -4.5 -28.5t-17 -18.5t-34.5 -9.5t-57 -2.5h-51
q-30 0 -49 2.5t-30 9t-15.5 17.5t-4.5 27h-33q1 -24 6.5 -41t19.5 -27.5t38.5 -15t63.5 -4.5h61q43 0 70 5t42.5 16t21 28.5t5.5 42.5q0 21 -3.5 33.5t-9.5 20t-13.5 11t-16.5 6.5q9 3 16.5 6.5t13.5 10.5t9.5 18.5t3.5 30.5q0 24 -6 39.5t-21.5 25.5t-42.5 14t-69 4h-62
q-41 0 -66 -7t-38.5 -19t-18 -28.5t-4.5 -35.5h33q0 15 4.5 25.5t15.5 18t30.5 11t51.5 3.5h47q37 0 59.5 -3t34.5 -9.5t16 -16t4 -22.5q0 -32 -18 -42t-51 -10h-98z" />
    <glyph glyph-name="pi" unicode="&#xe00a;" horiz-adv-x="482" 
d="M446 372h-393v-30h393v30zM221 593v-32h98q18 0 31 -1.5t21.5 -6.5t12.5 -16t4 -30q0 -17 -4.5 -28.5t-17 -18.5t-34.5 -9.5t-57 -2.5h-51q-30 0 -49 2.5t-30 9t-15.5 17.5t-4.5 27h-33q1 -24 6.5 -41t19.5 -27.5t38.5 -15t63.5 -4.5h61q43 0 70 5t42.5 16t21 28.5
t5.5 42.5q0 21 -3.5 33.5t-9.5 20t-13.5 11t-16.5 6.5q9 3 16.5 6.5t13.5 10.5t9.5 18.5t3.5 30.5q0 24 -6 39.5t-21.5 25.5t-42.5 14t-69 4h-62q-41 0 -66 -7t-38.5 -19t-18 -28.5t-4.5 -35.5h33q0 15 4.5 25.5t15.5 18t30.5 11t51.5 3.5h47q37 0 59.5 -3t34.5 -9.5t16 -16
t4 -22.5q0 -32 -18 -42t-51 -10h-98zM362 99v212h-35l-258 -212v-33h260v-67h33v67h42v33h-42zM329 274v-175h-213z" />
    <glyph glyph-name="integral" unicode="&#xe00b;" horiz-adv-x="811" 
d="M739 667h-667v-667h667v667zM717 644v-622h-623v622h623z" />
    <glyph glyph-name="radical" unicode="&#xe00c;" horiz-adv-x="703" 
d="M86 249l-29 -73q19 -11 35 -32.5t30.5 -48t26.5 -53.5t23 -48q90 171 213.5 299t264.5 213v111q-36 -21 -79.5 -55.5t-89.5 -78t-92.5 -95t-87.5 -106t-74.5 -110.5t-53.5 -109q-16 56 -37 103t-50 83z" />
    <glyph glyph-name="approxequal" unicode="&#xe00d;" horiz-adv-x="776" 
d="M326 273v126h124v-126h-124zM285 541v-101h-101q-51 0 -79 28.5t-28 73.5q0 50 29.5 77.5t76.5 27.5q51 0 76.5 -31t25.5 -75zM183 399h102v-126h-102q-30 0 -56.5 -10.5t-46.5 -30t-31.5 -46t-11.5 -57.5t11 -57t30 -45t45 -29.5t57 -10.5q36 0 63.5 11t46 30.5t27.5 46
t9 56.5v102h124v-102q0 -30 9.5 -56.5t28 -46t45.5 -30.5t63 -11q31 0 57 11t45 30t30 45t11 56q0 31 -11.5 57.5t-31.5 46t-46.5 30t-56.5 10.5h-102v126h102q30 0 56.5 11t46.5 30.5t31.5 46t11.5 57.5t-11 57.5t-30 45.5t-45.5 29.5t-56.5 10.5q-36 0 -63 -11.5
t-45.5 -31t-28 -46t-9.5 -56.5v-102h-124v102q0 30 -9 56.5t-27.5 46t-46 31t-63.5 11.5q-30 0 -56.5 -11.5t-45.5 -31t-30 -45.5t-11 -55q0 -32 11 -58.5t30.5 -45.5t46 -30t58.5 -11zM592 440h-101v101q0 44 25.5 75t76.5 31q46 0 76 -27.5t30 -77.5q0 -45 -28.5 -73.5
t-78.5 -28.5zM184 233h101v-101q0 -45 -25.5 -75.5t-76.5 -30.5q-47 0 -76.5 27t-29.5 78q0 45 28 73.5t79 28.5zM491 132v101h101q50 0 78.5 -28.5t28.5 -73.5q0 -51 -30 -78t-76 -27q-51 0 -76.5 30.5t-25.5 75.5z" />
    <glyph glyph-name="nonbreakingspace" unicode="&#xe00e;" horiz-adv-x="582" 
 />
    <glyph glyph-name="lozenge" unicode="&#xe00f;" horiz-adv-x="472" 
d="M239 433l155 -155l-155 -155l-155 155zM34 278l205 -205l205 205l-205 205z" />
    <glyph glyph-name="apple" unicode="&#xe010;" horiz-adv-x="790" 
d="M275 530q-44 0 -79.5 -14.5t-60 -40.5t-38 -62t-13.5 -78q0 -71 27 -134t64.5 -110t77 -74.5t65.5 -27.5q19 0 36 7.5t30 23.5q7 8 18 12t22 4t21.5 -4t17.5 -12q27 -33 73 -33q39 0 70.5 21.5t56.5 52.5t42.5 65t28.5 59q-20 6 -38 18t-32.5 30t-23 41.5t-8.5 52.5
q0 26 6.5 46t17 35.5t25 29t31.5 25.5q-3 15 -17 27.5t-33 21.5t-42 14t-44 5q-25 0 -47 -6.5t-37 -18.5q-20 -16 -35.5 -21.5t-30.5 -5.5t-27 6.5t-33 20.5q-17 12 -41 18t-50 6zM534 669q-21 0 -42.5 -12.5t-39.5 -32t-29.5 -43t-11.5 -46.5q0 -6 2 -11.5t10 -5.5
q24 0 46 15t38.5 37t26.5 46.5t10 43.5q0 9 -10 9z" />
    </font>
</defs>
</svg>
