<?xml version="1.0" standalone="no"?>
<!DOCTYPE svg PUBLIC "-//W3C//DTD SVG 1.1//EN" "http://www.w3.org/Graphics/SVG/1.1/DTD/svg11.dtd" >
<svg xmlns="http://www.w3.org/2000/svg" xmlns:xlink="http://www.w3.org/1999/xlink" version="1.1">
<metadata>
Created by FontForge 20170731 at Fri Nov 26 20:19:04 2004
 By Aleksey,,,
4.1 (c)1986-92 by Richard A. Ware. All Rights Reserved.
</metadata>
<defs>
<font id="MicroExtendFLF-Bold" horiz-adv-x="503" >
  <font-face 
    font-family="MicroExtendFLF"
    font-weight="700"
    font-stretch="normal"
    units-per-em="1000"
    panose-1="2 0 8 7 4 0 0 2 0 4"
    ascent="800"
    descent="-200"
    x-height="494"
    cap-height="694"
    bbox="-44 -220 1812 919"
    underline-thickness="50"
    underline-position="-205"
    unicode-range="U+0005-E010"
  />
<missing-glyph horiz-adv-x="500" 
 />
    <glyph glyph-name=".notdef" horiz-adv-x="500" 
 />
    <glyph glyph-name=".null" horiz-adv-x="0" 
 />
    <glyph glyph-name="nonmarkingreturn" unicode="&#xe002;" horiz-adv-x="0" 
 />
    <glyph glyph-name="breve" horiz-adv-x="413" 
d="M205 589q45 0 86 12.5t69 34.5l-34 39q-23 -18 -55.5 -26t-65.5 -8q-28 0 -61.5 7.5t-59.5 25.5l-34 -38q30 -21 70.5 -34t84.5 -13z" />
    <glyph glyph-name="dotaccent" horiz-adv-x="284" 
d="M48 718v-167h195v167h-195z" />
    <glyph glyph-name="ring" horiz-adv-x="276" 
d="M69 617v32q0 37 43 37h55q42 0 42 -37v-32q0 -20 -12 -28.5t-30 -8.5h-55q-43 0 -43 37zM109 716q-38 0 -55 -18.5t-17 -47.5v-34q0 -29 17 -47t55 -18h60q36 0 53 18t17 47v34q0 29 -17 47.5t-53 18.5h-60z" />
    <glyph glyph-name="hungarumlaut" unicode="&#xa;" horiz-adv-x="390" 
d="M216 753l-100 35l-64 -219l48 -13zM358 753l-100 35l-64 -219l48 -13z" />
    <glyph glyph-name="ogonek" horiz-adv-x="303" 
d="M177 -49v49h-127v-90q0 -36 22 -57.5t52.5 -31.5t63 -13.5t52.5 -2.5t22 1v101l-13.5 -1t-29 2t-29 12.5t-13.5 30.5z" />
    <glyph glyph-name="caron" horiz-adv-x="407" 
d="M236 542l146 145h-41l-133 -69l-129 69h-45l147 -145h55z" />
    <glyph glyph-name="dotlessi" unicode="&#xd;" horiz-adv-x="298" 
d="M237 494h-167v-494h167v494z" />
    <glyph glyph-name="fraction" horiz-adv-x="618" 
d="M119 -89l502 817h-111l-502 -817h111z" />
    <glyph glyph-name="fi" horiz-adv-x="733" 
d="M472 494h-214q0 32 18.5 46t53.5 14h364v140h-377q-108 0 -166.5 -43t-58.5 -124v-33h-61v-135h61v-359h166v359h214v135zM694 494h-167v-494h167v494z" />
    <glyph glyph-name="fl" horiz-adv-x="733" 
d="M524 0h170v694h-396q-105 0 -155.5 -44.5t-50.5 -122.5v-33h-61v-135h61v-359h166v359h216v135h-216q0 19 3 31.5t12 19t24.5 9t40.5 2.5h186v-556z" />
    <glyph glyph-name="Lslash" horiz-adv-x="703" 
d="M60 336l-60 -41v-132l60 41v-204h594v140h-427v163l90 62v132l-90 -62v259h-167v-358z" />
    <glyph glyph-name="lslash" horiz-adv-x="293" 
d="M66 340l-50 -34v-132l50 34v-208h166v310l47 32v132l-47 -32v252h-166v-354z" />
    <glyph glyph-name="Zcaron" horiz-adv-x="866" 
d="M816 694h-780v-138h535l-535 -420v-136h780v139h-517l517 415v140zM456 727l146 145h-41l-133 -69l-129 69h-45l147 -145h55z" />
    <glyph glyph-name="zcaron" horiz-adv-x="662" 
d="M617 494h-574v-138h314l-318 -223v-133h578v139h-341l341 227v128zM351 542l146 145h-41l-133 -69l-129 69h-45l147 -145h55z" />
    <glyph glyph-name="space" unicode=" " horiz-adv-x="528" 
 />
    <glyph glyph-name="exclam" unicode="!" horiz-adv-x="333" 
d="M88 694v-444h166v444h-166zM88 167v-167h168v167h-168z" />
    <glyph glyph-name="quotedbl" unicode="&#x22;" horiz-adv-x="356" 
d="M157 708h-111l22 -227h66zM317 708h-111l22 -227h66z" />
    <glyph glyph-name="numbersign" unicode="#" horiz-adv-x="633" 
d="M309 677h-55l-33 -130h-127l-14 -56h127l-31 -124h-127l-14 -56h127l-33 -131h55l33 131h148l-34 -135h55l34 135h123l14 56h-123l31 124h124l14 56h-124l33 130h-55l-33 -130h-148zM262 491h148l-31 -124h-148z" />
    <glyph glyph-name="dollar" unicode="$" horiz-adv-x="894" 
d="M300 556h112v-130h-112q-22 0 -36 16t-14 51q0 27 14 45t36 18zM590 140h-70v147h70q24 0 44.5 -2.5t35.5 -10t23.5 -22t8.5 -39.5q0 -26 -7.5 -41t-22 -22t-35 -8.5t-47.5 -1.5zM300 287h112v-147h-98q-30 0 -55 12.5t-25 45.5h-172q0 -101 62 -151t200 -50h88v-86h108
v86h79q73 0 125.5 10.5t86 35t49.5 66t16 104.5q0 70 -13 112.5t-44 64.5t-82.5 29t-128.5 7h-88v130h94q36 0 59 -12.5t23 -45.5h178q0 106 -53.5 152.5t-170.5 46.5h-130v63h-108v-63h-92q-74 0 -123 -14t-79 -40t-42.5 -62.5t-12.5 -82.5q0 -55 8 -95t32.5 -65.5
t71.5 -38t125 -12.5z" />
    <glyph glyph-name="percent" unicode="%" horiz-adv-x="1287" 
d="M323 641q42 0 67 -4t38.5 -15.5t17.5 -32.5t4 -56v-48q0 -33 -4 -53.5t-17.5 -31t-38 -14t-65.5 -3.5h-56q-38 0 -60.5 4t-34.5 15t-16 30.5t-4 50.5v48q0 34 4 55.5t16.5 33.5t36 16.5t62.5 4.5h50zM327 281q72 0 117.5 7t72 28t36 60t9.5 103v56q0 63 -9.5 104
t-35.5 64.5t-71 33t-117 9.5h-66q-69 0 -112 -9t-67.5 -33t-33 -65.5t-8.5 -105.5v-56q0 -62 9 -100.5t33.5 -59.5t67 -28.5t109.5 -7.5h66zM590 -33l205 761h-101l-205 -761h101zM1012 353q42 0 67 -4t38.5 -15.5t17.5 -32.5t4 -56v-48q0 -33 -4 -53.5t-17.5 -31t-38 -14
t-65.5 -3.5h-56q-38 0 -60.5 4t-34.5 15t-16 30.5t-4 50.5v48q0 34 4 55.5t16.5 33.5t36 16.5t62.5 4.5h50zM1016 -7q72 0 117.5 7t72 28t36 60t9.5 103v56q0 63 -9.5 104t-35.5 64.5t-71 33t-117 9.5h-66q-69 0 -112 -9t-67.5 -33t-33 -65.5t-8.5 -105.5v-56
q0 -62 9 -100.5t33.5 -59.5t67 -28.5t109.5 -7.5h66z" />
    <glyph glyph-name="ampersand" unicode="&#x26;" horiz-adv-x="986" 
d="M624 0q44 0 73 5t48.5 13.5t32 20t24.5 25.5l112 -62l72 109l-107 62q10 16 18 33.5t13.5 41.5t8.5 56.5t3 77.5h-166q1 -41 -1.5 -75.5t-15.5 -56.5l-323 183q-16 9 -30 16t-25 15.5t-17.5 19.5t-6.5 26q0 30 20 38t61 8h176q53 0 74.5 -17.5t21.5 -45.5h167
q0 39 -8.5 75.5t-33 64.5t-71 44.5t-122.5 16.5h-210q-128 0 -185 -42t-57 -131q0 -38 13.5 -57t30.5 -28q-18 -3 -46 -12.5t-54 -30.5t-45 -58t-19 -95q0 -62 19 -107.5t52 -75t77.5 -43.5t95.5 -14h330zM217 239q0 31 9.5 50t23.5 30t31 15t32 5l326 -181
q-6 -3 -12.5 -6.5t-18.5 -6t-32.5 -4.5t-53.5 -2h-170q-42 0 -68 7.5t-41 21t-20.5 32t-5.5 39.5z" />
    <glyph glyph-name="quotesingle" unicode="'" horiz-adv-x="249" 
d="M183 708h-111l22 -227h67z" />
    <glyph glyph-name="parenleft" unicode="(" horiz-adv-x="329" 
d="M294 -118v140q-27 1 -49.5 6.5t-38 18.5t-24.5 33.5t-9 50.5v372q0 65 28.5 91t92.5 26v138q-50 0 -96.5 -11.5t-83 -40.5t-58.5 -78.5t-22 -124.5v-372q0 -72 20 -120t55 -76.5t82.5 -40.5t102.5 -12z" />
    <glyph glyph-name="parenright" unicode=")" horiz-adv-x="329" 
d="M160 131q0 -30 -9 -50.5t-24.5 -33.5t-38 -18.5t-49.5 -6.5v-140q55 0 103 12t82.5 40.5t54.5 76.5t20 120v372q0 75 -22 124.5t-58.5 78.5t-83.5 40.5t-96 11.5v-138q64 0 92.5 -26t28.5 -91v-372z" />
    <glyph glyph-name="asterisk" unicode="*" horiz-adv-x="344" 
d="M276 529l-89 19l85 21q21 5 30 16t9 22q0 14 -10 24.5t-25 10.5q-8 0 -17.5 -4t-18.5 -15l-59 -67l26 86q3 12 3 21q0 19 -10.5 28t-24.5 9t-25 -9.5t-11 -27.5q0 -10 4 -21l29 -86l-64 64q-19 19 -37 19q-14 0 -23.5 -10.5t-9.5 -24.5q0 -12 9 -22.5t30 -15.5l89 -18
l-88 -24q-21 -6 -30 -17t-9 -22q0 -14 10 -24t25 -10q8 0 17.5 4t18.5 15l61 68l-28 -86q-4 -11 -4 -22q0 -18 10.5 -27t24.5 -9q17 0 26.5 10t9.5 29q0 8 -3 19l-25 87l62 -65q18 -19 37 -19q15 0 24.5 11t9.5 25q0 12 -9 22.5t-30 15.5z" />
    <glyph glyph-name="plus" unicode="+" horiz-adv-x="564" 
d="M211 392h-145v-138h145v-145h139v145h145v138h-145v145h-139v-145z" />
    <glyph glyph-name="comma" unicode="," horiz-adv-x="333" 
d="M74 194v-194h44v-31q0 -32 -16.5 -43.5t-55.5 -11.5v-93q69 0 112 9.5t67.5 30.5t33.5 55t9 84v194h-194z" />
    <glyph glyph-name="hyphen" unicode="-" horiz-adv-x="538" 
d="M476 394h-408v-138h408v138z" />
    <glyph glyph-name="period" unicode="." horiz-adv-x="329" 
d="M74 167v-167h195v167h-195z" />
    <glyph glyph-name="slash" unicode="/" horiz-adv-x="338" 
d="M119 -89l222 817h-111l-222 -817h111z" />
    <glyph glyph-name="zero" unicode="0" horiz-adv-x="861" 
d="M465 540q63 0 100.5 -5.5t57.5 -23t26.5 -49.5t6.5 -84v-72q0 -50 -6.5 -80t-26.5 -46.5t-57 -21.5t-98 -5h-84q-57 0 -91 6t-52 22.5t-24 45.5t-6 76v72q0 52 6 84t24.5 50t54 24.5t94.5 6.5h75zM471 0q108 0 176.5 10.5t107.5 42t53.5 90t14.5 154.5v84
q0 94 -14.5 155.5t-53 97t-106.5 49.5t-175 14h-99q-104 0 -168.5 -13.5t-101 -49t-49.5 -97.5t-13 -159v-84q0 -93 13.5 -150.5t50.5 -89.5t100.5 -43t164.5 -11h99z" />
    <glyph glyph-name="one" unicode="1" horiz-adv-x="861" 
d="M398 0h166v694h-239l-205 -208l81 -80l158 158h39v-564z" />
    <glyph glyph-name="two" unicode="2" horiz-adv-x="861" 
d="M554 253q72 5 120.5 18t78 38t41.5 62.5t12 92.5q0 66 -13 111t-47.5 72.5t-95.5 39t-158 11.5h-149q-97 0 -154.5 -20t-87.5 -55t-38.5 -82.5t-8.5 -102.5h167q0 35 4.5 58.5t21 37.5t47.5 19.5t84 5.5h110q46 0 75.5 -3.5t46.5 -13t23 -25t6 -39.5t-4.5 -39.5t-17 -25
t-34.5 -14t-56 -7.5l-221 -16q-122 -9 -189.5 -60t-67.5 -156v-160h753v139h-586v22q0 41 37 57t119 22z" />
    <glyph glyph-name="three" unicode="3" horiz-adv-x="876" 
d="M352 428v-139h203q25 0 43.5 -3t31.5 -11t19.5 -23.5t6.5 -39.5t-6.5 -38.5t-23 -22.5t-45 -10.5t-71.5 -2.5h-142q-35 0 -61.5 1.5t-44 7.5t-26.5 19t-9 37h-161v-13q0 -52 13 -88.5t47 -59t92.5 -32.5t149.5 -10h152q95 0 154 8.5t91.5 31.5t44 62.5t11.5 101.5
q0 47 -9 76.5t-25.5 46.5t-40 24.5t-53.5 10.5q34 2 58.5 8t40 22t22.5 43.5t7 72.5q0 55 -15 91t-51.5 57t-97 29.5t-151.5 8.5h-140q-92 0 -150.5 -11t-91.5 -34t-45.5 -58.5t-12.5 -84.5v-26h156q1 46 38.5 61t117.5 15h120q47 0 77.5 -2t48.5 -9t25 -19t7 -33t-5 -34
t-17 -19.5t-32 -9t-50 -2.5h-200z" />
    <glyph glyph-name="four" unicode="4" horiz-adv-x="861" 
d="M750 289v405h-218l-458 -330v-214h509v-150h167v150h94v139h-94zM583 544v-255h-343v26l318 229h25z" />
    <glyph glyph-name="five" unicode="5" horiz-adv-x="861" 
d="M559 -1q73 0 122.5 13t79.5 42.5t42.5 75.5t12.5 112q0 60 -11.5 105.5t-40.5 76.5t-78.5 46.5t-126.5 15.5h-258q-20 0 -35.5 -4.5t-27.5 -15.5v108h542v120h-709v-381h167q5 20 20.5 27t41.5 7h262q43 0 65 -28.5t22 -76.5q0 -46 -23 -75t-64 -29h-233q-21 0 -40 1
t-32.5 7t-22 17.5t-8.5 32.5h-167q0 -101 62 -149t189 -48h249z" />
    <glyph glyph-name="six" unicode="6" horiz-adv-x="861" 
d="M526 446h-144q-45 0 -73 -4.5t-45.5 -11.5t-27 -15.5t-17.5 -15.5v77q0 46 28.5 63t96.5 17h182q33 0 56 -1.5t37.5 -6.5t21 -15.5t6.5 -28.5h156v40q0 40 -14 70t-47.5 49t-90 28.5t-141.5 9.5h-170q-83 0 -138.5 -13t-88.5 -42t-47 -77.5t-14 -118.5v-194
q0 -75 13 -125.5t45 -81.5t86.5 -44t137.5 -13h218q75 0 124.5 11t79 36.5t41.5 65.5t12 99v40q0 65 -18.5 104.5t-54.5 61.5t-89 29t-121 7zM347 136q-39 0 -64 4t-39.5 14t-20 27t-6.5 42q0 21 5 37t19.5 27.5t39 17t62.5 5.5h175q39 0 64.5 -5t39.5 -16t19.5 -27.5
t5.5 -38.5q0 -25 -5.5 -41.5t-20 -26.5t-39.5 -14.5t-64 -4.5h-171z" />
    <glyph glyph-name="seven" unicode="7" horiz-adv-x="861" 
d="M821 694h-765v-138h542l-442 -556h207l458 579v115z" />
    <glyph glyph-name="eight" unicode="8" horiz-adv-x="861" 
d="M218 207q0 41 27 63t95 22h178q37 0 61.5 -6t38 -17.5t19 -27t5.5 -34.5q0 -21 -5 -37.5t-19 -28t-38 -17.5t-62 -6h-178q-70 0 -96 23.5t-26 65.5zM218 498q0 20 4.5 36t17.5 27.5t37 18t63 6.5h178q72 0 98 -21.5t26 -66.5q0 -21 -5.5 -36t-19.5 -25.5t-38 -15.5
t-61 -5h-178q-72 0 -97 20.5t-25 61.5zM809 498q0 52 -12 90.5t-41 63.5t-77.5 37t-121.5 12h-256q-73 0 -121.5 -12t-77 -37t-40.5 -63.5t-12 -90.5q0 -43 11 -69t30 -41t43 -21.5t51 -10.5q-25 -5 -49 -13.5t-43 -26.5t-31 -48.5t-12 -78.5q0 -107 60 -152t191 -45h256
q63 0 110 9.5t78.5 33.5t47.5 64t16 101q0 46 -12 75t-31 45.5t-43 24t-48 11.5q27 2 51.5 8.5t43 22t29 42t10.5 69.5z" />
    <glyph glyph-name="nine" unicode="9" horiz-adv-x="861" 
d="M310 243h170q43 0 71 2.5t46 9t28 17t18 25.5v-61q0 -42 -9.5 -66.5t-28.5 -37t-46 -16t-61 -3.5h-126q-45 0 -74.5 3.5t-47.5 11.5t-26 22t-8 34h-157q0 -50 16.5 -87t53 -61t94.5 -36t141 -12h146q86 0 144 15.5t92.5 48.5t49 83.5t14.5 120.5v194q0 69 -17 116
t-53.5 76t-93.5 42t-136 13h-180q-81 0 -134.5 -15.5t-85 -45t-44.5 -72.5t-13 -97q0 -62 14.5 -104.5t45.5 -69t79.5 -38.5t117.5 -12zM518 551q71 0 99 -16.5t30 -63.5q1 -24 -3 -41.5t-16.5 -29t-35 -17.5t-58.5 -6h-202q-37 0 -59.5 6t-34.5 17.5t-16 29t-4 41.5t6 39.5
t19.5 24.5t36 12.5t56.5 3.5h182z" />
    <glyph glyph-name="colon" unicode=":" horiz-adv-x="329" 
d="M74 167v-167h195v167h-195zM74 482v-166h195v166h-195z" />
    <glyph glyph-name="semicolon" unicode=";" horiz-adv-x="329" 
d="M74 482v-166h195v166h-195zM74 194v-194h44v-31q0 -32 -16.5 -43.5t-55.5 -11.5v-93q69 -1 112.5 8.5t67.5 31.5t33 56t9 83v194h-194z" />
    <glyph glyph-name="less" unicode="&#x3c;" horiz-adv-x="367" 
d="M31 393v-99l286 -190v134l-169 108l169 107v134z" />
    <glyph glyph-name="equal" unicode="=" horiz-adv-x="538" 
d="M476 279h-408v-111h408v111zM476 479h-408v-111h408v111z" />
    <glyph glyph-name="greater" unicode="&#x3e;" horiz-adv-x="367" 
d="M48 104l285 190v99l-285 194v-134l169 -107l-169 -108v-134z" />
    <glyph glyph-name="question" unicode="?" horiz-adv-x="867" 
d="M463 247q0 13 2.5 23t12.5 17.5t30 12.5t55 9q75 9 125 20t80 31.5t42.5 54.5t12.5 88q0 55 -11.5 92.5t-38 61t-70.5 34t-109 10.5h-310q-66 0 -112 -14t-74.5 -42t-41 -68.5t-12.5 -93.5h167q1 38 25.5 58.5t91.5 20.5h196q37 0 62.5 -2.5t41.5 -9t22.5 -18t6.5 -29.5
q0 -19 -9.5 -29.5t-31.5 -17t-56.5 -10.5t-83.5 -10q-88 -10 -133 -43.5t-45 -108.5v-64h165v27zM297 167v-167h166v167h-166z" />
    <glyph glyph-name="at" unicode="@" horiz-adv-x="649" 
d="M223 415q0 19 6.5 37.5t19 33t31 23.5t43.5 9q21 0 36.5 -7.5t26 -20t15.5 -29t5 -33.5q0 -19 -6 -37t-18.5 -32.5t-31 -23t-43.5 -8.5q-42 0 -63 27t-21 61zM90 433q0 44 16 86t46.5 75t74.5 53t100 20q68 0 114 -23t74.5 -57t40.5 -73.5t12 -72.5q0 -49 -16.5 -82
t-54.5 -33q-23 0 -32.5 10t-9.5 31v7q0 4 1 9l21 174h-45l-3 -48q-7 11 -16 20.5t-22 17t-30.5 12t-41.5 4.5q-35 0 -62.5 -13.5t-46 -35t-28.5 -48.5t-10 -54q0 -25 8 -48.5t24 -42t39.5 -29.5t54.5 -11q51 0 74.5 13.5t41.5 37.5q3 -9 7.5 -18t13 -16.5t22 -12t35.5 -4.5
q35 0 58.5 13t37 34.5t19 49.5t5.5 58q0 52 -18.5 101.5t-55 88t-89.5 62t-122 23.5q-70 0 -123.5 -24t-90 -63.5t-55 -89.5t-18.5 -102q0 -53 17.5 -102.5t53 -88t89 -62t124.5 -23.5q65 0 113 19.5t77 45.5l-31 36q-22 -20 -60.5 -38.5t-95.5 -18.5q-59 0 -103.5 18.5
t-74 50.5t-44.5 74.5t-15 89.5z" />
    <glyph glyph-name="A" unicode="A" horiz-adv-x="983" 
d="M366 694l-358 -694h194l85 167h421l84 -167h195l-358 694h-263zM504 564l132 -258h-277l137 258h8z" />
    <glyph glyph-name="B" unicode="B" horiz-adv-x="887" 
d="M592 694h-530v-694h586q54 0 90.5 11t59 35.5t32.5 63t10 94.5q0 46 -7 76t-19 48.5t-29 27.5t-37 13q15 7 25.5 15t17.5 23.5t10 42t3 71.5q0 46 -10 78.5t-34.5 53.5t-65.5 31t-102 10zM229 433v123h337q35 0 53.5 -14t18.5 -48q0 -35 -19 -48t-52 -13h-338zM229 139
v155h357q42 0 64.5 -15t22.5 -58q0 -46 -21 -64t-60 -18h-363z" />
    <glyph glyph-name="C" unicode="C" horiz-adv-x="910" 
d="M368 -1h152q111 0 179 12t104.5 40t48 74.5t11.5 115.5h-172q0 -29 -6.5 -47t-25.5 -28t-53.5 -13t-89.5 -3h-136q-54 0 -87 5t-51 21.5t-24 46.5t-6 81v76q0 55 6 87t24.5 48t53 20.5t90.5 4.5h128q59 0 94 -5t53 -15.5t23.5 -26t5.5 -35.5h172q0 73 -15 119t-53 72
t-104 35.5t-168 9.5h-148q-97 0 -160.5 -11.5t-101 -45t-53 -95.5t-15.5 -164v-88q0 -86 15 -142.5t51.5 -89.5t99 -46t158.5 -13z" />
    <glyph glyph-name="D" unicode="D" horiz-adv-x="897" 
d="M526 138h-298v418h298q45 0 74 -8t46.5 -25.5t24 -46t6.5 -68.5v-116q0 -45 -6 -74.5t-23 -47t-46.5 -25t-75.5 -7.5zM552 694h-491v-695h505q79 0 132.5 13.5t85.5 46t45.5 87.5t13.5 138v134q0 77 -15 130t-49.5 85.5t-90 46.5t-136.5 14z" />
    <glyph glyph-name="E" unicode="E" horiz-adv-x="834" 
d="M68 694v-694h710v139h-544v150h527v139h-527v128h544v138h-710z" />
    <glyph glyph-name="F" unicode="F" horiz-adv-x="813" 
d="M60 694v-694h167v289h526v139h-526v128h543v138h-710z" />
    <glyph glyph-name="G" unicode="G" horiz-adv-x="923" 
d="M520 544q59 0 94.5 -2.5t55 -9.5t26.5 -19.5t7 -32.5h172q0 61 -15.5 103t-55.5 67t-108 36t-174 11h-152q-98 0 -160.5 -14.5t-98.5 -50t-49.5 -95.5t-13.5 -151v-108q0 -82 15 -136t51.5 -85.5t97.5 -44t154 -12.5h173q102 0 167 12t102.5 43t52 85t14.5 139v139h-423
v-135h252v-52q0 -24 -7 -40t-27.5 -25t-57 -12.5t-94.5 -3.5h-136q-54 0 -87 6.5t-51 23t-24 46t-6 76.5v73q0 56 7.5 89.5t27 51t53.5 23t87 5.5h131z" />
    <glyph glyph-name="H" unicode="H" horiz-adv-x="864" 
d="M53 694v-694h167v289h428v-289h166v694h-166v-266h-428v266h-167z" />
    <glyph glyph-name="I" unicode="I" horiz-adv-x="328" 
d="M88 0h166v694h-166v-694z" />
    <glyph glyph-name="J" unicode="J" horiz-adv-x="776" 
d="M193 299h-166v-52q0 -65 14.5 -112t45.5 -77t80 -44t117 -14h188q66 0 114 13t79 44.5t46 83t15 128.5v425h-167v-411q0 -44 -7.5 -72t-28 -44t-56 -22t-91.5 -6q-57 0 -92.5 6.5t-55.5 20t-27.5 35t-7.5 51.5v47z" />
    <glyph glyph-name="K" unicode="K" horiz-adv-x="884" 
d="M63 694v-694h167v311h83l312 -311h210l-385 388l403 306h-223l-319 -244h-81v244h-167z" />
    <glyph glyph-name="L" unicode="L" horiz-adv-x="703" 
d="M60 694v-694h594v140h-427v554h-167z" />
    <glyph glyph-name="M" unicode="M" horiz-adv-x="1217" 
d="M71 694v-694h166v510l287 -510h180l288 510v-510h167v694h-249l-296 -511l-286 511h-257z" />
    <glyph glyph-name="N" unicode="N" horiz-adv-x="957" 
d="M66 694v-694h166v519l457 -519h199v694h-167v-475l-407 475h-248z" />
    <glyph glyph-name="O" unicode="O" horiz-adv-x="916" 
d="M513 540q63 0 100.5 -5.5t57.5 -23t26.5 -49.5t6.5 -84v-72q0 -50 -6.5 -80t-26.5 -46.5t-57 -21.5t-98 -5h-132q-57 0 -91 6t-52 22.5t-24 45.5t-6 76v72q0 52 6 84t24.5 50t54 24.5t94.5 6.5h123zM519 0q108 0 176.5 10.5t107.5 42t53.5 90t14.5 154.5v84
q0 94 -14.5 155.5t-53 97t-106.5 49.5t-175 14h-147q-102 0 -167 -13.5t-101.5 -49t-50 -97.5t-13.5 -159v-84q0 -90 14 -147t50.5 -90t100.5 -45t164 -12h147z" />
    <glyph glyph-name="P" unicode="P" horiz-adv-x="800" 
d="M520 694h-463v-694h166v206h308q67 0 113.5 11.5t75 37.5t41 67.5t12.5 101.5v48q0 60 -14 102.5t-45 69t-79 38.5t-115 12zM607 442q0 -39 -17.5 -54.5t-61.5 -15.5h-305v156h301q47 0 65 -15.5t18 -56.5v-14z" />
    <glyph glyph-name="Q" unicode="Q" horiz-adv-x="929" 
d="M704 306v-16t-1 -15l-204 131l-96 -134l181 -117q-15 -1 -32 -1.5t-36 -0.5h-132q-57 0 -91 6t-52 22.5t-24 45.5t-6 76v72q0 52 6 84t24.5 50t54 24.5t94.5 6.5h123q63 0 100.5 -5.5t57.5 -23t26.5 -49.5t6.5 -84v-72zM519 0q90 0 151 6.5t102 26.5l77 -49l88 140
l-74 47q5 26 6.5 57.5t1.5 68.5v84q0 94 -14.5 155.5t-53 97t-106.5 49.5t-175 14h-147q-104 0 -168.5 -13.5t-101 -49t-49.5 -97.5t-13 -159v-84q0 -93 13.5 -150.5t50.5 -89.5t100.5 -43t164.5 -11h147z" />
    <glyph glyph-name="R" unicode="R" horiz-adv-x="889" 
d="M834 144q0 62 -16.5 91.5t-45.5 40.5q33 21 44 55t11 93v48q0 60 -14 102.5t-45 69t-79 38.5t-115 12h-515v-694h167v207h328q58 0 85.5 -24t27.5 -75v-108h167v144zM661 442q0 -39 -17.5 -54.5t-61.5 -15.5h-359v156h355q47 0 65 -15.5t18 -56.5v-14z" />
    <glyph glyph-name="S" unicode="S" horiz-adv-x="897" 
d="M291 694q-67 0 -114.5 -10.5t-77.5 -34.5t-44 -62.5t-14 -93.5q0 -65 13.5 -102.5t44.5 -57t79.5 -26.5t119.5 -10l266 -11q36 -2 58.5 -7t35 -14.5t17.5 -23t5 -32.5q0 -42 -27 -56t-82 -14h-278q-35 0 -58 16t-23 42h-170q0 -50 11.5 -87t39 -61.5t72.5 -36.5t111 -12
h344q65 0 110 12t72.5 38t39.5 65.5t12 95.5q0 69 -15 109t-44.5 61.5t-74 29t-103.5 9.5l-307 12q-18 1 -33 2.5t-25.5 7t-16.5 17t-6 32.5q0 40 23 52.5t58 12.5h279q26 0 42.5 -3t26 -10t13 -18t3.5 -27h179q0 100 -63 148t-194 48h-305z" />
    <glyph glyph-name="T" unicode="T" horiz-adv-x="800" 
d="M777 694h-750v-141h292v-553h166v553h292v141z" />
    <glyph glyph-name="U" unicode="U" horiz-adv-x="896" 
d="M213 694h-166v-447q0 -66 15 -113t49 -77t87 -43.5t130 -13.5h246q80 0 134.5 13t87.5 42t47 76t14 116v447h-167v-430q0 -36 -8 -60t-25 -38.5t-45 -20.5t-68 -6h-180q-42 0 -71 6t-46.5 20t-25.5 38t-8 60v431z" />
    <glyph glyph-name="V" unicode="V" horiz-adv-x="983" 
d="M207 694h-192l346 -694h264l346 694h-190l-287 -574z" />
    <glyph glyph-name="W" unicode="W" horiz-adv-x="1391" 
d="M533 0l167 472l167 -472h244l269 694h-172l-212 -554h-13l-197 554h-173l-196 -558h-9l-217 558h-172l270 -694h244z" />
    <glyph glyph-name="X" unicode="X" horiz-adv-x="984" 
d="M250 694h-199l317 -327l-368 -367h211l279 274l278 -274h210l-366 367l315 327h-197l-240 -238z" />
    <glyph glyph-name="Y" unicode="Y" horiz-adv-x="882" 
d="M220 694h-199l341 -460v-234h167v234l333 460h-190l-226 -313z" />
    <glyph glyph-name="Z" unicode="Z" horiz-adv-x="866" 
d="M816 694h-780v-138h535l-535 -420v-136h780v139h-517l517 415v140z" />
    <glyph glyph-name="bracketleft" unicode="[" horiz-adv-x="289" 
d="M249 706v55h-185v-872l188 -1v55h-76v763h73z" />
    <glyph glyph-name="backslash" unicode="\" horiz-adv-x="338" 
d="M339 -89l-222 817h-111l222 -817h111z" />
    <glyph glyph-name="bracketright" unicode="]" horiz-adv-x="289" 
d="M238 -111v872h-185v-55h74v-763h-77v-55z" />
    <glyph glyph-name="asciicircum" unicode="^" horiz-adv-x="406" 
d="M186 641l-147 -305h32l135 195l133 -195h33l-146 305h-40z" />
    <glyph glyph-name="underscore" unicode="_" horiz-adv-x="389" 
d="M407 -31h-406v-55h406v55z" />
    <glyph glyph-name="grave" unicode="`" horiz-adv-x="320" 
d="M236 554l37 33l-150 171l-76 -74z" />
    <glyph glyph-name="a" unicode="a" horiz-adv-x="749" 
d="M265 317q-62 0 -102 -9t-64 -27.5t-33.5 -46t-9.5 -64.5v-28q0 -77 50 -109.5t158 -32.5h111q53 0 84.5 4.5t49 12t25.5 17.5t15 22v-56h139v307q0 41 -11.5 75.5t-38.5 59t-72 38.5t-112 14h-182q-114 0 -163 -35.5t-49 -107.5h158q0 9 4.5 17t16.5 13t32.5 8t52.5 3
h105q34 0 57 -4t36.5 -14t19.5 -27t6 -42v-38q-6 11 -14.5 20.5t-27.5 16t-51.5 10t-86.5 3.5h-103zM218 158q0 32 21.5 40t56.5 8h160q39 0 60.5 -9t21.5 -39q0 -31 -22 -39t-60 -8h-160q-37 0 -57.5 8.5t-20.5 38.5z" />
    <glyph glyph-name="b" unicode="b" horiz-adv-x="784" 
d="M222 63q7 -12 19 -23.5t32.5 -20.5t53 -14t82.5 -5h70q69 0 116.5 14.5t77.5 42.5t43.5 68.5t13.5 92.5v57q0 110 -62.5 165.5t-196.5 55.5h-70q-48 0 -79.5 -6.5t-52 -17t-31 -24t-16.5 -27.5v273h-166v-694h166v63zM227 240v20q0 26 7 46.5t23.5 34.5t44.5 21.5t70 7.5
h56q71 0 103 -24t32 -90v-20q0 -63 -32 -86.5t-103 -23.5h-64q-38 0 -64.5 7.5t-42.5 22t-23 36t-7 48.5z" />
    <glyph glyph-name="c" unicode="c" horiz-adv-x="703" 
d="M666 164v15h-158q0 -15 -4.5 -27t-19.5 -19.5t-42.5 -11.5t-73.5 -4h-40q-82 0 -115 26t-33 86v32q0 32 7 54t24 36t45.5 20.5t70.5 6.5h38q46 0 74 -3.5t43.5 -11t20.5 -18t5 -24.5h158v10q0 43 -12 74.5t-43 51.5t-85.5 29.5t-138.5 9.5h-75q-80 0 -133 -12.5
t-84.5 -38.5t-44.5 -68t-13 -100v-64q0 -58 12.5 -98.5t44.5 -66t88 -37t143 -11.5h75q85 0 137.5 11t81 32t38 51.5t9.5 69.5z" />
    <glyph glyph-name="d" unicode="d" horiz-adv-x="784" 
d="M299 0h70q49 0 82 5t53.5 14t32 20.5t19.5 23.5v-63h166v694h-166v-273q-6 14 -16.5 27.5t-31 24t-52 17t-79.5 6.5h-70q-134 0 -196.5 -55.5t-62.5 -165.5v-57q0 -52 13.5 -92.5t43.5 -68.5t77.5 -42.5t116.5 -14.5zM408 370q42 0 70 -7.5t44.5 -21.5t23.5 -34.5
t7 -46.5v-20q0 -55 -30.5 -84.5t-106.5 -29.5h-64q-71 0 -103 23.5t-32 86.5v20q0 66 32 90t103 24h56z" />
    <glyph glyph-name="e" unicode="e" horiz-adv-x="698" 
d="M399 380q38 0 60.5 -7.5t34 -19t14.5 -25t3 -26.5h-320q0 11 2.5 24.5t13 25.5t31.5 20t57 8h104zM323 -1h73q87 0 140 13t82 34t38.5 48.5t9.5 56.5v10h-155q0 -15 -5 -24.5t-17 -15t-32.5 -7t-51.5 -1.5h-104q-63 0 -87.5 21t-24.5 57v19h477v72q0 61 -12 102t-43.5 66
t-85.5 35.5t-138 10.5h-79q-78 0 -130 -12.5t-83.5 -38.5t-44.5 -67t-13 -98v-67q0 -58 13.5 -98.5t46.5 -66t88 -37.5t138 -12z" />
    <glyph glyph-name="f" unicode="f" horiz-adv-x="512" 
d="M471 496h-212v10q0 30 12.5 40t52.5 10h131v138h-167q-56 0 -93.5 -12t-60 -34.5t-32.5 -55t-10 -73.5v-23h-61v-137h61v-359h167v359h212v137z" />
    <glyph glyph-name="g" unicode="g" horiz-adv-x="774" 
d="M294 494q-119 0 -182 -52t-63 -168v-60q0 -214 251 -214h94q45 0 74 5.5t46.5 15.5t27 23t15.5 28v-64q0 -32 -7 -53t-22 -34t-39.5 -18t-58.5 -5h-78q-35 0 -58.5 4.5t-37.5 12t-19.5 17t-5.5 20.5h-167q0 -77 61.5 -124.5t186.5 -47.5h150q70 0 119.5 14t81 44.5
t46 79.5t14.5 118v458h-166v-63q-9 11 -20 22t-30.5 20t-50.5 15t-78 6h-84zM408 370q42 0 70 -7.5t44.5 -21.5t23.5 -34.5t7 -46.5v-20q0 -55 -30.5 -84.5t-106.5 -29.5h-64q-71 0 -103 23.5t-32 86.5v20q0 66 32 90t103 24h56z" />
    <glyph glyph-name="h" unicode="h" horiz-adv-x="790" 
d="M484 494h-117q-35 0 -59 -6t-41 -16t-27.5 -23t-18.5 -26v271h-165v-695h167v243q0 66 33.5 101t96.5 35h81q41 0 68 -7t43 -22t22.5 -38t6.5 -55v-257h167v269q0 56 -13 98.5t-43.5 71t-79.5 42.5t-121 14z" />
    <glyph glyph-name="i" unicode="i" horiz-adv-x="298" 
d="M237 494h-167v-494h167v494zM237 694h-167v-133h167v133z" />
    <glyph glyph-name="j" unicode="j" horiz-adv-x="341" 
d="M109 494v-483q0 -42 -20 -63t-72 -21v-139q77 0 127 9.5t79.5 34t41 68t11.5 112.5v482h-167zM277 694h-167v-133h167v133z" />
    <glyph glyph-name="k" unicode="k" horiz-adv-x="647" 
d="M47 694v-694h166v248h29l209 -248h186l-255 294l229 200h-187l-184 -161h-27v361h-166z" />
    <glyph glyph-name="l" unicode="l" horiz-adv-x="293" 
d="M232 694h-166v-694h166v694z" />
    <glyph glyph-name="m" unicode="m" horiz-adv-x="1164" 
d="M878 494h-45q-43 0 -72.5 -6t-49 -16t-31 -23t-19.5 -27q-8 13 -21 26t-37.5 23.5t-63.5 16.5t-99 6h-36q-44 0 -74.5 -6.5t-51.5 -17t-33 -24.5t-18 -28v76h-170v-494h170v270q0 50 25.5 79t91.5 29h30q39 0 64 -8t39.5 -22.5t20 -35t5.5 -45.5v-267h170v264
q0 53 30 83.5t99 30.5h30q41 0 64.5 -9t35.5 -23.5t15.5 -33.5t3.5 -39v-273h170v304q0 42 -12 77t-40.5 60t-75 39t-115.5 14z" />
    <glyph glyph-name="n" unicode="n" horiz-adv-x="738" 
d="M436 494h-52q-45 0 -74.5 -6.5t-48.5 -17t-29.5 -23.5t-17.5 -25v72h-165v-494h168v242q0 64 36 100t107 36h24q78 0 111 -35t33 -101v-242h166v269q0 112 -60 168.5t-198 56.5z" />
    <glyph glyph-name="o" unicode="o" horiz-adv-x="704" 
d="M309 496q-77 0 -128.5 -13t-82.5 -41t-43.5 -72t-12.5 -106v-41q0 -62 14 -105t41.5 -69.5t68 -38t92.5 -11.5h199q57 0 97.5 12t66.5 38.5t38.5 69t12.5 104.5v41q0 64 -14 108.5t-47 72t-86 39.5t-131 12h-85zM525 240q0 -31 -7 -52.5t-23 -35t-42.5 -20t-64.5 -6.5
h-62q-38 0 -64.5 6.5t-42.5 20t-23 35t-7 52.5v20q0 28 6.5 49t22.5 34.5t44 20t70 6.5h50q42 0 70 -6.5t44 -20t22.5 -34.5t6.5 -49v-20z" />
    <glyph glyph-name="p" unicode="p" horiz-adv-x="764" 
d="M473 496h-70q-50 0 -82.5 -5t-53 -14t-32.5 -20.5t-19 -23.5v63h-166v-696h166v275q5 -14 16 -27t31 -24t52 -17.5t80 -6.5h70q134 0 196.5 55.5t62.5 165.5v49q0 55 -13.5 97.5t-43.5 71t-77.5 43t-116.5 14.5zM225 240v20q0 26 7 46.5t23.5 34.5t44.5 21.5t70 7.5h56
q71 0 103 -24.5t32 -89.5v-20q0 -60 -31.5 -85t-103.5 -25h-64q-38 0 -64.5 7.5t-42.5 22t-23 36t-7 48.5z" />
    <glyph glyph-name="q" unicode="q" horiz-adv-x="770" 
d="M544 433q-8 12 -19.5 23.5t-32 20.5t-53.5 14t-82 5h-70q-69 0 -116.5 -14.5t-77.5 -43t-43.5 -71t-13.5 -97.5v-49q0 -110 62.5 -165.5t196.5 -55.5h70q48 0 80 6.5t52 17.5t31 24t16 27v-275h166v696h-166v-63zM392 370q42 0 70 -7.5t44.5 -21.5t23.5 -34.5t7 -46.5
v-20q0 -55 -30.5 -84.5t-106.5 -29.5h-64q-72 0 -103.5 25t-31.5 85v20q0 65 32 89.5t103 24.5h56z" />
    <glyph glyph-name="r" unicode="r" horiz-adv-x="673" 
d="M482 293h166q0 43 -10.5 79.5t-37 63.5t-71.5 42.5t-113 15.5h-67q-32 0 -55 -6t-39.5 -16t-27 -23t-17.5 -28v73h-169v-494h169v260q0 51 31.5 84.5t91.5 33.5h43q31 0 51.5 -8t32.5 -21t17 -28t5 -28z" />
    <glyph glyph-name="s" unicode="s" horiz-adv-x="698" 
d="M187 147h-147q0 -44 13.5 -72.5t38 -45.5t59.5 -23.5t77 -6.5h236q98 0 148.5 38t50.5 113v26q0 36 -10 61.5t-33.5 43t-61.5 26t-94 9.5l-217 4q-37 1 -48 7.5t-11 23.5t12.5 26.5t47.5 9.5h173q83 0 83 -39h156q0 44 -12.5 73t-37 45.5t-62 23t-87.5 6.5h-224
q-56 0 -93.5 -10t-60.5 -29.5t-32.5 -47t-9.5 -62.5v-24q0 -38 11.5 -63t33 -40.5t53 -22t71.5 -7.5l223 -4q39 -1 52 -11.5t13 -27.5q0 -19 -13.5 -29.5t-51.5 -10.5h-184q-20 0 -32 3.5t-19 9.5t-9 13t-2 14z" />
    <glyph glyph-name="t" unicode="t" horiz-adv-x="701" 
d="M349 119q-54 0 -77.5 21t-23.5 66v150h350v138h-350v95h-166v-95h-61v-138h61v-142q0 -54 14 -94t45 -67t80 -40t118 -13h55q88 0 142.5 17t83.5 45.5t38.5 64.5t9.5 75h-171q0 -15 -3.5 -30t-14.5 -26.5t-31.5 -19t-54.5 -7.5h-44z" />
    <glyph glyph-name="u" unicode="u" horiz-adv-x="796" 
d="M298 -1h129q33 0 57 6t41 15t28 20t19 22v-62h166v494h-168v-243q0 -66 -36.5 -100.5t-106.5 -34.5h-65q-39 0 -66 7t-44 22.5t-25 41.5t-8 64v243h-167v-272q0 -60 16.5 -102.5t48 -69.5t77 -39t104.5 -12z" />
    <glyph glyph-name="v" unicode="v" horiz-adv-x="676" 
d="M173 494h-162l234 -494h189l233 494h-161l-167 -345z" />
    <glyph glyph-name="w" unicode="w" horiz-adv-x="1107" 
d="M424 0l134 309l133 -309h189l216 494h-162l-148 -345l-149 345h-159l-148 -345l-149 345h-161l216 -494h188z" />
    <glyph glyph-name="x" unicode="x" horiz-adv-x="693" 
d="M241 494h-184l176 -223l-214 -271h184l146 184l142 -184h185l-218 276l174 218h-182l-107 -132z" />
    <glyph glyph-name="y" unicode="y" horiz-adv-x="684" 
d="M176 494h-160l231 -494q-9 -20 -21.5 -32t-30 -18.5t-41 -9t-54.5 -2.5v-149q77 0 130 13t90.5 39t64.5 65.5t52 93.5l233 494h-160l-167 -345z" />
    <glyph glyph-name="z" unicode="z" horiz-adv-x="662" 
d="M617 494h-574v-138h314l-318 -223v-133h578v139h-341l341 227v128z" />
    <glyph glyph-name="braceleft" unicode="{" horiz-adv-x="304" 
d="M208 416v184q0 54 20.5 75.5t72.5 21.5l1 55q-42 0 -79 -8t-65 -28t-44.5 -53.5t-16.5 -84.5v-172q0 -35 -19.5 -59t-46.5 -39q26 -15 46 -37.5t20 -60.5v-194q0 -41 17.5 -69.5t46 -46t65.5 -25t76 -7.5v55q-50 0 -72 21t-22 72v188q0 40 -18 65.5t-42 38.5
q22 11 41 35.5t19 72.5z" />
    <glyph glyph-name="bar" unicode="|" horiz-adv-x="200" 
d="M142 -133v872h-83v-872h83z" />
    <glyph glyph-name="braceright" unicode="}" horiz-adv-x="302" 
d="M18 697q52 0 72.5 -21.5t20.5 -75.5v-184q0 -48 19 -72.5t41 -35.5q-24 -13 -42 -38.5t-18 -65.5v-188q0 -51 -22 -72t-72 -21v-55q39 0 76 7.5t65.5 25t46 46t17.5 69.5v194q0 38 20 60.5t46 37.5q-27 15 -46.5 39t-19.5 59v172q0 51 -16.5 84.5t-44.5 53.5t-65 28
t-79 8z" />
    <glyph glyph-name="asciitilde" unicode="~" horiz-adv-x="591" 
d="M58 340h93q4 18 17.5 34t48.5 16q24 0 39 -8t32 -18q16 -10 37.5 -18t56.5 -8q37 0 63.5 10t44 27.5t26.5 41t11 50.5h-89q-1 -16 -14.5 -32.5t-45.5 -16.5q-23 0 -39 8t-33 19q-17 9 -38 16.5t-54 7.5q-41 0 -69.5 -11.5t-47 -30t-28 -41.5t-11.5 -46z" />
    <glyph glyph-name="exclamdown" unicode="&#xa1;" horiz-adv-x="256" 
d="M208 -144v444h-166v-444h166zM208 383v167h-168v-167h168z" />
    <glyph glyph-name="cent" unicode="&#xa2;" horiz-adv-x="787" 
d="M469 194h-25v264h27q21 0 36 -5.5t24.5 -13.5t14.5 -18.5t7 -19.5h161q-2 32 -14 63.5t-38.5 56t-68.5 40t-104 15.5h-45v64h-93v-64h-40q-117 0 -172 -58.5t-55 -164.5v-50q0 -114 51.5 -168.5t170.5 -54.5h45v-56h93v56h47q67 0 110 17.5t67.5 44t34.5 57.5t11 58h-154
q-2 -11 -6 -22t-13.5 -20t-26.5 -15t-45 -6zM322 458h29v-264h-27q-20 0 -37.5 5.5t-30 18t-20 33.5t-7.5 51v48q0 48 22 78t71 30z" />
    <glyph glyph-name="sterling" unicode="&#xa3;" horiz-adv-x="782" 
d="M350 556h100q43 0 69.5 -5t40.5 -15.5t18.5 -28t5.5 -41.5h167q0 70 -17.5 114.5t-54.5 70t-93 34.5t-134 9h-112q-74 0 -124 -12t-80.5 -34.5t-44 -56t-13.5 -75.5q0 -29 5 -49t13 -35q9 -17 18 -30.5t13 -30.5h-74v-111h85q0 -62 -21 -97.5t-74 -54.5v-108h698v139
h-470q16 26 20.5 56t4.5 65h368v111h-371q-4 17 -12 32t-17 30q-8 14 -14 29.5t-6 34.5q0 13 4 24t15.5 19t32.5 12t54 4z" />
    <glyph glyph-name="yen" unicode="&#xa5;" horiz-adv-x="924" 
d="M224 694h-202l364 -457h-167v-56h167v-27h-167v-55h167v-99h164v99h167v55h-167v27h167v56h-167l357 457h-189l-251 -313z" />
    <glyph glyph-name="brokenbar" unicode="&#xa6;" horiz-adv-x="167" 
d="M114 452v287h-55v-287h55zM114 0v287h-55v-287h55z" />
    <glyph glyph-name="section" unicode="&#xa7;" horiz-adv-x="751" 
d="M586 317v-13q0 -26 -17 -41t-69 -15h-256q-49 0 -65 14t-16 42v12q0 26 16 43t65 17h257q50 0 67.5 -16.5t17.5 -42.5zM684 84q0 36 -10.5 52t-25.5 27q37 7 56.5 40.5t19.5 90.5v28q0 40 -10.5 69.5t-34.5 49t-62.5 29.5t-94.5 10h-226q-50 0 -71 9.5t-21 41.5t21 43.5
t65 11.5h140q31 0 51 -2.5t31.5 -8.5t15.5 -15t4 -21h151q0 34 -9 63t-30.5 50t-58 32.5t-90.5 11.5h-231q-57 0 -95.5 -10.5t-61 -28.5t-32 -43t-9.5 -54v-17q0 -21 1.5 -35t4.5 -23.5t8.5 -15.5t13.5 -11q-12 -3 -24 -11.5t-21.5 -25t-16 -41t-6.5 -58.5v-26q0 -37 10 -65
t34 -47t65.5 -28.5t104.5 -9.5h200q57 0 81.5 -14t24.5 -43q0 -32 -25.5 -44t-82.5 -12h-140q-48 0 -66.5 12.5t-18.5 37.5h-150q0 -34 9 -63t32 -50t62 -32.5t98 -11.5h180q67 0 113 8t74.5 24t40.5 40t12 55v31z" />
    <glyph glyph-name="dieresis" unicode="&#xa8;" horiz-adv-x="409" 
d="M162 680h-134v-107h134v107zM389 680h-135v-107h135v107z" />
    <glyph glyph-name="copyright" unicode="&#xa9;" horiz-adv-x="640" 
d="M210 360q0 22 7.5 43.5t22 37.5t37 26t52.5 10q40 0 64.5 -13.5t38.5 -23.5v24q-14 10 -39.5 22.5t-63.5 12.5q-36 0 -62.5 -12.5t-44 -32t-26.5 -44.5t-9 -50q0 -26 9 -49t27 -40t44.5 -27.5t61.5 -10.5q44 0 66.5 11.5t36.5 22.5v26q-17 -14 -40.5 -26.5t-62.5 -12.5
q-59 0 -89 31.5t-30 74.5zM63 364q0 55 20.5 103t56.5 84t84 56.5t103 20.5t103 -20.5t84 -56.5t56.5 -84t20.5 -103t-20.5 -103t-56.5 -84t-84 -56.5t-103 -20.5t-103 20.5t-84 56.5t-56.5 84t-20.5 103zM614 363q0 59 -22.5 111t-61.5 91t-91 61.5t-111 22.5t-111 -22.5
t-91 -61.5t-61.5 -91t-22.5 -111t22.5 -111t61.5 -91t91 -61.5t111 -22.5t111 22.5t91 61.5t61.5 91t22.5 111z" />
    <glyph glyph-name="ordfeminine" unicode="&#xaa;" horiz-adv-x="422" 
d="M380 329h-343v-73h343v73zM151 560q-31 0 -51 -4.5t-32 -14t-17 -23.5t-5 -32v-14q0 -38 25 -54.5t79 -16.5h56q27 0 42.5 2.5t24 6t12.5 8.5t8 11v-28h69v154q0 20 -5.5 37t-19 29.5t-36 19.5t-56.5 7h-91q-57 0 -81.5 -17.5t-24.5 -53.5h79q0 9 10.5 14.5t42.5 5.5h53
q34 0 46.5 -8.5t12.5 -34.5v-19q-3 6 -7 10.5t-13.5 7.5t-26 5t-43.5 2h-51zM127 480q0 17 11 20.5t28 3.5h80q20 0 30.5 -4.5t10.5 -19.5t-10.5 -19t-30.5 -4h-80q-18 0 -28.5 4t-10.5 19z" />
    <glyph glyph-name="guillemotleft" unicode="&#xab;" horiz-adv-x="620" 
d="M20 302v-50l272 -218l58 75l-213 170l213 172l-60 73zM260 302v-50l272 -218l58 75l-213 170l213 172l-60 73z" />
    <glyph glyph-name="logicalnot" unicode="&#xac;" 
d="M449 382h-388v-38h388v38zM252 413h75v312h-108l-92 -93l37 -36l71 71h17v-254zM429 229q0 47 -24 69.5t-89 22.5h-116q-65 0 -89 -22.5t-24 -69.5q0 -19 5 -31t13.5 -18.5t19.5 -9.5t23 -5q-11 -2 -22 -5.5t-19.5 -12t-14 -22t-5.5 -35.5q0 -48 27 -68t86 -20h116
q57 0 85 19t28 74q0 21 -5.5 34t-14 20.5t-19.5 10.5t-21 5q25 2 42.5 14t17.5 50zM163 229q0 18 10 29t45 11h80q32 0 44 -10t12 -30q0 -18 -11.5 -27.5t-44.5 -9.5h-80q-32 0 -43.5 9.5t-11.5 27.5zM163 98q0 19 12 29t43 10h80q34 0 45 -11t11 -28q0 -18 -11 -29t-45 -11
h-80q-32 0 -43.5 11t-11.5 29z" />
    <glyph glyph-name="registered" unicode="&#xae;" horiz-adv-x="396" 
d="M265 585q0 21 -14 35t-37 14h-70v-182h14v84h31l58 -84h18l-59 84h8q23 0 37 12t14 37zM251 585q0 -35 -36 -35h-57v70h57q18 0 27 -10.5t9 -24.5zM357 539q0 33 -12.5 61.5t-34 50t-50 34t-61.5 12.5t-61.5 -12.5t-50 -34t-34 -50t-12.5 -61.5t12.5 -61.5t34 -50t50 -34
t61.5 -12.5t61.5 12.5t50 34t34 50t12.5 61.5zM56 539q0 30 11 56t30.5 45.5t45.5 30.5t56 11t56 -11t45.5 -30.5t30.5 -45.5t11 -56t-11 -56t-30.5 -45.5t-45.5 -30.5t-56 -11t-56 11t-45.5 30.5t-30.5 45.5t-11 56z" />
    <glyph glyph-name="macron" unicode="&#xaf;" horiz-adv-x="458" 
d="M424 661h-387v-54h387v54z" />
    <glyph glyph-name="degree" unicode="&#xb0;" horiz-adv-x="284" 
d="M126 673q-49 0 -66 -19t-17 -57v-18q0 -32 18 -51t66 -19h37q47 0 64.5 19.5t17.5 50.5v17q0 38 -16.5 57.5t-67.5 19.5h-36zM74 580v17q0 26 13 36t40 10h35q28 0 40 -10t12 -36v-18q0 -22 -11.5 -31.5t-40.5 -9.5h-34q-29 0 -41.5 9.5t-12.5 32.5z" />
    <glyph glyph-name="plusminus" unicode="&#xb1;" horiz-adv-x="556" 
d="M476 248h-408v-139h408v139zM198 552h-145v-138h145v-144h139v144h153v138h-153v145h-139v-145z" />
    <glyph glyph-name="twosuperior" unicode="&#xb2;" 
d="M311 527q33 2 54.5 8t35 17t19 28t5.5 42q0 30 -6 50t-21.5 32t-43.5 17.5t-71 5.5h-67q-44 0 -69.5 -9t-39 -25t-17.5 -37t-4 -46h75q0 16 2 26.5t9.5 16.5t21.5 8.5t38 2.5h49q42 0 55 -7t13 -29t-9.5 -29.5t-40.5 -9.5l-99 -7q-56 -4 -86 -26.5t-30 -70.5v-72h339v63
h-264v9q0 19 16.5 26t53.5 10z" />
    <glyph glyph-name="threesuperior" unicode="&#xb3;" 
d="M214 608v-62h91q23 0 34.5 -6t11.5 -29q0 -22 -13.5 -27.5t-52.5 -5.5h-64q-32 0 -47.5 4t-15.5 25h-73v-6q0 -23 6 -39.5t21 -26.5t41.5 -14.5t67.5 -4.5h69q43 0 69.5 4t41 14t19.5 28t5 46q0 42 -15.5 55t-42.5 16q16 1 27 3.5t18 9.5t10 19.5t3 32.5q0 25 -7 41.5
t-23.5 26t-43.5 13t-68 3.5h-63q-41 0 -67.5 -5t-41.5 -15.5t-20.5 -26t-5.5 -37.5v-12h71q0 20 17 27t53 7h54q42 0 56.5 -5t14.5 -23q0 -20 -10 -25t-37 -5h-90z" />
    <glyph glyph-name="acute" unicode="&#xb4;" horiz-adv-x="311" 
d="M271 683l-77 74l-150 -171l38 -33z" />
    <glyph glyph-name="mu" unicode="&#xb5;" 
d="M449 382h-388v-38h388v38zM307 113q33 2 54.5 8t35 17t19 28t5.5 42q0 30 -6 50t-21.5 32t-43.5 17.5t-71 5.5h-67q-44 0 -69.5 -9t-39 -25t-17.5 -37t-4 -46h75q0 16 2 26.5t9.5 16.5t21.5 8.5t38 2.5h49q42 0 55 -7t13 -29t-9.5 -29.5t-40.5 -9.5l-99 -7
q-56 -4 -86 -26.5t-30 -70.5v-72h339v63h-264v9q0 19 16.5 26t53.5 10zM252 413h75v312h-108l-92 -93l37 -36l71 71h17v-254z" />
    <glyph glyph-name="paragraph" unicode="&#xb6;" horiz-adv-x="858" 
d="M399 -56h167v750h-282q-55 0 -100 -18.5t-77 -51t-49.5 -77t-17.5 -97.5q0 -52 17 -96.5t48.5 -77.5t76.5 -51.5t102 -18.5h115v-262zM643 -56h167v750h-167v-750z" />
    <glyph glyph-name="periodcentered" unicode="&#xb7;" horiz-adv-x="321" 
d="M64 432v-167h195v167h-195z" />
    <glyph glyph-name="periodcentered" unicode="&#x2219;" horiz-adv-x="321" 
d="M64 432v-167h195v167h-195z" />
    <glyph glyph-name="cedilla" unicode="&#xb8;" horiz-adv-x="298" 
d="M252 -90v90h-126v-49q0 -20 -13.5 -29.5t-29.5 -12.5t-29.5 -2.5l-13.5 0.5v-101q2 0 22 -1t52.5 2.5t63 13.5t52.5 31.5t22 57.5z" />
    <glyph glyph-name="onesuperior" unicode="&#xb9;" horiz-adv-x="350" 
d="M207 413h75v312h-108l-92 -93l37 -36l71 71h17v-254z" />
    <glyph glyph-name="ordmasculine" unicode="&#xba;" horiz-adv-x="422" 
d="M380 329h-343v-73h343v73zM185 643q-77 0 -105.5 -27t-28.5 -89v-21q0 -63 28 -88t80 -25h100q57 0 82.5 25.5t25.5 87.5v21q0 32 -7 54.5t-23.5 36t-43 19.5t-65.5 6h-43zM293 515q0 -32 -15 -45t-53 -13h-31q-39 0 -54 13t-15 45v10q0 29 14.5 42t57.5 13h25
q42 0 56.5 -13t14.5 -42v-10z" />
    <glyph glyph-name="guillemotright" unicode="&#xbb;" horiz-adv-x="644" 
d="M31 112l60 -72l265 212v50l-263 218l-60 -73l207 -168zM280 112l60 -72l265 212v50l-263 218l-60 -73l206 -168z" />
    <glyph glyph-name="onequarter" unicode="&#xbc;" 
d="M449 382h-388v-38h388v38zM380 129v182h-98l-206 -148v-97h229v-67h75v67h42v63h-42zM252 413h75v312h-108l-92 -93l37 -36l71 71h17v-254zM305 244v-115h-155v12l144 103h11z" />
    <glyph glyph-name="onehalf" unicode="&#xbd;" 
d="M449 382h-388v-38h388v38zM307 113q33 2 54.5 8t35 17t19 28t5.5 42q0 30 -6 50t-21.5 32t-43.5 17.5t-71 5.5h-67q-44 0 -69.5 -9t-39 -25t-17.5 -37t-4 -46h75q0 16 2 26.5t9.5 16.5t21.5 8.5t38 2.5h49q42 0 55 -7t13 -29t-9.5 -29.5t-40.5 -9.5l-99 -7
q-56 -4 -86 -26.5t-30 -70.5v-72h339v63h-264v9q0 19 16.5 26t53.5 10zM252 413h75v312h-108l-92 -93l37 -36l71 71h17v-254z" />
    <glyph glyph-name="threequarters" unicode="&#xbe;" 
d="M449 382h-388v-38h388v38zM214 608v-62h91q23 0 34.5 -6t11.5 -29q0 -22 -13.5 -27.5t-52.5 -5.5h-64q-32 0 -47.5 4t-15.5 25h-73v-6q0 -23 6 -39.5t21 -26.5t41.5 -14.5t67.5 -4.5h69q43 0 69.5 4t41 14t19.5 28t5 46q0 42 -15.5 55t-42.5 16q16 1 27 3.5t18 9.5
t10 19.5t3 32.5q0 25 -7 41.5t-23.5 26t-43.5 13t-68 3.5h-63q-41 0 -67.5 -5t-41.5 -15.5t-20.5 -26t-5.5 -37.5v-12h71q0 20 17 27t53 7h54q42 0 56.5 -5t14.5 -23q0 -20 -10 -25t-37 -5h-90zM390 126v182h-98l-206 -148v-97h229v-67h75v67h42v63h-42zM315 241v-115h-155
v12l144 103h11z" />
    <glyph glyph-name="questiondown" unicode="&#xbf;" horiz-adv-x="894" 
d="M415 297q0 -14 -2.5 -23.5t-12.5 -17t-30 -12.5t-55 -9q-75 -9 -125 -20t-80 -31.5t-42.5 -54.5t-12.5 -88q0 -55 11.5 -92.5t38 -61t70.5 -34t109 -10.5h310q66 0 112 14t74.5 42t41 68.5t12.5 93.5h-167q-1 -38 -25.5 -58.5t-91.5 -20.5h-196q-38 0 -63 2.5t-41 9
t-22.5 18t-6.5 29.5q0 19 9.5 29.5t31.5 17t56 10.5t84 10q88 10 133 43.5t45 108.5v64h-165v-27zM581 377v167h-166v-167h166z" />
    <glyph glyph-name="Agrave" unicode="&#xc0;" horiz-adv-x="983" 
d="M480 737l34 29l-134 153l-69 -66zM366 694l-358 -694h194l85 167h421l84 -167h195l-358 694h-263zM504 564l132 -258h-277l137 258h8z" />
    <glyph glyph-name="Aacute" unicode="&#xc1;" horiz-adv-x="983" 
d="M664 853l-68 66l-135 -153l35 -29zM366 694l-358 -694h194l85 167h421l84 -167h195l-358 694h-263zM504 564l132 -258h-277l137 258h8z" />
    <glyph glyph-name="Acircumflex" unicode="&#xc2;" horiz-adv-x="983" 
d="M472 893l-132 -130h37l120 63l116 -63h40l-132 130h-49zM366 694l-358 -694h194l85 167h421l84 -167h195l-358 694h-263zM504 564l132 -258h-277l137 258h8z" />
    <glyph glyph-name="Atilde" unicode="&#xc3;" horiz-adv-x="983" 
d="M285 751h84q4 17 16 31t43 14q22 0 36 -7t28 -16t33.5 -16t51.5 -7q33 0 57 9t39.5 25t24 37t10.5 45h-81q-1 -14 -13 -29t-41 -15q-20 0 -34.5 7t-29.5 17q-15 8 -34.5 14.5t-48.5 6.5q-36 0 -62 -10.5t-43 -27t-25.5 -37t-10.5 -41.5zM366 694l-358 -694h194l85 167
h421l84 -167h195l-358 694h-263zM504 564l132 -258h-277l137 258h8z" />
    <glyph glyph-name="Adieresis" unicode="&#xc4;" horiz-adv-x="983" 
d="M447 844h-135v-106h135v106zM673 844h-134v-106h134v106zM366 694l-358 -694h194l85 167h421l84 -167h195l-358 694h-263zM504 564l132 -258h-277l137 258h8z" />
    <glyph glyph-name="Aring" unicode="&#xc5;" horiz-adv-x="983" 
d="M473 887q-38 0 -55 -18.5t-17 -47.5v-34q0 -29 17 -47t55 -18h60q36 0 53 18t17 47v34q0 29 -17 47.5t-53 18.5h-60zM477 751q-44 0 -44 37v32q0 37 44 37h54q42 0 42 -37v-32q0 -20 -11.5 -28.5t-30.5 -8.5h-54zM366 694l-358 -694h194l85 167h421l84 -167h195l-358 694
h-263zM504 564l132 -258h-277l137 258h8z" />
    <glyph glyph-name="AE" unicode="&#xc6;" horiz-adv-x="1302" 
d="M182 0l116 167h241v-167h711v139h-544v150h525v139h-525v128h544v138h-766l-484 -694h182zM539 306h-143l143 207v-207z" />
    <glyph glyph-name="Ccedilla" unicode="&#xc7;" horiz-adv-x="910" 
d="M368 -1h28v-27q0 -20 -4 -31.5t-14 -17t-26.5 -6.5t-41.5 -1v-102q73 0 115.5 7t64 24t27.5 44t6 66v44q110 0 177 12t103.5 40t48 74.5t11.5 115.5h-172q0 -29 -6.5 -47t-25.5 -28t-53.5 -13t-89.5 -3h-136q-54 0 -87 5t-51 21.5t-24 46.5t-6 81v76q0 55 6 87t24.5 48
t53 20.5t90.5 4.5h128q59 0 94 -5t53 -15.5t23.5 -26t5.5 -35.5h172q0 73 -15 119t-53 72t-104 35.5t-168 9.5h-148q-97 0 -160.5 -11.5t-101 -45t-53 -95.5t-15.5 -164v-88q0 -86 15 -142.5t51.5 -89.5t99 -46t158.5 -13z" />
    <glyph glyph-name="Egrave" unicode="&#xc8;" horiz-adv-x="834" 
d="M424 737l35 29l-135 153l-68 -66zM68 694v-694h710v139h-544v150h527v139h-527v128h544v138h-710z" />
    <glyph glyph-name="Eacute" unicode="&#xc9;" horiz-adv-x="834" 
d="M569 853l-69 66l-134 -153l34 -29zM68 694v-694h710v139h-544v150h527v139h-527v128h544v138h-710z" />
    <glyph glyph-name="Ecircumflex" unicode="&#xca;" horiz-adv-x="834" 
d="M410 893l-132 -130h36l120 63l117 -63h40l-132 130h-49zM68 694v-694h710v139h-544v150h527v139h-527v128h544v138h-710z" />
    <glyph glyph-name="Edieresis" unicode="&#xcb;" horiz-adv-x="834" 
d="M391 844h-134v-106h134v106zM618 844h-135v-106h135v106zM68 694v-694h710v139h-544v150h527v139h-527v128h544v138h-710z" />
    <glyph glyph-name="Igrave" unicode="&#xcc;" horiz-adv-x="328" 
d="M156 737l34 29l-134 153l-69 -66zM88 0h166v694h-166v-694z" />
    <glyph glyph-name="Iacute" unicode="&#xcd;" horiz-adv-x="328" 
d="M347 853l-69 66l-135 -153l35 -29zM88 0h166v694h-166v-694z" />
    <glyph glyph-name="Icircumflex" unicode="&#xce;" horiz-adv-x="328" 
d="M148 893l-132 -130h36l120 63l117 -63h40l-132 130h-49zM88 0h166v694h-166v-694z" />
    <glyph glyph-name="Idieresis" unicode="&#xcf;" horiz-adv-x="328" 
d="M122 844h-134v-106h134v106zM349 844h-135v-106h135v106zM88 0h166v694h-166v-694z" />
    <glyph glyph-name="Eth" unicode="&#xd0;" horiz-adv-x="897" 
d="M228 394v162h298q45 0 74 -8t46.5 -25.5t24 -46t6.5 -68.5v-116q0 -45 -6 -74.5t-23 -47t-46.5 -25t-75.5 -7.5h-298v118h123v138h-123zM61 256v-257h505q79 0 132.5 13.5t85.5 46t45.5 87.5t13.5 138v134q0 77 -15 130t-49.5 85.5t-90 46.5t-136.5 14h-491v-300h-63
v-138h63z" />
    <glyph glyph-name="Ntilde" unicode="&#xd1;" horiz-adv-x="957" 
d="M285 751h84q4 17 16 31t43 14q22 0 36 -7t28 -16t33.5 -16t51.5 -7q33 0 57 9t39.5 25t24 37t10.5 45h-81q-1 -14 -13 -29t-41 -15q-20 0 -34.5 7t-29.5 17q-15 8 -34.5 14.5t-48.5 6.5q-36 0 -62 -10.5t-43 -27t-25.5 -37t-10.5 -41.5zM66 694v-694h166v519l457 -519
h199v694h-167v-475l-407 475h-248z" />
    <glyph glyph-name="Ograve" unicode="&#xd2;" horiz-adv-x="916" 
d="M449 737l34 29l-134 153l-69 -66zM513 540q63 0 100.5 -5.5t57.5 -23t26.5 -49.5t6.5 -84v-72q0 -50 -6.5 -80t-26.5 -46.5t-57 -21.5t-98 -5h-132q-57 0 -91 6t-52 22.5t-24 45.5t-6 76v72q0 52 6 84t24.5 50t54 24.5t94.5 6.5h123zM519 0q108 0 176.5 10.5t107.5 42
t53.5 90t14.5 154.5v84q0 94 -14.5 155.5t-53 97t-106.5 49.5t-175 14h-147q-102 0 -167 -13.5t-101.5 -49t-50 -97.5t-13.5 -159v-84q0 -90 14 -147t50.5 -90t100.5 -45t164 -12h147z" />
    <glyph glyph-name="Oacute" unicode="&#xd3;" horiz-adv-x="916" 
d="M613 853l-69 66l-134 -153l34 -29zM513 540q63 0 100.5 -5.5t57.5 -23t26.5 -49.5t6.5 -84v-72q0 -50 -6.5 -80t-26.5 -46.5t-57 -21.5t-98 -5h-132q-57 0 -91 6t-52 22.5t-24 45.5t-6 76v72q0 52 6 84t24.5 50t54 24.5t94.5 6.5h123zM519 0q108 0 176.5 10.5t107.5 42
t53.5 90t14.5 154.5v84q0 94 -14.5 155.5t-53 97t-106.5 49.5t-175 14h-147q-102 0 -167 -13.5t-101.5 -49t-50 -97.5t-13.5 -159v-84q0 -90 14 -147t50.5 -90t100.5 -45t164 -12h147z" />
    <glyph glyph-name="Ocircumflex" unicode="&#xd4;" horiz-adv-x="916" 
d="M434 893l-132 -130h37l120 63l117 -63h40l-133 130h-49zM513 540q63 0 100.5 -5.5t57.5 -23t26.5 -49.5t6.5 -84v-72q0 -50 -6.5 -80t-26.5 -46.5t-57 -21.5t-98 -5h-132q-57 0 -91 6t-52 22.5t-24 45.5t-6 76v72q0 52 6 84t24.5 50t54 24.5t94.5 6.5h123zM519 0
q108 0 176.5 10.5t107.5 42t53.5 90t14.5 154.5v84q0 94 -14.5 155.5t-53 97t-106.5 49.5t-175 14h-147q-102 0 -167 -13.5t-101.5 -49t-50 -97.5t-13.5 -159v-84q0 -90 14 -147t50.5 -90t100.5 -45t164 -12h147z" />
    <glyph glyph-name="Otilde" unicode="&#xd5;" horiz-adv-x="916" 
d="M249 751h84q4 17 16 31t43 14q22 0 36 -7t28 -16t33.5 -16t51.5 -7q33 0 57 9t39.5 25t24 37t10.5 45h-81q-1 -14 -13 -29t-41 -15q-20 0 -34.5 7t-29.5 17q-15 8 -34.5 14.5t-48.5 6.5q-36 0 -62 -10.5t-43 -27t-25.5 -37t-10.5 -41.5zM513 540q63 0 100.5 -5.5
t57.5 -23t26.5 -49.5t6.5 -84v-72q0 -50 -6.5 -80t-26.5 -46.5t-57 -21.5t-98 -5h-132q-57 0 -91 6t-52 22.5t-24 45.5t-6 76v72q0 52 6 84t24.5 50t54 24.5t94.5 6.5h123zM519 0q108 0 176.5 10.5t107.5 42t53.5 90t14.5 154.5v84q0 94 -14.5 155.5t-53 97t-106.5 49.5
t-175 14h-147q-102 0 -167 -13.5t-101.5 -49t-50 -97.5t-13.5 -159v-84q0 -90 14 -147t50.5 -90t100.5 -45t164 -12h147z" />
    <glyph glyph-name="Odieresis" unicode="&#xd6;" horiz-adv-x="916" 
d="M409 844h-135v-106h135v106zM636 844h-135v-106h135v106zM513 540q63 0 100.5 -5.5t57.5 -23t26.5 -49.5t6.5 -84v-72q0 -50 -6.5 -80t-26.5 -46.5t-57 -21.5t-98 -5h-132q-57 0 -91 6t-52 22.5t-24 45.5t-6 76v72q0 52 6 84t24.5 50t54 24.5t94.5 6.5h123zM519 0
q108 0 176.5 10.5t107.5 42t53.5 90t14.5 154.5v84q0 94 -14.5 155.5t-53 97t-106.5 49.5t-175 14h-147q-102 0 -167 -13.5t-101.5 -49t-50 -97.5t-13.5 -159v-84q0 -90 14 -147t50.5 -90t100.5 -45t164 -12h147z" />
    <glyph glyph-name="multiply" unicode="&#xd7;" horiz-adv-x="516" 
d="M128 494l-56 -43l140 -185l-168 -224l59 -42l158 209l159 -209l59 42l-169 225l140 184l-57 43l-132 -177z" />
    <glyph glyph-name="Oslash" unicode="&#xd8;" horiz-adv-x="916" 
d="M43 294q0 -71 8.5 -121.5t29.5 -84t57 -52.5t92 -28l-42 -88h105l38 80h41h147q108 0 176.5 10.5t107.5 42t53.5 90t14.5 154.5v84q0 77 -9 132t-33 91.5t-64.5 56.5t-103.5 29l39 82h-106l-36 -75h-36h-147q-102 0 -167 -13.5t-101.5 -49t-50 -97.5t-13.5 -159v-84z
M516 153h-112l184 385q37 -3 60 -12.5t35.5 -28t16.5 -47.5t4 -72v-72q0 -50 -6.5 -80t-26.5 -46.5t-57 -21.5t-98 -5zM483 540l-181 -382q-29 4 -47 13.5t-28 27t-13 43t-3 61.5v72q0 52 6 84t24.5 50t54 24.5t94.5 6.5h93z" />
    <glyph glyph-name="Ugrave" unicode="&#xd9;" horiz-adv-x="896" 
d="M440 737l34 29l-134 153l-69 -66zM213 694h-166v-447q0 -66 15 -113t49 -77t87 -43.5t130 -13.5h246q80 0 134.5 13t87.5 42t47 76t14 116v447h-167v-430q0 -36 -8 -60t-25 -38.5t-45 -20.5t-68 -6h-180q-42 0 -71 6t-46.5 20t-25.5 38t-8 60v431z" />
    <glyph glyph-name="Uacute" unicode="&#xda;" horiz-adv-x="896" 
d="M620 853l-69 66l-134 -153l34 -29zM213 694h-166v-447q0 -66 15 -113t49 -77t87 -43.5t130 -13.5h246q80 0 134.5 13t87.5 42t47 76t14 116v447h-167v-430q0 -36 -8 -60t-25 -38.5t-45 -20.5t-68 -6h-180q-42 0 -71 6t-46.5 20t-25.5 38t-8 60v431z" />
    <glyph glyph-name="Ucircumflex" unicode="&#xdb;" horiz-adv-x="896" 
d="M432 893l-132 -130h37l120 63l116 -63h40l-132 130h-49zM213 694h-166v-447q0 -66 15 -113t49 -77t87 -43.5t130 -13.5h246q80 0 134.5 13t87.5 42t47 76t14 116v447h-167v-430q0 -36 -8 -60t-25 -38.5t-45 -20.5t-68 -6h-180q-42 0 -71 6t-46.5 20t-25.5 38t-8 60v431z
" />
    <glyph glyph-name="Udieresis" unicode="&#xdc;" horiz-adv-x="896" 
d="M404 844h-134v-106h134v106zM631 844h-134v-106h134v106zM213 694h-166v-447q0 -66 15 -113t49 -77t87 -43.5t130 -13.5h246q80 0 134.5 13t87.5 42t47 76t14 116v447h-167v-430q0 -36 -8 -60t-25 -38.5t-45 -20.5t-68 -6h-180q-42 0 -71 6t-46.5 20t-25.5 38t-8 60v431z
" />
    <glyph glyph-name="Yacute" unicode="&#xdd;" horiz-adv-x="882" 
d="M220 694h-199l341 -460v-234h167v234l333 460h-190l-226 -313zM609 853l-69 66l-134 -153l34 -29z" />
    <glyph glyph-name="Thorn" unicode="&#xde;" horiz-adv-x="800" 
d="M520 608h-297v86h-166v-694h166v120h308q67 0 113.5 11.5t75 37.5t41 67.5t12.5 101.5v48q0 60 -14 102.5t-45 69t-79 38.5t-115 12zM607 356q0 -39 -17.5 -54.5t-61.5 -15.5h-305v156h301q47 0 65 -15.5t18 -56.5v-14z" />
    <glyph glyph-name="germandbls" unicode="&#xdf;" horiz-adv-x="884" 
d="M354 778q-83 0 -139 -15.5t-90.5 -47t-49.5 -78.5t-15 -109v-32h-61v-137h61v-359h166v537q0 51 24.5 76.5t78.5 25.5h155q59 0 82 -13.5t23 -48.5q0 -21 -5.5 -34t-20.5 -20.5t-41.5 -10t-68.5 -2.5v-131q76 0 122.5 -4.5t71 -16.5t32.5 -34t8 -57v-28
q0 -56 -29.5 -77.5t-101.5 -21.5h-200v-140h236q73 0 123 14t80.5 43t44 73.5t13.5 106.5v30q0 43 -14 76.5t-38.5 56t-58.5 34.5t-74 12q18 7 34 16t28 24t19 37t7 57q0 51 -14.5 88.5t-50.5 61.5t-98 36t-157 12h-82z" />
    <glyph glyph-name="agrave" unicode="&#xe0;" horiz-adv-x="749" 
d="M364 554l38 33l-150 171l-76 -74zM265 317q-62 0 -102 -9t-64 -27.5t-33.5 -46t-9.5 -64.5v-28q0 -77 50 -109.5t158 -32.5h111q53 0 84.5 4.5t49 12t25.5 17.5t15 22v-56h139v307q0 41 -11.5 75.5t-38.5 59t-72 38.5t-112 14h-182q-114 0 -163 -35.5t-49 -107.5h158
q0 9 4.5 17t16.5 13t32.5 8t52.5 3h105q34 0 57 -4t36.5 -14t19.5 -27t6 -42v-38q-6 11 -14.5 20.5t-27.5 16t-51.5 10t-86.5 3.5h-103zM218 158q0 32 21.5 40t56.5 8h160q39 0 60.5 -9t21.5 -39q0 -31 -22 -39t-60 -8h-160q-37 0 -57.5 8.5t-20.5 38.5z" />
    <glyph glyph-name="aacute" unicode="&#xe1;" horiz-adv-x="749" 
d="M540 683l-77 74l-150 -171l38 -33zM265 317q-62 0 -102 -9t-64 -27.5t-33.5 -46t-9.5 -64.5v-28q0 -77 50 -109.5t158 -32.5h111q53 0 84.5 4.5t49 12t25.5 17.5t15 22v-56h139v307q0 41 -11.5 75.5t-38.5 59t-72 38.5t-112 14h-182q-114 0 -163 -35.5t-49 -107.5h158
q0 9 4.5 17t16.5 13t32.5 8t52.5 3h105q34 0 57 -4t36.5 -14t19.5 -27t6 -42v-38q-6 11 -14.5 20.5t-27.5 16t-51.5 10t-86.5 3.5h-103zM218 158q0 32 21.5 40t56.5 8h160q39 0 60.5 -9t21.5 -39q0 -31 -22 -39t-60 -8h-160q-37 0 -57.5 8.5t-20.5 38.5z" />
    <glyph glyph-name="acircumflex" unicode="&#xe2;" horiz-adv-x="749" 
d="M341 723l-147 -144h42l133 69l129 -69h44l-146 144h-55zM265 317q-62 0 -102 -9t-64 -27.5t-33.5 -46t-9.5 -64.5v-28q0 -77 50 -109.5t158 -32.5h111q53 0 84.5 4.5t49 12t25.5 17.5t15 22v-56h139v307q0 41 -11.5 75.5t-38.5 59t-72 38.5t-112 14h-182
q-114 0 -163 -35.5t-49 -107.5h158q0 9 4.5 17t16.5 13t32.5 8t52.5 3h105q34 0 57 -4t36.5 -14t19.5 -27t6 -42v-38q-6 11 -14.5 20.5t-27.5 16t-51.5 10t-86.5 3.5h-103zM218 158q0 32 21.5 40t56.5 8h160q39 0 60.5 -9t21.5 -39q0 -31 -22 -39t-60 -8h-160
q-37 0 -57.5 8.5t-20.5 38.5z" />
    <glyph glyph-name="atilde" unicode="&#xe3;" horiz-adv-x="749" 
d="M123 581h93q4 18 17.5 34t48.5 16q24 0 39 -8t32 -18q16 -10 37.5 -18t56.5 -8q37 0 63.5 10t44 27.5t26.5 41t11 50.5h-89q-1 -16 -14.5 -32.5t-45.5 -16.5q-23 0 -39 8t-33 19q-17 9 -38 16.5t-54 7.5q-41 0 -69.5 -11.5t-47 -30t-28 -41.5t-11.5 -46zM265 317
q-62 0 -102 -9t-64 -27.5t-33.5 -46t-9.5 -64.5v-28q0 -77 50 -109.5t158 -32.5h111q53 0 84.5 4.5t49 12t25.5 17.5t15 22v-56h139v307q0 41 -11.5 75.5t-38.5 59t-72 38.5t-112 14h-182q-114 0 -163 -35.5t-49 -107.5h158q0 9 4.5 17t16.5 13t32.5 8t52.5 3h105
q34 0 57 -4t36.5 -14t19.5 -27t6 -42v-38q-6 11 -14.5 20.5t-27.5 16t-51.5 10t-86.5 3.5h-103zM218 158q0 32 21.5 40t56.5 8h160q39 0 60.5 -9t21.5 -39q0 -31 -22 -39t-60 -8h-160q-37 0 -57.5 8.5t-20.5 38.5z" />
    <glyph glyph-name="adieresis" unicode="&#xe4;" horiz-adv-x="749" 
d="M338 680h-135v-107h135v107zM564 680h-134v-107h134v107zM265 317q-62 0 -102 -9t-64 -27.5t-33.5 -46t-9.5 -64.5v-28q0 -77 50 -109.5t158 -32.5h111q53 0 84.5 4.5t49 12t25.5 17.5t15 22v-56h139v307q0 41 -11.5 75.5t-38.5 59t-72 38.5t-112 14h-182
q-114 0 -163 -35.5t-49 -107.5h158q0 9 4.5 17t16.5 13t32.5 8t52.5 3h105q34 0 57 -4t36.5 -14t19.5 -27t6 -42v-38q-6 11 -14.5 20.5t-27.5 16t-51.5 10t-86.5 3.5h-103zM218 158q0 32 21.5 40t56.5 8h160q39 0 60.5 -9t21.5 -39q0 -31 -22 -39t-60 -8h-160
q-37 0 -57.5 8.5t-20.5 38.5z" />
    <glyph glyph-name="aring" unicode="&#xe5;" horiz-adv-x="749" 
d="M331 733q-38 0 -55 -18t-17 -47v-35q0 -29 17 -46.5t55 -17.5h60q36 0 53 18t17 46v35q0 29 -17 47t-53 18h-60zM334 598q-43 0 -43 36v33q0 36 43 36h55q42 0 42 -36v-33q0 -19 -12 -27.5t-30 -8.5h-55zM265 317q-62 0 -102 -9t-64 -27.5t-33.5 -46t-9.5 -64.5v-28
q0 -77 50 -109.5t158 -32.5h111q53 0 84.5 4.5t49 12t25.5 17.5t15 22v-56h139v307q0 41 -11.5 75.5t-38.5 59t-72 38.5t-112 14h-182q-114 0 -163 -35.5t-49 -107.5h158q0 9 4.5 17t16.5 13t32.5 8t52.5 3h105q34 0 57 -4t36.5 -14t19.5 -27t6 -42v-38q-6 11 -14.5 20.5
t-27.5 16t-51.5 10t-86.5 3.5h-103zM218 158q0 32 21.5 40t56.5 8h160q39 0 60.5 -9t21.5 -39q0 -31 -22 -39t-60 -8h-160q-37 0 -57.5 8.5t-20.5 38.5z" />
    <glyph glyph-name="ae" unicode="&#xe6;" horiz-adv-x="1248" 
d="M688 0v33q11 -12 28 -19t37.5 -10.5t44 -4t47.5 -0.5h73q87 0 140 13t82 34t38.5 48.5t9.5 56.5v10h-155q0 -15 -5 -24.5t-17 -15t-32.5 -7t-51.5 -1.5h-104q-63 0 -87.5 21t-24.5 57v19h477v72q0 61 -12 102t-43.5 66t-85.5 35.5t-138 10.5h-79q-143 0 -205 -44
q-28 20 -69.5 31t-101.5 11h-182q-114 0 -163 -35.5t-49 -107.5h158q0 9 4.5 17t16.5 13t32.5 8t52.5 3h105q34 0 57 -4t36.5 -14t19.5 -27t6 -42v-38q-6 11 -14.5 20.5t-27.5 16t-51.5 10t-86.5 3.5h-103q-62 0 -102 -9t-64 -27.5t-33.5 -46t-9.5 -64.5v-28
q0 -77 50 -109.5t158 -32.5h111q53 0 84.5 4.5t49 12t25.5 17.5t15 22v-56h139zM218 158q0 32 21.5 40t56.5 8h160q39 0 60.5 -9t21.5 -39q0 -31 -22 -39t-60 -8h-160q-37 0 -57.5 8.5t-20.5 38.5zM921 380q38 0 60.5 -7.5t34 -19t14.5 -25t3 -26.5h-320q0 11 2.5 24.5
t13 25.5t31.5 20t57 8h104z" />
    <glyph glyph-name="ccedilla" unicode="&#xe7;" horiz-adv-x="703" 
d="M37 213q0 -56 11.5 -95.5t41 -65t80.5 -38.5t130 -14v-28q0 -20 -4 -31.5t-14 -17t-26.5 -6.5t-41.5 -1v-94q64 0 102.5 4t59 18t27 40t6.5 71v45q82 1 132.5 12t78 32t37 51t9.5 69v15h-158q0 -15 -4.5 -27t-19.5 -19.5t-42.5 -11.5t-73.5 -4h-40q-82 0 -115 26t-33 86
v32q0 32 7 54t24 36t45.5 20.5t70.5 6.5h38q46 0 74 -3.5t43.5 -11t20.5 -18t5 -24.5h158v10q0 43 -12 74.5t-43 51.5t-85.5 29.5t-138.5 9.5h-75q-80 0 -133 -12.5t-84.5 -38.5t-44.5 -68t-13 -100v-64z" />
    <glyph glyph-name="egrave" unicode="&#xe8;" horiz-adv-x="698" 
d="M358 554l38 33l-150 171l-77 -74zM399 380q38 0 60.5 -7.5t34 -19t14.5 -25t3 -26.5h-320q0 11 2.5 24.5t13 25.5t31.5 20t57 8h104zM323 -1h73q87 0 140 13t82 34t38.5 48.5t9.5 56.5v10h-155q0 -15 -5 -24.5t-17 -15t-32.5 -7t-51.5 -1.5h-104q-63 0 -87.5 21t-24.5 57
v19h477v72q0 61 -12 102t-43.5 66t-85.5 35.5t-138 10.5h-79q-78 0 -130 -12.5t-83.5 -38.5t-44.5 -67t-13 -98v-67q0 -58 13.5 -98.5t46.5 -66t88 -37.5t138 -12z" />
    <glyph glyph-name="eacute" unicode="&#xe9;" horiz-adv-x="698" 
d="M533 683l-76 74l-150 -171l37 -33zM399 380q38 0 60.5 -7.5t34 -19t14.5 -25t3 -26.5h-320q0 11 2.5 24.5t13 25.5t31.5 20t57 8h104zM323 -1h73q87 0 140 13t82 34t38.5 48.5t9.5 56.5v10h-155q0 -15 -5 -24.5t-17 -15t-32.5 -7t-51.5 -1.5h-104q-63 0 -87.5 21
t-24.5 57v19h477v72q0 61 -12 102t-43.5 66t-85.5 35.5t-138 10.5h-79q-78 0 -130 -12.5t-83.5 -38.5t-44.5 -67t-13 -98v-67q0 -58 13.5 -98.5t46.5 -66t88 -37.5t138 -12z" />
    <glyph glyph-name="ecircumflex" unicode="&#xea;" horiz-adv-x="698" 
d="M317 723l-147 -144h41l133 69l129 -69h45l-147 144h-54zM399 380q38 0 60.5 -7.5t34 -19t14.5 -25t3 -26.5h-320q0 11 2.5 24.5t13 25.5t31.5 20t57 8h104zM323 -1h73q87 0 140 13t82 34t38.5 48.5t9.5 56.5v10h-155q0 -15 -5 -24.5t-17 -15t-32.5 -7t-51.5 -1.5h-104
q-63 0 -87.5 21t-24.5 57v19h477v72q0 61 -12 102t-43.5 66t-85.5 35.5t-138 10.5h-79q-78 0 -130 -12.5t-83.5 -38.5t-44.5 -67t-13 -98v-67q0 -58 13.5 -98.5t46.5 -66t88 -37.5t138 -12z" />
    <glyph glyph-name="edieresis" unicode="&#xeb;" horiz-adv-x="698" 
d="M311 680h-134v-107h134v107zM538 680h-135v-107h135v107zM399 380q38 0 60.5 -7.5t34 -19t14.5 -25t3 -26.5h-320q0 11 2.5 24.5t13 25.5t31.5 20t57 8h104zM323 -1h73q87 0 140 13t82 34t38.5 48.5t9.5 56.5v10h-155q0 -15 -5 -24.5t-17 -15t-32.5 -7t-51.5 -1.5h-104
q-63 0 -87.5 21t-24.5 57v19h477v72q0 61 -12 102t-43.5 66t-85.5 35.5t-138 10.5h-79q-78 0 -130 -12.5t-83.5 -38.5t-44.5 -67t-13 -98v-67q0 -58 13.5 -98.5t46.5 -66t88 -37.5t138 -12z" />
    <glyph glyph-name="igrave" unicode="&#xec;" horiz-adv-x="298" 
d="M144 554l38 33l-150 171l-76 -74zM237 494h-167v-494h167v494z" />
    <glyph glyph-name="iacute" unicode="&#xed;" horiz-adv-x="298" 
d="M347 683l-77 74l-150 -171l38 -33zM237 494h-167v-494h167v494z" />
    <glyph glyph-name="icircumflex" unicode="&#xee;" horiz-adv-x="298" 
d="M123 723l-146 -144h41l133 69l129 -69h44l-146 144h-55zM237 494h-167v-494h167v494z" />
    <glyph glyph-name="idieresis" unicode="&#xef;" horiz-adv-x="298" 
d="M109 680h-135v-107h135v107zM336 680h-135v-107h135v107zM237 494h-167v-494h167v494z" />
    <glyph glyph-name="eth" unicode="&#xf0;" horiz-adv-x="704" 
d="M525 240q0 -31 -7 -52.5t-23 -35t-42.5 -20t-64.5 -6.5h-62q-38 0 -64.5 6.5t-42.5 20t-23 35t-7 52.5v20q0 28 6.5 49t22.5 34.5t44 20t70 6.5h50q42 0 70 -6.5t44 -20t22.5 -34.5t6.5 -49v-20zM269 614l-27 -54l98 -40l34 67q76 -31 112 -96q-20 2 -43 3.5t-49 1.5h-85
q-77 0 -128.5 -13t-82.5 -41t-43.5 -72t-12.5 -106v-41q0 -62 14 -105t41.5 -69.5t68 -38t92.5 -11.5h199q57 0 97.5 12t66.5 38.5t38.5 69t12.5 104.5v41q0 98 -15.5 171.5t-45.5 127t-74.5 89t-101.5 56.5l25 50l-98 40l-32 -63q-33 5 -69.5 7.5t-75.5 2.5v-126
q23 0 43.5 -1.5t40.5 -3.5z" />
    <glyph glyph-name="ntilde" unicode="&#xf1;" horiz-adv-x="738" 
d="M121 581h93q4 18 17.5 34t48.5 16q24 0 39 -8t32 -18q16 -10 37.5 -18t56.5 -8q37 0 63.5 10t44 27.5t26.5 41t11 50.5h-89q-1 -16 -14.5 -32.5t-45.5 -16.5q-23 0 -39 8t-33 19q-17 9 -38 16.5t-54 7.5q-41 0 -69.5 -11.5t-47 -30t-28 -41.5t-11.5 -46zM436 494h-52
q-45 0 -74.5 -6.5t-48.5 -17t-29.5 -23.5t-17.5 -25v72h-165v-494h168v242q0 64 36 100t107 36h24q78 0 111 -35t33 -101v-242h166v269q0 112 -60 168.5t-198 56.5z" />
    <glyph glyph-name="ograve" unicode="&#xf2;" horiz-adv-x="704" 
d="M342 554l38 33l-150 171l-77 -74zM309 496q-77 0 -128.5 -13t-82.5 -41t-43.5 -72t-12.5 -106v-41q0 -62 14 -105t41.5 -69.5t68 -38t92.5 -11.5h199q57 0 97.5 12t66.5 38.5t38.5 69t12.5 104.5v41q0 64 -14 108.5t-47 72t-86 39.5t-131 12h-85zM525 240q0 -31 -7 -52.5
t-23 -35t-42.5 -20t-64.5 -6.5h-62q-38 0 -64.5 6.5t-42.5 20t-23 35t-7 52.5v20q0 28 6.5 49t22.5 34.5t44 20t70 6.5h50q42 0 70 -6.5t44 -20t22.5 -34.5t6.5 -49v-20z" />
    <glyph glyph-name="oacute" unicode="&#xf3;" horiz-adv-x="704" 
d="M544 683l-76 74l-150 -171l38 -33zM309 496q-77 0 -128.5 -13t-82.5 -41t-43.5 -72t-12.5 -106v-41q0 -62 14 -105t41.5 -69.5t68 -38t92.5 -11.5h199q57 0 97.5 12t66.5 38.5t38.5 69t12.5 104.5v41q0 64 -14 108.5t-47 72t-86 39.5t-131 12h-85zM525 240
q0 -31 -7 -52.5t-23 -35t-42.5 -20t-64.5 -6.5h-62q-38 0 -64.5 6.5t-42.5 20t-23 35t-7 52.5v20q0 28 6.5 49t22.5 34.5t44 20t70 6.5h50q42 0 70 -6.5t44 -20t22.5 -34.5t6.5 -49v-20z" />
    <glyph glyph-name="ocircumflex" unicode="&#xf4;" horiz-adv-x="704" 
d="M328 723l-147 -144h41l134 69l128 -69h45l-147 144h-54zM309 496q-77 0 -128.5 -13t-82.5 -41t-43.5 -72t-12.5 -106v-41q0 -62 14 -105t41.5 -69.5t68 -38t92.5 -11.5h199q57 0 97.5 12t66.5 38.5t38.5 69t12.5 104.5v41q0 64 -14 108.5t-47 72t-86 39.5t-131 12h-85z
M525 240q0 -31 -7 -52.5t-23 -35t-42.5 -20t-64.5 -6.5h-62q-38 0 -64.5 6.5t-42.5 20t-23 35t-7 52.5v20q0 28 6.5 49t22.5 34.5t44 20t70 6.5h50q42 0 70 -6.5t44 -20t22.5 -34.5t6.5 -49v-20z" />
    <glyph glyph-name="otilde" unicode="&#xf5;" horiz-adv-x="704" 
d="M119 581h93q4 18 17.5 34t48.5 16q24 0 39 -8t32 -18q16 -10 37.5 -18t56.5 -8q37 0 63.5 10t44 27.5t26.5 41t11 50.5h-89q-1 -16 -14.5 -32.5t-45.5 -16.5q-23 0 -39 8t-33 19q-17 9 -38 16.5t-54 7.5q-41 0 -69.5 -11.5t-47 -30t-28 -41.5t-11.5 -46zM309 496
q-77 0 -128.5 -13t-82.5 -41t-43.5 -72t-12.5 -106v-41q0 -62 14 -105t41.5 -69.5t68 -38t92.5 -11.5h199q57 0 97.5 12t66.5 38.5t38.5 69t12.5 104.5v41q0 64 -14 108.5t-47 72t-86 39.5t-131 12h-85zM525 240q0 -31 -7 -52.5t-23 -35t-42.5 -20t-64.5 -6.5h-62
q-38 0 -64.5 6.5t-42.5 20t-23 35t-7 52.5v20q0 28 6.5 49t22.5 34.5t44 20t70 6.5h50q42 0 70 -6.5t44 -20t22.5 -34.5t6.5 -49v-20z" />
    <glyph glyph-name="odieresis" unicode="&#xf6;" horiz-adv-x="704" 
d="M309 680h-135v-107h135v107zM536 680h-135v-107h135v107zM309 496q-77 0 -128.5 -13t-82.5 -41t-43.5 -72t-12.5 -106v-41q0 -62 14 -105t41.5 -69.5t68 -38t92.5 -11.5h199q57 0 97.5 12t66.5 38.5t38.5 69t12.5 104.5v41q0 64 -14 108.5t-47 72t-86 39.5t-131 12h-85z
M525 240q0 -31 -7 -52.5t-23 -35t-42.5 -20t-64.5 -6.5h-62q-38 0 -64.5 6.5t-42.5 20t-23 35t-7 52.5v20q0 28 6.5 49t22.5 34.5t44 20t70 6.5h50q42 0 70 -6.5t44 -20t22.5 -34.5t6.5 -49v-20z" />
    <glyph glyph-name="divide" unicode="&#xf7;" horiz-adv-x="533" 
d="M476 394h-408v-138h408v138zM168 627v-167h195v167h-195zM168 197v-167h195v167h-195z" />
    <glyph glyph-name="oslash" unicode="&#xf8;" horiz-adv-x="704" 
d="M458 549l-26 -54q-10 1 -20 1h-18h-85q-77 0 -128.5 -13t-82.5 -41t-43.5 -72t-12.5 -106v-41q0 -106 40.5 -157t116.5 -63l-29 -61h91l27 57h169q57 0 97.5 12t66.5 38.5t38.5 69t12.5 104.5v41q0 98 -34.5 150.5t-117.5 70.5l30 64h-92zM332 370h41l-113 -237
q-39 10 -55 35.5t-16 71.5v20q0 28 6.5 49t22.5 34.5t44 20t70 6.5zM349 126l111 235q38 -11 51.5 -36t13.5 -65v-20q0 -31 -7 -52.5t-23 -35t-42.5 -20t-64.5 -6.5h-39z" />
    <glyph glyph-name="ugrave" unicode="&#xf9;" horiz-adv-x="796" 
d="M376 554l37 33l-150 171l-76 -74zM298 -1h129q33 0 57 6t41 15t28 20t19 22v-62h166v494h-168v-243q0 -66 -36.5 -100.5t-106.5 -34.5h-65q-39 0 -66 7t-44 22.5t-25 41.5t-8 64v243h-167v-272q0 -60 16.5 -102.5t48 -69.5t77 -39t104.5 -12z" />
    <glyph glyph-name="uacute" unicode="&#xfa;" horiz-adv-x="796" 
d="M573 683l-76 74l-150 -171l37 -33zM298 -1h129q33 0 57 6t41 15t28 20t19 22v-62h166v494h-168v-243q0 -66 -36.5 -100.5t-106.5 -34.5h-65q-39 0 -66 7t-44 22.5t-25 41.5t-8 64v243h-167v-272q0 -60 16.5 -102.5t48 -69.5t77 -39t104.5 -12z" />
    <glyph glyph-name="ucircumflex" unicode="&#xfb;" horiz-adv-x="796" 
d="M368 723l-147 -144h41l134 69l128 -69h45l-147 144h-54zM298 -1h129q33 0 57 6t41 15t28 20t19 22v-62h166v494h-168v-243q0 -66 -36.5 -100.5t-106.5 -34.5h-65q-39 0 -66 7t-44 22.5t-25 41.5t-8 64v243h-167v-272q0 -60 16.5 -102.5t48 -69.5t77 -39t104.5 -12z" />
    <glyph glyph-name="udieresis" unicode="&#xfc;" horiz-adv-x="796" 
d="M347 680h-135v-107h135v107zM573 680h-134v-107h134v107zM298 -1h129q33 0 57 6t41 15t28 20t19 22v-62h166v494h-168v-243q0 -66 -36.5 -100.5t-106.5 -34.5h-65q-39 0 -66 7t-44 22.5t-25 41.5t-8 64v243h-167v-272q0 -60 16.5 -102.5t48 -69.5t77 -39t104.5 -12z" />
    <glyph glyph-name="yacute" unicode="&#xfd;" horiz-adv-x="684" 
d="M176 494h-160l231 -494q-9 -20 -21.5 -32t-30 -18.5t-41 -9t-54.5 -2.5v-149q77 0 130 13t90.5 39t64.5 65.5t52 93.5l233 494h-160l-167 -345zM526 683l-77 74l-150 -171l38 -33z" />
    <glyph glyph-name="thorn" unicode="&#xfe;" horiz-adv-x="764" 
d="M473 496h-70q-50 0 -82.5 -5t-53 -14t-32.5 -20.5t-19 -23.5v261h-166v-894h166v275q5 -14 16 -27t31 -24t52 -17.5t80 -6.5h70q134 0 196.5 55.5t62.5 165.5v49q0 55 -13.5 97.5t-43.5 71t-77.5 43t-116.5 14.5zM225 240v20q0 26 7 46.5t23.5 34.5t44.5 21.5t70 7.5h56
q71 0 103 -24.5t32 -89.5v-20q0 -60 -31.5 -85t-103.5 -25h-64q-38 0 -64.5 7.5t-42.5 22t-23 36t-7 48.5z" />
    <glyph glyph-name="ydieresis" unicode="&#xff;" horiz-adv-x="684" 
d="M296 680h-135v-107h135v107zM522 680h-134v-107h134v107zM176 494h-160l231 -494q-9 -20 -21.5 -32t-30 -18.5t-41 -9t-54.5 -2.5v-149q77 0 130 13t90.5 39t64.5 65.5t52 93.5l233 494h-160l-167 -345z" />
    <glyph glyph-name="OE" unicode="&#x152;" horiz-adv-x="1449" 
d="M763 694v-33q-40 20 -99 28t-142 8h-147q-102 0 -167 -13.5t-101.5 -49t-50 -97.5t-13.5 -159v-84q0 -90 14 -147t50.5 -90t100.5 -45t164 -12h147q85 0 144.5 6t99.5 23v-29h649v139h-548v148h527v143h-527v126h548v138h-649zM513 540q63 0 100.5 -5.5t57.5 -23
t26.5 -49.5t6.5 -84v-72q0 -50 -6.5 -80t-26.5 -46.5t-57 -21.5t-98 -5h-132q-57 0 -91 6t-52 22.5t-24 45.5t-6 76v72q0 52 6 84t24.5 50t54 24.5t94.5 6.5h123z" />
    <glyph glyph-name="oe" unicode="&#x153;" horiz-adv-x="1224" 
d="M812 496q-76 0 -126.5 -11.5t-82.5 -35.5q-33 25 -84 36t-125 11h-85q-77 0 -128.5 -13t-82.5 -41t-43.5 -72t-12.5 -106v-41q0 -62 14 -105t41.5 -69.5t68 -38t92.5 -11.5h199q104 0 155 42q64 -42 215 -42h73q87 0 140 13t82 34t38.5 48.5t9.5 56.5v10h-155
q0 -15 -5 -24.5t-17 -15t-32.5 -7t-51.5 -1.5h-104q-63 0 -87.5 21t-24.5 57v19h477v72q0 61 -12 102t-43.5 66t-85.5 35.5t-138 10.5h-79zM525 240q0 -31 -7 -52.5t-23 -35t-42.5 -20t-64.5 -6.5h-62q-38 0 -64.5 6.5t-42.5 20t-23 35t-7 52.5v20q0 28 6.5 49t22.5 34.5
t44 20t70 6.5h50q42 0 70 -6.5t44 -20t22.5 -34.5t6.5 -49v-20zM903 380q38 0 60.5 -7.5t34 -19t14.5 -25t3 -26.5h-320q0 11 2.5 24.5t13 25.5t31.5 20t57 8h104z" />
    <glyph glyph-name="Scaron" unicode="&#x160;" horiz-adv-x="897" 
d="M291 694q-67 0 -114.5 -10.5t-77.5 -34.5t-44 -62.5t-14 -93.5q0 -65 13.5 -102.5t44.5 -57t79.5 -26.5t119.5 -10l266 -11q36 -2 58.5 -7t35 -14.5t17.5 -23t5 -32.5q0 -42 -27 -56t-82 -14h-278q-35 0 -58 16t-23 42h-170q0 -50 11.5 -87t39 -61.5t72.5 -36.5t111 -12
h344q65 0 110 12t72.5 38t39.5 65.5t12 95.5q0 69 -15 109t-44.5 61.5t-74 29t-103.5 9.5l-307 12q-18 1 -33 2.5t-25.5 7t-16.5 17t-6 32.5q0 40 23 52.5t58 12.5h279q26 0 42.5 -3t26 -10t13 -18t3.5 -27h179q0 100 -63 148t-194 48h-305zM476 727l146 145h-41l-133 -69
l-129 69h-45l147 -145h55z" />
    <glyph glyph-name="scaron" unicode="&#x161;" horiz-adv-x="698" 
d="M187 147h-147q0 -44 13.5 -72.5t38 -45.5t59.5 -23.5t77 -6.5h236q98 0 148.5 38t50.5 113v26q0 36 -10 61.5t-33.5 43t-61.5 26t-94 9.5l-217 4q-37 1 -48 7.5t-11 23.5t12.5 26.5t47.5 9.5h173q83 0 83 -39h156q0 44 -12.5 73t-37 45.5t-62 23t-87.5 6.5h-224
q-56 0 -93.5 -10t-60.5 -29.5t-32.5 -47t-9.5 -62.5v-24q0 -38 11.5 -63t33 -40.5t53 -22t71.5 -7.5l223 -4q39 -1 52 -11.5t13 -27.5q0 -19 -13.5 -29.5t-51.5 -10.5h-184q-20 0 -32 3.5t-19 9.5t-9 13t-2 14zM371 542l146 145h-41l-133 -69l-129 69h-45l147 -145h55z" />
    <glyph glyph-name="Ydieresis" unicode="&#x178;" horiz-adv-x="882" 
d="M402 844h-134v-106h134v106zM629 844h-135v-106h135v106zM220 694h-199l341 -460v-234h167v234l333 460h-190l-226 -313z" />
    <glyph glyph-name="florin" unicode="&#x192;" horiz-adv-x="649" 
d="M591 533h-533v-533h533v533z" />
    <glyph glyph-name="circumflex" unicode="&#x2c6;" horiz-adv-x="422" 
d="M188 717l-147 -145h41l134 69l128 -69h45l-147 145h-54z" />
    <glyph glyph-name="tilde" unicode="&#x2dc;" horiz-adv-x="537" 
d="M34 581h93q4 18 17.5 34t48.5 16q24 0 39 -8t32 -18q16 -10 37.5 -18t56.5 -8q37 0 63.5 10t44 27.5t26.5 41t11 50.5h-89q-1 -16 -14.5 -32.5t-45.5 -16.5q-23 0 -39 8t-33 19q-17 9 -38 16.5t-54 7.5q-41 0 -69.5 -11.5t-47 -30t-28 -41.5t-11.5 -46z" />
    <glyph glyph-name="endash" unicode="&#x2013;" horiz-adv-x="733" 
d="M662 394h-594v-138h594v138z" />
    <glyph glyph-name="emdash" unicode="&#x2014;" horiz-adv-x="1107" 
d="M1040 394h-972v-138h972v138z" />
    <glyph glyph-name="quoteleft" unicode="&#x2018;" horiz-adv-x="289" 
d="M229 371v195h-43v25q0 37 16.5 48.5t55.5 11.5v93q-54 0 -95.5 -9t-69 -30t-42 -55t-14.5 -84v-195h192z" />
    <glyph glyph-name="quoteright" unicode="&#x2019;" horiz-adv-x="316" 
d="M75 714v-195h43v-25q0 -37 -16.5 -48.5t-55.5 -11.5v-93q54 0 95.5 9t69 30t42 55t14.5 84v195h-192z" />
    <glyph glyph-name="quotesinglbase" unicode="&#x201a;" horiz-adv-x="317" 
d="M76 284v-195h43v-25q0 -37 -16.5 -48.5t-55.5 -11.5v-93q54 0 95.5 9t69 30t42 55t14.5 84v195h-192z" />
    <glyph glyph-name="quotedblleft" unicode="&#x201c;" horiz-adv-x="551" 
d="M229 371v195h-43v25q0 37 16.5 48.5t55.5 11.5v93q-54 0 -95.5 -9t-69 -30t-42 -55t-14.5 -84v-195h192zM500 371v195h-43v25q0 37 16.5 48.5t55.5 11.5v93q-54 0 -95.5 -9t-69 -30t-42 -55t-14.5 -84v-195h192z" />
    <glyph glyph-name="quotedblright" unicode="&#x201d;" horiz-adv-x="610" 
d="M369 714v-195h43v-25q0 -37 -16.5 -48.5t-55.5 -11.5v-93q54 0 95.5 9t69 30t42 55t14.5 84v195h-192zM98 714v-195h43v-25q0 -37 -16.5 -48.5t-55.5 -11.5v-93q54 0 95.5 9t69 30t42 55t14.5 84v195h-192z" />
    <glyph glyph-name="quotedblbase" unicode="&#x201e;" horiz-adv-x="565" 
d="M347 284v-195h43v-25q0 -37 -16.5 -48.5t-55.5 -11.5v-93q54 0 95.5 9t69 30t42 55t14.5 84v195h-192zM76 284v-195h43v-25q0 -37 -16.5 -48.5t-55.5 -11.5v-93q54 0 95.5 9t69 30t42 55t14.5 84v195h-192z" />
    <glyph glyph-name="dagger" unicode="&#x2020;" horiz-adv-x="244" 
d="M138 736h-27v-135h-68v-27h68v-417h27v417h68v27h-68v135z" />
    <glyph glyph-name="daggerdbl" unicode="&#x2021;" horiz-adv-x="244" 
d="M116 79h26v302h68v27h-68v151h68v28h-68v149h-26v-149h-68v-28h68v-151h-68v-27h68v-302z" />
    <glyph glyph-name="bullet" unicode="&#x2022;" horiz-adv-x="467" 
d="M403 277q0 34 -13 64.5t-35.5 53t-53 35.5t-64.5 13q-35 0 -65 -13t-52.5 -35.5t-35.5 -53t-13 -64.5q0 -35 13 -65t35.5 -52.5t52.5 -35.5t65 -13q34 0 64.5 13t53 35.5t35.5 52.5t13 65z" />
    <glyph glyph-name="ellipsis" unicode="&#x2026;" horiz-adv-x="1127" 
d="M119 167v-167h195v167h-195zM489 167v-167h195v167h-195zM864 167v-167h195v167h-195z" />
    <glyph glyph-name="perthousand" unicode="&#x2030;" horiz-adv-x="1839" 
d="M323 641q42 0 67 -4t38.5 -15.5t17.5 -32.5t4 -56v-48q0 -33 -4 -53.5t-17.5 -31t-38 -14t-65.5 -3.5h-56q-38 0 -60.5 4t-34.5 15t-16 30.5t-4 50.5v48q0 34 4 55.5t16.5 33.5t36 16.5t62.5 4.5h50zM327 281q72 0 117.5 7t72 28t36 60t9.5 103v56q0 63 -9.5 104
t-35.5 64.5t-71 33t-117 9.5h-66q-69 0 -112 -9t-67.5 -33t-33 -65.5t-8.5 -105.5v-56q0 -62 9 -100.5t33.5 -59.5t67 -28.5t109.5 -7.5h66zM590 -33l205 761h-101l-205 -761h101zM1012 353q42 0 67 -4t38.5 -15.5t17.5 -32.5t4 -56v-48q0 -33 -4 -53.5t-17.5 -31t-38 -14
t-65.5 -3.5h-56q-38 0 -60.5 4t-34.5 15t-16 30.5t-4 50.5v48q0 34 4 55.5t16.5 33.5t36 16.5t62.5 4.5h50zM1016 -7q72 0 117.5 7t72 28t36 60t9.5 103v56q0 63 -9.5 104t-35.5 64.5t-71 33t-117 9.5h-66q-69 0 -112 -9t-67.5 -33t-33 -65.5t-8.5 -105.5v-56
q0 -62 9 -100.5t33.5 -59.5t67 -28.5t109.5 -7.5h66zM1573 353q42 0 67 -4t38.5 -15.5t17.5 -32.5t4 -56v-48q0 -33 -4 -53.5t-17.5 -31t-38 -14t-65.5 -3.5h-56q-38 0 -60.5 4t-34.5 15t-16 30.5t-4 50.5v48q0 34 4 55.5t16.5 33.5t36 16.5t62.5 4.5h50zM1577 -7
q72 0 117.5 7t72 28t36 60t9.5 103v56q0 63 -9.5 104t-35.5 64.5t-71 33t-117 9.5h-66q-69 0 -112 -9t-67.5 -33t-33 -65.5t-8.5 -105.5v-56q0 -62 9 -100.5t33.5 -59.5t67 -28.5t109.5 -7.5h66z" />
    <glyph glyph-name="guilsinglleft" unicode="&#x2039;" horiz-adv-x="374" 
d="M20 302v-50l272 -218l58 75l-213 170l213 172l-60 73z" />
    <glyph glyph-name="guilsinglright" unicode="&#x203a;" horiz-adv-x="364" 
d="M17 112l60 -72l265 212v50l-263 218l-60 -73l207 -168z" />
    <glyph glyph-name="trademark" unicode="&#x2122;" horiz-adv-x="400" 
d="M174 702h-124v-13h56v-161h13v161h55v13zM208 704l-39 -175h13l28 131l53 -140l54 140l26 -131h14l-37 175l-57 -147z" />
    <glyph glyph-name="NUL" unicode="&#xe000;" horiz-adv-x="0" 
 />
    <glyph glyph-name="HT" unicode="&#xe001;" horiz-adv-x="0" 
 />
    <glyph glyph-name="minus" unicode="&#xe003;" horiz-adv-x="488" 
d="M443 327h-390v-73h390v73z" />
    <glyph glyph-name="notequal" unicode="&#xe004;" horiz-adv-x="547" 
d="M477 279h-186l43 89h143v112h-89l33 69h-97l-33 -69h-224v-112h169l-43 -89h-126v-110h71l-31 -69h97l32 69h241v110z" />
    <glyph glyph-name="lessequal" unicode="&#xe005;" horiz-adv-x="516" 
d="M440 248h-372v-139h372v139zM98 553v-99l285 -190v134l-169 108l169 107v134z" />
    <glyph glyph-name="greaterequal" unicode="&#xe006;" horiz-adv-x="489" 
d="M431 248h-364v-139h364v139zM101 398v-134l286 190v99l-286 194v-134l169 -107z" />
    <glyph glyph-name="partialdiff" unicode="&#xe007;" 
d="M449 382h-388v-38h388v38zM217 191v-62h91q23 0 34.5 -6t11.5 -29q0 -22 -13.5 -27.5t-52.5 -5.5h-64q-32 0 -47.5 4t-15.5 25h-73v-6q0 -23 6 -39.5t21 -26.5t41.5 -14.5t67.5 -4.5h69q43 0 69.5 4t41 14t19.5 28t5 46q0 42 -15.5 55t-42.5 16q16 1 27 3.5t18 9.5
t10 19.5t3 32.5q0 25 -7 41.5t-23.5 26t-43.5 13t-68 3.5h-63q-41 0 -67.5 -5t-41.5 -15.5t-20.5 -26t-5.5 -37.5v-12h71q0 20 17 27t53 7h54q42 0 56.5 -5t14.5 -23q0 -20 -10 -25t-37 -5h-90zM252 413h75v312h-108l-92 -93l37 -36l71 71h17v-254z" />
    <glyph glyph-name="summation" unicode="&#xe008;" 
d="M449 382h-388v-38h388v38zM380 129v182h-98l-206 -148v-97h229v-67h75v67h42v63h-42zM252 413h75v312h-108l-92 -93l37 -36l71 71h17v-254zM305 244v-115h-155v12l144 103h11z" />
    <glyph glyph-name="product" unicode="&#xe009;" 
d="M449 382h-388v-38h388v38zM311 527q33 2 54.5 8t35 17t19 28t5.5 42q0 30 -6 50t-21.5 32t-43.5 17.5t-71 5.5h-67q-44 0 -69.5 -9t-39 -25t-17.5 -37t-4 -46h75q0 16 2 26.5t9.5 16.5t21.5 8.5t38 2.5h49q42 0 55 -7t13 -29t-9.5 -29.5t-40.5 -9.5l-99 -7
q-56 -4 -86 -26.5t-30 -70.5v-72h339v63h-264v9q0 19 16.5 26t53.5 10zM216 192v-62h91q23 0 34.5 -6t11.5 -29q0 -22 -13.5 -27.5t-52.5 -5.5h-64q-32 0 -47.5 4t-15.5 25h-73v-6q0 -23 6 -39.5t21 -26.5t41.5 -14.5t67.5 -4.5h69q43 0 69.5 4t41 14t19.5 28t5 46
q0 42 -15.5 55t-42.5 16q16 1 27 3.5t18 9.5t10 19.5t3 32.5q0 25 -7 41.5t-23.5 26t-43.5 13t-68 3.5h-63q-41 0 -67.5 -5t-41.5 -15.5t-20.5 -26t-5.5 -37.5v-12h71q0 20 17 27t53 7h54q42 0 56.5 -5t14.5 -23q0 -20 -10 -25t-37 -5h-90z" />
    <glyph glyph-name="pi" unicode="&#xe00a;" 
d="M449 382h-388v-38h388v38zM214 608v-62h91q23 0 34.5 -6t11.5 -29q0 -22 -13.5 -27.5t-52.5 -5.5h-64q-32 0 -47.5 4t-15.5 25h-73v-6q0 -23 6 -39.5t21 -26.5t41.5 -14.5t67.5 -4.5h69q43 0 69.5 4t41 14t19.5 28t5 46q0 42 -15.5 55t-42.5 16q16 1 27 3.5t18 9.5
t10 19.5t3 32.5q0 25 -7 41.5t-23.5 26t-43.5 13t-68 3.5h-63q-41 0 -67.5 -5t-41.5 -15.5t-20.5 -26t-5.5 -37.5v-12h71q0 20 17 27t53 7h54q42 0 56.5 -5t14.5 -23q0 -20 -10 -25t-37 -5h-90zM390 126v182h-98l-206 -148v-97h229v-67h75v67h42v63h-42zM315 241v-115h-155
v12l144 103h11z" />
    <glyph glyph-name="integral" unicode="&#xe00b;" horiz-adv-x="811" 
d="M739 667h-667v-667h667v667zM686 613v-560h-560v560h560z" />
    <glyph glyph-name="radical" unicode="&#xe00c;" horiz-adv-x="703" 
d="M64 301l-44 -103q17 -12 35.5 -31t36.5 -40t33 -42.5t25 -38.5q45 76 94.5 138.5t105 116t118 99.5t132.5 88l46 155q-54 -26 -106.5 -63t-102.5 -80.5t-94.5 -90t-81.5 -92t-65.5 -87.5t-44.5 -75q-22 48 -42.5 84t-44.5 62z" />
    <glyph glyph-name="approxequal" unicode="&#xe00d;" horiz-adv-x="813" 
d="M326 273v126h124v-126h-124zM285 541v-101h-101q-51 0 -79 28.5t-28 73.5q0 50 29.5 77.5t76.5 27.5q51 0 76.5 -31t25.5 -75zM183 399h102v-126h-102q-30 0 -56.5 -10.5t-46.5 -30t-31.5 -46t-11.5 -57.5t11 -57t30 -45t45 -29.5t57 -10.5q36 0 63.5 11t46 30.5t27.5 46
t9 56.5v102h124v-102q0 -30 9.5 -56.5t28 -46t45.5 -30.5t63 -11q31 0 57 11t45 30t30 45t11 56q0 31 -11.5 57.5t-31.5 46t-46.5 30t-56.5 10.5h-102v126h102q30 0 56.5 11t46.5 30.5t31.5 46t11.5 57.5t-11 57.5t-30 45.5t-45.5 29.5t-56.5 10.5q-36 0 -63 -11.5
t-45.5 -31t-28 -46t-9.5 -56.5v-102h-124v102q0 30 -9 56.5t-27.5 46t-46 31t-63.5 11.5q-30 0 -56.5 -11.5t-45.5 -31t-30 -45.5t-11 -55q0 -32 11 -58.5t30.5 -45.5t46 -30t58.5 -11zM592 440h-101v101q0 44 25.5 75t76.5 31q46 0 76 -27.5t30 -77.5q0 -45 -28.5 -73.5
t-78.5 -28.5zM184 233h101v-101q0 -45 -25.5 -75.5t-76.5 -30.5q-47 0 -76.5 27t-29.5 78q0 45 28 73.5t79 28.5zM491 132v101h101q50 0 78.5 -28.5t28.5 -73.5q0 -51 -30 -78t-76 -27q-51 0 -76.5 30.5t-25.5 75.5z" />
    <glyph glyph-name="nonbreakingspace" unicode="&#xe00e;" horiz-adv-x="582" 
 />
    <glyph glyph-name="lozenge" unicode="&#xe00f;" horiz-adv-x="556" 
d="M278 430l154 -154l-154 -154l-154 154zM32 276l246 -246l246 246l-246 246z" />
    <glyph glyph-name="apple" unicode="&#xe010;" horiz-adv-x="800" 
d="M275 530q-44 0 -79.5 -14.5t-60 -40.5t-38 -62t-13.5 -78q0 -71 27 -134t64.5 -110t77 -74.5t65.5 -27.5q19 0 36 7.5t30 23.5q7 8 18 12t22 4t21.5 -4t17.5 -12q27 -33 73 -33q39 0 70.5 21.5t56.5 52.5t42.5 65t28.5 59q-20 6 -38 18t-32.5 30t-23 41.5t-8.5 52.5
q0 26 6.5 46t17 35.5t25 29t31.5 25.5q-3 15 -17 27.5t-33 21.5t-42 14t-44 5q-25 0 -47 -6.5t-37 -18.5q-20 -16 -35.5 -21.5t-30.5 -5.5t-27 6.5t-33 20.5q-17 12 -41 18t-50 6zM534 669q-21 0 -42.5 -12.5t-39.5 -32t-29.5 -43t-11.5 -46.5q0 -6 2 -11.5t10 -5.5
q24 0 46 15t38.5 37t26.5 46.5t10 43.5q0 9 -10 9z" />
    </font>
</defs>
</svg>
