<?xml version="1.0" standalone="no"?>
<!DOCTYPE svg PUBLIC "-//W3C//DTD SVG 1.1//EN" "http://www.w3.org/Graphics/SVG/1.1/DTD/svg11.dtd" >
<svg xmlns="http://www.w3.org/2000/svg" xmlns:xlink="http://www.w3.org/1999/xlink" version="1.1">
<metadata>
Created by FontForge 20170731 at Fri Nov 26 20:21:10 2004
 By Aleksey,,,
4.1 (c)1986-92 by Richard A. Ware. All Rights Reserved.
</metadata>
<defs>
<font id="MicroExtendFLF-BoldItalic" horiz-adv-x="497" >
  <font-face 
    font-family="MicroExtendFLF"
    font-weight="700"
    font-style="italic"
    font-stretch="normal"
    units-per-em="1000"
    panose-1="2 0 8 7 4 0 0 9 0 4"
    ascent="800"
    descent="-200"
    x-height="494"
    cap-height="694"
    bbox="-69 -220 1682 921"
    underline-thickness="50"
    underline-position="-205"
    slope="-12"
    unicode-range="U+0005-E010"
  />
<missing-glyph horiz-adv-x="500" 
 />
    <glyph glyph-name=".notdef" horiz-adv-x="500" 
 />
    <glyph glyph-name=".null" horiz-adv-x="0" 
 />
    <glyph glyph-name="nonmarkingreturn" unicode="&#xe002;" horiz-adv-x="0" 
 />
    <glyph glyph-name="breve" horiz-adv-x="422" 
d="M207 592q45 0 88.5 12.5t75.5 34.5l-27 39q-27 -18 -60.5 -26t-66.5 -8q-28 0 -60.5 7.5t-55.5 25.5l-40 -38q26 -21 64 -34t82 -13z" />
    <glyph glyph-name="dotaccent" horiz-adv-x="311" 
d="M73 718l-29 -167h195l29 167h-195z" />
    <glyph glyph-name="ring" horiz-adv-x="298" 
d="M142 707q-39 0 -58 -18t-24 -49q-4 -23 -4 -38q0 -29 16.5 -44t54.5 -15h45q41 0 60.5 16t24.5 45q4 21 4.5 32t0.5 15q0 20 -15.5 38t-55.5 18h-49zM86 603q0 11 3 32q5 23 18.5 32.5t34.5 9.5h43q27 0 36 -8t9 -25q0 -2 -1 -11t-3 -23q-4 -20 -17 -29t-42 -9h-34
q-25 0 -36 7t-11 24z" />
    <glyph glyph-name="hungarumlaut" unicode="&#xa;" horiz-adv-x="427" 
d="M256 761l-89 39l-91 -231l43 -16zM389 761l-89 39l-91 -231l43 -16z" />
    <glyph glyph-name="ogonek" horiz-adv-x="311" 
d="M189 -40l7 40h-127l-9 -50q-4 -23 -4 -39q0 -33 13.5 -53.5t39 -32t61.5 -15.5t81 -4l13 101q-32 0 -54.5 5t-22.5 31v7q0 3 2 10z" />
    <glyph glyph-name="caron" horiz-adv-x="427" 
d="M230 547l172 144h-41l-145 -69l-117 69h-45l122 -144h54z" />
    <glyph glyph-name="dotlessi" unicode="&#xd;" horiz-adv-x="298" 
d="M323 494h-166l-87 -494h167z" />
    <glyph glyph-name="fraction" horiz-adv-x="618" 
d="M103 -89l646 817h-111l-646 -817h111z" />
    <glyph glyph-name="fi" horiz-adv-x="733" 
d="M559 494h-215l4 18q5 24 19 33t55 9h370l25 140h-378q-52 0 -94.5 -8.5t-74 -28t-53 -51.5t-31.5 -79l-7 -33h-61l-24 -135h62l-64 -361h166l63 361h215zM781 494h-168l-86 -494h167z" />
    <glyph glyph-name="fl" horiz-adv-x="733" 
d="M524 0h170l123 694h-378q-108 0 -171.5 -40t-81.5 -127l-7 -33h-61l-24 -135h62l-64 -361h166l63 361h217l23 135h-217l4 19q5 22 22 32.5t61 10.5h191z" />
    <glyph glyph-name="Lslash" horiz-adv-x="703" 
d="M287 343l81 81l31 169l-82 -82l32 183h-167l-63 -356l-67 -67l-31 -169l69 69l-30 -171h594l25 139h-428z" />
    <glyph glyph-name="lslash" horiz-adv-x="293" 
d="M293 346l74 74l31 169l-76 -76l32 181h-166l-62 -349l-74 -74l-31 -169l76 76l-31 -178h166z" />
    <glyph glyph-name="Zcaron" horiz-adv-x="866" 
d="M938 694h-780l-25 -138h536l-609 -420l-24 -136h780l24 139h-517l590 415zM575 722l172 144h-41l-145 -69l-117 69h-45l122 -144h54z" />
    <glyph glyph-name="zcaron" horiz-adv-x="662" 
d="M703 494h-573l-24 -138h313l-357 -223l-23 -133h578l24 139h-341l381 227zM435 547l172 144h-41l-145 -69l-117 69h-45l122 -144h54z" />
    <glyph glyph-name="space" unicode=" " horiz-adv-x="528" 
 />
    <glyph glyph-name="exclam" unicode="!" horiz-adv-x="333" 
d="M210 694l-78 -444h167l78 444h-167zM117 167l-29 -167h168l28 167h-167z" />
    <glyph glyph-name="quotedbl" unicode="&#x22;" horiz-adv-x="356" 
d="M281 708h-111l-18 -227h67zM441 708h-111l-18 -227h67z" />
    <glyph glyph-name="numbersign" unicode="#" horiz-adv-x="633" 
d="M428 677h-55l-55 -130h-134l-25 -56h135l-53 -124h-137l-22 -56h136l-57 -131h55l55 131h149l-58 -135h55l59 135h128l25 56h-130l53 124h130l24 56h-130l55 130h-54l-56 -130h-149zM349 491h149l-54 -124h-148z" />
    <glyph glyph-name="dollar" unicode="$" horiz-adv-x="945" 
d="M398 556h112l-23 -130h-99q-28 0 -40.5 11.5t-12.5 38.5q0 38 18.5 59t44.5 21zM615 140h-70l26 147h70q22 0 40.5 -2t32 -8t21 -17.5t7.5 -31.5q0 -23 -5.5 -39.5t-20 -27t-39 -16t-62.5 -5.5zM351 287h112l-26 -147h-98q-27 0 -49 10.5t-22 36.5q0 7 1 11h-172
q-2 -13 -3 -25.5t-1 -23.5q0 -72 55 -112t175 -40h88l-15 -86h108l15 86h79q88 0 150 14.5t101 46t56.5 81t17.5 119.5q0 55 -13.5 88t-42.5 51t-74.5 23.5t-109.5 5.5h-88l23 130h94q32 0 52.5 -9.5t20.5 -35.5q0 -8 -1 -13h178q3 16 4.5 29t1.5 21q0 71 -47.5 110
t-147.5 39h-130l11 63h-108l-11 -63h-92q-84 0 -140.5 -20t-91 -54.5t-49 -81t-14.5 -99.5q0 -42 9 -71t31.5 -48t62 -27.5t100.5 -8.5z" />
    <glyph glyph-name="percent" unicode="%" horiz-adv-x="1222" 
d="M508 584q0 -20 -4 -44t-10 -55q-6 -33 -13.5 -53.5t-22.5 -31t-40.5 -14t-66.5 -3.5h-72q-48 0 -67.5 13t-19.5 37t4.5 48t9.5 50q6 34 14 55.5t22.5 33.5t38.5 16.5t63 4.5h76q47 0 67.5 -12.5t20.5 -44.5zM368 281q63 0 103.5 7t66 28t40.5 60t26 103q3 16 6 36.5
t6 40.5t4.5 37.5t1.5 28.5q0 36 -11 60t-35.5 38t-63 20t-93.5 6h-92q-59 0 -98.5 -8t-65.5 -31.5t-41.5 -65t-27.5 -108.5q-8 -43 -12 -73.5t-4 -57.5q0 -32 9.5 -54.5t32 -37.5t59 -22t90.5 -7h99zM533 -33l339 761h-101l-339 -761h101zM1143 296q0 -20 -4 -44t-10 -55
q-6 -33 -13.5 -53.5t-22.5 -31t-40.5 -14t-66.5 -3.5h-72q-48 0 -67.5 13t-19.5 37t4.5 48t9.5 50q6 34 14 55.5t22.5 33.5t38.5 16.5t63 4.5h76q47 0 67.5 -12.5t20.5 -44.5zM1003 -7q63 0 103.5 7t66 28t40.5 60t26 103q3 16 6 36.5t6 40.5t4.5 37.5t1.5 28.5q0 36 -11 60
t-35.5 38t-63 20t-93.5 6h-92q-59 0 -98.5 -8t-65.5 -31.5t-41.5 -65t-27.5 -108.5q-8 -43 -12 -73.5t-4 -57.5q0 -32 9.5 -54.5t32 -37.5t59 -22t90.5 -7h99z" />
    <glyph glyph-name="ampersand" unicode="&#x26;" horiz-adv-x="986" 
d="M624 0q75 0 118 18t71 46l101 -62l92 109l-96 62q13 16 25.5 37t23 46.5t17 57t6.5 68.5h-159q-1 -39 -12 -74.5t-28 -57.5l-291 183q-13 8 -25 14.5t-21 14t-14.5 17t-5.5 21.5q0 19 6.5 30t18.5 17t28.5 7.5t36.5 1.5h176q48 0 67 -14.5t19 -37.5q0 -7 -1 -11h167
q2 15 3.5 28t1.5 19q0 69 -56.5 111.5t-162.5 42.5h-196q-79 0 -132 -16t-84.5 -41.5t-44.5 -58t-13 -64.5q0 -38 9.5 -54t21.5 -24q-49 -9 -87 -31.5t-64 -53.5t-39.5 -68t-13.5 -75q0 -57 15.5 -96.5t43.5 -64t65.5 -36t82.5 -11.5h330zM257 222q0 56 32 84.5t84 32.5
l294 -181q-14 -11 -41.5 -15t-78.5 -4h-189q-57 0 -79 22t-22 61z" />
    <glyph glyph-name="quotesingle" unicode="'" horiz-adv-x="249" 
d="M308 708h-111l-18 -227h67z" />
    <glyph glyph-name="parenleft" unicode="(" horiz-adv-x="329" 
d="M273 -118l25 140q-48 2 -76.5 19t-28.5 62q0 7 1 15.5t5 28.5l63 356q11 65 44 91t97 26l25 138q-58 0 -108 -11.5t-89.5 -40.5t-67 -78.5t-40.5 -124.5l-61 -348q-7 -37 -7.5 -57t-0.5 -35q0 -48 16 -82.5t45.5 -56.5t69.5 -32t88 -10z" />
    <glyph glyph-name="parenright" unicode=")" horiz-adv-x="329" 
d="M170 758l-25 -140q48 -2 76.5 -19t28.5 -62q0 -7 -1 -15.5t-5 -28.5l-63 -356q-11 -65 -44 -91t-97 -26l-25 -138q58 0 108 11.5t89.5 40.5t67 78.5t40.5 124.5l61 348q7 37 7.5 57t0.5 35q0 48 -16 82.5t-45.5 56.5t-69.5 32t-88 10z" />
    <glyph glyph-name="asterisk" unicode="*" horiz-adv-x="344" 
d="M369 529l-86 19l89 21q24 5 34 16t10 22q0 12 -9.5 21.5t-23.5 9.5q-8 0 -16.5 -3.5t-16.5 -11.5l-71 -67l41 86q6 13 6 23q0 15 -10 23t-23 8q-14 0 -25.5 -10t-11.5 -32q0 -8 1 -12l13 -86l-53 64q-9 11 -18.5 15.5t-17.5 4.5q-17 0 -27.5 -12.5t-10.5 -26.5
q0 -11 7.5 -21t26.5 -14l85 -18l-92 -24q-23 -6 -32.5 -17t-9.5 -22q0 -12 8.5 -21.5t22.5 -9.5q17 0 34 16l73 68l-43 -86q-6 -12 -6 -22q0 -14 10 -22.5t23 -8.5q14 0 25.5 10.5t11.5 33.5v9l-9 87l50 -65q16 -20 35 -20q17 0 28.5 13t11.5 28q0 11 -8 20.5t-26 13.5z" />
    <glyph glyph-name="plus" unicode="+" horiz-adv-x="564" 
d="M280 392h-144l-25 -138h145l-26 -144h139l25 144h154l24 138h-153l25 145h-138z" />
    <glyph glyph-name="comma" unicode="," horiz-adv-x="333" 
d="M109 194l-35 -194h44l-6 -31q-3 -18 -11.5 -28.5t-19.5 -16.5t-24.5 -8t-26.5 -2l-16 -93q37 0 77 5t75 20.5t61 44.5t35 78l40 225h-193z" />
    <glyph glyph-name="hyphen" unicode="-" horiz-adv-x="538" 
d="M546 394h-408l-25 -138h408z" />
    <glyph glyph-name="period" unicode="." horiz-adv-x="329" 
d="M103 167l-29 -167h195l29 167h-195z" />
    <glyph glyph-name="slash" unicode="/" horiz-adv-x="338" 
d="M103 -89l366 817h-111l-366 -817h111z" />
    <glyph glyph-name="zero" unicode="0" horiz-adv-x="867" 
d="M698 454q0 -30 -6.5 -65.5t-14.5 -82.5q-9 -50 -20.5 -80t-34.5 -46.5t-61 -21.5t-99 -5h-108q-71 0 -100.5 19.5t-29.5 55.5t6 72t14 75q10 52 21.5 84t33.5 50t58 24.5t95 6.5h114q69 0 100.5 -18.5t31.5 -67.5zM488 0q94 0 155 10.5t99.5 42t60.5 90t39 154.5
q4 25 9 55t8.5 60t6 56.5t2.5 43.5q0 54 -16.5 89.5t-52.5 57t-94 30t-141 8.5h-138q-89 0 -148 -12t-98 -47t-62 -97.5t-41 -162.5q-11 -65 -18 -110t-7 -86q0 -48 14.5 -82t48.5 -56.5t89 -33t135 -10.5h149z" />
    <glyph glyph-name="one" unicode="1" horiz-adv-x="867" 
d="M352 0h167l122 694h-200l-242 -208l67 -80l186 158z" />
    <glyph glyph-name="two" unicode="2" horiz-adv-x="867" 
d="M394 240l185 13q93 6 150 26t87.5 51.5t41 75.5t10.5 98q0 101 -60 147.5t-172 46.5h-216q-87 0 -142.5 -20t-89.5 -55t-50.5 -82.5t-26.5 -102.5h167q6 35 15 58.5t27.5 37.5t51 19.5t85.5 5.5h110q40 0 66.5 -3t42.5 -10.5t23 -21.5t7 -36q0 -33 -10 -51.5t-28 -27.5
t-41.5 -12t-50.5 -5l-250 -18q-116 -8 -183 -58.5t-86 -155.5l-28 -160h753l25 139h-586l3 22q4 21 15.5 34.5t32 22.5t51 14t71.5 8z" />
    <glyph glyph-name="three" unicode="3" horiz-adv-x="867" 
d="M389 428l-24 -139h203q43 0 66 -12t23 -55q0 -30 -9.5 -46.5t-29 -25t-50 -10.5t-72.5 -2h-142q-32 0 -56 1t-41 6t-25.5 14.5t-8.5 27.5q0 3 0.5 7t1.5 9h-161l-2 -13q-3 -16 -3.5 -25t-0.5 -21q0 -73 69 -108.5t203 -35.5h220q75 0 126 13t82.5 41.5t45.5 73t14 108.5
q0 65 -25.5 93t-73.5 33q45 -1 75 10t49 30.5t27 47t8 60.5q0 55 -16 90.5t-50.5 56.5t-89 29t-132.5 8h-140q-92 0 -152.5 -11.5t-98 -37t-57 -66t-29.5 -99.5h156q8 46 48.5 61t120.5 15h120q42 0 70.5 -2t46 -8t25 -18.5t7.5 -33.5q0 -28 -11 -42t-28.5 -19t-38.5 -5h-40
h-200z" />
    <glyph glyph-name="four" unicode="4" horiz-adv-x="867" 
d="M774 289l72 405h-198l-604 -370l-30 -174h569l-26 -150h166l27 150h94l25 139h-95zM652 544l-44 -255h-382z" />
    <glyph glyph-name="five" unicode="5" horiz-adv-x="867" 
d="M270 -1h249q80 0 138 13.5t96 46t56 88t18 139.5q0 54 -12.5 92t-39.5 62t-69 35t-101 11h-258q-20 0 -36.5 -4.5t-30.5 -15.5l19 108h542l21 120h-709l-67 -381h167q9 20 25.5 27t42.5 7h262q36 0 54 -20.5t18 -58.5q0 -68 -29 -99t-80 -31h-233q-20 0 -36.5 1
t-29.5 5.5t-20 13t-7 24.5q0 9 1 14h-167q-4 -23 -4 -47q0 -77 54.5 -113.5t165.5 -36.5z" />
    <glyph glyph-name="six" unicode="6" horiz-adv-x="867" 
d="M579 446h-144q-45 0 -74 -3.5t-47.5 -9.5t-30 -14.5t-20.5 -19.5l14 77q8 46 39.5 63t99.5 17h165q60 0 86.5 -6t26.5 -33q0 -8 -1 -13h156q5 33 5 50v25q0 27 -12.5 49.5t-39.5 38.5t-70 25t-105 9h-189q-83 0 -141 -12.5t-96 -39t-59.5 -68.5t-31.5 -101
q-13 -74 -22 -127.5t-14 -91.5t-7.5 -62.5t-2.5 -41.5q0 -42 12.5 -73.5t41.5 -51.5t75 -30t114 -10h218q87 0 145 17.5t93 52.5t49.5 88t14.5 124q0 93 -60 132.5t-188 39.5zM345 136q-34 0 -56.5 3t-36 10.5t-19 19t-5.5 29.5q0 61 31.5 86.5t112.5 25.5h175
q66 0 91 -14.5t25 -46.5q0 -30 -6 -51t-22 -35t-44.5 -20.5t-74.5 -6.5h-171z" />
    <glyph glyph-name="seven" unicode="7" horiz-adv-x="867" 
d="M894 694h-765l-25 -138h543l-540 -556h207l560 579z" />
    <glyph glyph-name="eight" unicode="8" horiz-adv-x="867" 
d="M230 187q0 51 32 78t107 27h178q64 0 87.5 -19t23.5 -57q0 -33 -12.5 -52.5t-33 -29.5t-45.5 -13t-50 -3h-178q-61 0 -85 18.5t-24 50.5zM282 486q0 29 9.5 48.5t26.5 31t40 16t50 4.5h191q62 0 86.5 -17t24.5 -55q0 -55 -35.5 -76.5t-105.5 -21.5h-178q-62 0 -85.5 16
t-23.5 54zM881 530q0 40 -12 71.5t-39 53.5t-69 34t-102 12h-291q-64 0 -112 -16.5t-80 -45.5t-48 -69.5t-16 -89.5q0 -35 9.5 -57.5t25 -36t36 -20.5t43.5 -10q-81 -15 -125.5 -64.5t-44.5 -131.5q0 -48 13.5 -80.5t42 -52t73 -27.5t105.5 -8h244q80 0 136 15.5t90.5 44.5
t50 71t15.5 95q0 40 -9.5 65t-25 40t-35.5 22t-40 11q90 7 127.5 50.5t37.5 123.5z" />
    <glyph glyph-name="nine" unicode="9" horiz-adv-x="867" 
d="M329 243h170q43 0 71.5 2.5t47.5 9t30.5 17t22.5 25.5l-10 -61q-6 -36 -18.5 -59.5t-32 -37.5t-48.5 -20t-68 -6h-126q-81 0 -113 12.5t-32 44.5v6q0 4 1 8h-157q-2 -12 -3 -22.5t-1 -21.5q0 -77 64 -114.5t211 -37.5h188q75 0 127.5 15.5t87.5 48.5t56.5 83.5
t33.5 120.5q7 42 13.5 83t11 77t7 64t2.5 43q0 85 -60.5 129.5t-195.5 44.5h-195q-88 0 -147.5 -17t-95.5 -53.5t-51.5 -93t-15.5 -134.5q0 -85 55.5 -120.5t169.5 -35.5zM591 551q32 0 53 -3t33.5 -11t17.5 -22t5 -35q0 -50 -27.5 -76.5t-96.5 -26.5h-202q-59 0 -80 16.5
t-21 56.5q0 57 33 79t103 22h182z" />
    <glyph glyph-name="colon" unicode=":" horiz-adv-x="329" 
d="M103 167l-29 -167h195l29 167h-195zM160 482l-30 -166h194l30 166h-194z" />
    <glyph glyph-name="semicolon" unicode=";" horiz-adv-x="329" 
d="M160 482l-30 -166h194l30 166h-194zM109 194l-35 -194h44l-6 -31q-3 -18 -11.5 -28.5t-19.5 -16.5t-24.5 -8t-26.5 -2l-16 -93q37 0 77 5t75 20.5t61 44.5t35 78l40 225h-193z" />
    <glyph glyph-name="less" unicode="&#x3c;" horiz-adv-x="367" 
d="M100 393l-17 -99l253 -190l23 134l-150 108l188 107l23 134z" />
    <glyph glyph-name="equal" unicode="=" horiz-adv-x="538" 
d="M524 279h-407l-19 -111h408zM560 479h-408l-20 -111h408z" />
    <glyph glyph-name="greater" unicode="&#x3e;" horiz-adv-x="367" 
d="M67 104l319 190l16 99l-251 194l-23 -134l150 -107l-188 -108z" />
    <glyph glyph-name="question" unicode="?" horiz-adv-x="867" 
d="M507 247q2 13 6.5 23t15.5 17.5t32 12.5t56 9q93 11 151 25.5t90.5 40.5t44 68t11.5 107q0 34 -11 62t-38 47.5t-72.5 30.5t-114.5 11h-270q-66 0 -114.5 -14t-82 -42t-53.5 -68.5t-29 -93.5h167q7 38 35.5 58.5t95.5 20.5h196q68 0 96 -8.5t28 -37.5q0 -23 -8 -35.5
t-30 -20.5t-59.5 -13t-96.5 -11q-90 -10 -140.5 -43.5t-64.5 -108.5l-11 -64h165zM326 167l-29 -167h166l29 167h-166z" />
    <glyph glyph-name="at" unicode="@" horiz-adv-x="649" 
d="M267 384q0 26 10 53t29 48.5t46.5 35t61.5 13.5q42 0 62.5 -25.5t20.5 -60.5q0 -32 -11.5 -59t-31.5 -47t-46 -31t-56 -11q-44 0 -64.5 25t-20.5 59zM125 377q0 56 22.5 113t65 103t103 75t137.5 29q59 0 103 -17t73 -46.5t43 -68.5t14 -83q0 -35 -7.5 -67.5t-22.5 -58
t-36.5 -40.5t-49.5 -15q-21 0 -29.5 11.5t-8.5 28.5t3.5 28.5t5.5 16.5l53 179h-36l-25 -77q-8 34 -33 58.5t-78 24.5q-48 0 -85 -18t-61.5 -45.5t-37.5 -61t-13 -64.5q0 -51 31.5 -86t88.5 -35q32 0 56 6.5t41 17.5t29.5 25t21.5 29v-11q0 -30 16.5 -48.5t48.5 -18.5
q36 0 66.5 15t53 43.5t35 69.5t12.5 92q0 54 -17.5 100.5t-52 80.5t-84.5 53t-115 19q-87 0 -156 -32t-117 -83.5t-74 -115.5t-26 -127q0 -54 15.5 -101.5t48.5 -82.5t83.5 -55.5t120.5 -20.5q34 0 67.5 6.5t63 16.5t52.5 22.5t35 25.5l-20 30q-12 -13 -33.5 -24.5
t-47.5 -20.5t-54.5 -14t-56.5 -5q-60 0 -104 18t-72.5 48.5t-42 71.5t-13.5 86z" />
    <glyph glyph-name="A" unicode="A" horiz-adv-x="983" 
d="M8 0h194l114 167h421l55 -167h195l-236 694h-263zM604 564l85 -258h-277l182 258h10z" />
    <glyph glyph-name="B" unicode="B" horiz-adv-x="887" 
d="M714 694h-530l-122 -694h586q72 0 117.5 22.5t72 59t36 82t9.5 91.5q0 54 -20.5 81t-49.5 33q47 11 67.5 55t20.5 107q0 37 -10 67t-32 51.5t-57.5 33t-87.5 11.5zM305 433l22 123h329q36 0 53.5 -10.5t17.5 -35.5q0 -45 -24.5 -61t-59.5 -16h-338zM254 139l27 155h351
q41 0 61.5 -12.5t20.5 -50.5q0 -31 -9.5 -49t-24 -27.5t-31.5 -12.5t-32 -3h-363z" />
    <glyph glyph-name="C" unicode="C" horiz-adv-x="910" 
d="M326 -1h272q82 0 136 12t88 40t52.5 74.5t30.5 115.5h-172q-5 -29 -14.5 -47t-30.5 -28t-56 -13t-90 -3h-136q-72 0 -107 17t-35 62q0 29 3.5 68.5t14.5 100.5q7 42 17.5 69.5t29 43.5t47.5 22.5t74 6.5h159q51 0 83 -4t50 -11.5t24.5 -19t6.5 -26.5q0 -5 -0.5 -10
t-1.5 -11h172q5 24 7 43t2 27q0 42 -15.5 73t-49.5 52t-87.5 31t-129.5 10h-174q-103 0 -169 -10.5t-107.5 -41.5t-64.5 -86t-38 -144q-11 -60 -18 -117.5t-7 -102.5q0 -44 14 -79.5t42.5 -60.5t72.5 -39t105 -14z" />
    <glyph glyph-name="D" unicode="D" horiz-adv-x="897" 
d="M550 138h-298l74 418h298q72 0 100 -25t28 -75q0 -29 -7.5 -79.5t-16.5 -104.5q-6 -37 -17.5 -62.5t-31.5 -41.5t-51.5 -23t-77.5 -7zM684 694h-501l-122 -694h505q79 0 135.5 12.5t94.5 39.5t60.5 71t33.5 107q7 43 13 85t10 77.5t6 62t2 39.5q0 41 -13.5 77.5t-42 63.5
t-73.5 43t-108 16z" />
    <glyph glyph-name="E" unicode="E" horiz-adv-x="834" 
d="M190 694l-122 -694h710l24 139h-543l27 150h526l25 139h-527l22 127h544l24 139h-710z" />
    <glyph glyph-name="F" unicode="F" horiz-adv-x="813" 
d="M182 694l-122 -694h167l51 289h526l25 139h-527l22 128h544l24 138h-710z" />
    <glyph glyph-name="G" unicode="G" horiz-adv-x="923" 
d="M779 496v-8q0 -3 -1 -8h172q6 36 6 64q0 43 -16.5 72t-54 47t-99 26t-151.5 8h-177q-85 0 -143.5 -14.5t-98 -50t-63.5 -95.5t-40 -151q-12 -66 -15.5 -113.5t-3.5 -74.5q0 -98 69 -148t203 -50h199q92 0 154 11.5t102 40t62.5 77.5t36.5 124l29 165h-423l-24 -135h252
l-8 -42q-5 -28 -16.5 -46t-31 -28t-47.5 -13.5t-65 -3.5h-178q-42 0 -70 5.5t-44.5 16.5t-23.5 28t-7 40q0 20 3 57t11 78q10 56 24 89.5t37 51t58.5 23t88.5 5.5h121q52 0 86 -2t53 -7t26.5 -14.5t7.5 -24.5z" />
    <glyph glyph-name="H" unicode="H" horiz-adv-x="864" 
d="M176 694l-123 -694h167l51 289h428l-51 -289h166l123 694h-167l-47 -266h-427l46 266h-166z" />
    <glyph glyph-name="I" unicode="I" horiz-adv-x="328" 
d="M88 0h166l123 694h-167z" />
    <glyph glyph-name="J" unicode="J" horiz-adv-x="776" 
d="M246 299h-166l-7 -41q-3 -19 -3.5 -35t-0.5 -33q0 -35 14.5 -69t45.5 -61t77.5 -43.5t111.5 -16.5h154q66 0 116.5 13t86.5 42.5t59.5 77t35.5 117.5l78 444h-167l-72 -411q-7 -39 -19.5 -66.5t-36 -45t-60 -25t-92.5 -7.5q-54 0 -86 7.5t-49.5 19.5t-23 28t-5.5 34
q0 8 1 19.5t3 22.5z" />
    <glyph glyph-name="K" unicode="K" horiz-adv-x="909" 
d="M186 694l-123 -694h167l54 311h84l316 -311h210l-393 377l521 317h-236l-396 -244h-81l43 244h-166z" />
    <glyph glyph-name="L" unicode="L" horiz-adv-x="703" 
d="M182 694l-122 -694h594l25 139h-428l98 555h-167z" />
    <glyph glyph-name="M" unicode="M" horiz-adv-x="1217" 
d="M193 694l-122 -694h167l89 510l157 -510h260l338 510l-90 -510h167l122 694h-259l-385 -565l-187 565h-257z" />
    <glyph glyph-name="N" unicode="N" horiz-adv-x="1020" 
d="M188 694l-122 -694h166l91 519l435 -519h199l122 694h-167l-88 -490l-410 490h-226z" />
    <glyph glyph-name="O" unicode="O" horiz-adv-x="916" 
d="M773 454q0 -8 -1 -24.5t-3 -37t-4.5 -43t-6.5 -43.5q-9 -50 -20.5 -80t-34.5 -46.5t-61 -21.5t-99 -5h-132q-44 0 -73.5 3.5t-47 13.5t-25 28t-7.5 46q0 20 6.5 59.5t20.5 111.5q7 36 17 60.5t31 38.5t57 20t95 6h123q49 0 81 -4.5t50.5 -15t26 -26.5t7.5 -40zM592 0
q77 0 132.5 9.5t94 37t62 78.5t37.5 134q6 37 10.5 73.5t7.5 69t4.5 59.5t1.5 45q0 40 -14 75t-45.5 61t-82.5 40.5t-126 14.5h-176q-102 0 -169 -13t-109.5 -45.5t-65.5 -88t-38 -139.5q-10 -54 -18 -112.5t-8 -100.5q0 -48 14 -85t47 -62t87 -38t134 -13h220z" />
    <glyph glyph-name="P" unicode="P" horiz-adv-x="800" 
d="M619 694h-440l-122 -694h166l36 206h308q91 0 147.5 24.5t87 66t41 95t10.5 111.5q0 36 -13 70.5t-41.5 61.5t-73 43t-106.5 16zM688 469q0 -52 -23 -74.5t-71 -22.5h-305l27 156h301q38 0 54.5 -13.5t16.5 -45.5z" />
    <glyph glyph-name="Q" unicode="Q" horiz-adv-x="929" 
d="M450 269l159 -114q-15 -2 -32 -2h-34h-132q-44 0 -73.5 3.5t-47 13.5t-25 28t-7.5 46q0 20 6.5 59.5t20.5 111.5q7 36 17 60.5t31 38.5t57 20t95 6h123q49 0 81 -4.5t50.5 -15t26 -26.5t7.5 -40q0 -8 -1 -24.5t-3 -37t-4.5 -43t-6.5 -43.5q-3 -20 -6 -32l-182 132zM592 0
q63 0 111 5.5t83 22.5l61 -44l112 140l-62 45q12 39 21 90q6 37 10.5 73.5t7.5 69t4.5 59.5t1.5 45q0 40 -14 75t-45.5 61t-82.5 40.5t-126 14.5h-176q-102 0 -169 -13t-109.5 -45.5t-65.5 -88t-38 -139.5q-10 -54 -18 -112.5t-8 -100.5q0 -48 14 -85t47 -62t87 -38t134 -13
h220z" />
    <glyph glyph-name="R" unicode="R" horiz-adv-x="889" 
d="M864 196q0 33 -11.5 52.5t-31.5 27.5q48 27 69 82.5t21 137.5q0 41 -14 77t-42 63t-70.5 42.5t-99.5 15.5h-504l-122 -694h167l36 207h328q99 0 99 -73q0 -6 -1 -14.5t-4 -25.5l-17 -94h167l24 135q4 22 5 36t1 25zM744 463q0 -29 -7 -47t-20 -27.5t-30.5 -13t-38.5 -3.5
h-359l27 156h346q45 0 63.5 -16.5t18.5 -48.5z" />
    <glyph glyph-name="S" unicode="S" horiz-adv-x="897" 
d="M718 694h-305q-151 0 -220.5 -60.5t-69.5 -189.5q0 -44 13 -71t39 -43t65 -23t90 -9l284 -12q61 -2 83 -16t22 -40q0 -20 -4.5 -36.5t-18 -28.5t-37.5 -19t-63 -7h-278q-32 0 -52 13.5t-20 36.5q0 5 1 8h-170q-3 -16 -4.5 -29t-1.5 -18q0 -31 11 -58t35.5 -47.5
t63.5 -32.5t95 -12h344q82 0 136 17.5t85.5 52t44 85t12.5 115.5q0 37 -13.5 64t-37.5 45.5t-57 28t-72 11.5l-332 13q-15 1 -28.5 2.5t-23 6t-15 13.5t-5.5 26q0 26 9 41t22.5 23t30.5 10t32 2h279q45 0 60.5 -9.5t15.5 -31.5v-8t-1 -9h179q2 12 3 23t1 22q0 67 -56 109
t-171 42z" />
    <glyph glyph-name="T" unicode="T" horiz-adv-x="800" 
d="M905 694h-750l-24 -141h292l-98 -553h166l98 553h292z" />
    <glyph glyph-name="U" unicode="U" horiz-adv-x="896" 
d="M335 694h-166l-72 -411q-5 -26 -5.5 -49t-0.5 -40q0 -38 13 -73t41.5 -62t73.5 -43t109 -16h246q80 0 136.5 13t95 42t61 76t34.5 116l78 447h-167l-75 -430q-6 -36 -18 -60t-32 -38.5t-49 -20.5t-69 -6h-180q-71 0 -101 23.5t-30 71.5q0 13 1 25.5t5 32.5z" />
    <glyph glyph-name="V" unicode="V" horiz-adv-x="983" 
d="M315 694h-185l236 -694h264l482 694h-197l-402 -574z" />
    <glyph glyph-name="W" unicode="W" horiz-adv-x="1391" 
d="M533 0l250 472l84 -472h244l391 694h-177l-310 -554h-12l-100 554h-172l-295 -558h-9l-119 558h-167l148 -694h244z" />
    <glyph glyph-name="X" unicode="X" horiz-adv-x="984" 
d="M350 694h-189l271 -327l-432 -367h219l331 282l232 -282h196l-301 367l386 327h-205l-300 -250z" />
    <glyph glyph-name="Y" unicode="Y" horiz-adv-x="882" 
d="M318 694h-195l280 -460l-41 -234h167l41 234l453 460h-209l-306 -313z" />
    <glyph glyph-name="Z" unicode="Z" horiz-adv-x="866" 
d="M938 694h-780l-25 -138h536l-609 -420l-24 -136h780l24 139h-517l590 415z" />
    <glyph glyph-name="bracketleft" unicode="[" horiz-adv-x="289" 
d="M373 706l10 55h-184l-155 -872l188 -1l10 55h-76l134 763h73z" />
    <glyph glyph-name="backslash" unicode="\" horiz-adv-x="338" 
d="M323 -89l-79 817h-111l79 -817h111z" />
    <glyph glyph-name="bracketright" unicode="]" horiz-adv-x="289" 
d="M218 -111l154 872h-184l-10 -55h73l-134 -763h-77l-10 -55z" />
    <glyph glyph-name="asciicircum" unicode="^" horiz-adv-x="406" 
d="M299 641l-185 -328h33l162 228l105 -228h34l-109 328h-40z" />
    <glyph glyph-name="underscore" unicode="_" horiz-adv-x="389" 
d="M416 -28h-415l-10 -55h415z" />
    <glyph glyph-name="grave" unicode="`" horiz-adv-x="276" 
d="M200 553l37 28l-114 176l-90 -74z" />
    <glyph glyph-name="a" unicode="a" horiz-adv-x="749" 
d="M321 317q-62 0 -103.5 -9t-68.5 -26t-41 -42t-20 -56q-4 -20 -5 -39t-1 -36q0 -59 43.5 -84t138.5 -25h111q53 0 85 4t51 11.5t29 18t19 22.5l-10 -56h139l52 297q4 20 5 32.5t1 23.5q0 31 -10.5 56.5t-34.5 44.5t-63 29.5t-97 10.5h-182q-114 0 -169 -35.5t-68 -107.5
h158q1 9 7 17t19 13t34 8t53 3h105q58 0 82.5 -12.5t24.5 -46.5q0 -6 -1.5 -18t-8.5 -48q-4 11 -11 20.5t-24.5 16t-49.5 10t-86 3.5h-103zM245 147q0 22 7 34t19 17.5t27.5 6.5t33.5 1h160q35 0 55 -7t20 -30q0 -20 -7 -31.5t-19.5 -17.5t-29 -7.5t-35.5 -1.5h-160
q-33 0 -52 6.5t-19 29.5z" />
    <glyph glyph-name="b" unicode="b" horiz-adv-x="784" 
d="M233 63q8 -14 20 -26t32 -20t50 -12.5t74 -4.5h106q111 0 173 48.5t78 140.5q3 17 5 36.5t3.5 38t2 34.5t0.5 26q0 78 -55 125t-164 47h-70q-48 0 -80.5 -6.5t-54.5 -17t-35.5 -24t-21.5 -27.5l48 273h-166l-122 -694h166zM386 126q-65 0 -91 21.5t-26 61.5
q0 51 11.5 82.5t33 49t53 23.5t70.5 6h56q61 0 88.5 -22t27.5 -59q0 -8 -2 -27.5t-7 -50.5q-8 -45 -43 -65t-107 -20h-64z" />
    <glyph glyph-name="c" unicode="c" horiz-adv-x="703" 
d="M692 148l6 31h-158q-3 -15 -9.5 -27t-20.5 -19.5t-38.5 -11.5t-63.5 -4h-73q-60 0 -87.5 19t-27.5 62q0 20 2 37.5t7 42.5q9 51 42 75.5t105 24.5h67q37 0 60.5 -3t37.5 -8.5t19.5 -14t5.5 -19.5q0 -8 -1 -12h154q3 20 3 30v21q0 24 -11.5 46.5t-39 39.5t-74 27.5
t-115.5 10.5h-95q-75 0 -128 -12t-88 -37.5t-54.5 -65t-29.5 -93.5q-5 -32 -8 -57.5t-3 -59.5q0 -36 11.5 -67t37.5 -54t69.5 -36.5t106.5 -13.5h124q76 0 125 10.5t78.5 30t43.5 47t20 60.5z" />
    <glyph glyph-name="d" unicode="d" horiz-adv-x="784" 
d="M299 0h70q49 0 82.5 5t56 14t36 20.5t23.5 23.5l-11 -63h166l122 694h-166l-48 -273q-6 14 -17 27.5t-30 24t-48 17t-71 6.5h-83q-67 0 -116.5 -13.5t-83 -39t-53.5 -62t-28 -82.5q-11 -64 -11 -119q0 -38 13.5 -71t40 -57t66 -38t90.5 -14zM599 288q0 -11 -2.5 -32
t-6.5 -41q-8 -44 -42 -66.5t-110 -22.5h-64q-61 0 -89.5 16.5t-28.5 59.5q0 14 1.5 29t5.5 38q10 57 46 79t108 22h56q72 0 99 -21t27 -61z" />
    <glyph glyph-name="e" unicode="e" horiz-adv-x="698" 
d="M566 321q0 -5 -0.5 -9.5t-1.5 -9.5h-324q3 15 8.5 29t18.5 25t36 17.5t59 6.5h104q31 0 50.5 -5t30.5 -13.5t15 -19t4 -21.5zM323 -1h98q78 0 127.5 9.5t79.5 29.5t44.5 50.5t21.5 72.5h-155q-3 -15 -9 -24.5t-19 -15t-34 -7t-52 -1.5h-104q-55 0 -77.5 16t-22.5 44
q0 5 1 11.5t4 25.5h477l11 63q5 27 5.5 45.5t0.5 30.5q0 28 -13.5 55t-43 47t-76.5 32.5t-113 12.5h-79q-78 0 -132 -12.5t-90 -38.5t-56.5 -67t-30.5 -98q-8 -44 -10.5 -70.5t-2.5 -40.5q0 -40 13 -71.5t42.5 -53.5t77 -33.5t117.5 -11.5z" />
    <glyph glyph-name="f" unicode="f" horiz-adv-x="512" 
d="M558 496h-212l2 10q5 30 19.5 40t54.5 10h131l24 138h-167q-56 0 -95 -10.5t-65.5 -30.5t-41.5 -49.5t-22 -67.5l-7 -40h-61l-24 -137h61l-63 -359h167l63 359h212z" />
    <glyph glyph-name="g" unicode="g" horiz-adv-x="774" 
d="M360 494q-103 0 -173 -52.5t-90 -167.5q-5 -33 -7 -58t-2 -41q0 -82 51.5 -128.5t160.5 -46.5h94q45 0 75 5.5t49.5 15.5t31 23t20.5 28l-12 -64q-6 -32 -16.5 -53t-27.5 -34t-42.5 -18t-59.5 -5h-78q-32 0 -53.5 4t-34.5 10.5t-18.5 15t-5.5 17.5q0 2 0.5 3.5t0.5 3.5
h-166q-3 -15 -3 -30q0 -65 53.5 -103.5t165.5 -38.5h150q80 0 133.5 14t88 44.5t53.5 79.5t31 118l81 458h-166l-11 -63q-7 11 -16.5 22t-27.5 20t-47.5 15t-76.5 6h-105zM602 288q0 -13 -3 -31t-8 -41q-8 -42 -42 -66t-111 -24h-64q-61 0 -89 16.5t-28 59.5q0 18 2.5 36
t6.5 38q11 54 42.5 74t85.5 20h79q72 0 100.5 -21t28.5 -61z" />
    <glyph glyph-name="h" unicode="h" horiz-adv-x="790" 
d="M543 494h-89q-60 0 -99 -22.5t-59 -48.5l47 271h-165l-122 -695h167l43 243q11 66 51 101t103 35h81q68 0 95 -19.5t27 -61.5q0 -10 -1 -21.5t-5 -31.5l-43 -245h167l44 251q3 20 4.5 44.5t1.5 40.5q0 35 -11 64t-39.5 50t-76.5 33t-121 12z" />
    <glyph glyph-name="i" unicode="i" horiz-adv-x="298" 
d="M323 494h-166l-87 -494h167zM359 694h-167l-23 -133h167z" />
    <glyph glyph-name="j" unicode="j" horiz-adv-x="341" 
d="M196 494l-85 -483q-8 -42 -31.5 -63t-75.5 -21l-24 -139q77 0 128.5 9.5t85.5 34t53 68t31 112.5l85 482h-167zM399 694h-167l-23 -133h167z" />
    <glyph glyph-name="k" unicode="k" horiz-adv-x="647" 
d="M169 694l-122 -694h166l44 248h29l165 -248h186l-203 294l264 200h-187l-212 -161h-27l63 361h-166z" />
    <glyph glyph-name="l" unicode="l" horiz-adv-x="293" 
d="M354 694h-166l-122 -694h166z" />
    <glyph glyph-name="m" unicode="m" horiz-adv-x="1164" 
d="M965 494h-45q-43 0 -73.5 -6t-51.5 -16t-35.5 -23t-24.5 -27q-5 13 -16 26t-33.5 23.5t-60.5 16.5t-98 6h-36q-44 0 -76 -6.5t-54.5 -17t-37 -24.5t-22.5 -28l13 76h-170l-87 -494h170l48 270q8 50 39 79t97 29h30q64 0 88 -21t24 -57q0 -8 -1 -17t-4 -25l-45 -258h170
l47 264q9 53 44.5 83.5t104.5 30.5h30q32 0 52 -5.5t31 -15t15 -22t4 -27.5q0 -8 -1.5 -22.5t-3.5 -26.5l-45 -259h170l50 278q4 22 4.5 41t0.5 30q0 28 -11 54t-35.5 46.5t-65 32.5t-99.5 12z" />
    <glyph glyph-name="n" unicode="n" horiz-adv-x="738" 
d="M523 494h-52q-45 0 -75.5 -6.5t-51.5 -17t-34 -23.5t-22 -25l13 72h-165l-87 -494h168l43 242q11 64 53.5 100t113.5 36h24q66 0 95 -25t29 -73q0 -9 -1 -18t-3 -20l-43 -242h166l45 256q5 26 5.5 43.5t0.5 31.5q0 72 -54.5 117.5t-167.5 45.5z" />
    <glyph glyph-name="o" unicode="o" horiz-adv-x="704" 
d="M396 496q-77 0 -130.5 -12.5t-88.5 -37.5t-54 -63t-28 -88q-5 -31 -9 -56.5t-4 -54.5q0 -85 46.5 -135t150.5 -50h178q114 0 176 46.5t78 150.5q6 39 8.5 74.5t2.5 52.5q0 37 -13 69t-42 55t-74.5 36t-111.5 13h-85zM562 207q-7 -37 -35 -59t-84 -22h-95q-65 0 -91 18.5
t-26 61.5q0 8 1 27t6 46q8 42 37.5 66.5t95.5 24.5h76q37 0 61 -5t38 -14.5t20 -25t6 -36.5q0 -7 -1.5 -25.5t-8.5 -56.5z" />
    <glyph glyph-name="p" unicode="p" horiz-adv-x="764" 
d="M559 496h-70q-50 0 -83 -5t-55.5 -14t-36 -20.5t-23.5 -23.5l11 63h-166l-122 -694h166l48 273q6 -14 17 -27.5t30 -24t48 -17t71 -6.5h107q117 0 177 44t77 136q8 44 11 76.5t3 59.5q0 38 -13.5 71t-40 57t-66 38t-90.5 14zM385 126q-72 0 -99 21.5t-27 66.5
q0 32 7 60.5t22.5 49.5t41 33.5t62.5 12.5h92q61 0 89.5 -18.5t28.5 -71.5q0 -55 -13 -86t-35.5 -46t-51.5 -18.5t-61 -3.5h-56z" />
    <glyph glyph-name="q" unicode="q" horiz-adv-x="770" 
d="M618 433q-8 14 -20 25.5t-32 20t-50 13t-74 4.5h-106q-111 0 -172 -50.5t-76 -138.5q-3 -17 -5.5 -36.5t-4.5 -38t-3 -34.5t-1 -26q0 -78 55 -125t164 -47h70q48 0 81 4t55 11.5t35.5 19t21.5 25.5l-49 -258h166l122 694h-166zM465 370q65 0 91 -21.5t26 -61.5
q0 -51 -11.5 -82.5t-33 -49t-53 -23.5t-70.5 -6h-56q-61 0 -88.5 22t-27.5 59q0 54 10.5 86.5t31 49.5t50 22t67.5 5h64z" />
    <glyph glyph-name="r" unicode="r" horiz-adv-x="673" 
d="M534 293h162q2 14 3.5 27t1.5 26q0 65 -48 106.5t-150 41.5h-67q-32 0 -56 -6t-42 -16t-31 -23t-23 -28l13 73h-169l-87 -494h169l46 260q9 51 46.5 84.5t97.5 33.5h43q27 0 45 -6.5t28.5 -16.5t14.5 -22.5t4 -24.5q0 -10 -1 -15z" />
    <glyph glyph-name="s" unicode="s" horiz-adv-x="698" 
d="M213 147h-141q-4 -19 -4 -38q0 -54 42.5 -82t117.5 -28h236q59 0 99 7t65.5 20.5t38.5 34.5t18 50q5 30 6.5 55.5t1.5 41.5q0 56 -47 81t-126 27l-217 4q-31 1 -42.5 6.5t-11.5 22.5q0 13 6 20.5t16 11.5t21.5 5t23.5 1h173q77 0 77 -33q0 -2 -0.5 -3t-0.5 -3h156
q4 20 4 42q0 48 -46.5 77t-147.5 29h-207q-56 0 -95 -10t-65 -28t-40 -42.5t-19 -54.5q-5 -26 -6.5 -45t-1.5 -27q0 -55 38 -76t109 -23l222 -4q34 -1 46.5 -6t12.5 -25q0 -33 -21 -40.5t-52 -7.5h-184q-35 0 -45.5 10t-10.5 22q0 2 0.5 4t0.5 4z" />
    <glyph glyph-name="t" unicode="t" horiz-adv-x="701" 
d="M282 183q0 10 3 25l26 148h350l24 138h-350l17 95h-166l-17 -95h-61l-24 -138h61l-25 -142q-3 -16 -3.5 -30.5t-0.5 -27.5q0 -33 12.5 -61.5t38.5 -49.5t65.5 -33t94.5 -12h129q65 0 110 15.5t73.5 42.5t43.5 64t21 80h-171q-3 -21 -9.5 -37t-19.5 -26t-34.5 -15
t-55.5 -5h-44q-46 0 -67 15.5t-21 48.5z" />
    <glyph glyph-name="u" unicode="u" horiz-adv-x="796" 
d="M279 -1h148q33 0 58 6t44 15t32 20t22 22l-11 -62h166l87 494h-168l-43 -243q-11 -66 -54 -100.5t-113 -34.5h-65q-63 0 -92 26.5t-29 65.5q0 10 0.5 24.5t4.5 34.5l40 227h-167l-41 -236q-6 -33 -7 -54t-1 -35q0 -36 13.5 -67t38.5 -54t60 -36t77 -13z" />
    <glyph glyph-name="v" unicode="v" horiz-adv-x="676" 
d="M257 494h-156l147 -494h189l320 494h-166l-227 -345z" />
    <glyph glyph-name="w" unicode="w" horiz-adv-x="1107" 
d="M424 0l188 309l79 -309h189l302 494h-161l-209 -345l-89 345h-159l-207 -345l-89 345h-161l129 -494h188z" />
    <glyph glyph-name="x" unicode="x" horiz-adv-x="693" 
d="M328 494h-185l138 -223l-262 -271h184l178 184l110 -184h185l-169 276l212 218h-182l-130 -132z" />
    <glyph glyph-name="y" unicode="y" horiz-adv-x="684" 
d="M262 494h-160l145 -494q-13 -20 -30.5 -32t-36.5 -18.5t-38.5 -9t-37.5 -2.5h-15l-27 -149q8 -1 15 -1h16q63 0 113 15t90.5 42t73 63t59.5 78l328 508h-160l-227 -345z" />
    <glyph glyph-name="z" unicode="z" horiz-adv-x="662" 
d="M703 494h-573l-24 -138h313l-357 -223l-23 -133h578l24 139h-341l381 227z" />
    <glyph glyph-name="braceleft" unicode="{" horiz-adv-x="354" 
d="M279 404l27 169q8 46 34.5 71.5t77.5 25.5l16 82q-51 0 -91 -8t-69 -28t-47.5 -53.5t-27.5 -84.5l-31 -172q-6 -34 -29.5 -61t-52.5 -37q17 -13 31.5 -34.5t14.5 -53.5q0 -5 -1 -13t-4 -27l-22 -129q-2 -12 -3 -23t-1 -21q0 -42 14.5 -69t39 -42.5t57 -21.5t68.5 -6
l15 74q-43 0 -62 16.5t-19 50.5v12q0 7 2 14l23 148l3 22.5t1 13.5q0 33 -13 54.5t-28 34.5q28 13 49.5 36t27.5 60z" />
    <glyph glyph-name="bar" unicode="|" horiz-adv-x="200" 
d="M119 -133l153 872h-83l-153 -872h83z" />
    <glyph glyph-name="braceright" unicode="}" horiz-adv-x="302" 
d="M145 216l-27 -169q-8 -46 -34.5 -71.5t-77.5 -25.5l-16 -82q51 0 91 8t69 28t47.5 53.5t27.5 84.5l31 172q6 34 29.5 61t52.5 37q-17 13 -31.5 34.5t-14.5 53.5q0 5 1 13t4 27l22 129q2 12 3 23t1 21q0 42 -14.5 69t-39 42.5t-57 21.5t-68.5 6l-15 -74q43 0 62 -16.5
t19 -50.5v-13q0 -6 -2 -13l-23 -148l-3 -22.5t-1 -13.5q0 -33 13 -54.5t28 -34.5q-28 -13 -49.5 -36t-27.5 -60z" />
    <glyph glyph-name="asciitilde" unicode="~" horiz-adv-x="609" 
d="M62 340h93q7 18 23.5 34t51.5 16q24 0 37.5 -8t28.5 -18q14 -10 34 -18t55 -8q37 0 65.5 10t49 27.5t34 41t19.5 50.5h-89q-4 -16 -20.5 -32.5t-48.5 -16.5q-23 0 -37 8t-30 19q-15 9 -35 16.5t-53 7.5q-41 0 -71.5 -11.5t-52 -30t-35 -41.5t-19.5 -46z" />
    <glyph glyph-name="exclamdown" unicode="&#xa1;" horiz-adv-x="256" 
d="M98 -144l78 444h-167l-78 -444h167zM191 383l29 167h-168l-28 -167h167z" />
    <glyph glyph-name="cent" unicode="&#xa2;" horiz-adv-x="787" 
d="M503 194h-25l47 264h27q21 0 35 -5.5t22 -13.5t11 -18.5t4 -19.5h161q1 6 1 12v11q0 26 -9 53t-31.5 49t-60 36t-94.5 14h-45l11 64h-93l-11 -64h-59q-111 0 -170 -58.5t-78 -164.5q-6 -33 -8.5 -62t-2.5 -45q0 -80 50 -123t135 -43h45l-10 -56h93l10 56h47
q67 0 111.5 11t73.5 33.5t44.5 55.5t24.5 77h-154q-4 -11 -10 -22t-17 -20t-29 -15t-46 -6zM403 458h29l-47 -264h-27q-34 0 -56.5 17t-22.5 59q0 33 15 93q5 18 13.5 35.5t21.5 30.5t31.5 21t42.5 8z" />
    <glyph glyph-name="sterling" unicode="&#xa3;" horiz-adv-x="782" 
d="M448 556h114q61 0 84 -14t23 -46q0 -14 -3 -30h167q4 20 5.5 34t1.5 29q0 84 -63 124.5t-178 40.5h-176q-70 0 -119 -19.5t-80 -49.5t-45 -66t-14 -69q0 -23 2 -36t5 -22q6 -17 12.5 -30.5t7.5 -30.5h-74l-19 -111h85q-11 -62 -38.5 -97.5t-83.5 -54.5l-19 -108h698
l25 139h-470q41 53 53 121h361l19 111h-371q-1 17 -7 33.5t-11 28.5q-4 11 -7 22t-3 25q0 36 26 56t92 20z" />
    <glyph glyph-name="yen" unicode="&#xa5;" horiz-adv-x="924" 
d="M347 694h-203l284 -457h-167l-10 -56h163l-4 -27h-163l-10 -55h163l-17 -99h167l18 99h166l10 55h-166l4 27h167l10 56h-167l437 457h-189l-307 -313z" />
    <glyph glyph-name="brokenbar" unicode="&#xa6;" horiz-adv-x="167" 
d="M114 452v287h-55v-287h55zM114 0v287h-55v-287h55z" />
    <glyph glyph-name="section" unicode="&#xa7;" horiz-adv-x="809" 
d="M567 376q44 0 60 -11t16 -40q0 -47 -23.5 -62t-75.5 -15h-266q-34 0 -47.5 11.5t-13.5 40.5q0 44 21.5 60t55.5 16h273zM701 97q0 32 -7 44.5t-17 21.5q46 8 74 50.5t28 126.5q0 34 -8.5 60t-29 44t-53.5 27t-81 9h-226q-44 0 -64 7t-20 30q0 40 25 54.5t71 14.5h140
q56 0 75.5 -8.5t19.5 -27.5q0 -7 -1 -11h151q2 11 3 20.5t1 19.5q0 26 -8.5 47.5t-27.5 37t-50.5 24t-77.5 8.5h-250q-63 0 -104 -14.5t-65 -39.5t-33.5 -58t-9.5 -70q0 -25 5.5 -35.5t13.5 -20.5q-26 -6 -44 -23.5t-29 -42.5t-16.5 -56.5t-5.5 -65.5q0 -32 9 -55t30 -38.5
t57 -23t90 -7.5h217q47 0 63.5 -11.5t16.5 -34.5q0 -18 -5 -30.5t-18 -21t-36.5 -12t-59.5 -3.5h-140q-42 0 -59.5 9.5t-17.5 29.5q0 7 1 11h-150q-2 -11 -3 -20.5t-1 -18.5q0 -26 9 -48t29.5 -37.5t54.5 -24t84 -8.5h237q115 0 164 42t49 129z" />
    <glyph glyph-name="dieresis" unicode="&#xa8;" horiz-adv-x="409" 
d="M281 680h-134l-19 -107h134zM508 680h-135l-19 -107h135z" />
    <glyph glyph-name="copyright" unicode="&#xa9;" horiz-adv-x="640" 
d="M245 394q0 19 7 37t20.5 32t34.5 22.5t48 8.5q32 0 55.5 -12.5t39.5 -29.5v24q-15 14 -37 26t-58 12q-33 0 -57 -10.5t-40.5 -27t-24.5 -38.5t-8 -44q0 -23 8 -44.5t24.5 -38.5t41 -27.5t56.5 -10.5q38 0 60.5 12t34.5 25v31q-14 -18 -35 -33t-60 -15q-27 0 -48 8.5
t-34.5 23t-20.5 32.5t-7 37zM618 389q0 54 -20.5 102t-56.5 84t-84 56.5t-102 20.5t-102 -20.5t-84 -56.5t-56.5 -84t-20.5 -102t20.5 -102t56.5 -84t84 -56.5t102 -20.5t102 20.5t84 56.5t56.5 84t20.5 102zM113 390q0 50 19 94.5t52 77.5t77.5 52t94.5 19t94.5 -19
t77.5 -52t52 -77.5t19 -94.5t-19 -94.5t-52 -77.5t-77.5 -52t-94.5 -19t-94.5 19t-77.5 52t-52 77.5t-19 94.5z" />
    <glyph glyph-name="ordfeminine" unicode="&#xaa;" horiz-adv-x="422" 
d="M399 346h-344l-8 -73h343zM194 559q-31 0 -52 -4.5t-34.5 -13t-20.5 -21t-10 -28.5q-3 -21 -3 -38q0 -29 22 -42t70 -13h56q27 0 43 2t25.5 6t14 9t9.5 11l-5 -28h70l26 150q2 10 2.5 16t0.5 12q0 31 -22 51t-81 20h-91q-58 0 -85.5 -18t-34.5 -54h80q2 10 13.5 15.5
t43.5 5.5h52q29 0 41.5 -6.5t12.5 -23.5q0 -3 -0.5 -9t-4.5 -24q-2 6 -5.5 10.5t-12.5 7.5t-25 5t-43 2h-52zM156 473q0 22 13 26t31 4h80q18 0 28 -3.5t10 -15.5q0 -20 -13 -24.5t-33 -4.5h-80q-17 0 -26.5 3.5t-9.5 14.5z" />
    <glyph glyph-name="guillemotleft" unicode="&#xab;" horiz-adv-x="604" 
d="M58 302l-9 -50l190 -189l67 68l-142 142l199 143l-47 72zM298 302l-9 -50l190 -189l67 68l-142 142l199 143l-47 72z" />
    <glyph glyph-name="logicalnot" unicode="&#xac;" 
d="M462 389h-358l-8 -37h356zM284 426h76l54 312h-90l-108 -93l30 -36l83 71zM434 244q0 35 -23 56t-77 21h-131q-57 0 -86 -27.5t-29 -72.5q0 -32 15.5 -42t35.5 -14q-36 -6 -56 -28.5t-20 -59.5q0 -43 25 -59t80 -16h110q72 0 101.5 26.5t29.5 74.5q0 36 -15.5 47.5
t-33.5 14.5q41 4 57.5 23.5t16.5 55.5zM164 224q0 26 16.5 35.5t40.5 9.5h86q28 0 39 -7.5t11 -24.5q0 -25 -16 -35t-48 -10h-80q-28 0 -38.5 7.5t-10.5 24.5zM141 89q0 23 14 35.5t48 12.5h81q29 0 39 -8.5t10 -25.5q0 -15 -5.5 -24t-14.5 -13.5t-20.5 -6t-22.5 -1.5h-80
q-27 0 -38 8.5t-11 22.5z" />
    <glyph glyph-name="registered" unicode="&#xae;" horiz-adv-x="436" 
d="M334 623q0 19 -11.5 31t-33.5 12h-70l-23 -182h14l11 84h31l47 -84h18l-48 84h8q31 0 44 17.5t13 37.5zM320 622q0 -12 -8 -26t-33 -14h-57l9 70h57q17 0 24.5 -8.5t7.5 -21.5zM421 591q0 29 -10.5 54t-29.5 44t-45 29.5t-57 10.5q-32 0 -63.5 -12t-56.5 -35t-40.5 -56
t-15.5 -75q0 -29 10.5 -54t29.5 -44t45.5 -29.5t57.5 -10.5q36 0 68 13.5t56 37.5t37.5 56.5t13.5 70.5zM118 553q0 37 14 66.5t37 50.5t51 32.5t57 11.5q28 0 52 -9.5t41 -26.5t26.5 -39.5t9.5 -49.5q0 -35 -13 -64.5t-35 -51t-50 -33.5t-59 -12q-29 0 -53.5 9.5
t-41.5 26.5t-26.5 39.5t-9.5 49.5z" />
    <glyph glyph-name="macron" unicode="&#xaf;" horiz-adv-x="507" 
d="M469 674h-388l-10 -54h388z" />
    <glyph glyph-name="degree" unicode="&#xb0;" horiz-adv-x="284" 
d="M232 673q-39 0 -58 -18t-24 -49q-4 -23 -4 -38q0 -29 16.5 -44t54.5 -15h45q41 0 60.5 16t24.5 45q4 21 4.5 32t0.5 15q0 20 -15.5 38t-55.5 18h-49zM176 569q0 11 3 32q5 23 18.5 32.5t34.5 9.5h43q27 0 36 -8t9 -25q0 -2 -1 -11t-3 -23q-4 -20 -17 -29t-42 -9h-34
q-25 0 -36 7t-11 24z" />
    <glyph glyph-name="plusminus" unicode="&#xb1;" horiz-adv-x="556" 
d="M546 248h-408l-25 -139h408zM333 552h-144l-25 -138h145l-26 -144h139l26 144h153l25 138h-154l26 145h-139z" />
    <glyph glyph-name="twosuperior" unicode="&#xb2;" 
d="M289 535l83 6q42 3 67.5 11.5t39.5 23t18.5 34t4.5 44.5q0 45 -27 66t-77 21h-98q-39 0 -64 -9t-40 -25t-23 -37t-12 -46h76q3 16 7 26.5t12 16.5t22.5 8.5t38.5 2.5h50q35 0 48.5 -5.5t13.5 -25.5q0 -15 -4.5 -23.5t-12.5 -12.5t-18.5 -5.5t-22.5 -2.5l-113 -8
q-52 -4 -82.5 -26t-38.5 -70l-13 -72h339l12 63h-264l1 9q4 19 21.5 26t55.5 10z" />
    <glyph glyph-name="threesuperior" unicode="&#xb3;" 
d="M292 617l-10 -62h91q20 0 30 -5t10 -25q0 -27 -17 -32.5t-55 -5.5h-64q-29 0 -44 3t-15 19q0 5 1 7h-73l-1 -6q-1 -7 -1 -11v-9q0 -65 122 -65h99q68 0 94 24.5t26 81.5q0 29 -11 42t-33 15q40 -1 55.5 18t15.5 48q0 49 -29.5 66t-99.5 17h-63q-42 0 -69 -5t-44 -16.5
t-26 -30t-13 -44.5h70q4 20 22.5 27t54.5 7h53q38 0 53 -4.5t15 -23.5q0 -13 -5 -19t-13 -8.5t-18 -2.5h-18h-90z" />
    <glyph glyph-name="acute" unicode="&#xb4;" horiz-adv-x="333" 
d="M298 683l-64 74l-180 -171l33 -33z" />
    <glyph glyph-name="mu" unicode="&#xb5;" 
d="M462 389h-358l-8 -37h356zM215 105l83 6q42 3 67.5 11.5t39.5 23t18.5 34t4.5 44.5q0 45 -27 66t-77 21h-98q-39 0 -64 -9t-40 -25t-23 -37t-12 -46h76q3 16 7 26.5t12 16.5t22.5 8.5t38.5 2.5h50q35 0 48.5 -5.5t13.5 -25.5q0 -15 -4.5 -23.5t-12.5 -12.5t-18.5 -5.5
t-22.5 -2.5l-113 -8q-52 -4 -82.5 -26t-38.5 -70l-13 -72h339l12 63h-264l1 9q4 19 21.5 26t55.5 10zM284 426h76l54 312h-90l-108 -93l30 -36l83 71z" />
    <glyph glyph-name="paragraph" unicode="&#xb6;" horiz-adv-x="858" 
d="M656 -56h166l132 750h-166zM389 -56h167l132 750h-281q-78 0 -133.5 -27t-90.5 -69t-51.5 -94.5t-16.5 -103.5q0 -48 15 -84t42 -60.5t64.5 -37t82.5 -12.5h117z" />
    <glyph glyph-name="periodcentered" unicode="&#xb7;" horiz-adv-x="329" 
d="M102 433l-29 -167h195l29 167h-195z" />
    <glyph glyph-name="periodcentered" unicode="&#x2219;" horiz-adv-x="329" 
d="M102 433l-29 -167h195l29 167h-195z" />
    <glyph glyph-name="cedilla" unicode="&#xb8;" horiz-adv-x="343" 
d="M282 -86l15 86h-127l-9 -49q-3 -17 -11 -26t-20 -13t-27.5 -4.5t-34.5 -0.5l-18 -101q50 0 90 2t69 12.5t47.5 32.5t25.5 61z" />
    <glyph glyph-name="onesuperior" unicode="&#xb9;" 
d="M284 426h76l54 312h-90l-108 -93l30 -36l83 71z" />
    <glyph glyph-name="ordmasculine" unicode="&#xba;" horiz-adv-x="431" 
d="M408 346h-344l-8 -73h343zM254 643q-77 0 -109.5 -25t-40.5 -75q-3 -16 -5 -28.5t-2 -27.5q0 -42 23 -67.5t76 -25.5h89q57 0 88 23.5t39 75.5q3 20 4 38t1 26q0 37 -27.5 61.5t-92.5 24.5h-43zM337 499q-3 -19 -17 -30t-42 -11h-48q-32 0 -45 9.5t-13 30.5q0 4 0.5 13.5
t2.5 23.5q4 21 19 33t48 12h38q37 0 49.5 -9.5t12.5 -30.5q0 -4 -0.5 -13t-4.5 -28z" />
    <glyph glyph-name="guillemotright" unicode="&#xbb;" horiz-adv-x="613" 
d="M74 156l54 -79l250 175l9 50l-189 190l-74 -72l136 -134zM323 156l54 -79l250 175l9 50l-189 190l-74 -72l136 -134z" />
    <glyph glyph-name="onequarter" unicode="&#xbc;" 
d="M462 389h-358l-8 -37h356zM387 130l32 182h-89l-272 -166l-14 -79h257l-12 -67h75l12 67h42l11 63h-42zM284 426h76l54 312h-90l-108 -93l30 -36l83 71zM332 245l-20 -115h-172z" />
    <glyph glyph-name="onehalf" unicode="&#xbd;" 
d="M462 389h-358l-8 -37h356zM215 105l83 6q42 3 67.5 11.5t39.5 23t18.5 34t4.5 44.5q0 45 -27 66t-77 21h-98q-39 0 -64 -9t-40 -25t-23 -37t-12 -46h76q3 16 7 26.5t12 16.5t22.5 8.5t38.5 2.5h50q35 0 48.5 -5.5t13.5 -25.5q0 -15 -4.5 -23.5t-12.5 -12.5t-18.5 -5.5
t-22.5 -2.5l-113 -8q-52 -4 -82.5 -26t-38.5 -70l-13 -72h339l12 63h-264l1 9q4 19 21.5 26t55.5 10zM284 426h76l54 312h-90l-108 -93l30 -36l83 71z" />
    <glyph glyph-name="threequarters" unicode="&#xbe;" 
d="M462 389h-358l-8 -37h356zM292 617l-10 -62h91q20 0 30 -5t10 -25q0 -27 -17 -32.5t-55 -5.5h-64q-29 0 -44 3t-15 19q0 5 1 7h-73l-1 -6q-1 -7 -1 -11v-9q0 -65 122 -65h99q68 0 94 24.5t26 81.5q0 29 -11 42t-33 15q40 -1 55.5 18t15.5 48q0 49 -29.5 66t-99.5 17h-63
q-42 0 -69 -5t-44 -16.5t-26 -30t-13 -44.5h70q4 20 22.5 27t54.5 7h53q38 0 53 -4.5t15 -23.5q0 -13 -5 -19t-13 -8.5t-18 -2.5h-18h-90zM387 129l32 182h-89l-272 -166l-13 -79h256l-12 -67h75l12 67h42l12 63h-43zM332 244l-20 -115h-172z" />
    <glyph glyph-name="questiondown" unicode="&#xbf;" horiz-adv-x="894" 
d="M439 297q-2 -14 -6.5 -23.5t-15.5 -17t-32 -12.5t-56 -9q-93 -11 -151 -25.5t-90.5 -40.5t-44 -68t-11.5 -107q0 -34 11 -62t38 -47.5t72.5 -30.5t114.5 -11h270q66 0 114.5 14t82 42t53.5 68.5t29 93.5h-167q-4 -19 -12.5 -34t-23.5 -25t-38.5 -15t-56.5 -5h-196
q-68 0 -96 8.5t-28 37.5q0 22 8 35t30 21t59.5 13t96.5 11q90 10 140.5 43.5t64.5 108.5l11 64h-165zM620 377l29 167h-166l-29 -167h166z" />
    <glyph glyph-name="Agrave" unicode="&#xc0;" horiz-adv-x="983" 
d="M618 718l36 28l-113 175l-90 -73zM8 0h194l114 167h421l55 -167h195l-236 694h-263zM604 564l85 -258h-277l182 258h10z" />
    <glyph glyph-name="Aacute" unicode="&#xc1;" horiz-adv-x="983" 
d="M816 841l-58 66l-161 -154l29 -29zM8 0h194l114 167h421l55 -167h195l-236 694h-263zM604 564l85 -258h-277l182 258h10z" />
    <glyph glyph-name="Acircumflex" unicode="&#xc2;" horiz-adv-x="983" 
d="M604 876l-172 -145h41l146 69l117 -69h44l-121 145h-55zM8 0h194l114 167h421l55 -167h195l-236 694h-263zM604 564l85 -258h-277l182 258h10z" />
    <glyph glyph-name="Atilde" unicode="&#xc3;" horiz-adv-x="983" 
d="M420 745h80q5 14 18.5 27t41.5 13q19 0 31 -6.5t21 -12.5q14 -9 30 -16t51 -7q52 0 83 27.5t42 75.5h-71q-3 -12 -16 -25.5t-39 -13.5q-18 0 -30 7t-25 15q-12 7 -28 13t-46 6q-31 0 -55 -9t-42 -24t-29.5 -33.5t-16.5 -36.5zM8 0h194l114 167h421l55 -167h195l-236 694
h-263zM604 564l85 -258h-277l182 258h10z" />
    <glyph glyph-name="Adieresis" unicode="&#xc4;" horiz-adv-x="983" 
d="M592 849h-134l-19 -107h134zM819 849h-135l-18 -107h134zM8 0h194l114 167h421l55 -167h195l-236 694h-263zM604 564l85 -258h-277l182 258h10z" />
    <glyph glyph-name="Aring" unicode="&#xc5;" horiz-adv-x="983" 
d="M618 880q-35 0 -52 -16t-22 -44q-3 -24 -3 -35q0 -26 14.5 -39.5t48.5 -13.5h41q37 0 54.5 14.5t22.5 40.5q3 20 3.5 29.5t0.5 13.5q0 18 -14 34t-50 16h-44zM568 786v13t2 16q5 21 17 29.5t31 8.5h39q24 0 32 -7.5t8 -22.5q0 -5 -3 -30q-4 -18 -16 -26t-38 -8h-30
q-23 0 -32.5 6t-9.5 21zM8 0h194l114 167h421l55 -167h195l-236 694h-263zM604 564l85 -258h-277l182 258h10z" />
    <glyph glyph-name="AE" unicode="&#xc6;" horiz-adv-x="1302" 
d="M182 0l145 167h241l-29 -167h711l24 139h-544l27 150h525l25 139h-526l22 128h545l24 138h-765l-607 -694h182zM592 306h-143l180 207z" />
    <glyph glyph-name="Ccedilla" unicode="&#xc7;" horiz-adv-x="910" 
d="M326 -1h87l-8 -48q-3 -15 -8 -24t-15.5 -13.5t-27 -5.5t-42.5 -1l-18 -101q52 0 92 2.5t68.5 14.5t46.5 35.5t26 64.5l14 76h57q82 0 136 12t88 40t52.5 74.5t30.5 115.5h-172q-5 -29 -14.5 -47t-30.5 -28t-56 -13t-90 -3h-136q-72 0 -107 17t-35 62q0 29 3.5 68.5
t14.5 100.5q7 42 17.5 69.5t29 43.5t47.5 22.5t74 6.5h159q51 0 83 -4t50 -11.5t24.5 -19t6.5 -26.5q0 -5 -0.5 -10t-1.5 -11h172q5 24 7 43t2 27q0 42 -15.5 73t-49.5 52t-87.5 31t-129.5 10h-174q-103 0 -169 -10.5t-107.5 -41.5t-64.5 -86t-38 -144q-11 -60 -18 -117.5
t-7 -102.5q0 -44 14 -79.5t42.5 -60.5t72.5 -39t105 -14z" />
    <glyph glyph-name="Egrave" unicode="&#xc8;" horiz-adv-x="834" 
d="M556 718l36 28l-113 175l-90 -73zM190 694l-122 -694h710l24 139h-543l27 150h526l25 139h-527l22 127h544l24 139h-710z" />
    <glyph glyph-name="Eacute" unicode="&#xc9;" horiz-adv-x="834" 
d="M720 841l-58 66l-161 -154l29 -29zM190 694l-122 -694h710l24 139h-543l27 150h526l25 139h-527l22 127h544l24 139h-710z" />
    <glyph glyph-name="Ecircumflex" unicode="&#xca;" horiz-adv-x="834" 
d="M560 876l-172 -145h41l145 69l117 -69h45l-122 145h-54zM190 694l-122 -694h710l24 139h-543l27 150h526l25 139h-527l22 127h544l24 139h-710z" />
    <glyph glyph-name="Edieresis" unicode="&#xcb;" horiz-adv-x="834" 
d="M523 849h-134l-19 -107h134zM750 849h-134l-19 -107h134zM190 694l-122 -694h710l24 139h-543l27 150h526l25 139h-527l22 127h544l24 139h-710z" />
    <glyph glyph-name="Igrave" unicode="&#xcc;" horiz-adv-x="328" 
d="M311 718l37 28l-114 175l-90 -73zM88 0h166l123 694h-167z" />
    <glyph glyph-name="Iacute" unicode="&#xcd;" horiz-adv-x="328" 
d="M496 841l-58 66l-161 -154l29 -29zM88 0h166l123 694h-167z" />
    <glyph glyph-name="Icircumflex" unicode="&#xce;" horiz-adv-x="328" 
d="M293 876l-172 -145h41l146 69l116 -69h45l-121 145h-55zM88 0h166l123 694h-167z" />
    <glyph glyph-name="Idieresis" unicode="&#xcf;" horiz-adv-x="328" 
d="M272 849h-134l-19 -107h134zM499 849h-135l-18 -107h134zM88 0h166l123 694h-167z" />
    <glyph glyph-name="Eth" unicode="&#xd0;" horiz-adv-x="897" 
d="M300 409l26 147h298q72 0 100 -25t28 -75q0 -29 -7.5 -79.5t-16.5 -104.5q-6 -37 -17.5 -62.5t-31.5 -41.5t-51.5 -23t-77.5 -7h-298l24 133h160l25 138h-161zM109 271l-48 -271h505q79 0 135.5 12.5t94.5 39.5t60.5 71t33.5 107q7 43 13 85t10 77.5t6 62t2 39.5
q0 41 -13.5 77.5t-42 63.5t-73.5 43t-108 16h-501l-50 -285h-80l-25 -138h81z" />
    <glyph glyph-name="Ntilde" unicode="&#xd1;" horiz-adv-x="1020" 
d="M444 745h80q5 14 18.5 27t41.5 13q19 0 31 -6.5t21 -12.5q14 -9 30 -16t51 -7q52 0 83 27.5t42 75.5h-71q-3 -12 -16 -25.5t-39 -13.5q-18 0 -30 7t-25 15q-12 7 -28 13t-46 6q-31 0 -55 -9t-42 -24t-29.5 -33.5t-16.5 -36.5zM188 694l-122 -694h166l91 519l435 -519h199
l122 694h-167l-88 -490l-410 490h-226z" />
    <glyph glyph-name="Ograve" unicode="&#xd2;" horiz-adv-x="916" 
d="M569 718l37 28l-114 175l-90 -73zM773 454q0 -8 -1 -24.5t-3 -37t-4.5 -43t-6.5 -43.5q-9 -50 -20.5 -80t-34.5 -46.5t-61 -21.5t-99 -5h-132q-44 0 -73.5 3.5t-47 13.5t-25 28t-7.5 46q0 20 6.5 59.5t20.5 111.5q7 36 17 60.5t31 38.5t57 20t95 6h123q49 0 81 -4.5
t50.5 -15t26 -26.5t7.5 -40zM592 0q77 0 132.5 9.5t94 37t62 78.5t37.5 134q6 37 10.5 73.5t7.5 69t4.5 59.5t1.5 45q0 40 -14 75t-45.5 61t-82.5 40.5t-126 14.5h-176q-102 0 -169 -13t-109.5 -45.5t-65.5 -88t-38 -139.5q-10 -54 -18 -112.5t-8 -100.5q0 -48 14 -85
t47 -62t87 -38t134 -13h220z" />
    <glyph glyph-name="Oacute" unicode="&#xd3;" horiz-adv-x="916" 
d="M749 841l-58 66l-161 -154l29 -29zM773 454q0 -8 -1 -24.5t-3 -37t-4.5 -43t-6.5 -43.5q-9 -50 -20.5 -80t-34.5 -46.5t-61 -21.5t-99 -5h-132q-44 0 -73.5 3.5t-47 13.5t-25 28t-7.5 46q0 20 6.5 59.5t20.5 111.5q7 36 17 60.5t31 38.5t57 20t95 6h123q49 0 81 -4.5
t50.5 -15t26 -26.5t7.5 -40zM592 0q77 0 132.5 9.5t94 37t62 78.5t37.5 134q6 37 10.5 73.5t7.5 69t4.5 59.5t1.5 45q0 40 -14 75t-45.5 61t-82.5 40.5t-126 14.5h-176q-102 0 -169 -13t-109.5 -45.5t-65.5 -88t-38 -139.5q-10 -54 -18 -112.5t-8 -100.5q0 -48 14 -85
t47 -62t87 -38t134 -13h220z" />
    <glyph glyph-name="Ocircumflex" unicode="&#xd4;" horiz-adv-x="916" 
d="M568 876l-172 -145h41l145 69l117 -69h44l-121 145h-54zM773 454q0 -8 -1 -24.5t-3 -37t-4.5 -43t-6.5 -43.5q-9 -50 -20.5 -80t-34.5 -46.5t-61 -21.5t-99 -5h-132q-44 0 -73.5 3.5t-47 13.5t-25 28t-7.5 46q0 20 6.5 59.5t20.5 111.5q7 36 17 60.5t31 38.5t57 20t95 6
h123q49 0 81 -4.5t50.5 -15t26 -26.5t7.5 -40zM592 0q77 0 132.5 9.5t94 37t62 78.5t37.5 134q6 37 10.5 73.5t7.5 69t4.5 59.5t1.5 45q0 40 -14 75t-45.5 61t-82.5 40.5t-126 14.5h-176q-102 0 -169 -13t-109.5 -45.5t-65.5 -88t-38 -139.5q-10 -54 -18 -112.5t-8 -100.5
q0 -48 14 -85t47 -62t87 -38t134 -13h220z" />
    <glyph glyph-name="Otilde" unicode="&#xd5;" horiz-adv-x="916" 
d="M381 745h80q5 14 18.5 27t41.5 13q19 0 31 -6.5t21 -12.5q14 -9 30 -16t51 -7q52 0 83 27.5t42 75.5h-71q-3 -12 -16 -25.5t-39 -13.5q-18 0 -30 7t-25 15q-12 7 -28 13t-46 6q-31 0 -55 -9t-42 -24t-29.5 -33.5t-16.5 -36.5zM773 454q0 -8 -1 -24.5t-3 -37t-4.5 -43
t-6.5 -43.5q-9 -50 -20.5 -80t-34.5 -46.5t-61 -21.5t-99 -5h-132q-44 0 -73.5 3.5t-47 13.5t-25 28t-7.5 46q0 20 6.5 59.5t20.5 111.5q7 36 17 60.5t31 38.5t57 20t95 6h123q49 0 81 -4.5t50.5 -15t26 -26.5t7.5 -40zM592 0q77 0 132.5 9.5t94 37t62 78.5t37.5 134
q6 37 10.5 73.5t7.5 69t4.5 59.5t1.5 45q0 40 -14 75t-45.5 61t-82.5 40.5t-126 14.5h-176q-102 0 -169 -13t-109.5 -45.5t-65.5 -88t-38 -139.5q-10 -54 -18 -112.5t-8 -100.5q0 -48 14 -85t47 -62t87 -38t134 -13h220z" />
    <glyph glyph-name="Odieresis" unicode="&#xd6;" horiz-adv-x="916" 
d="M561 849h-134l-19 -107h134zM788 849h-135l-19 -107h135zM773 454q0 -8 -1 -24.5t-3 -37t-4.5 -43t-6.5 -43.5q-9 -50 -20.5 -80t-34.5 -46.5t-61 -21.5t-99 -5h-132q-44 0 -73.5 3.5t-47 13.5t-25 28t-7.5 46q0 20 6.5 59.5t20.5 111.5q7 36 17 60.5t31 38.5t57 20t95 6
h123q49 0 81 -4.5t50.5 -15t26 -26.5t7.5 -40zM592 0q77 0 132.5 9.5t94 37t62 78.5t37.5 134q6 37 10.5 73.5t7.5 69t4.5 59.5t1.5 45q0 40 -14 75t-45.5 61t-82.5 40.5t-126 14.5h-176q-102 0 -169 -13t-109.5 -45.5t-65.5 -88t-38 -139.5q-10 -54 -18 -112.5t-8 -100.5
q0 -48 14 -85t47 -62t87 -38t134 -13h220z" />
    <glyph glyph-name="multiply" unicode="&#xd7;" horiz-adv-x="516" 
d="M128 494l-56 -43l140 -185l-168 -224l59 -42l158 209l159 -209l59 42l-169 225l140 184l-57 43l-132 -177z" />
    <glyph glyph-name="Oslash" unicode="&#xd8;" horiz-adv-x="916" 
d="M90 198q0 -72 32 -118t111 -66l-60 -94h106l52 81q11 -1 21 -1h20h220q77 0 132.5 9.5t94 37t62 78.5t37.5 134q6 37 10.5 73.5t7.5 69t4.5 59.5t1.5 45q0 66 -38.5 115.5t-131.5 67.5l65 101h-106l-60 -93h-173q-102 0 -169 -13t-109.5 -45.5t-65.5 -88t-38 -139.5
q-10 -54 -18 -112.5t-8 -100.5zM543 153h-115l247 384q57 -6 77.5 -25.5t20.5 -57.5q0 -8 -1 -24.5t-3 -37t-4.5 -43t-6.5 -43.5q-9 -50 -20.5 -80t-34.5 -46.5t-61 -21.5t-99 -5zM571 540l-245 -382q-38 8 -53 27.5t-15 58.5q0 20 6.5 59.5t20.5 111.5q7 36 17 60.5
t31 38.5t57 20t95 6h86z" />
    <glyph glyph-name="Ugrave" unicode="&#xd9;" horiz-adv-x="896" 
d="M589 718l37 28l-114 175l-90 -73zM335 694h-166l-72 -411q-5 -26 -5.5 -49t-0.5 -40q0 -38 13 -73t41.5 -62t73.5 -43t109 -16h246q80 0 136.5 13t95 42t61 76t34.5 116l78 447h-167l-75 -430q-6 -36 -18 -60t-32 -38.5t-49 -20.5t-69 -6h-180q-71 0 -101 23.5t-30 71.5
q0 13 1 25.5t5 32.5z" />
    <glyph glyph-name="Uacute" unicode="&#xda;" horiz-adv-x="896" 
d="M769 841l-58 66l-161 -154l29 -29zM335 694h-166l-72 -411q-5 -26 -5.5 -49t-0.5 -40q0 -38 13 -73t41.5 -62t73.5 -43t109 -16h246q80 0 136.5 13t95 42t61 76t34.5 116l78 447h-167l-75 -430q-6 -36 -18 -60t-32 -38.5t-49 -20.5t-69 -6h-180q-71 0 -101 23.5t-30 71.5
q0 13 1 25.5t5 32.5z" />
    <glyph glyph-name="Ucircumflex" unicode="&#xdb;" horiz-adv-x="896" 
d="M581 876l-172 -145h41l146 69l116 -69h45l-121 145h-55zM335 694h-166l-72 -411q-5 -26 -5.5 -49t-0.5 -40q0 -38 13 -73t41.5 -62t73.5 -43t109 -16h246q80 0 136.5 13t95 42t61 76t34.5 116l78 447h-167l-75 -430q-6 -36 -18 -60t-32 -38.5t-49 -20.5t-69 -6h-180
q-71 0 -101 23.5t-30 71.5q0 13 1 25.5t5 32.5z" />
    <glyph glyph-name="Udieresis" unicode="&#xdc;" horiz-adv-x="896" 
d="M554 849h-134l-19 -107h135zM781 849h-134l-19 -107h134zM335 694h-166l-72 -411q-5 -26 -5.5 -49t-0.5 -40q0 -38 13 -73t41.5 -62t73.5 -43t109 -16h246q80 0 136.5 13t95 42t61 76t34.5 116l78 447h-167l-75 -430q-6 -36 -18 -60t-32 -38.5t-49 -20.5t-69 -6h-180
q-71 0 -101 23.5t-30 71.5q0 13 1 25.5t5 32.5z" />
    <glyph glyph-name="Yacute" unicode="&#xdd;" horiz-adv-x="882" 
d="M318 694h-195l280 -460l-41 -234h167l41 234l453 460h-209l-306 -313zM730 841l-58 66l-161 -154l29 -29z" />
    <glyph glyph-name="Thorn" unicode="&#xde;" horiz-adv-x="800" 
d="M604 606h-274l15 88h-166l-122 -694h166l21 118h308q91 0 147.5 24.5t87 66t41 95t10.5 111.5q0 36 -13 70.5t-41.5 61.5t-73 43t-106.5 16zM673 381q0 -52 -23 -74.5t-71 -22.5h-305l27 156h301q38 0 54.5 -13.5t16.5 -45.5z" />
    <glyph glyph-name="germandbls" unicode="&#xdf;" horiz-adv-x="884" 
d="M414 778q-108 0 -173 -59.5t-84 -167.5l-10 -55h-61l-24 -137h61l-63 -359h166l95 537q9 51 36.5 76.5t84.5 25.5h155q52 0 73.5 -14.5t21.5 -44.5q0 -22 -9 -35.5t-27 -21t-46 -10.5t-67 -3l-23 -131q65 0 107 -4.5t67 -15.5t34.5 -31.5t9.5 -51.5q0 -48 -12.5 -75.5
t-34.5 -41t-50.5 -16.5t-59.5 -3h-200l-25 -140h294q69 0 117.5 24.5t78.5 62.5t44 85t14 92q0 50 -12.5 84t-33.5 55.5t-49.5 31.5t-61.5 11q30 7 52 18.5t36.5 28t21 40t6.5 55.5q0 48 -14.5 83.5t-47 59.5t-86 35.5t-131.5 11.5h-170z" />
    <glyph glyph-name="agrave" unicode="&#xe0;" horiz-adv-x="749" 
d="M471 553l37 28l-114 176l-90 -74zM321 317q-62 0 -103.5 -9t-68.5 -26t-41 -42t-20 -56q-4 -20 -5 -39t-1 -36q0 -59 43.5 -84t138.5 -25h111q53 0 85 4t51 11.5t29 18t19 22.5l-10 -56h139l52 297q4 20 5 32.5t1 23.5q0 31 -10.5 56.5t-34.5 44.5t-63 29.5t-97 10.5
h-182q-114 0 -169 -35.5t-68 -107.5h158q1 9 7 17t19 13t34 8t53 3h105q58 0 82.5 -12.5t24.5 -46.5q0 -6 -1.5 -18t-8.5 -48q-4 11 -11 20.5t-24.5 16t-49.5 10t-86 3.5h-103zM245 147q0 22 7 34t19 17.5t27.5 6.5t33.5 1h160q35 0 55 -7t20 -30q0 -20 -7 -31.5
t-19.5 -17.5t-29 -7.5t-35.5 -1.5h-160q-33 0 -52 6.5t-19 29.5z" />
    <glyph glyph-name="aacute" unicode="&#xe1;" horiz-adv-x="749" 
d="M651 683l-63 74l-180 -171l32 -33zM321 317q-62 0 -103.5 -9t-68.5 -26t-41 -42t-20 -56q-4 -20 -5 -39t-1 -36q0 -59 43.5 -84t138.5 -25h111q53 0 85 4t51 11.5t29 18t19 22.5l-10 -56h139l52 297q4 20 5 32.5t1 23.5q0 31 -10.5 56.5t-34.5 44.5t-63 29.5t-97 10.5
h-182q-114 0 -169 -35.5t-68 -107.5h158q1 9 7 17t19 13t34 8t53 3h105q58 0 82.5 -12.5t24.5 -46.5q0 -6 -1.5 -18t-8.5 -48q-4 11 -11 20.5t-24.5 16t-49.5 10t-86 3.5h-103zM245 147q0 22 7 34t19 17.5t27.5 6.5t33.5 1h160q35 0 55 -7t20 -30q0 -20 -7 -31.5
t-19.5 -17.5t-29 -7.5t-35.5 -1.5h-160q-33 0 -52 6.5t-19 29.5z" />
    <glyph glyph-name="acircumflex" unicode="&#xe2;" horiz-adv-x="749" 
d="M453 717l-172 -145h41l146 69l116 -69h45l-121 145h-55zM321 317q-62 0 -103.5 -9t-68.5 -26t-41 -42t-20 -56q-4 -20 -5 -39t-1 -36q0 -59 43.5 -84t138.5 -25h111q53 0 85 4t51 11.5t29 18t19 22.5l-10 -56h139l52 297q4 20 5 32.5t1 23.5q0 31 -10.5 56.5t-34.5 44.5
t-63 29.5t-97 10.5h-182q-114 0 -169 -35.5t-68 -107.5h158q1 9 7 17t19 13t34 8t53 3h105q58 0 82.5 -12.5t24.5 -46.5q0 -6 -1.5 -18t-8.5 -48q-4 11 -11 20.5t-24.5 16t-49.5 10t-86 3.5h-103zM245 147q0 22 7 34t19 17.5t27.5 6.5t33.5 1h160q35 0 55 -7t20 -30
q0 -20 -7 -31.5t-19.5 -17.5t-29 -7.5t-35.5 -1.5h-160q-33 0 -52 6.5t-19 29.5z" />
    <glyph glyph-name="atilde" unicode="&#xe3;" horiz-adv-x="749" 
d="M214 580h100q7 18 23.5 34t51.5 16q24 0 39 -7.5t26 -15.5q9 -6 17.5 -11.5t20 -9t26.5 -6t37 -2.5q66 0 104.5 34.5t52.5 94.5h-89q-4 -16 -20.5 -32.5t-48.5 -16.5q-23 0 -37.5 8t-30.5 19q-15 9 -35 16.5t-58 7.5t-68.5 -11.5t-53 -30t-37 -41.5t-20.5 -46zM321 317
q-62 0 -103.5 -9t-68.5 -26t-41 -42t-20 -56q-4 -20 -5 -39t-1 -36q0 -59 43.5 -84t138.5 -25h111q53 0 85 4t51 11.5t29 18t19 22.5l-10 -56h139l52 297q4 20 5 32.5t1 23.5q0 31 -10.5 56.5t-34.5 44.5t-63 29.5t-97 10.5h-182q-114 0 -169 -35.5t-68 -107.5h158q1 9 7 17
t19 13t34 8t53 3h105q58 0 82.5 -12.5t24.5 -46.5q0 -6 -1.5 -18t-8.5 -48q-4 11 -11 20.5t-24.5 16t-49.5 10t-86 3.5h-103zM245 147q0 22 7 34t19 17.5t27.5 6.5t33.5 1h160q35 0 55 -7t20 -30q0 -20 -7 -31.5t-19.5 -17.5t-29 -7.5t-35.5 -1.5h-160q-33 0 -52 6.5
t-19 29.5z" />
    <glyph glyph-name="adieresis" unicode="&#xe4;" horiz-adv-x="749" 
d="M437 680h-135l-19 -107h135zM663 680h-134l-19 -107h134zM321 317q-62 0 -103.5 -9t-68.5 -26t-41 -42t-20 -56q-4 -20 -5 -39t-1 -36q0 -59 43.5 -84t138.5 -25h111q53 0 85 4t51 11.5t29 18t19 22.5l-10 -56h139l52 297q4 20 5 32.5t1 23.5q0 31 -10.5 56.5t-34.5 44.5
t-63 29.5t-97 10.5h-182q-114 0 -169 -35.5t-68 -107.5h158q1 9 7 17t19 13t34 8t53 3h105q58 0 82.5 -12.5t24.5 -46.5q0 -6 -1.5 -18t-8.5 -48q-4 11 -11 20.5t-24.5 16t-49.5 10t-86 3.5h-103zM245 147q0 22 7 34t19 17.5t27.5 6.5t33.5 1h160q35 0 55 -7t20 -30
q0 -20 -7 -31.5t-19.5 -17.5t-29 -7.5t-35.5 -1.5h-160q-33 0 -52 6.5t-19 29.5z" />
    <glyph glyph-name="aring" unicode="&#xe5;" horiz-adv-x="749" 
d="M452 707q-39 0 -58 -18t-24 -49q-4 -23 -4 -38q0 -29 16.5 -44t54.5 -15h45q41 0 60.5 16t24.5 45q4 21 4.5 32t0.5 15q0 20 -15.5 38t-55.5 18h-49zM396 603q0 11 3 32q5 23 18.5 32.5t34.5 9.5h43q27 0 36 -8t9 -25q0 -2 -1 -11t-3 -23q-4 -20 -17 -29t-42 -9h-34
q-25 0 -36 7t-11 24zM321 317q-62 0 -103.5 -9t-68.5 -26t-41 -42t-20 -56q-4 -20 -5 -39t-1 -36q0 -59 43.5 -84t138.5 -25h111q53 0 85 4t51 11.5t29 18t19 22.5l-10 -56h139l52 297q4 20 5 32.5t1 23.5q0 31 -10.5 56.5t-34.5 44.5t-63 29.5t-97 10.5h-182
q-114 0 -169 -35.5t-68 -107.5h158q1 9 7 17t19 13t34 8t53 3h105q58 0 82.5 -12.5t24.5 -46.5q0 -6 -1.5 -18t-8.5 -48q-4 11 -11 20.5t-24.5 16t-49.5 10t-86 3.5h-103zM245 147q0 22 7 34t19 17.5t27.5 6.5t33.5 1h160q35 0 55 -7t20 -30q0 -20 -7 -31.5t-19.5 -17.5
t-29 -7.5t-35.5 -1.5h-160q-33 0 -52 6.5t-19 29.5z" />
    <glyph glyph-name="ae" unicode="&#xe6;" horiz-adv-x="1275" 
d="M920 496q-75 0 -127 -11t-88 -35q-23 21 -63.5 32.5t-100.5 11.5h-182q-114 0 -169 -35.5t-68 -107.5h158q1 9 7 17t19 13t34 8t53 3h105q58 0 82.5 -12.5t24.5 -46.5q0 -6 -1.5 -18t-8.5 -48q-4 11 -11 20.5t-24.5 16t-49.5 10t-86 3.5h-103q-62 0 -103.5 -9t-68.5 -26
t-41 -42t-20 -56q-4 -20 -5 -39t-1 -36q0 -59 43.5 -84t138.5 -25h111q53 0 85 4t51 11.5t29 18t19 22.5l-10 -56h139l4 23q58 -24 156 -24h98q78 0 127.5 9.5t79.5 29.5t44.5 50.5t21.5 72.5h-155q-3 -15 -9 -24.5t-19 -15t-34 -7t-52 -1.5h-104q-55 0 -77.5 16t-22.5 44
q0 5 1 11.5t4 25.5h477l11 63q5 27 5.5 45.5t0.5 30.5q0 28 -13.5 55t-43 47t-76.5 32.5t-113 12.5h-79zM245 147q0 22 7 34t19 17.5t27.5 6.5t33.5 1h160q35 0 55 -7t20 -30q0 -20 -7 -31.5t-19.5 -17.5t-29 -7.5t-35.5 -1.5h-160q-33 0 -52 6.5t-19 29.5zM1091 321
q0 -5 -0.5 -9.5t-1.5 -9.5h-324q3 15 8.5 29t18.5 25t36 17.5t59 6.5h104q31 0 50.5 -5t30.5 -13.5t15 -19t4 -21.5z" />
    <glyph glyph-name="ccedilla" unicode="&#xe7;" horiz-adv-x="703" 
d="M301 0h13l-8 -41q-3 -17 -10 -26t-20 -13.5t-31.5 -5t-44.5 -0.5l-16 -92q57 0 97.5 3t66.5 12.5t40.5 28t19.5 49.5l15 85q76 0 125.5 10.5t79.5 30t44 47t20 60.5l6 31h-158q-3 -15 -9.5 -27t-20.5 -19.5t-38.5 -11.5t-63.5 -4h-73q-60 0 -87.5 19t-27.5 62
q0 20 2 37.5t7 42.5q9 51 42 75.5t105 24.5h67q37 0 60.5 -3t37.5 -8.5t19.5 -14t5.5 -19.5q0 -8 -1 -12h154q3 20 3 30v21q0 24 -11.5 46.5t-39 39.5t-74 27.5t-115.5 10.5h-95q-75 0 -128 -12t-88 -37.5t-54.5 -65t-29.5 -93.5q-5 -32 -8 -57.5t-3 -59.5q0 -36 11.5 -67
t37.5 -54t69.5 -36.5t106.5 -13.5z" />
    <glyph glyph-name="egrave" unicode="&#xe8;" horiz-adv-x="698" 
d="M427 553l36 28l-113 176l-90 -74zM566 321q0 -5 -0.5 -9.5t-1.5 -9.5h-324q3 15 8.5 29t18.5 25t36 17.5t59 6.5h104q31 0 50.5 -5t30.5 -13.5t15 -19t4 -21.5zM323 -1h98q78 0 127.5 9.5t79.5 29.5t44.5 50.5t21.5 72.5h-155q-3 -15 -9 -24.5t-19 -15t-34 -7t-52 -1.5
h-104q-55 0 -77.5 16t-22.5 44q0 5 1 11.5t4 25.5h477l11 63q5 27 5.5 45.5t0.5 30.5q0 28 -13.5 55t-43 47t-76.5 32.5t-113 12.5h-79q-78 0 -132 -12.5t-90 -38.5t-56.5 -67t-30.5 -98q-8 -44 -10.5 -70.5t-2.5 -40.5q0 -40 13 -71.5t42.5 -53.5t77 -33.5t117.5 -11.5z
" />
    <glyph glyph-name="eacute" unicode="&#xe9;" horiz-adv-x="698" 
d="M656 683l-64 74l-180 -171l32 -33zM566 321q0 -5 -0.5 -9.5t-1.5 -9.5h-324q3 15 8.5 29t18.5 25t36 17.5t59 6.5h104q31 0 50.5 -5t30.5 -13.5t15 -19t4 -21.5zM323 -1h98q78 0 127.5 9.5t79.5 29.5t44.5 50.5t21.5 72.5h-155q-3 -15 -9 -24.5t-19 -15t-34 -7t-52 -1.5
h-104q-55 0 -77.5 16t-22.5 44q0 5 1 11.5t4 25.5h477l11 63q5 27 5.5 45.5t0.5 30.5q0 28 -13.5 55t-43 47t-76.5 32.5t-113 12.5h-79q-78 0 -132 -12.5t-90 -38.5t-56.5 -67t-30.5 -98q-8 -44 -10.5 -70.5t-2.5 -40.5q0 -40 13 -71.5t42.5 -53.5t77 -33.5t117.5 -11.5z
" />
    <glyph glyph-name="ecircumflex" unicode="&#xea;" horiz-adv-x="698" 
d="M444 717l-172 -145h41l146 69l117 -69h44l-121 145h-55zM566 321q0 -5 -0.5 -9.5t-1.5 -9.5h-324q3 15 8.5 29t18.5 25t36 17.5t59 6.5h104q31 0 50.5 -5t30.5 -13.5t15 -19t4 -21.5zM323 -1h98q78 0 127.5 9.5t79.5 29.5t44.5 50.5t21.5 72.5h-155q-3 -15 -9 -24.5
t-19 -15t-34 -7t-52 -1.5h-104q-55 0 -77.5 16t-22.5 44q0 5 1 11.5t4 25.5h477l11 63q5 27 5.5 45.5t0.5 30.5q0 28 -13.5 55t-43 47t-76.5 32.5t-113 12.5h-79q-78 0 -132 -12.5t-90 -38.5t-56.5 -67t-30.5 -98q-8 -44 -10.5 -70.5t-2.5 -40.5q0 -40 13 -71.5t42.5 -53.5
t77 -33.5t117.5 -11.5z" />
    <glyph glyph-name="edieresis" unicode="&#xeb;" horiz-adv-x="698" 
d="M410 680h-134l-19 -107h134zM637 680h-135l-19 -107h135zM566 321q0 -5 -0.5 -9.5t-1.5 -9.5h-324q3 15 8.5 29t18.5 25t36 17.5t59 6.5h104q31 0 50.5 -5t30.5 -13.5t15 -19t4 -21.5zM323 -1h98q78 0 127.5 9.5t79.5 29.5t44.5 50.5t21.5 72.5h-155q-3 -15 -9 -24.5
t-19 -15t-34 -7t-52 -1.5h-104q-55 0 -77.5 16t-22.5 44q0 5 1 11.5t4 25.5h477l11 63q5 27 5.5 45.5t0.5 30.5q0 28 -13.5 55t-43 47t-76.5 32.5t-113 12.5h-79q-78 0 -132 -12.5t-90 -38.5t-56.5 -67t-30.5 -98q-8 -44 -10.5 -70.5t-2.5 -40.5q0 -40 13 -71.5t42.5 -53.5
t77 -33.5t117.5 -11.5z" />
    <glyph glyph-name="igrave" unicode="&#xec;" horiz-adv-x="298" 
d="M227 553l36 28l-113 176l-90 -74zM323 494h-166l-87 -494h167z" />
    <glyph glyph-name="iacute" unicode="&#xed;" horiz-adv-x="298" 
d="M469 683l-63 74l-180 -171l32 -33zM323 494h-166l-87 -494h167z" />
    <glyph glyph-name="icircumflex" unicode="&#xee;" horiz-adv-x="298" 
d="M253 717l-172 -145h41l146 69l116 -69h45l-121 145h-55zM323 494h-166l-87 -494h167z" />
    <glyph glyph-name="idieresis" unicode="&#xef;" horiz-adv-x="298" 
d="M230 680h-134l-19 -107h134zM457 680h-135l-19 -107h135zM323 494h-166l-87 -494h167z" />
    <glyph glyph-name="eth" unicode="&#xf0;" horiz-adv-x="704" 
d="M562 207q-7 -37 -35 -59t-84 -22h-95q-65 0 -91 18.5t-26 61.5q0 8 1 27t6 46q8 42 37.5 66.5t95.5 24.5h76q37 0 61 -5t38 -14.5t20 -25t6 -36.5q0 -7 -1.5 -25.5t-8.5 -56.5zM319 614l-27 -54l98 -40l34 67q76 -31 111 -94q-26 3 -54 3h-85q-77 0 -130.5 -12.5
t-88.5 -37.5t-54 -63t-28 -88q-5 -31 -9 -56.5t-4 -54.5q0 -85 46.5 -135t150.5 -50h178q114 0 176 46.5t78 150.5q1 10 3 27t4 36t3 36.5t1 27.5q0 81 -17 144t-48.5 110t-75.5 79t-97 52l7 13t12.5 24l6.5 13l-98 40l-32 -63q-33 5 -69.5 7.5t-75.5 2.5v-126
q23 0 43.5 -1.5t40.5 -3.5z" />
    <glyph glyph-name="ntilde" unicode="&#xf1;" horiz-adv-x="738" 
d="M202 580h100q7 18 23.5 34t51.5 16q24 0 39 -7.5t26 -15.5q9 -6 17.5 -11.5t20 -9t26.5 -6t37 -2.5q66 0 104.5 34.5t52.5 94.5h-89q-4 -16 -20.5 -32.5t-48.5 -16.5q-23 0 -37.5 8t-30.5 19q-15 9 -35 16.5t-58 7.5t-68.5 -11.5t-53 -30t-37 -41.5t-20.5 -46zM523 494
h-52q-45 0 -75.5 -6.5t-51.5 -17t-34 -23.5t-22 -25l13 72h-165l-87 -494h168l43 242q11 64 53.5 100t113.5 36h24q66 0 95 -25t29 -73q0 -9 -1 -18t-3 -20l-43 -242h166l45 256q5 26 5.5 43.5t0.5 31.5q0 72 -54.5 117.5t-167.5 45.5z" />
    <glyph glyph-name="ograve" unicode="&#xf2;" horiz-adv-x="704" 
d="M420 553l37 28l-114 176l-90 -74zM396 496q-77 0 -130.5 -12.5t-88.5 -37.5t-54 -63t-28 -88q-5 -31 -9 -56.5t-4 -54.5q0 -85 46.5 -135t150.5 -50h178q114 0 176 46.5t78 150.5q6 39 8.5 74.5t2.5 52.5q0 37 -13 69t-42 55t-74.5 36t-111.5 13h-85zM562 207
q-7 -37 -35 -59t-84 -22h-95q-65 0 -91 18.5t-26 61.5q0 8 1 27t6 46q8 42 37.5 66.5t95.5 24.5h76q37 0 61 -5t38 -14.5t20 -25t6 -36.5q0 -7 -1.5 -25.5t-8.5 -56.5z" />
    <glyph glyph-name="oacute" unicode="&#xf3;" horiz-adv-x="704" 
d="M664 683l-63 74l-180 -171l32 -33zM396 496q-77 0 -130.5 -12.5t-88.5 -37.5t-54 -63t-28 -88q-5 -31 -9 -56.5t-4 -54.5q0 -85 46.5 -135t150.5 -50h178q114 0 176 46.5t78 150.5q6 39 8.5 74.5t2.5 52.5q0 37 -13 69t-42 55t-74.5 36t-111.5 13h-85zM562 207
q-7 -37 -35 -59t-84 -22h-95q-65 0 -91 18.5t-26 61.5q0 8 1 27t6 46q8 42 37.5 66.5t95.5 24.5h76q37 0 61 -5t38 -14.5t20 -25t6 -36.5q0 -7 -1.5 -25.5t-8.5 -56.5z" />
    <glyph glyph-name="ocircumflex" unicode="&#xf4;" horiz-adv-x="704" 
d="M449 717l-172 -145h41l145 69l117 -69h44l-121 145h-54zM396 496q-77 0 -130.5 -12.5t-88.5 -37.5t-54 -63t-28 -88q-5 -31 -9 -56.5t-4 -54.5q0 -85 46.5 -135t150.5 -50h178q114 0 176 46.5t78 150.5q6 39 8.5 74.5t2.5 52.5q0 37 -13 69t-42 55t-74.5 36t-111.5 13
h-85zM562 207q-7 -37 -35 -59t-84 -22h-95q-65 0 -91 18.5t-26 61.5q0 8 1 27t6 46q8 42 37.5 66.5t95.5 24.5h76q37 0 61 -5t38 -14.5t20 -25t6 -36.5q0 -7 -1.5 -25.5t-8.5 -56.5z" />
    <glyph glyph-name="otilde" unicode="&#xf5;" horiz-adv-x="704" 
d="M188 580h100q7 18 23.5 34t51.5 16q24 0 39 -7.5t26 -15.5q9 -6 17.5 -11.5t20 -9t26.5 -6t37 -2.5q66 0 104.5 34.5t52.5 94.5h-89q-4 -16 -20.5 -32.5t-48.5 -16.5q-23 0 -37.5 8t-30.5 19q-15 9 -35 16.5t-58 7.5t-68.5 -11.5t-53 -30t-37 -41.5t-20.5 -46zM396 496
q-77 0 -130.5 -12.5t-88.5 -37.5t-54 -63t-28 -88q-5 -31 -9 -56.5t-4 -54.5q0 -85 46.5 -135t150.5 -50h178q114 0 176 46.5t78 150.5q6 39 8.5 74.5t2.5 52.5q0 37 -13 69t-42 55t-74.5 36t-111.5 13h-85zM562 207q-7 -37 -35 -59t-84 -22h-95q-65 0 -91 18.5t-26 61.5
q0 8 1 27t6 46q8 42 37.5 66.5t95.5 24.5h76q37 0 61 -5t38 -14.5t20 -25t6 -36.5q0 -7 -1.5 -25.5t-8.5 -56.5z" />
    <glyph glyph-name="odieresis" unicode="&#xf6;" horiz-adv-x="704" 
d="M419 680h-135l-18 -107h134zM646 680h-135l-19 -107h135zM396 496q-77 0 -130.5 -12.5t-88.5 -37.5t-54 -63t-28 -88q-5 -31 -9 -56.5t-4 -54.5q0 -85 46.5 -135t150.5 -50h178q114 0 176 46.5t78 150.5q6 39 8.5 74.5t2.5 52.5q0 37 -13 69t-42 55t-74.5 36t-111.5 13
h-85zM562 207q-7 -37 -35 -59t-84 -22h-95q-65 0 -91 18.5t-26 61.5q0 8 1 27t6 46q8 42 37.5 66.5t95.5 24.5h76q37 0 61 -5t38 -14.5t20 -25t6 -36.5q0 -7 -1.5 -25.5t-8.5 -56.5z" />
    <glyph glyph-name="divide" unicode="&#xf7;" horiz-adv-x="533" 
d="M546 394h-408l-25 -138h408zM214 198l-29 -167h195l29 167h-195zM277 625l-29 -167h195l29 167h-195z" />
    <glyph glyph-name="oslash" unicode="&#xf8;" horiz-adv-x="704" 
d="M561 549l-36 -55q-11 1 -22 1.5t-22 0.5h-85q-77 0 -130.5 -12.5t-88.5 -37.5t-54 -63t-28 -88q-5 -31 -9 -56.5t-4 -54.5q0 -68 29 -113.5t94 -62.5l-43 -66h91l38 57h166q114 0 176 46.5t78 150.5q6 39 8.5 74.5t2.5 52.5q0 54 -26.5 94.5t-88.5 61.5l46 70h-92z
M443 370l-156 -238q-30 8 -43 25.5t-13 48.5q0 8 1 27t6 46q8 42 37.5 66.5t95.5 24.5h72zM374 126l154 234q25 -9 34.5 -27t9.5 -44q0 -7 -1.5 -25.5t-8.5 -56.5q-7 -37 -35 -59t-84 -22h-69z" />
    <glyph glyph-name="ugrave" unicode="&#xf9;" horiz-adv-x="796" 
d="M480 553l37 28l-114 176l-90 -74zM279 -1h148q33 0 58 6t44 15t32 20t22 22l-11 -62h166l87 494h-168l-43 -243q-11 -66 -54 -100.5t-113 -34.5h-65q-63 0 -92 26.5t-29 65.5q0 10 0.5 24.5t4.5 34.5l40 227h-167l-41 -236q-6 -33 -7 -54t-1 -35q0 -36 13.5 -67t38.5 -54
t60 -36t77 -13z" />
    <glyph glyph-name="uacute" unicode="&#xfa;" horiz-adv-x="796" 
d="M707 683l-64 74l-180 -171l33 -33zM279 -1h148q33 0 58 6t44 15t32 20t22 22l-11 -62h166l87 494h-168l-43 -243q-11 -66 -54 -100.5t-113 -34.5h-65q-63 0 -92 26.5t-29 65.5q0 10 0.5 24.5t4.5 34.5l40 227h-167l-41 -236q-6 -33 -7 -54t-1 -35q0 -36 13.5 -67
t38.5 -54t60 -36t77 -13z" />
    <glyph glyph-name="ucircumflex" unicode="&#xfb;" horiz-adv-x="796" 
d="M484 717l-172 -145h41l146 69l117 -69h44l-121 145h-55zM279 -1h148q33 0 58 6t44 15t32 20t22 22l-11 -62h166l87 494h-168l-43 -243q-11 -66 -54 -100.5t-113 -34.5h-65q-63 0 -92 26.5t-29 65.5q0 10 0.5 24.5t4.5 34.5l40 227h-167l-41 -236q-6 -33 -7 -54t-1 -35
q0 -36 13.5 -67t38.5 -54t60 -36t77 -13z" />
    <glyph glyph-name="udieresis" unicode="&#xfc;" horiz-adv-x="796" 
d="M466 680h-135l-19 -107h135zM692 680h-134l-19 -107h134zM279 -1h148q33 0 58 6t44 15t32 20t22 22l-11 -62h166l87 494h-168l-43 -243q-11 -66 -54 -100.5t-113 -34.5h-65q-63 0 -92 26.5t-29 65.5q0 10 0.5 24.5t4.5 34.5l40 227h-167l-41 -236q-6 -33 -7 -54t-1 -35
q0 -36 13.5 -67t38.5 -54t60 -36t77 -13z" />
    <glyph glyph-name="yacute" unicode="&#xfd;" horiz-adv-x="684" 
d="M262 494h-160l145 -494q-13 -20 -30.5 -32t-36.5 -18.5t-38.5 -9t-37.5 -2.5h-15l-27 -149q8 -1 15 -1h16q63 0 113 15t90.5 42t73 63t59.5 78l328 508h-160l-227 -345zM618 683l-64 74l-180 -171l33 -33z" />
    <glyph glyph-name="thorn" unicode="&#xfe;" horiz-adv-x="764" 
d="M559 496h-70q-50 0 -83 -5t-55.5 -14t-36 -20.5t-23.5 -23.5l46 261h-166l-157 -892h166l48 273q6 -14 17 -27.5t30 -24t48 -17t71 -6.5h107q117 0 177 44t77 136q8 44 11 76.5t3 59.5q0 38 -13.5 71t-40 57t-66 38t-90.5 14zM385 126q-72 0 -99 21.5t-27 66.5
q0 32 7 60.5t22.5 49.5t41 33.5t62.5 12.5h92q61 0 89.5 -18.5t28.5 -71.5q0 -55 -13 -86t-35.5 -46t-51.5 -18.5t-61 -3.5h-56z" />
    <glyph glyph-name="ydieresis" unicode="&#xff;" horiz-adv-x="684" 
d="M408 680h-135l-19 -107h135zM634 680h-134l-19 -107h135zM262 494h-160l145 -494q-13 -20 -30.5 -32t-36.5 -18.5t-38.5 -9t-37.5 -2.5h-15l-27 -149q8 -1 15 -1h16q63 0 113 15t90.5 42t73 63t59.5 78l328 508h-160l-227 -345z" />
    <glyph glyph-name="OE" unicode="&#x152;" horiz-adv-x="1444" 
d="M909 694l-12 -65q-31 32 -85 50t-138 18h-176q-102 0 -169 -13t-109.5 -45.5t-65.5 -88t-38 -139.5q-10 -54 -18 -112.5t-8 -100.5q0 -48 14 -85t47 -62t87 -38t134 -13h220q66 0 114.5 6.5t85.5 24.5l-5 -31h625l25 139h-548l25 148h527l26 143h-527l22 126h548l24 138
h-625zM773 454q0 -8 -1 -24.5t-3 -37t-4.5 -43t-6.5 -43.5q-9 -50 -20.5 -80t-34.5 -46.5t-61 -21.5t-99 -5h-132q-44 0 -73.5 3.5t-47 13.5t-25 28t-7.5 46q0 20 6.5 59.5t20.5 111.5q7 36 17 60.5t31 38.5t57 20t95 6h123q49 0 81 -4.5t50.5 -15t26 -26.5t7.5 -40z" />
    <glyph glyph-name="oe" unicode="&#x153;" horiz-adv-x="1245" 
d="M914 496q-86 0 -142.5 -14.5t-91.5 -46.5q-28 29 -76.5 45t-122.5 16h-85q-77 0 -130.5 -12.5t-88.5 -37.5t-54 -63t-28 -88q-5 -31 -9 -56.5t-4 -54.5q0 -85 46.5 -135t150.5 -50h178q121 0 182 52q29 -26 78.5 -39t124.5 -13h98q78 0 127.5 9.5t79.5 29.5t44.5 50.5
t21.5 72.5h-155q-3 -15 -9 -24.5t-19 -15t-34 -7t-52 -1.5h-104q-55 0 -77.5 16t-22.5 44q0 5 1 11.5t4 25.5h477l11 63q5 27 5.5 45.5t0.5 30.5q0 28 -13.5 55t-43 47t-76.5 32.5t-113 12.5h-79zM562 207q-7 -37 -35 -59t-84 -22h-95q-65 0 -91 18.5t-26 61.5q0 8 1 27
t6 46q8 42 37.5 66.5t95.5 24.5h76q37 0 61 -5t38 -14.5t20 -25t6 -36.5q0 -7 -1.5 -25.5t-8.5 -56.5zM1085 321q0 -5 -0.5 -9.5t-1.5 -9.5h-324q3 15 8.5 29t18.5 25t36 17.5t59 6.5h104q31 0 50.5 -5t30.5 -13.5t15 -19t4 -21.5z" />
    <glyph glyph-name="Scaron" unicode="&#x160;" horiz-adv-x="897" 
d="M718 694h-305q-151 0 -220.5 -60.5t-69.5 -189.5q0 -44 13 -71t39 -43t65 -23t90 -9l284 -12q61 -2 83 -16t22 -40q0 -20 -4.5 -36.5t-18 -28.5t-37.5 -19t-63 -7h-278q-32 0 -52 13.5t-20 36.5q0 5 1 8h-170q-3 -16 -4.5 -29t-1.5 -18q0 -31 11 -58t35.5 -47.5
t63.5 -32.5t95 -12h344q82 0 136 17.5t85.5 52t44 85t12.5 115.5q0 37 -13.5 64t-37.5 45.5t-57 28t-72 11.5l-332 13q-15 1 -28.5 2.5t-23 6t-15 13.5t-5.5 26q0 26 9 41t22.5 23t30.5 10t32 2h279q45 0 60.5 -9.5t15.5 -31.5v-8t-1 -9h179q2 12 3 23t1 22q0 67 -56 109
t-171 42zM575 722l172 144h-41l-145 -69l-117 69h-45l122 -144h54z" />
    <glyph glyph-name="scaron" unicode="&#x161;" horiz-adv-x="698" 
d="M213 147h-141q-4 -19 -4 -38q0 -54 42.5 -82t117.5 -28h236q59 0 99 7t65.5 20.5t38.5 34.5t18 50q5 30 6.5 55.5t1.5 41.5q0 56 -47 81t-126 27l-217 4q-31 1 -42.5 6.5t-11.5 22.5q0 13 6 20.5t16 11.5t21.5 5t23.5 1h173q77 0 77 -33q0 -2 -0.5 -3t-0.5 -3h156
q4 20 4 42q0 48 -46.5 77t-147.5 29h-207q-56 0 -95 -10t-65 -28t-40 -42.5t-19 -54.5q-5 -26 -6.5 -45t-1.5 -27q0 -55 38 -76t109 -23l222 -4q34 -1 46.5 -6t12.5 -25q0 -33 -21 -40.5t-52 -7.5h-184q-35 0 -45.5 10t-10.5 22q0 2 0.5 4t0.5 4zM440 547l172 144h-41
l-145 -69l-117 69h-45l122 -144h54z" />
    <glyph glyph-name="Ydieresis" unicode="&#x178;" horiz-adv-x="882" 
d="M543 849h-134l-19 -107h134zM770 849h-134l-19 -107h134zM318 694h-195l280 -460l-41 -234h167l41 234l453 460h-209l-306 -313z" />
    <glyph glyph-name="florin" unicode="&#x192;" horiz-adv-x="649" 
d="M686 533h-534l-94 -533h533z" />
    <glyph glyph-name="circumflex" unicode="&#x2c6;" horiz-adv-x="458" 
d="M242 717l-172 -145h41l146 69l116 -69h45l-121 145h-55z" />
    <glyph glyph-name="tilde" unicode="&#x2dc;" horiz-adv-x="564" 
d="M44 580h93q7 18 23.5 34t51.5 16q24 0 37.5 -8t28.5 -18q14 -10 34 -18t55 -8q37 0 65.5 10t49 27.5t34 41t19.5 50.5h-89q-4 -16 -20.5 -32.5t-48.5 -16.5q-23 0 -37 8t-30 19q-15 9 -35 16.5t-53 7.5q-41 0 -71.5 -11.5t-52 -30t-35 -41.5t-19.5 -46z" />
    <glyph glyph-name="endash" unicode="&#x2013;" horiz-adv-x="733" 
d="M732 394h-594l-25 -138h595z" />
    <glyph glyph-name="emdash" unicode="&#x2014;" horiz-adv-x="1107" 
d="M1110 394h-972l-25 -138h973z" />
    <glyph glyph-name="quoteleft" unicode="&#x2018;" horiz-adv-x="289" 
d="M294 369l35 194h-43l5 31q3 18 11.5 28.5t19.5 16.5t24.5 8t26.5 2l16 93q-37 0 -77 -5t-75 -20.5t-61 -44.5t-35 -78l-40 -225h193z" />
    <glyph glyph-name="quoteright" unicode="&#x2019;" horiz-adv-x="316" 
d="M198 701l-35 -194h44l-6 -31q-3 -18 -11.5 -28.5t-20 -16.5t-24.5 -8t-26 -2l-16 -93q37 0 77 5t75 20.5t61 44.5t35 78l40 225h-193z" />
    <glyph glyph-name="quotesinglbase" unicode="&#x201a;" horiz-adv-x="316" 
d="M122 283l-34 -194h43l-5 -31q-3 -18 -11.5 -28.5t-19.5 -16.5t-25 -8t-27 -2l-15 -93q37 0 77 5t75 20.5t61 44.5t35 78l40 225h-194z" />
    <glyph glyph-name="quotedblleft" unicode="&#x201c;" horiz-adv-x="551" 
d="M566 369l34 194h-43l5 31q3 18 11.5 28.5t19.5 16.5t24.5 8t26.5 2l16 93q-37 0 -77 -5t-75 -20.5t-61 -44.5t-35 -78l-40 -225h194zM294 369l35 194h-43l5 31q3 18 11.5 28.5t19.5 16.5t24.5 8t26.5 2l16 93q-37 0 -77 -5t-75 -20.5t-61 -44.5t-35 -78l-40 -225h193z
" />
    <glyph glyph-name="quotedblright" unicode="&#x201d;" horiz-adv-x="609" 
d="M220 701l-34 -194h43l-6 -31q-3 -18 -11.5 -28.5t-19.5 -16.5t-24.5 -8t-26.5 -2l-15 -93q36 0 76 5t75 20.5t61 44.5t35 78l40 225h-193zM491 701l-34 -194h43l-6 -31q-3 -18 -11.5 -28.5t-19.5 -16.5t-24.5 -8t-26.5 -2l-15 -93q36 0 76 5t75 20.5t61 44.5t35 78
l40 225h-193z" />
    <glyph glyph-name="quotedblbase" unicode="&#x201e;" horiz-adv-x="564" 
d="M122 283l-34 -194h43l-5 -31q-3 -18 -11.5 -28.5t-19.5 -16.5t-25 -8t-27 -2l-15 -93q37 0 77 5t75 20.5t61 44.5t35 78l40 225h-194zM376 283l-35 -194h43l-5 -31q-3 -18 -11.5 -28.5t-19.5 -16.5t-24.5 -8t-26.5 -2l-16 -93q37 0 77 5t75.5 20.5t61.5 44.5t34 78
l40 225h-193z" />
    <glyph glyph-name="dagger" unicode="&#x2020;" horiz-adv-x="244" 
d="M263 736h-26l-24 -128h-67l-5 -27h68l-63 -362h26l64 362h67l5 27h-68z" />
    <glyph glyph-name="daggerdbl" unicode="&#x2021;" horiz-adv-x="244" 
d="M139 164h27l46 287h68l4 27h-67l22 124h68l5 28h-68l19 106h-26l-19 -106h-68l-6 -28h68l-22 -124h-68l-4 -27h68z" />
    <glyph glyph-name="bullet" unicode="&#x2022;" horiz-adv-x="467" 
d="M455 295q0 28 -9.5 55t-28.5 47t-48 32.5t-69 12.5q-45 0 -79 -15.5t-57 -40.5t-35 -56.5t-12 -63.5q0 -29 9.5 -55.5t28.5 -46.5t48 -32.5t69 -12.5q45 0 79 15.5t57 40.5t35 56.5t12 63.5z" />
    <glyph glyph-name="ellipsis" unicode="&#x2026;" horiz-adv-x="1127" 
d="M148 167l-29 -167h195l29 167h-195zM521 167l-29 -167h195l29 167h-195zM895 167l-29 -167h195l29 167h-195z" />
    <glyph glyph-name="perthousand" unicode="&#x2030;" horiz-adv-x="1727" 
d="M466 547q0 -17 -3 -37t-8 -47q-5 -28 -11.5 -45t-19.5 -26t-35 -12t-56 -3h-61q-41 0 -57.5 11t-16.5 31t3.5 40.5t7.5 42.5q6 30 12.5 48t19 28.5t33 14t53.5 3.5h65q39 0 56.5 -10.5t17.5 -38.5zM348 290q53 0 87.5 6t56.5 24t34.5 51t21.5 87q3 14 5.5 31.5t4.5 34
t3.5 31.5t1.5 25q0 31 -9.5 51t-30 32t-53 17t-79.5 5h-79q-50 0 -83.5 -7t-55.5 -26.5t-35 -55t-23 -92.5q-7 -37 -11 -62.5t-4 -48.5q0 -54 36 -78.5t127 -24.5h85zM509 -33l339 761h-101l-339 -761h101zM1063 253q0 -17 -3 -37t-8 -47q-5 -28 -11.5 -45t-19.5 -26
t-35 -12t-56 -3h-61q-41 0 -57.5 11t-16.5 31t3.5 40.5t7.5 42.5q6 30 12.5 48t19 28.5t33 14t53.5 3.5h65q39 0 56.5 -10.5t17.5 -38.5zM945 -4q53 0 87.5 6t56.5 24t34.5 51t21.5 87q3 14 5.5 31.5t4.5 34t3.5 31.5t1.5 25q0 31 -9.5 51t-30 32t-53 17t-79.5 5h-79
q-50 0 -83.5 -7t-55.5 -26.5t-35 -55t-23 -92.5q-7 -37 -11 -62.5t-4 -48.5q0 -54 36 -78.5t127 -24.5h85zM1585 253q0 -17 -3 -37t-8 -47q-5 -28 -11.5 -45t-19.5 -26t-35 -12t-56 -3h-61q-41 0 -57.5 11t-16.5 31t3.5 40.5t7.5 42.5q6 30 12.5 48t19 28.5t33 14t53.5 3.5
h65q39 0 56.5 -10.5t17.5 -38.5zM1467 -4q53 0 87.5 6t56.5 24t34.5 51t21.5 87q3 14 5.5 31.5t4.5 34t3.5 31.5t1.5 25q0 31 -9.5 51t-30 32t-53 17t-79.5 5h-79q-50 0 -83.5 -7t-55.5 -26.5t-35 -55t-23 -92.5q-7 -37 -11 -62.5t-4 -48.5q0 -54 36 -78.5t127 -24.5h85z
" />
    <glyph glyph-name="guilsinglleft" unicode="&#x2039;" horiz-adv-x="364" 
d="M84 302l-8 -50l190 -189l66 68l-141 142l199 143l-48 72z" />
    <glyph glyph-name="guilsinglright" unicode="&#x203a;" horiz-adv-x="364" 
d="M74 156l54 -79l250 175l9 50l-189 190l-74 -72l136 -134z" />
    <glyph glyph-name="trademark" unicode="&#x2122;" horiz-adv-x="400" 
d="M298 702h-125l-2 -13h56l-28 -161h13l28 161h56zM332 704l-70 -175h14l51 131l29 -140l77 140l4 -131h13l-6 175l-83 -147z" />
    <glyph glyph-name="NUL" unicode="&#xe000;" horiz-adv-x="0" 
 />
    <glyph glyph-name="HT" unicode="&#xe001;" horiz-adv-x="0" 
 />
    <glyph glyph-name="minus" unicode="&#xe003;" horiz-adv-x="488" 
d="M443 327h-390v-73h390v73z" />
    <glyph glyph-name="notequal" unicode="&#xe004;" horiz-adv-x="547" 
d="M526 279h-186l59 89h142l20 112h-89l46 69h-97l-45 -69h-225l-20 -112h169l-58 -89h-126l-19 -110h71l-44 -69h98l44 69h241z" />
    <glyph glyph-name="lessequal" unicode="&#xe005;" horiz-adv-x="516" 
d="M503 248h-372l-22 -139h372zM220 553l-17 -99l253 -190l23 134l-150 108l188 107l23 134z" />
    <glyph glyph-name="greaterequal" unicode="&#xe006;" horiz-adv-x="489" 
d="M493 248h-363l-22 -139h363zM179 398l-23 -134l318 190l17 99l-251 194l-23 -134l150 -107z" />
    <glyph glyph-name="partialdiff" unicode="&#xe007;" 
d="M462 389h-358l-8 -37h356zM216 193l-10 -62h91q20 0 30 -5t10 -25q0 -27 -17 -32.5t-55 -5.5h-64q-29 0 -44 3t-15 19q0 5 1 7h-73l-1 -6q-1 -7 -1 -11v-9q0 -65 122 -65h99q68 0 94 24.5t26 81.5q0 29 -11 42t-33 15q40 -1 55.5 18t15.5 48q0 49 -29.5 66t-99.5 17h-63
q-42 0 -69 -5t-44 -16.5t-26 -30t-13 -44.5h70q4 20 22.5 27t54.5 7h53q38 0 53 -4.5t15 -23.5q0 -13 -5 -19t-13 -8.5t-18 -2.5h-18h-90zM284 426h76l54 312h-90l-108 -93l30 -36l83 71z" />
    <glyph glyph-name="summation" unicode="&#xe008;" 
d="M462 389h-358l-8 -37h356zM387 130l32 182h-89l-272 -166l-14 -79h257l-12 -67h75l12 67h42l11 63h-42zM284 426h76l54 312h-90l-108 -93l30 -36l83 71zM332 245l-20 -115h-172z" />
    <glyph glyph-name="product" unicode="&#xe009;" 
d="M462 387h-358l-8 -37h356zM289 535l83 6q42 3 67.5 11.5t39.5 23t18.5 34t4.5 44.5q0 45 -27 66t-77 21h-98q-39 0 -64 -9t-40 -25t-23 -37t-12 -46h76q3 16 7 26.5t12 16.5t22.5 8.5t38.5 2.5h50q35 0 48.5 -5.5t13.5 -25.5q0 -15 -4.5 -23.5t-12.5 -12.5t-18.5 -5.5
t-22.5 -2.5l-113 -8q-52 -4 -82.5 -26t-38.5 -70l-13 -72h339l12 63h-264l1 9q4 19 21.5 26t55.5 10zM216 191l-10 -62h91q20 0 30 -5t10 -25q0 -27 -17 -32.5t-55 -5.5h-64q-29 0 -44 3t-15 19q0 5 1 7h-73l-1 -6q-1 -7 -1 -11v-9q0 -65 122 -65h99q68 0 94 24.5t26 81.5
q0 29 -11 42t-33 15q40 -1 55.5 18t15.5 48q0 49 -29.5 66t-99.5 17h-63q-42 0 -69 -5t-44 -16.5t-26 -30t-13 -44.5h70q4 20 22.5 27t54.5 7h53q38 0 53 -4.5t15 -23.5q0 -13 -5 -19t-13 -8.5t-18 -2.5h-18h-90z" />
    <glyph glyph-name="pi" unicode="&#xe00a;" 
d="M462 389h-358l-8 -37h356zM292 617l-10 -62h91q20 0 30 -5t10 -25q0 -27 -17 -32.5t-55 -5.5h-64q-29 0 -44 3t-15 19q0 5 1 7h-73l-1 -6q-1 -7 -1 -11v-9q0 -65 122 -65h99q68 0 94 24.5t26 81.5q0 29 -11 42t-33 15q40 -1 55.5 18t15.5 48q0 49 -29.5 66t-99.5 17h-63
q-42 0 -69 -5t-44 -16.5t-26 -30t-13 -44.5h70q4 20 22.5 27t54.5 7h53q38 0 53 -4.5t15 -23.5q0 -13 -5 -19t-13 -8.5t-18 -2.5h-18h-90zM387 129l32 182h-89l-272 -166l-13 -79h256l-12 -67h75l12 67h42l12 63h-43zM332 244l-20 -115h-172z" />
    <glyph glyph-name="integral" unicode="&#xe00b;" horiz-adv-x="811" 
d="M857 667h-667l-118 -667h667zM793 613l-99 -560h-560l99 560h560z" />
    <glyph glyph-name="radical" unicode="&#xe00c;" horiz-adv-x="703" 
d="M129 249l-53 -110q16 -13 28.5 -27.5t23.5 -32t21.5 -38.5t21.5 -47q66 95 135.5 172t140.5 139.5t143 112t144 88.5l26 137q-82 -37 -163 -92t-155 -125t-138 -151.5t-113 -171.5q-11 45 -28 84t-34 62z" />
    <glyph glyph-name="approxequal" unicode="&#xe00d;" horiz-adv-x="776" 
d="M316 249l19 150h146l-19 -150h-146zM303 436h-67q-60 0 -86.5 25t-26.5 60q0 48 29.5 74t70.5 26q40 0 64.5 -23t24.5 -74v-11q0 -5 -1 -11zM532 513q7 57 35 84t75 27q23 0 40 -7.5t27.5 -19.5t15.5 -26.5t5 -29.5q0 -21 -8.5 -40t-24.5 -33.5t-40.5 -23t-55.5 -8.5h-78
zM267 146q-8 -63 -37.5 -92t-73.5 -29q-36 0 -61.5 22t-25.5 56q0 50 33 79.5t107 29.5h66zM299 399l-20 -150h-81q-45 0 -77 -12.5t-53 -32.5t-31 -46.5t-10 -54.5q0 -58 37 -87t92 -29t95.5 31t49.5 106l11 88h146l-8 -66q-1 -8 -1.5 -15.5t-0.5 -14.5q0 -33 10.5 -57
t27.5 -39.5t38.5 -22.5t44.5 -7q69 0 107.5 38t38.5 98q0 23 -8 45t-26 39.5t-46.5 28t-68.5 10.5h-66l19 150h77q45 0 78 12t54.5 32.5t31.5 46t10 52.5q0 28 -10 50t-27 37t-40 23t-50 8q-26 0 -51 -7.5t-45 -23.5t-33.5 -41t-17.5 -61l-11 -91h-146l9 66q2 8 2 16v16
q0 34 -10.5 58t-27.5 39t-39 21.5t-45 6.5q-37 0 -64.5 -12t-46 -32t-27.5 -45t-9 -50q0 -54 38 -87.5t113 -33.5h67zM495 212h67q60 0 86.5 -26.5t26.5 -64.5q0 -42 -27 -68.5t-74 -26.5q-35 0 -61.5 23.5t-26.5 74.5v10q0 6 1 12z" />
    <glyph glyph-name="nonbreakingspace" unicode="&#xe00e;" horiz-adv-x="582" 
 />
    <glyph glyph-name="lozenge" unicode="&#xe00f;" horiz-adv-x="556" 
d="M318 430l154 -154l-154 -154l-154 154zM72 276l246 -246l246 246l-246 246z" />
    <glyph glyph-name="apple" unicode="&#xe010;" horiz-adv-x="800" 
d="M275 530q-44 0 -79.5 -14.5t-60 -40.5t-38 -62t-13.5 -78q0 -71 27 -134t64.5 -110t77 -74.5t65.5 -27.5q19 0 36 7.5t30 23.5q7 8 18 12t22 4t21.5 -4t17.5 -12q27 -33 73 -33q39 0 70.5 21.5t56.5 52.5t42.5 65t28.5 59q-20 6 -38 18t-32.5 30t-23 41.5t-8.5 52.5
q0 26 6.5 46t17 35.5t25 29t31.5 25.5q-3 15 -17 27.5t-33 21.5t-42 14t-44 5q-25 0 -47 -6.5t-37 -18.5q-20 -16 -35.5 -21.5t-30.5 -5.5t-27 6.5t-33 20.5q-17 12 -41 18t-50 6zM534 669q-21 0 -42.5 -12.5t-39.5 -32t-29.5 -43t-11.5 -46.5q0 -6 2 -11.5t10 -5.5
q24 0 46 15t38.5 37t26.5 46.5t10 43.5q0 9 -10 9z" />
    </font>
</defs>
</svg>
