<?xml version="1.0" standalone="no"?>
<!DOCTYPE svg PUBLIC "-//W3C//DTD SVG 1.1//EN" "http://www.w3.org/Graphics/SVG/1.1/DTD/svg11.dtd" >
<svg xmlns="http://www.w3.org/2000/svg" xmlns:xlink="http://www.w3.org/1999/xlink" version="1.1">
<metadata>
Created by FontForge 20170731 at Fri Nov 26 20:18:27 2004
 By Aleksey,,,
4.1 (c)1986-92 by Richard A. Ware. All Rights Reserved.
</metadata>
<defs>
<font id="MicroExtendFLF-Italic" horiz-adv-x="861" >
  <font-face 
    font-family="MicroExtendFLF"
    font-weight="500"
    font-style="italic"
    font-stretch="normal"
    units-per-em="1000"
    panose-1="2 0 6 5 2 0 0 9 0 4"
    ascent="800"
    descent="-200"
    x-height="494"
    cap-height="694"
    bbox="-21 -212 1677 910"
    underline-thickness="30"
    underline-position="-175"
    slope="-12"
    unicode-range="U+0005-E010"
  />
<missing-glyph horiz-adv-x="500" 
 />
    <glyph glyph-name=".notdef" horiz-adv-x="500" 
 />
    <glyph glyph-name=".null" horiz-adv-x="0" 
 />
    <glyph glyph-name="nonmarkingreturn" unicode="&#xe002;" horiz-adv-x="0" 
 />
    <glyph glyph-name="breve" horiz-adv-x="391" 
d="M191 567q45 0 88.5 12.5t75.5 34.5l-33 39q-27 -18 -60.5 -26t-66.5 -8q-28 0 -60.5 7.5t-55.5 25.5l-34 -38q26 -21 64 -34t82 -13z" />
    <glyph glyph-name="dotaccent" horiz-adv-x="173" 
d="M54 678l-13 -78h78l13 78h-78z" />
    <glyph glyph-name="ring" horiz-adv-x="271" 
d="M131 723q-37 0 -54 -15.5t-22 -43.5q-3 -15 -4 -26t-1 -18q0 -20 14 -33t41 -13h54q35 0 52.5 13.5t22.5 43.5q4 19 5 29.5t1 15.5q0 17 -12 32t-43 15h-54zM72 624q0 5 1.5 15.5l3.5 24.5q4 20 17 28t33 8h54q35 0 35 -27q0 -6 -1 -15.5t-4 -26.5q-3 -19 -16 -27.5
t-32 -8.5h-54q-37 0 -37 29z" />
    <glyph glyph-name="hungarumlaut" unicode="&#xa;" horiz-adv-x="338" 
d="M212 770l-66 24l-78 -184l34 -13zM323 770l-66 24l-78 -184l34 -13z" />
    <glyph glyph-name="ogonek" horiz-adv-x="200" 
d="M110 -32l7 32h-66l-6 -36q-3 -18 -3 -33q0 -26 9.5 -41t25.5 -23t38 -10.5t47 -2.5l10 61q-14 0 -25.5 0.5t-20 4t-13.5 10.5t-5 20q0 4 0.5 8.5t1.5 9.5z" />
    <glyph glyph-name="caron" horiz-adv-x="396" 
d="M212 538l172 140h-32l-150 -85l-118 85h-33l121 -140h40z" />
    <glyph glyph-name="dotlessi" unicode="&#xd;" horiz-adv-x="222" 
d="M236 494h-73l-86 -494h72z" />
    <glyph glyph-name="fraction" horiz-adv-x="684" 
d="M70 -89l721 817h-78l-721 -817h78z" />
    <glyph glyph-name="fi" horiz-adv-x="542" 
d="M463 494h-212l5 24q11 56 42.5 80t79.5 24l226 -1l13 73h-236q-88 0 -136 -46t-61 -121l-5 -33h-61l-11 -68h61l-75 -426h72l75 426h212zM581 494h-72l-87 -494h72z" />
    <glyph glyph-name="fl" horiz-adv-x="556" 
d="M499 0l122 694h-238q-163 0 -194 -153l-10 -47h-61l-11 -68h61l-74 -426h72l74 426h212l11 68h-212l5 31q9 51 38.5 74t69.5 23h176l-113 -622h72z" />
    <glyph glyph-name="Lslash" horiz-adv-x="710" 
d="M194 314l92 92l17 105l-90 -90l48 273h-72l-60 -343l-81 -80l-17 -105l79 78l-43 -244h594l12 72h-522z" />
    <glyph glyph-name="lslash" horiz-adv-x="234" 
d="M217 318l87 87l17 105l-85 -85l47 269h-72l-59 -338l-86 -85l-17 -105l84 84l-44 -250h72z" />
    <glyph glyph-name="Zcaron" horiz-adv-x="782" 
d="M861 694h-691l-12 -72h566l-666 -566l-10 -56h691l12 72h-561l661 567zM526 728l172 140h-32l-150 -85l-118 85h-33l121 -140h40z" />
    <glyph glyph-name="zcaron" horiz-adv-x="623" 
d="M659 494h-529l-10 -61h424l-495 -377l-10 -56h533l11 61h-430l497 378zM407 538l172 140h-32l-150 -85l-118 85h-33l121 -140h40z" />
    <glyph glyph-name="space" unicode=" " horiz-adv-x="500" 
 />
    <glyph glyph-name="exclam" unicode="!" horiz-adv-x="189" 
d="M90 167h67l93 527h-67zM78 78l-14 -78h67l13 78h-66z" />
    <glyph glyph-name="quotedbl" unicode="&#x22;" horiz-adv-x="328" 
d="M386 708h-56l-19 -174h33zM252 708h-55l-19 -174h33z" />
    <glyph glyph-name="numbersign" unicode="#" horiz-adv-x="633" 
d="M428 677h-55l-55 -130h-130l-24 -56h130l-53 -124h-130l-24 -56h130l-56 -131h54l56 131h149l-58 -135h55l57 135h123l24 56h-123l54 124h122l24 56h-123l56 130h-54l-56 -130h-149zM349 491h148l-53 -124h-148z" />
    <glyph glyph-name="dollar" unicode="$" horiz-adv-x="894" 
d="M410 624h112l-41 -232h-112q-46 0 -77 4.5t-50 15t-27 27.5t-8 43q0 44 13 72t38.5 43.5t63.5 21t88 5.5zM611 69h-114l44 251h115q45 0 76 -5.5t50 -18t27 -32.5t8 -50q0 -41 -14.5 -69t-41.5 -45t-65 -24t-85 -7zM320 320h149l-45 -251h-112q-89 0 -123.5 25.5
t-34.5 70.5v13q0 7 2 15h-73q-5 -25 -5 -42q0 -69 55 -111.5t166 -42.5h112l-14 -86h72l14 86h115q155 0 226 53t71 176q0 91 -59.5 128.5t-167.5 37.5h-115l41 232h115q46 0 76 -6t48 -17t25 -28t7 -39q0 -8 -0.5 -15t-1.5 -15h76q3 13 4 24.5t1 22.5q0 72 -57 109t-165 37
h-114l11 63h-72l-11 -63h-113q-143 0 -219 -53.5t-76 -173.5q0 -73 50.5 -111.5t141.5 -38.5z" />
    <glyph glyph-name="percent" unicode="%" horiz-adv-x="1144" 
d="M547 566q0 -19 -4 -52t-15 -94q-9 -53 -34 -72.5t-78 -19.5h-149q-43 0 -62.5 16t-19.5 51q0 20 4.5 55t14.5 86q5 28 13 46.5t21 29.5t32.5 15.5t49.5 4.5h149q44 0 61 -16t17 -50zM411 267q82 0 123 33.5t55 113.5q11 64 16.5 102t5.5 61q0 57 -32.5 86.5t-96.5 29.5
h-158q-44 0 -75 -8t-52 -26t-34 -47t-20 -71q-5 -26 -8.5 -50.5t-6 -45.5t-4 -36t-1.5 -22q0 -52 32.5 -86t96.5 -34h159zM500 -33l339 761h-59l-339 -761h59zM1097 300q0 -19 -4 -52t-15 -94q-9 -53 -34 -72.5t-78 -19.5h-149q-43 0 -62.5 16t-19.5 51q0 20 4.5 55t14.5 86
q5 28 13 46.5t21 29.5t32.5 15.5t49.5 4.5h149q44 0 61 -16t17 -50zM961 1q82 0 123 33.5t55 113.5q11 64 16.5 102t5.5 61q0 57 -32.5 86.5t-96.5 29.5h-158q-44 0 -75 -8t-52 -26t-34 -47t-20 -71q-5 -26 -8.5 -50.5t-6 -45.5t-4 -36t-1.5 -22q0 -52 32.5 -86t96.5 -34
h159z" />
    <glyph glyph-name="ampersand" unicode="&#x26;" horiz-adv-x="986" 
d="M560 0q59 0 100 4t69 10t44.5 14t27.5 16l75 -51l55 65l-60 40q15 14 34 33t36 43.5t31.5 54t20.5 64.5h-72q-11 -48 -43 -86.5t-63 -66.5l-416 276q-17 12 -29.5 21t-20.5 19t-12 22t-4 30q0 33 13.5 55t36.5 35t53.5 18.5t65.5 5.5h179q101 0 146.5 -25t45.5 -78v-13
q0 -6 -2 -13h73q2 14 2.5 26t0.5 24q0 30 -12 57.5t-41 48.5t-79 33t-125 12h-159q-130 0 -201.5 -49t-71.5 -141q0 -37 6 -50.5t14 -21.5q-33 -6 -63 -19.5t-54.5 -36.5t-42.5 -56.5t-26 -79.5q-5 -29 -5.5 -43.5t-0.5 -24.5q0 -86 57 -129t181 -43h236zM164 239
q13 70 54 102.5t97 36.5l418 -287q-7 -3 -17 -6.5t-33.5 -6.5t-67 -4.5t-118.5 -1.5h-181q-76 0 -116.5 26.5t-40.5 83.5q0 10 0.5 23t4.5 34z" />
    <glyph glyph-name="quotesingle" unicode="'" horiz-adv-x="200" 
d="M252 708h-55l-19 -174h33z" />
    <glyph glyph-name="parenleft" unicode="(" horiz-adv-x="314" 
d="M123 503l-58 -338q-8 -41 -9.5 -61.5t-1.5 -34.5q0 -97 59 -139t164 -46l12 78q-38 1 -67.5 6.5t-49.5 18t-30 34t-10 55.5q0 12 1.5 28.5t7.5 49.5l58 338q9 52 24.5 87t39.5 56.5t58.5 31.5t81.5 12l13 78q-56 -2 -103.5 -13t-85 -38.5t-64.5 -76t-40 -126.5z" />
    <glyph glyph-name="parenright" unicode=")" horiz-adv-x="314" 
d="M298 137l58 338q7 41 9 61.5t2 34.5q0 97 -59 139t-164 46l-12 -78q38 -2 67.5 -7t49.5 -17.5t30 -34t10 -55.5q0 -12 -1.5 -28.5t-7.5 -49.5l-58 -338q-9 -52 -24.5 -87t-39.5 -56.5t-58.5 -31.5t-81.5 -12l-13 -78q55 2 103 12.5t85.5 38.5t64 76.5t40.5 126.5z" />
    <glyph glyph-name="asterisk" unicode="*" horiz-adv-x="344" 
d="M369 529l-86 19l89 21q24 5 34 16t10 22q0 12 -9.5 21.5t-23.5 9.5q-8 0 -16.5 -3.5t-16.5 -11.5l-71 -67l41 86q6 13 6 23q0 15 -10 23t-23 8q-14 0 -25.5 -10t-11.5 -32q0 -8 1 -12l13 -86l-53 64q-9 11 -18.5 15.5t-17.5 4.5q-17 0 -27.5 -12.5t-10.5 -26.5
q0 -11 7.5 -21t26.5 -14l85 -18l-92 -24q-23 -6 -32.5 -17t-9.5 -22q0 -12 8.5 -21.5t22.5 -9.5q17 0 34 16l73 68l-43 -86q-6 -12 -6 -22q0 -14 10 -22.5t23 -8.5q14 0 25.5 10.5t11.5 33.5v9l-9 87l50 -65q16 -20 35 -20q17 0 28.5 13t11.5 28q0 11 -8 20.5t-26 13.5z" />
    <glyph glyph-name="plus" unicode="+" horiz-adv-x="464" 
d="M256 326h-145l-12 -67h144l-25 -145h66l26 145h144l13 67h-145l26 144h-67z" />
    <glyph glyph-name="comma" unicode="," horiz-adv-x="183" 
d="M72 76l-14 -78h41l-7 -43q-5 -24 -16 -39.5t-24 -23.5h41q14 8 22.5 23t11.5 33l23 128h-78z" />
    <glyph glyph-name="hyphen" unicode="-" horiz-adv-x="428" 
d="M430 327h-319l-13 -73h319z" />
    <glyph glyph-name="period" unicode="." horiz-adv-x="183" 
d="M72 78l-13 -78h78l13 78h-78z" />
    <glyph glyph-name="slash" unicode="/" horiz-adv-x="306" 
d="M70 -89l366 817h-78l-366 -817h78z" />
    <glyph glyph-name="zero" unicode="0" 
d="M805 318q-15 -83 -32 -131.5t-50.5 -74t-90 -32.5t-150.5 -7h-79q-72 0 -120 4t-77.5 17t-41.5 37t-12 63q0 12 1 26.5t4 35.5t8 50.5t12 71.5q10 56 20 96t25.5 67.5t37 44t54.5 25t78.5 11.5t108.5 3h79q72 0 120 -4t77 -17t41 -37t12 -64q0 -12 -1 -26.5t-4 -36
t-8 -51t-12 -71.5zM390 0h80q75 0 131 5.5t97.5 18.5t70 36t48.5 58.5t34 84.5t26 115q7 41 11.5 70t7 50.5t3.5 36.5t1 29q0 57 -16.5 94.5t-53 59.5t-95 31t-141.5 9h-80q-76 0 -132 -5.5t-97.5 -19t-70.5 -36.5t-49 -58.5t-34 -85t-26 -115.5q-7 -41 -11.5 -70t-7 -50.5
t-3.5 -37t-1 -28.5q0 -59 17 -96t54.5 -58.5t95.5 -29.5t141 -8z" />
    <glyph glyph-name="one" unicode="1" 
d="M416 0h77l123 694h-112l-242 -208l41 -49l223 185z" />
    <glyph glyph-name="two" unicode="2" 
d="M404 253h111q118 0 191.5 17t115 50t56 81.5t14.5 112.5q0 49 -14.5 84t-49.5 57.5t-92.5 32.5t-143.5 10h-122q-80 0 -138 -11.5t-97.5 -35.5t-62.5 -60.5t-32 -86.5h78q6 30 19 53t41 38.5t74 23t120 7.5h107q70 0 116.5 -6t73.5 -20t38 -37t11 -57q0 -58 -16 -93
t-51.5 -54.5t-93 -26t-140.5 -6.5h-107q-86 0 -147 -12t-101.5 -37.5t-63 -64.5t-32.5 -93l-21 -119h754l13 72h-681l2 10q8 47 22.5 79.5t43.5 53t78 29.5t127 9z" />
    <glyph glyph-name="three" unicode="3" 
d="M428 394l-12 -72h217q33 0 58.5 -2t43 -12.5t26 -31.5t8.5 -58q0 -48 -15.5 -77t-49 -44.5t-86 -20.5t-127.5 -5h-114q-57 0 -96 4.5t-62 15.5t-33 29t-10 44q0 14 3 32h-72q-3 -17 -4 -25.5t-1 -22.5q0 -32 12.5 -59.5t41.5 -47t78 -30.5t121 -11h136q93 0 159.5 9
t109 34t63 69.5t20.5 115.5q0 62 -16.5 89t-46.5 35q57 11 87 55t30 113q0 42 -14.5 74.5t-47.5 54.5t-87.5 33.5t-134.5 11.5h-138q-92 0 -149.5 -15.5t-92 -42.5t-50.5 -64t-24 -79h72q7 33 20.5 57.5t41 40t73 23.5t116.5 8h104q71 0 117 -5.5t72.5 -17.5t36.5 -31.5
t10 -47.5q0 -35 -10 -59t-31 -39t-54.5 -21.5t-81.5 -6.5h-217z" />
    <glyph glyph-name="four" unicode="4" 
d="M756 222l83 472h-77l-658 -472l-12 -72h579l-27 -150h73l26 150h95l12 72h-94zM751 603l-68 -381h-469z" />
    <glyph glyph-name="five" unicode="5" 
d="M522 0q80 0 136 12.5t93.5 39.5t58.5 69.5t32 102.5q4 22 6 37t3 25t1 17v13q0 78 -63 121t-188 43h-199q-88 0 -133 -13t-62 -33l33 188h655l12 72h-727l-58 -332h73q18 23 65.5 34.5t113.5 11.5h240q164 0 164 -115q0 -8 -1.5 -21.5t-7.5 -47.5q-7 -39 -21 -67.5
t-42.5 -47.5t-75 -28t-117.5 -9h-158q-59 0 -98 6t-62.5 18t-33.5 30t-10 43v13q0 7 2 15h-72q-2 -12 -3 -23.5t-1 -22.5q0 -74 59.5 -112.5t191.5 -38.5h194z" />
    <glyph glyph-name="six" unicode="6" 
d="M618 411h-249q-51 0 -83.5 -6t-52.5 -15.5t-31 -21t-19 -23.5l20 114q8 48 22.5 80.5t39 52.5t61.5 28.5t91 8.5h220q52 0 86.5 -7t55 -19.5t29 -31t8.5 -41.5q0 -6 -0.5 -12.5t-1.5 -13.5h72q2 12 3 23t1 21q0 76 -64.5 114.5t-212.5 38.5h-155q-81 0 -138 -13t-96 -42
t-62.5 -75.5t-35.5 -114.5l-36 -208q-5 -27 -7.5 -50.5t-2.5 -43.5q0 -82 52.5 -118t169.5 -36h244q73 0 124.5 12t85 35.5t52 58t26.5 78.5q4 21 5.5 34.5t1.5 22.5t-0.5 14.5t-0.5 10.5q0 69 -54.5 107t-167.5 38zM579 72h-292q-73 0 -103.5 24t-30.5 66q0 7 1.5 26.5
t6.5 43.5q3 20 15.5 39.5t34 34.5t52.5 24t73 9h292q75 0 106 -27t31 -69q0 -5 -1.5 -15.5t-6.5 -42.5q-9 -51 -49.5 -82t-128.5 -31z" />
    <glyph glyph-name="seven" unicode="7" 
d="M929 694h-828l-12 -72h707l-717 -622h114l725 628z" />
    <glyph glyph-name="eight" unicode="8" 
d="M397 629h291q75 0 105.5 -21t30.5 -64q0 -4 -1 -12.5t-5 -28.5q-5 -29 -17 -50.5t-34.5 -36t-57.5 -22t-87 -7.5h-255q-87 0 -121 21.5t-34 63.5q0 8 1 17.5t5 30.5q4 27 15 47t31.5 34t53 21t79.5 7zM137 462q0 -51 31 -77.5t78 -28.5q-27 -1 -53 -9t-47.5 -25
t-37 -43.5t-22.5 -65.5q-5 -23 -6 -38t-1 -32q0 -66 50.5 -104t147.5 -38h296q64 0 111 12t79 34t50 54t25 71q5 27 4.5 43.5t-0.5 33.5q0 51 -30.5 78t-75.5 29q26 1 51.5 8.5t47.5 24.5t37.5 43.5t22.5 65.5q3 18 3 36v28q0 30 -13.5 55t-39 44t-63 29.5t-85.5 10.5h-315
q-109 0 -168 -46.5t-74 -131.5q-2 -14 -3 -24t-1 -17q0 -6 0.5 -11t0.5 -9zM762 179q-5 -27 -15.5 -46.5t-31.5 -33t-53.5 -20t-79.5 -6.5h-310q-57 0 -87 20.5t-30 60.5q0 13 2 24t6 30q5 28 16.5 50t34 36.5t57 22t85.5 7.5h255q89 0 123.5 -22t34.5 -65q0 -7 -1 -19
t-6 -39z" />
    <glyph glyph-name="nine" unicode="9" 
d="M351 289h249q51 0 83.5 6t52.5 15.5t31.5 21t19.5 23.5l-21 -114q-17 -95 -70.5 -132.5t-142.5 -37.5h-220q-52 0 -86.5 6.5t-55 19.5t-29 31.5t-8.5 41.5q0 6 0.5 12.5t1.5 13.5h-72q-2 -12 -2.5 -23t-0.5 -22q0 -35 15.5 -63t48.5 -48t85.5 -30.5t126.5 -10.5h149
q83 0 141.5 13.5t98 42.5t62.5 74.5t34 110.5q16 93 25.5 148t14.5 86.5t6 45.5t1 24q0 87 -57.5 121.5t-164.5 34.5h-251q-71 0 -120.5 -12t-82.5 -35.5t-51.5 -58t-26.5 -78.5q-4 -20 -5 -40.5t-1 -43.5q0 -68 55 -105.5t167 -37.5zM378 628h305q73 0 103.5 -24t30.5 -66
q0 -12 -8 -58q-5 -25 -17 -46.5t-33.5 -37.5t-52 -25.5t-72.5 -9.5h-292q-74 0 -105 27t-31 68q0 6 1.5 20t4.5 34q10 55 48.5 86.5t117.5 31.5z" />
    <glyph glyph-name="colon" unicode=":" horiz-adv-x="183" 
d="M137 441l-14 -78h78l13 78h-77zM72 78l-13 -78h78l13 78h-78z" />
    <glyph glyph-name="semicolon" unicode=";" horiz-adv-x="183" 
d="M137 441l-14 -78h78l13 78h-77zM72 76l-14 -78h41l-7 -43q-5 -24 -16 -39.5t-24 -23.5h41q14 8 22.5 23t11.5 33l23 128h-78z" />
    <glyph glyph-name="less" unicode="&#x3c;" horiz-adv-x="367" 
d="M404 500l-320 -194l254 -189l13 74l-152 114l192 117z" />
    <glyph glyph-name="equal" unicode="=" horiz-adv-x="428" 
d="M416 243h-319l-14 -72h319zM443 404h-319l-12 -72h319z" />
    <glyph glyph-name="greater" unicode="&#x3e;" horiz-adv-x="361" 
d="M73 117l318 189l-251 194l-13 -74l153 -117l-193 -115z" />
    <glyph glyph-name="question" unicode="?" horiz-adv-x="867" 
d="M347 78l-14 -78h78l14 78h-78zM451 227q8 41 32.5 64t81.5 23q81 0 141.5 7.5t102.5 26.5t66 50.5t32 78.5q5 26 5.5 38.5t0.5 25.5q0 29 -12 58t-38.5 51.5t-68.5 36.5t-103 14h-277q-119 0 -191 -46t-90 -151h78q6 29 18 51.5t34 37.5t57 22.5t86 7.5h296
q71 0 103.5 -27t32.5 -63q0 -9 -1.5 -19.5t-4.5 -28.5q-6 -32 -25 -52t-51 -31t-76 -14.5t-101 -3.5q-87 0 -138.5 -35t-65.5 -113l-13 -69h78z" />
    <glyph glyph-name="at" unicode="@" horiz-adv-x="649" 
d="M277 393q0 24 9.5 48t26.5 43.5t42 32t56 12.5q38 0 56.5 -23t18.5 -55q0 -29 -10.5 -53.5t-28.5 -42.5t-41.5 -28.5t-50.5 -10.5q-40 0 -59 23t-19 54zM148 386q0 51 20.5 103t59 93.5t94 68t124.5 26.5q54 0 94 -15.5t66 -42t39 -62t13 -75.5q0 -32 -7 -61.5t-20 -52.5
t-33 -37t-45 -14q-20 0 -27.5 11t-7.5 26q0 16 3 26t5 15l49 162h-33l-23 -70q-7 31 -29.5 53.5t-71.5 22.5q-44 0 -77 -16.5t-56 -41.5t-34.5 -55.5t-11.5 -58.5q0 -47 28.5 -78.5t80.5 -31.5q29 0 50.5 6t37.5 16t27 22.5t20 26.5v-10q0 -28 15 -44.5t44 -16.5
q33 0 60.5 14t48 39.5t32 62.5t11.5 84q0 49 -16 91.5t-47.5 73t-77 48t-104.5 17.5q-79 0 -141.5 -29.5t-106.5 -76t-67.5 -104.5t-23.5 -116q0 -49 14 -92t44 -75t76 -50.5t110 -18.5q31 0 61.5 6t57 15t47.5 20.5t32 23.5l-18 27q-11 -12 -30.5 -22.5t-43 -18.5
t-50 -12.5t-51.5 -4.5q-54 0 -94 16t-66 44t-38.5 65t-12.5 78z" />
    <glyph glyph-name="A" unicode="A" horiz-adv-x="842" 
d="M489 694l-482 -694h81l115 167h494l57 -167h84l-238 694h-111zM536 643l135 -399h-412z" />
    <glyph glyph-name="B" unicode="B" horiz-adv-x="879" 
d="M690 694h-506l-122 -694h552q52 0 100 10.5t85 37.5t59.5 72.5t22.5 115.5q0 35 -7 58.5t-18.5 38.5t-24.5 23t-25 13q49 16 71.5 58.5t22.5 98.5q0 78 -48.5 123t-161.5 45zM205 400l39 222h456q67 0 96 -23t29 -75q0 -65 -41 -94.5t-122 -29.5h-457zM147 72l45 256h484
q67 0 99 -21t32 -75q0 -45 -15 -75.5t-39 -49.5t-55 -27t-62 -8h-489z" />
    <glyph glyph-name="C" unicode="C" horiz-adv-x="903" 
d="M84 196q0 -100 55.5 -148t176.5 -48h289q74 0 124.5 12.5t83 37t50 61t26.5 85.5h-72q-6 -33 -19.5 -56.5t-37.5 -39t-59.5 -22.5t-85.5 -7h-311q-74 0 -112 30t-38 93q0 12 1 27t4 38t8.5 57.5t14.5 84.5q13 72 30.5 116.5t46 69t70 33.5t103.5 9h281q88 0 124 -25
t36 -70q0 -14 -3 -30h72q2 12 3 23.5t1 22.5q0 66 -54.5 108.5t-165.5 42.5h-266q-91 0 -151 -13.5t-99 -47.5t-61 -90.5t-37 -141.5q-9 -49 -14.5 -84.5t-8.5 -60.5t-4 -41t-1 -26z" />
    <glyph glyph-name="D" unicode="D" horiz-adv-x="894" 
d="M838 318q-14 -79 -31 -127.5t-46 -74.5t-74.5 -35t-115.5 -9h-418l97 550h400q59 0 99.5 -7t65 -23.5t35.5 -43t11 -66.5q0 -9 -1 -21t-3.5 -31t-7 -46t-11.5 -66zM68 0h482q94 0 155 12.5t101 47t63 96.5t41 162q7 39 11.5 68t7 50t3.5 36.5t1 29.5q0 92 -63 142
t-200 50h-480z" />
    <glyph glyph-name="E" unicode="E" horiz-adv-x="736" 
d="M181 694l-122 -694h617l12 72h-545l45 250h528l13 72h-528l40 228h545l12 72h-617z" />
    <glyph glyph-name="F" unicode="F" horiz-adv-x="736" 
d="M181 694l-122 -694h72l57 322h528l13 72h-528l40 228h545l12 72h-617z" />
    <glyph glyph-name="G" unicode="G" horiz-adv-x="894" 
d="M605 0q89 0 144.5 18.5t89.5 58.5t51 102.5t29 149.5h-418l-12 -72h340q-9 -49 -23.5 -84.5t-38.5 -58t-61 -33t-91 -10.5h-311q-74 0 -112 30t-38 93q0 12 1 27t4 38t8.5 57.5t14.5 84.5q13 72 30.5 116.5t46 69t70 33.5t103.5 9h281q88 0 124 -25t36 -70q0 -14 -3 -30
h72q2 12 3 23.5t1 22.5q0 66 -54.5 108.5t-165.5 42.5h-266q-91 0 -151 -13.5t-99 -47.5t-61 -90.5t-37 -141.5q-9 -49 -14.5 -84.5t-8.5 -60.5t-4 -41t-1 -26q0 -100 55.5 -148t176.5 -48h289z" />
    <glyph glyph-name="H" unicode="H" horiz-adv-x="871" 
d="M189 694l-122 -694h72l57 322h616l-56 -322h72l122 694h-72l-52 -300h-617l52 300h-72z" />
    <glyph glyph-name="I" unicode="I" horiz-adv-x="272" 
d="M101 0h72l123 694h-73z" />
    <glyph glyph-name="J" unicode="J" horiz-adv-x="780" 
d="M150 232h-72l-7 -42q-3 -18 -3.5 -29t-0.5 -20q0 -65 51 -103t158 -38h206q81 0 133 13t85 42t50.5 76t29.5 116l78 447h-73l-84 -479q-7 -38 -22 -65t-39.5 -44.5t-60.5 -25.5t-84 -8h-188q-46 0 -77.5 6.5t-51 17.5t-28.5 27t-9 36q0 14 0.5 22t2.5 16z" />
    <glyph glyph-name="K" unicode="K" horiz-adv-x="839" 
d="M171 694l-122 -694h72l60 342h119l384 -342h110l-420 377l547 317h-116l-495 -287h-117l50 287h-72z" />
    <glyph glyph-name="L" unicode="L" horiz-adv-x="710" 
d="M189 694l-122 -694h594l12 72h-522l110 622h-72z" />
    <glyph glyph-name="M" unicode="M" horiz-adv-x="1124" 
d="M179 694l-122 -694h72l112 639h39l254 -639h50l495 639h29l-112 -639h72l122 694h-157l-453 -592l-238 592h-163z" />
    <glyph glyph-name="N" unicode="N" horiz-adv-x="874" 
d="M180 694l-122 -694h72l112 639h39l439 -639h104l123 694h-73l-110 -622l-425 622h-159z" />
    <glyph glyph-name="O" unicode="O" horiz-adv-x="906" 
d="M847 313q-14 -81 -31.5 -128.5t-51.5 -72.5t-90 -32t-148 -7h-155q-62 0 -101.5 5.5t-63 18.5t-32.5 35t-9 56q0 14 1 29.5t4 37.5t8 51.5t13 71.5q10 56 20.5 96t25.5 67.5t37 44t54.5 25t78 11.5t107.5 3h127q73 0 118.5 -6.5t71 -21.5t34.5 -39.5t9 -59.5
q0 -10 -1.5 -23.5t-4.5 -35t-8 -52t-13 -74.5zM372 0h142q111 0 181.5 11.5t114.5 44.5t67.5 92t40.5 154q9 49 14.5 83.5t8.5 57.5t4 38t1 25q0 51 -15.5 87.5t-50 60t-89.5 34t-135 10.5h-136q-109 0 -178.5 -12.5t-113.5 -48t-68 -98t-41 -161.5q-8 -43 -13 -74t-8 -53.5
t-4 -38.5t-1 -29q0 -47 14 -81.5t47 -57t86.5 -33.5t131.5 -11z" />
    <glyph glyph-name="P" unicode="P" horiz-adv-x="811" 
d="M862 547q0 30 -11.5 56.5t-35.5 46.5t-62.5 32t-92.5 12h-481l-122 -694h77l53 298h404q61 0 106.5 8.5t76.5 27.5t50 49.5t28 74.5q6 32 8 53.5t2 35.5zM244 622h423q64 0 92 -22.5t28 -65.5q0 -9 -1.5 -23t-6.5 -39t-16 -44t-32 -32t-53 -19.5t-79 -6.5h-400z" />
    <glyph glyph-name="Q" unicode="Q" horiz-adv-x="906" 
d="M526 241l203 -148q-34 -13 -83 -16.5t-120 -3.5h-155q-62 0 -101.5 5.5t-63 18.5t-32.5 35t-9 56q0 14 1 29.5t4 37.5t8 51.5t13 71.5q10 56 20.5 96t25.5 67.5t37 44t54.5 25t78 11.5t107.5 3h127q73 0 118.5 -6.5t71 -21.5t34.5 -39.5t9 -59.5q0 -10 -1.5 -23.5
t-4.5 -35t-8 -52t-13 -74.5q-11 -62 -23 -103.5t-31 -67.5l-215 157zM514 0q102 0 169 9.5t110 35.5l75 -54l48 61l-64 47q23 35 38.5 84.5t27.5 118.5q9 49 14.5 83.5t8.5 57.5t4 38t1 25q0 51 -15.5 87.5t-50 60t-89.5 34t-135 10.5h-136q-109 0 -178.5 -12.5t-113.5 -48
t-68 -98t-41 -161.5q-8 -43 -13 -74t-8 -53.5t-4 -38.5t-1 -29q0 -47 14 -81.5t47 -57t86.5 -33.5t131.5 -11h142z" />
    <glyph glyph-name="R" unicode="R" horiz-adv-x="887" 
d="M207 400l38 217h455q68 0 96.5 -23.5t28.5 -62.5q0 -69 -44.5 -100t-123.5 -31h-450zM900 537q0 73 -49.5 115t-156.5 42h-509l-122 -694h73l57 322h477q74 0 103.5 -17.5t29.5 -60.5q0 -9 -1 -19.5t-3 -21.5l-36 -203h78l36 204q3 15 4 28.5t1 25.5q0 30 -6.5 51
t-17.5 35t-24.5 21.5t-27.5 10.5q30 10 48.5 25.5t28.5 36t13.5 45.5t3.5 54z" />
    <glyph glyph-name="S" unicode="S" horiz-adv-x="914" 
d="M751 694h-382q-60 0 -104 -16.5t-73 -45.5t-43 -69t-14 -87q0 -41 11.5 -69t40 -46t76 -26.5t118.5 -9.5l242 -6q63 -1 104 -6.5t65 -17t34 -30.5t10 -47q0 -43 -14 -71t-39 -44.5t-59 -23.5t-73 -7h-329q-90 0 -124.5 25.5t-34.5 71.5v13q0 7 2 15h-72q-2 -12 -3 -23.5
t-1 -22.5q0 -38 16 -66.5t43 -47.5t62.5 -28t74.5 -9h357q75 0 126.5 14.5t82.5 42.5t44.5 70t13.5 96q0 51 -15 83t-49.5 50.5t-90.5 25.5t-138 9l-231 5q-51 1 -84.5 5.5t-53.5 14t-28.5 25.5t-8.5 41q0 71 41 105.5t120 34.5h351q45 0 76 -6.5t49.5 -19t26.5 -31t8 -41.5
q0 -6 -0.5 -12.5t-1.5 -13.5h73q2 12 3 23t1 22q0 76 -52 113.5t-154 37.5z" />
    <glyph glyph-name="T" unicode="T" horiz-adv-x="790" 
d="M893 694h-750l-12 -72h339l-110 -622h72l110 622h339z" />
    <glyph glyph-name="U" unicode="U" horiz-adv-x="916" 
d="M173 201q0 18 4 48t11 69l66 376h-72l-66 -376q-8 -41 -11.5 -73.5t-3.5 -52.5q0 -53 15.5 -89.5t50 -59t89 -33t132.5 -10.5h164q97 0 161 12t105 44.5t64.5 88.5t38.5 143l71 406h-72l-66 -376q-10 -55 -20 -94.5t-25 -67t-37 -43.5t-54.5 -25t-78 -12t-107.5 -3h-107
q-72 0 -120.5 4t-77.5 17.5t-41.5 38.5t-12.5 68z" />
    <glyph glyph-name="V" unicode="V" horiz-adv-x="823" 
d="M212 694h-83l238 -694h102l482 694h-83l-429 -616h-17z" />
    <glyph glyph-name="W" unicode="W" horiz-adv-x="1272" 
d="M400 0l342 614l128 -614h107l409 694h-84l-355 -621h-17l-133 621h-84l-350 -621h-15l-138 621h-83l161 -694h112z" />
    <glyph glyph-name="X" unicode="X" horiz-adv-x="847" 
d="M250 694h-100l272 -327l-429 -367h100l387 333l276 -333h95l-302 367l383 327h-95l-346 -294z" />
    <glyph glyph-name="Y" unicode="Y" horiz-adv-x="799" 
d="M221 694h-98l298 -362l-59 -332h78l59 332l424 362h-101l-351 -300z" />
    <glyph glyph-name="Z" unicode="Z" horiz-adv-x="782" 
d="M861 694h-691l-12 -72h566l-666 -566l-10 -56h691l12 72h-561l661 567z" />
    <glyph glyph-name="bracketleft" unicode="[" horiz-adv-x="253" 
d="M332 723l7 38h-140l-155 -872l144 -1l6 36l-76 2l141 797h73z" />
    <glyph glyph-name="backslash" unicode="\" horiz-adv-x="306" 
d="M299 -89l-79 817h-78l79 -817h78z" />
    <glyph glyph-name="bracketright" unicode="]" horiz-adv-x="253" 
d="M173 -111l155 872h-140l-7 -38h73l-141 -797l-76 -2l-7 -36z" />
    <glyph glyph-name="asciicircum" unicode="^" horiz-adv-x="393" 
d="M246 668l-194 -281h36l165 211l102 -211h31l-100 281h-40z" />
    <glyph glyph-name="underscore" unicode="_" horiz-adv-x="389" 
d="M404 -22h-403l-7 -39h403z" />
    <glyph glyph-name="grave" unicode="`" horiz-adv-x="253" 
d="M191 567l31 25l-131 136l-50 -49z" />
    <glyph glyph-name="a" unicode="a" horiz-adv-x="718" 
d="M248 302q-81 0 -123 -31t-52 -85q-3 -19 -5 -32t-3 -22.5t-1 -16.5v-12q0 -27 10.5 -46.5t28 -32t40.5 -18.5t49 -6h314q35 0 58.5 8t37.5 31l-7 -39h72l53 297q4 23 4.5 40.5t0.5 28.5q0 25 -9 48t-29.5 41t-54.5 28.5t-83 10.5h-228q-85 0 -132.5 -34t-58.5 -97l-2 -12
h74l2 12q6 35 38.5 52.5t96.5 17.5h210q57 0 81 -22.5t24 -57.5q0 -5 -0.5 -11t-1.5 -11l-12 -70q-5 9 -11.5 16.5t-19 13t-33.5 8.5t-55 3h-273zM526 241q47 0 71.5 -17t24.5 -52q0 -18 -4.5 -38t-18.5 -36t-39 -26.5t-65 -10.5h-264q-56 0 -75.5 15t-19.5 41q0 8 0.5 19
t5.5 33q3 18 9.5 31.5t18.5 22.5t31 13.5t48 4.5h277z" />
    <glyph glyph-name="b" unicode="b" horiz-adv-x="716" 
d="M133 54q9 -11 19 -21t24.5 -17.5t36 -12t54.5 -4.5h194q60 0 102.5 13t71 36t44.5 55t23 71q12 69 17.5 110t5.5 62q0 69 -45 109.5t-142 40.5h-184q-33 0 -56.5 -3.5t-41.5 -10.5t-31 -17.5t-24 -24.5l44 254h-72l-122 -694h72zM153 166q0 20 6.5 53.5t14.5 81.5
q10 57 54.5 95t124.5 38h160q74 0 108 -26t34 -75q0 -17 -5.5 -51.5t-16.5 -88.5q-14 -69 -56.5 -101t-129.5 -32h-160q-70 0 -102 30t-32 76z" />
    <glyph glyph-name="c" unicode="c" horiz-adv-x="708" 
d="M631 175q-11 -64 -50 -89t-107 -25h-222q-45 0 -74 24t-29 73q0 8 1.5 23.5t4 35.5t6 43t7.5 46q11 66 52 97t104 31h216q66 0 92.5 -24t26.5 -63q0 -6 -0.5 -12.5t-1.5 -13.5h72q2 11 3 20.5t1 18.5q0 28 -11.5 53t-36 43.5t-62.5 29t-91 10.5h-198q-53 0 -94 -14
t-70.5 -39t-47.5 -59t-25 -74q-6 -36 -10.5 -61.5t-6.5 -45t-3 -35t-1 -29.5q0 -26 9 -51t29 -44.5t51.5 -31.5t75.5 -12h222q61 0 103.5 11t70 33t43 55t23.5 76h-72z" />
    <glyph glyph-name="d" unicode="d" horiz-adv-x="714" 
d="M81 144q0 -72 47 -108.5t129 -36.5h194q36 0 60.5 4t41.5 10.5t28.5 15.5t20.5 19l-8 -48h73l122 694h-73l-44 -254q-5 11 -15 21t-27.5 18t-43.5 12.5t-63 4.5h-179q-108 0 -168 -53.5t-76 -141.5q-10 -57 -14.5 -95.5t-4.5 -61.5zM652 329q0 -28 -6.5 -60t-14.5 -76
q-5 -28 -18.5 -52.5t-36 -42.5t-53 -28t-70.5 -10h-160q-72 0 -106.5 24t-34.5 76q0 17 5.5 53.5t14.5 87.5q12 67 56 100t131 33h160q70 0 101.5 -29.5t31.5 -75.5z" />
    <glyph glyph-name="e" unicode="e" horiz-adv-x="724" 
d="M665 336v-12t-2 -13h-486q11 58 51 90.5t97 32.5h226q56 0 85 -26.5t29 -71.5zM247 0h256q51 0 87 12t60 32.5t37 47t18 56.5l2 10h-72l-2 -10q-6 -35 -37.5 -61t-90.5 -26h-235q-52 0 -83.5 21t-31.5 75v9q0 6 1 16t3 26t7 42h557q7 37 9.5 61t2.5 41q0 30 -10.5 56
t-33 45.5t-57.5 31t-83 11.5h-205q-103 0 -164.5 -51t-78.5 -142q-6 -36 -9.5 -61t-5.5 -44t-2.5 -33t-0.5 -28q0 -29 11 -53.5t32 -43.5t51 -29.5t68 -10.5z" />
    <glyph glyph-name="f" unicode="f" horiz-adv-x="390" 
d="M434 498h-195q4 28 12.5 51t22.5 39.5t35.5 25t51.5 8.5h111l12 72h-105q-95 0 -145 -48t-67 -148h-61l-13 -72h61l-75 -428h72l76 428h195z" />
    <glyph glyph-name="g" unicode="g" horiz-adv-x="729" 
d="M346 494q-104 0 -161.5 -51t-74.5 -145q-10 -57 -13 -96.5t-3 -57.5q0 -66 40 -105t133 -39h203q37 0 62.5 5t42.5 13t27.5 18.5t16.5 21.5l-16 -92q-11 -60 -50.5 -88t-113.5 -28h-186q-59 0 -84 16.5t-25 45.5q0 6 1 9h-73q-1 -5 -1.5 -10.5t-0.5 -10.5q0 -22 10.5 -42
t29 -35.5t44 -24.5t56.5 -9h233q110 0 163.5 44.5t67.5 128.5l94 532h-72l-9 -54q-7 10 -16.5 19.5t-24.5 17t-37.5 12.5t-54.5 5h-208zM665 324q0 -21 -5.5 -49.5t-14.5 -81.5q-5 -28 -18.5 -52.5t-36 -42.5t-53 -28t-69.5 -10h-165q-72 0 -105 23.5t-33 76.5
q0 21 3.5 51.5t12.5 80.5q13 75 56 108.5t132 33.5h165q68 0 99.5 -29.5t31.5 -80.5z" />
    <glyph glyph-name="h" unicode="h" horiz-adv-x="722" 
d="M545 494h-190q-35 0 -59.5 -5t-42.5 -14t-30.5 -21t-22.5 -26l44 266h-72l-122 -695h75l51 292q13 72 59 108.5t110 36.5h190q58 0 90 -26t32 -70q0 -15 -1 -25.5t-4 -29.5l-51 -286h72l50 280q5 27 5 40v25q0 31 -11 58t-33.5 47.5t-57 32.5t-81.5 12z" />
    <glyph glyph-name="i" unicode="i" horiz-adv-x="222" 
d="M236 494h-73l-86 -494h72zM271 694h-72l-12 -72h72z" />
    <glyph glyph-name="j" unicode="j" horiz-adv-x="277" 
d="M196 494l-97 -550q-9 -49 -33.5 -66.5t-73.5 -17.5l-13 -72q45 0 77.5 6.5t55 22t36 42t20.5 65.5l100 570h-72zM303 694h-72l-12 -72h72z" />
    <glyph glyph-name="k" unicode="k" horiz-adv-x="609" 
d="M179 694l-122 -694h72l45 261h119l221 -261h91l-246 294l294 200h-105l-244 -161h-116l63 361h-72z" />
    <glyph glyph-name="l" unicode="l" horiz-adv-x="234" 
d="M283 694h-72l-122 -694h72z" />
    <glyph glyph-name="m" unicode="m" horiz-adv-x="1264" 
d="M1087 494h-177q-49 0 -83 -7.5t-57 -21t-37.5 -31.5t-24.5 -38q-5 18 -16 35.5t-31 31.5t-51 22.5t-75 8.5h-170q-71 0 -110.5 -22t-59.5 -54l13 76h-72l-87 -494h72l52 297q4 24 17.5 48.5t37 44t57.5 31.5t81 12h149q63 0 100.5 -26t37.5 -80v-16t-2 -23l-51 -288h72
l53 298q13 71 63.5 103t131.5 32h145q70 0 106.5 -26t36.5 -77q0 -13 -3 -28l-53 -302h72l52 294q3 18 3.5 29.5t0.5 19.5q0 31 -11.5 58.5t-35.5 48t-60.5 32.5t-85.5 12z" />
    <glyph glyph-name="n" unicode="n" horiz-adv-x="732" 
d="M551 494h-190q-60 0 -98 -21t-61 -59l14 80h-72l-87 -494h72l52 293q5 28 18.5 53t34.5 44.5t50.5 31t65.5 11.5h190q57 0 90.5 -27.5t33.5 -78.5q0 -7 -1 -16t-4 -27l-51 -284h72l50 281q3 17 3.5 31.5t0.5 26.5q0 33 -11.5 61.5t-34.5 49t-57 32.5t-80 12z" />
    <glyph glyph-name="o" unicode="o" horiz-adv-x="712" 
d="M346 496q-59 0 -102 -13.5t-73.5 -39t-48.5 -61.5t-26 -81q-10 -57 -13.5 -93.5t-3.5 -62.5q0 -72 46.5 -109t133.5 -37h199q60 0 103.5 14t73.5 39.5t47 61t25 79.5q9 52 13 89.5t4 64.5q0 31 -10.5 58t-32 47t-55.5 32t-81 12h-199zM149 159q0 25 5.5 58t14.5 84
q13 72 56 102.5t118 30.5h185q126 0 126 -101q0 -19 -4 -49.5t-15 -90.5q-13 -72 -58.5 -102.5t-114.5 -30.5h-185q-128 0 -128 99z" />
    <glyph glyph-name="p" unicode="p" horiz-adv-x="714" 
d="M725 349q0 72 -47 108.5t-129 36.5h-194q-36 0 -60.5 -4t-41.5 -10.5t-28.5 -15.5t-20.5 -19l8 48h-73l-122 -694h73l44 254q5 -11 15 -21t27.5 -18t43.5 -12.5t63 -4.5h179q108 0 168 53.5t76 141.5q10 57 14.5 95.5t4.5 61.5zM154 164q0 28 6.5 60t14.5 76
q5 28 18.5 52.5t36 42.5t53 28t70.5 10h160q72 0 106.5 -24t34.5 -76q0 -17 -5.5 -53.5t-14.5 -87.5q-12 -68 -56 -100.5t-131 -32.5h-160q-70 0 -101.5 29.5t-31.5 75.5z" />
    <glyph glyph-name="q" unicode="q" horiz-adv-x="721" 
d="M676 439q-9 11 -19 21t-24.5 17.5t-36 12t-54.5 4.5h-194q-60 0 -102.5 -13t-71 -36t-44.5 -55t-23 -71q-12 -69 -17.5 -110t-5.5 -62q0 -69 45 -109.5t142 -40.5h184q33 0 56.5 3.5t41.5 10.5t31 17.5t24 24.5l-44 -254h72l122 694h-72zM656 327q0 -20 -6.5 -53.5
t-14.5 -81.5q-10 -57 -54.5 -95t-124.5 -38h-160q-74 0 -108 26t-34 75q0 17 5.5 51.5t16.5 88.5q14 69 56.5 101t129.5 32h160q70 0 102 -30t32 -76z" />
    <glyph glyph-name="r" unicode="r" horiz-adv-x="714" 
d="M361 496q-60 0 -96.5 -17t-57.5 -48l11 63h-71l-87 -494h71l51 288q12 69 56.5 107.5t119.5 38.5h178q64 0 96.5 -27t32.5 -78q0 -5 -0.5 -12.5t-2.5 -15.5h72q2 12 3 23t1 19q0 31 -11 59t-33.5 49t-57.5 33t-83 12h-192z" />
    <glyph glyph-name="s" unicode="s" horiz-adv-x="720" 
d="M69 94q0 -19 7.5 -36t25 -30t45 -20.5t66.5 -7.5h296q163 0 183 121q3 16 3.5 33t0.5 24q0 45 -36.5 72.5t-105.5 29.5l-299 6q-36 1 -54.5 12t-18.5 40q0 10 3 30q12 66 106 66h281q30 0 48.5 -4.5t29 -11.5t14.5 -16t4 -18q0 -5 -0.5 -10t-1.5 -10l-4 -25h72l4 22
q2 11 3 20t1 14q0 17 -7.5 35t-26.5 32.5t-52 24t-84 9.5h-278q-78 0 -123.5 -32.5t-55.5 -83.5q-4 -22 -4.5 -34.5t-0.5 -19.5q0 -47 34 -73t91 -28l310 -6q81 -2 81 -57q0 -3 -0.5 -12t-2.5 -17q-6 -38 -34.5 -55.5t-85.5 -17.5h-269q-53 0 -73 13t-20 34q0 8 0.5 13.5
t1.5 10.5l5 26h-72l-6 -32q-2 -9 -1.5 -16.5t0.5 -14.5z" />
    <glyph glyph-name="t" unicode="t" horiz-adv-x="602" 
d="M176 138q0 12 0.5 20.5t2.5 16.5l43 247h372l13 72h-372l17 95h-72l-17 -95h-62l-13 -72h62l-42 -238q-2 -14 -3.5 -26.5t-1.5 -28.5q0 -65 39.5 -97t110.5 -32h159q43 0 75.5 11.5t55 30.5t35.5 42.5t17 47.5h-78q-2 -9 -8.5 -21.5t-20 -23.5t-35 -18.5t-52.5 -7.5h-137
q-38 0 -63 19t-25 58z" />
    <glyph glyph-name="u" unicode="u" horiz-adv-x="726" 
d="M269 0h194q36 0 61.5 5t43.5 13t30 18.5t21 22.5l-10 -59h70l87 494h-72l-52 -294q-6 -37 -23 -63.5t-40.5 -43t-52.5 -24.5t-59 -8h-187q-59 0 -91.5 21t-32.5 68q0 14 1 24.5t5 30.5l51 289h-73l-49 -280q-5 -28 -6 -42.5t-1 -26.5q0 -31 10.5 -57.5t33 -46t57.5 -30.5
t84 -11z" />
    <glyph glyph-name="v" unicode="v" horiz-adv-x="627" 
d="M170 494h-78l178 -494h94l349 494h-82l-295 -416h-17z" />
    <glyph glyph-name="w" unicode="w" horiz-adv-x="1171" 
d="M358 0l300 424l152 -424h94l349 494h-80l-295 -416h-17l-149 416h-85l-296 -416h-17l-148 416h-80l177 -494h95z" />
    <glyph glyph-name="x" unicode="x" horiz-adv-x="603" 
d="M215 494h-85l187 -227l-311 -267h86l261 224l184 -224h84l-217 264l269 230h-87l-218 -186z" />
    <glyph glyph-name="y" unicode="y" horiz-adv-x="628" 
d="M163 494h-80l178 -494q-45 -68 -100 -103t-107 -35l-13 -73q61 0 111 23.5t89.5 56.5t68 69t46.5 62l348 494h-80l-295 -416h-17z" />
    <glyph glyph-name="z" unicode="z" horiz-adv-x="623" 
d="M659 494h-529l-10 -61h424l-495 -377l-10 -56h533l11 61h-430l497 378z" />
    <glyph glyph-name="braceleft" unicode="{" horiz-adv-x="283" 
d="M226 421l32 179q8 50 34 73.5t78 23.5l10 55q-44 0 -75 -11t-51.5 -31t-32.5 -48t-18 -62l-32 -179q-4 -24 -13.5 -41.5t-22 -31t-25.5 -23.5t-25 -17q17 -14 32.5 -36t15.5 -55q0 -5 -0.5 -10.5t-1.5 -11.5l-30 -172q-3 -16 -4 -26.5t-1 -19.5q0 -56 33.5 -82.5
t95.5 -26.5l9 55q-82 0 -82 58q0 12 1 20.5t3 20.5l30 169q2 8 2 14v13q0 32 -12.5 53.5t-29.5 36.5q14 8 27 17.5t23.5 22.5t18 30.5t11.5 42.5z" />
    <glyph glyph-name="bar" unicode="|" horiz-adv-x="167" 
d="M91 -133l153 872h-55l-153 -872h55z" />
    <glyph glyph-name="braceright" unicode="}" horiz-adv-x="283" 
d="M177 199l-32 -179q-8 -50 -34 -73.5t-78 -23.5l-10 -55q44 0 75 11t51.5 31t32.5 48t18 62l32 179q4 24 13.5 41.5t22 31t25.5 23t25 17.5q-23 14 -35.5 36t-12.5 55q0 5 0.5 10.5t1.5 11.5l30 172q3 16 4 26.5t1 19.5q0 56 -33.5 82.5t-95.5 26.5l-9 -55q82 0 82 -58
q0 -12 -1 -20.5t-3 -20.5l-30 -169q-2 -8 -2 -15v-12q0 -32 12.5 -53.5t29.5 -36.5q-14 -8 -27 -17.5t-23.5 -22.5t-18 -30.5t-11.5 -42.5z" />
    <glyph glyph-name="asciitilde" unicode="~" horiz-adv-x="569" 
d="M93 344h67q6 17 22.5 33.5t45.5 16.5t44 -6.5t28 -16.5l14 -10t17.5 -9.5t25 -7t35.5 -2.5q32 0 55.5 8.5t40 22.5t26.5 32.5t16 38.5h-66q-3 -7 -7 -15.5t-12 -15.5t-21 -12t-32 -5q-26 0 -40 8t-27 18q-14 9 -33.5 17t-54.5 8q-30 0 -53 -8t-40.5 -22t-29.5 -32.5
t-21 -40.5z" />
    <glyph glyph-name="exclamdown" unicode="&#xa1;" horiz-adv-x="256" 
d="M155 383h-67l-93 -527h67zM167 472l14 78h-67l-13 -78h66z" />
    <glyph glyph-name="cent" unicode="&#xa2;" horiz-adv-x="787" 
d="M556 141h-100l66 375h86q28 0 48 -7.5t33 -20.5t19.5 -30t6.5 -36q0 -5 -0.5 -10.5t-1.5 -10.5h68q3 18 3 37q0 26 -10 51t-30.5 44.5t-51.5 31t-73 11.5h-86l11 64h-71l-11 -64h-107q-38 0 -71 -12.5t-59.5 -35t-44.5 -53.5t-24 -68q-11 -66 -15.5 -114t-4.5 -65
q0 -33 10.5 -60.5t30 -47t47.5 -30t62 -10.5h88l-10 -56h71l10 56h98q51 0 89 14t64 38t41.5 55.5t21.5 66.5h-72q-8 -46 -40 -79.5t-91 -33.5zM365 516h86l-66 -375h-77q-52 0 -78 23.5t-26 61.5q0 32 6.5 73t17.5 105q9 49 44.5 80.5t92.5 31.5z" />
    <glyph glyph-name="sterling" unicode="&#xa3;" horiz-adv-x="782" 
d="M368 628h319q46 0 69.5 -19t23.5 -54v-8t-1 -9h67q3 19 3 37q0 25 -10.5 46.5t-29.5 37.5t-45.5 25.5t-58.5 9.5h-337q-48 0 -85.5 -15t-63 -40.5t-38.5 -60t-13 -73.5q0 -32 4.5 -49.5t12.5 -33.5q7 -17 17.5 -35.5t12.5 -54.5h-103l-13 -72h114q-11 -33 -24.5 -58
t-31.5 -46.5t-43 -41.5t-58 -42l-13 -72h698l13 72h-603q28 20 48.5 40t36 42.5t27 48t21.5 57.5h426l13 72h-434q-2 35 -10.5 56.5t-17.5 40.5q-6 14 -10.5 30.5t-4.5 47.5q0 58 34.5 89.5t87.5 31.5z" />
    <glyph glyph-name="yen" unicode="&#xa5;" horiz-adv-x="844" 
d="M244 694h-100l299 -364h-166l-9 -56h163l-5 -26h-164l-9 -56h164l-34 -192h78l35 192h166l9 56h-167l6 26h167l10 56h-168l425 364h-100l-352 -300z" />
    <glyph glyph-name="brokenbar" unicode="&#xa6;" horiz-adv-x="167" 
d="M114 452v287h-55v-287h55zM114 0v287h-55v-287h55z" />
    <glyph glyph-name="section" unicode="&#xa7;" horiz-adv-x="751" 
d="M727 354q0 -10 -2.5 -24t-7.5 -41q-7 -37 -35 -59.5t-95 -22.5h-390q-32 0 -46 15t-14 43q0 13 2 28t8 50q6 33 30 54.5t71 21.5h395q46 0 65 -18t19 -47zM687 104q0 21 -8.5 33.5t-14.5 19.5q47 8 73 38.5t33 68.5q8 46 11.5 70t3.5 40q0 21 -8.5 40t-25 33.5
t-41.5 23.5t-58 9h-359q-32 0 -48 12t-16 41q0 6 0.5 14t3.5 25q5 27 27 44.5t66 17.5h295q47 0 66.5 -16.5t19.5 -46.5q0 -5 -0.5 -10.5t-1.5 -11.5l-2 -10h63l2 10q3 18 3 34q0 49 -30.5 81t-103.5 32h-307q-75 0 -111 -32t-46 -84q-3 -18 -4.5 -37t-1.5 -31
q0 -23 7 -31.5t15 -16.5q-34 -9 -63 -34.5t-37 -70.5q-8 -42 -10 -62.5t-2 -35.5q0 -56 30.5 -85.5t97.5 -29.5h357q30 0 47 -17.5t17 -44.5q0 -5 -1 -10.5t-4 -22.5q-5 -31 -29 -47.5t-58 -16.5h-310q-38 0 -59.5 15.5t-21.5 53.5q0 4 0.5 8t1.5 9l2 10h-61l-2 -10
q-3 -15 -3 -29q0 -51 37.5 -84.5t108.5 -33.5h284q75 0 116.5 28.5t52.5 82.5q5 26 6 41.5t1 25.5z" />
    <glyph glyph-name="dieresis" unicode="&#xa8;" horiz-adv-x="339" 
d="M242 694h-72l-13 -72h72zM420 694h-72l-14 -72h73z" />
    <glyph glyph-name="copyright" unicode="&#xa9;" horiz-adv-x="610" 
d="M245 394q0 19 7 37t20.5 32t34.5 22.5t48 8.5q32 0 55.5 -12.5t39.5 -29.5v24q-15 14 -37 26t-58 12q-33 0 -57 -10.5t-40.5 -27t-24.5 -38.5t-8 -44q0 -23 8 -44.5t24.5 -38.5t41 -27.5t56.5 -10.5q38 0 60.5 12t34.5 25v31q-14 -18 -35 -33t-60 -15q-27 0 -48 8.5
t-34.5 23t-20.5 32.5t-7 37zM618 389q0 54 -20.5 102t-56.5 84t-84 56.5t-102 20.5t-102 -20.5t-84 -56.5t-56.5 -84t-20.5 -102t20.5 -102t56.5 -84t84 -56.5t102 -20.5t102 20.5t84 56.5t56.5 84t20.5 102zM113 390q0 50 19 94.5t52 77.5t77.5 52t94.5 19t94.5 -19
t77.5 -52t52 -77.5t19 -94.5t-19 -94.5t-52 -77.5t-77.5 -52t-94.5 -19t-94.5 19t-77.5 52t-52 77.5t-19 94.5z" />
    <glyph glyph-name="ordfeminine" unicode="&#xaa;" horiz-adv-x="435" 
d="M385 333h-312l-6 -38h312zM181 533q-41 0 -62 -15.5t-26 -42.5q-4 -19 -4.5 -27.5t-0.5 -14.5q0 -28 19.5 -40t45.5 -12h158q18 0 29.5 4.5t18.5 15.5l-3 -20h36l27 150q2 11 2 20v14q0 13 -4.5 24.5t-15 20.5t-27 14.5t-41.5 5.5h-115q-43 0 -67 -17t-30 -49l-1 -6h38
l1 6q6 35 68 35h106q28 0 40 -11.5t12 -28.5q0 -8 -1 -11l-6 -35q-2 4 -5.5 7.5t-9.5 6.5t-17 4.5t-28 1.5h-137zM321 502q48 0 48 -34q0 -9 -2.5 -19t-9 -18.5t-19 -13.5t-33.5 -5h-133q-28 0 -37.5 7t-9.5 21q0 5 0.5 10t2.5 16q3 18 13.5 27t39.5 9h140z" />
    <glyph glyph-name="guillemotleft" unicode="&#xab;" horiz-adv-x="544" 
d="M252 78l37 31l-142 168l205 173l-28 33l-242 -205zM430 78l37 31l-143 168l206 173l-28 33l-242 -205z" />
    <glyph glyph-name="logicalnot" unicode="&#xac;" horiz-adv-x="499" 
d="M480 376h-377l-6 -33h376zM285 405h34l56 312h-51l-109 -93l19 -23l100 84zM105 205q0 -23 14 -35t35 -13q-24 -1 -45 -15t-27 -49q-2 -11 -2.5 -17.5t-0.5 -14.5q0 -29 22.5 -46t66.5 -17h133q59 0 86 20.5t33 55.5q2 13 2 20v15q0 23 -13.5 35t-33.5 13q23 1 44 15
t27 49q2 8 1.5 16t-0.5 13q0 26 -23 44t-67 18h-142q-49 0 -75.5 -21t-33.5 -59q-2 -13 -1.5 -18t0.5 -9zM222 280h131q34 0 47.5 -9.5t13.5 -28.5q0 -2 -0.5 -5.5t-2.5 -13.5q-5 -26 -23 -39t-65 -13h-114q-40 0 -55 9.5t-15 28.5q0 4 0.5 8t2.5 14q4 24 20.5 36.5
t59.5 12.5zM386 78q-4 -24 -21 -36t-60 -12h-139q-53 0 -53 36q0 6 1 11t3 14q5 26 22.5 39t64.5 13h114q41 0 56 -10t15 -29q0 -3 -0.5 -8.5t-2.5 -17.5z" />
    <glyph glyph-name="registered" unicode="&#xae;" horiz-adv-x="438" 
d="M334 623q0 19 -11.5 31t-33.5 12h-70l-23 -182h14l11 84h31l47 -84h18l-48 84h8q31 0 44 17.5t13 37.5zM320 622q0 -12 -8 -26t-33 -14h-57l9 70h57q17 0 24.5 -8.5t7.5 -21.5zM421 591q0 29 -10.5 54t-29.5 44t-45 29.5t-57 10.5q-32 0 -63.5 -12t-56.5 -35t-40.5 -56
t-15.5 -75q0 -29 10.5 -54t29.5 -44t45.5 -29.5t57.5 -10.5q36 0 68 13.5t56 37.5t37.5 56.5t13.5 70.5zM118 553q0 37 14 66.5t37 50.5t51 32.5t57 11.5q28 0 52 -9.5t41 -26.5t26.5 -39.5t9.5 -49.5q0 -35 -13 -64.5t-35 -51t-50 -33.5t-59 -12q-29 0 -53.5 9.5
t-41.5 26.5t-26.5 39.5t-9.5 49.5z" />
    <glyph glyph-name="macron" unicode="&#xaf;" horiz-adv-x="467" 
d="M453 639h-387l-7 -39h388z" />
    <glyph glyph-name="degree" unicode="&#xb0;" horiz-adv-x="272" 
d="M235 666q-37 0 -54 -15.5t-22 -43.5q-3 -15 -4 -26t-1 -18q0 -20 14 -33t41 -13h54q35 0 52.5 13.5t22.5 43.5q4 19 5 29.5t1 15.5q0 17 -12 32t-43 15h-54zM176 567q0 5 1.5 15.5l3.5 24.5q4 20 17 28t33 8h54q35 0 35 -27q0 -6 -1 -15.5t-4 -26.5q-3 -19 -16 -27.5
t-32 -8.5h-54q-37 0 -37 29z" />
    <glyph glyph-name="plusminus" unicode="&#xb1;" horiz-adv-x="439" 
d="M430 220h-319l-13 -72h319zM273 454h-144l-12 -66h144l-25 -145h66l26 145h144l12 66h-144l26 145h-67z" />
    <glyph glyph-name="twosuperior" unicode="&#xb2;" horiz-adv-x="499" 
d="M288 521h50q53 0 86.5 7.5t52 22.5t25 36.5t6.5 50.5q0 45 -29 64t-106 19h-55q-72 0 -106.5 -21t-42.5 -66h36q3 13 8.5 23.5t18 17.5t33.5 10.5t54 3.5h48q32 0 52.5 -2.5t32.5 -9t17 -17t5 -25.5q0 -26 -7 -42t-23 -24.5t-42 -11.5t-63 -3h-48q-77 0 -111.5 -22.5
t-43.5 -70.5l-9 -54h339l6 32h-307l1 5q4 21 10.5 35.5t19.5 24t35 13.5t57 4z" />
    <glyph glyph-name="threesuperior" unicode="&#xb3;" horiz-adv-x="499" 
d="M285 579l-5 -32h97q15 0 26.5 -1t19 -5.5t11.5 -14t4 -26.5q0 -22 -7 -35t-22 -20t-38.5 -9t-57.5 -2h-51q-52 0 -71 9t-19 33v6q0 4 1 8h-32q-2 -8 -2.5 -11.5t-0.5 -10.5q0 -29 24.5 -47.5t89.5 -18.5h61q42 0 72 4t49.5 15t28.5 31t9 52q0 29 -7.5 40.5t-21.5 15.5
q53 11 53 76q0 38 -27.5 58t-100.5 20h-62q-41 0 -67 -7t-41.5 -19t-23 -28.5t-10.5 -35.5h32q3 15 9.5 25.5t19 18t32.5 11t52 3.5h47q32 0 52.5 -2.5t32.5 -8t16.5 -14t4.5 -21.5q0 -32 -18 -44.5t-61 -12.5h-98z" />
    <glyph glyph-name="acute" unicode="&#xb4;" horiz-adv-x="236" 
d="M318 680l-50 51l-149 -134l25 -27z" />
    <glyph glyph-name="mu" unicode="&#xb5;" horiz-adv-x="499" 
d="M480 376h-377l-6 -33h376zM219 114h50q53 0 86.5 7.5t52 22.5t25 36.5t6.5 50.5q0 45 -29 64t-106 19h-55q-72 0 -106.5 -21t-42.5 -66h36q3 13 8.5 23.5t18 17.5t33.5 10.5t54 3.5h48q32 0 52.5 -2.5t32.5 -9t17 -17t5 -25.5q0 -26 -7 -42t-23 -24.5t-42 -11.5t-63 -3
h-48q-77 0 -111.5 -22.5t-43.5 -70.5l-9 -54h339l6 32h-307l1 5q4 21 10.5 35.5t19.5 24t35 13.5t57 4zM285 405h34l56 312h-51l-109 -93l19 -23l100 84z" />
    <glyph glyph-name="paragraph" unicode="&#xb6;" horiz-adv-x="713" 
d="M434 0h78l122 694h-227q-74 0 -127 -15.5t-87.5 -44t-51 -69.5t-16.5 -93q0 -174 209 -174h153zM602 0h72l123 694h-73z" />
    <glyph glyph-name="periodcentered" unicode="&#xb7;" horiz-adv-x="191" 
d="M72 380l-13 -78h78l13 78h-78z" />
    <glyph glyph-name="periodcentered" unicode="&#x2219;" horiz-adv-x="191" 
d="M72 380l-13 -78h78l13 78h-78z" />
    <glyph glyph-name="cedilla" unicode="&#xb8;" horiz-adv-x="227" 
d="M188 -62l11 62h-68l-11 -45q-6 -26 -23 -33t-57 -7l-10 -66q33 0 59.5 2t46.5 11t33 27t19 49z" />
    <glyph glyph-name="onesuperior" unicode="&#xb9;" horiz-adv-x="374" 
d="M247 405h34l56 312h-51l-109 -93l19 -23l100 84z" />
    <glyph glyph-name="ordmasculine" unicode="&#xba;" horiz-adv-x="416" 
d="M379 333h-312l-6 -38h312zM219 630q-59 0 -88.5 -26.5t-37.5 -71.5q-5 -29 -6.5 -47.5t-1.5 -31.5q0 -36 23.5 -55t67.5 -19h100q60 0 88.5 26.5t36.5 71.5q9 52 9 78q0 32 -21 53.5t-69 21.5h-101zM120 460q0 13 2.5 29.5t7.5 42.5q7 36 28.5 51.5t59.5 15.5h93
q64 0 64 -51q0 -9 -2.5 -24.5l-7.5 -46.5q-7 -36 -29.5 -51.5t-57.5 -15.5h-93q-65 0 -65 50z" />
    <glyph glyph-name="guillemotright" unicode="&#xbb;" horiz-adv-x="544" 
d="M162 454l141 -172l-204 -171l27 -33l241 200l-169 205zM344 454l142 -172l-205 -171l27 -33l241 200l-169 205z" />
    <glyph glyph-name="onequarter" unicode="&#xbc;" horiz-adv-x="499" 
d="M480 376h-377l-6 -33h376zM362 99l38 212h-35l-296 -212l-6 -33h261l-12 -67h33l11 67h43l6 33h-43zM285 405h34l56 312h-51l-109 -93l19 -23l100 84zM360 270l-31 -171h-211z" />
    <glyph glyph-name="onehalf" unicode="&#xbd;" horiz-adv-x="499" 
d="M480 376h-377l-6 -33h376zM219 114h50q53 0 86.5 7.5t52 22.5t25 36.5t6.5 50.5q0 45 -29 64t-106 19h-55q-72 0 -106.5 -21t-42.5 -66h36q3 13 8.5 23.5t18 17.5t33.5 10.5t54 3.5h48q32 0 52.5 -2.5t32.5 -9t17 -17t5 -25.5q0 -26 -7 -42t-23 -24.5t-42 -11.5t-63 -3
h-48q-77 0 -111.5 -22.5t-43.5 -70.5l-9 -54h339l6 32h-307l1 5q4 21 10.5 35.5t19.5 24t35 13.5t57 4zM285 405h34l56 312h-51l-109 -93l19 -23l100 84z" />
    <glyph glyph-name="threequarters" unicode="&#xbe;" horiz-adv-x="499" 
d="M476 371h-377l-7 -32h377zM285 579l-5 -32h97q15 0 26.5 -1t19 -5.5t11.5 -14t4 -26.5q0 -22 -7 -35t-22 -20t-38.5 -9t-57.5 -2h-51q-52 0 -71 9t-19 33v6q0 4 1 8h-32q-2 -8 -2.5 -11.5t-0.5 -10.5q0 -29 24.5 -47.5t89.5 -18.5h61q42 0 72 4t49.5 15t28.5 31t9 52
q0 29 -7.5 40.5t-21.5 15.5q53 11 53 76q0 38 -27.5 58t-100.5 20h-62q-41 0 -67 -7t-41.5 -19t-23 -28.5t-10.5 -35.5h32q3 15 9.5 25.5t19 18t32.5 11t52 3.5h47q32 0 52.5 -2.5t32.5 -8t16.5 -14t4.5 -21.5q0 -32 -18 -44.5t-61 -12.5h-98zM360 99l38 212h-35l-296 -212
l-6 -33h261l-12 -67h33l11 67h43l6 33h-43zM358 270l-31 -171h-211z" />
    <glyph glyph-name="questiondown" unicode="&#xbf;" horiz-adv-x="894" 
d="M597 466l14 78h-78l-14 -78h78zM493 317q-8 -41 -32.5 -64t-81.5 -23q-81 0 -141.5 -8t-102.5 -26.5t-66 -50t-32 -78.5q-5 -26 -5.5 -38.5t-0.5 -25.5q0 -29 12 -58t38.5 -51.5t68.5 -36.5t103 -14h277q119 0 191 46t90 151h-78q-6 -29 -18 -51.5t-34 -37.5t-57 -22.5
t-86 -7.5h-296q-71 0 -103.5 27t-32.5 63q0 9 1.5 19.5t4.5 28.5q6 32 25 52t51 31t76 14.5t101 3.5q87 0 138.5 35t65.5 113l13 69h-78z" />
    <glyph glyph-name="Agrave" unicode="&#xc0;" horiz-adv-x="842" 
d="M553 749l31 25l-131 136l-50 -49zM489 694l-482 -694h81l115 167h494l57 -167h84l-238 694h-111zM536 643l135 -399h-412z" />
    <glyph glyph-name="Aacute" unicode="&#xc1;" horiz-adv-x="842" 
d="M711 858l-45 46l-134 -121l24 -24zM489 694l-482 -694h81l115 167h494l57 -167h84l-238 694h-111zM536 643l135 -399h-412z" />
    <glyph glyph-name="Acircumflex" unicode="&#xc2;" horiz-adv-x="842" 
d="M542 877l-172 -140h32l155 84l113 -84h33l-121 140h-40zM489 694l-482 -694h81l115 167h494l57 -167h84l-238 694h-111zM536 643l135 -399h-412z" />
    <glyph glyph-name="Atilde" unicode="&#xc3;" horiz-adv-x="842" 
d="M374 760h54q5 13 18 26.5t36 13.5t35 -5.5t23 -13.5t25 -15.5t48 -7.5q52 0 77 25t34 57h-53q-2 -6 -5.5 -13t-10 -12.5t-16.5 -9.5t-26 -4q-20 0 -31.5 6.5t-21.5 14.5q-11 8 -26.5 14t-44.5 6q-48 0 -74.5 -23.5t-40.5 -58.5zM489 694l-482 -694h81l115 167h494
l57 -167h84l-238 694h-111zM536 643l135 -399h-412z" />
    <glyph glyph-name="Adieresis" unicode="&#xc4;" horiz-adv-x="842" 
d="M513 810h-65l-12 -64h65zM673 810h-65l-12 -64h65zM489 694l-482 -694h81l115 167h494l57 -167h84l-238 694h-111zM536 643l135 -399h-412z" />
    <glyph glyph-name="Aring" unicode="&#xc5;" horiz-adv-x="842" 
d="M549 856q-30 0 -45 -15t-17 -32q-1 -8 -2.5 -13.5t-2.5 -13.5q-3 -18 8.5 -31.5t37.5 -13.5h43q30 0 43 13.5t16 31.5q1 8 2 13.5t2 13.5q3 14 -6.5 30.5t-35.5 16.5h-43zM530 753q-34 0 -29 29q2 9 2.5 14t2.5 13q5 29 40 29h41q17 0 24.5 -9t5.5 -20q-1 -8 -2 -13
t-3 -14q-2 -15 -13 -22t-26 -7h-43zM489 694l-482 -694h81l115 167h494l57 -167h84l-238 694h-111zM536 643l135 -399h-412z" />
    <glyph glyph-name="AE" unicode="&#xc6;" horiz-adv-x="1210" 
d="M120 0l279 322h211l-57 -322h617l12 72h-544l44 250h528l13 72h-527l40 228h544l12 72h-641l-622 -694h91zM623 394h-155l193 217z" />
    <glyph glyph-name="Ccedilla" unicode="&#xc7;" horiz-adv-x="903" 
d="M316 0h113l-11 -49q-3 -14 -9.5 -23t-17 -13.5t-25.5 -6t-37 -1.5l-13 -79q36 0 66 2.5t52 12t36.5 29t20.5 54.5l13 74h101q74 0 124.5 12.5t83 37t50 61t26.5 85.5h-72q-6 -33 -19.5 -56.5t-37.5 -39t-59.5 -22.5t-85.5 -7h-311q-74 0 -112 30t-38 93q0 12 1 27t4 38
t8.5 57.5t14.5 84.5q13 72 30.5 116.5t46 69t70 33.5t103.5 9h281q88 0 124 -25t36 -70q0 -14 -3 -30h72q2 12 3 23.5t1 22.5q0 66 -54.5 108.5t-165.5 42.5h-266q-91 0 -151 -13.5t-99 -47.5t-61 -90.5t-37 -141.5q-9 -49 -14.5 -84.5t-8.5 -60.5t-4 -41t-1 -26
q0 -100 55.5 -148t176.5 -48z" />
    <glyph glyph-name="Egrave" unicode="&#xc8;" horiz-adv-x="736" 
d="M542 749l31 25l-131 136l-50 -49zM181 694l-122 -694h617l12 72h-545l45 250h528l13 72h-528l40 228h545l12 72h-617z" />
    <glyph glyph-name="Eacute" unicode="&#xc9;" horiz-adv-x="736" 
d="M649 858l-46 46l-133 -121l23 -24zM181 694l-122 -694h617l12 72h-545l45 250h528l13 72h-528l40 228h545l12 72h-617z" />
    <glyph glyph-name="Ecircumflex" unicode="&#xca;" horiz-adv-x="736" 
d="M489 877l-172 -140h32l154 84l114 -84h33l-121 140h-40zM181 694l-122 -694h617l12 72h-545l45 250h528l13 72h-528l40 228h545l12 72h-617z" />
    <glyph glyph-name="Edieresis" unicode="&#xcb;" horiz-adv-x="736" 
d="M471 810h-65l-13 -64h66zM631 810h-65l-13 -64h66zM181 694l-122 -694h617l12 72h-545l45 250h528l13 72h-528l40 228h545l12 72h-617z" />
    <glyph glyph-name="Igrave" unicode="&#xcc;" horiz-adv-x="272" 
d="M258 749l31 25l-131 136l-50 -49zM101 0h72l123 694h-73z" />
    <glyph glyph-name="Iacute" unicode="&#xcd;" horiz-adv-x="272" 
d="M433 858l-45 46l-134 -121l24 -24zM101 0h72l123 694h-73z" />
    <glyph glyph-name="Icircumflex" unicode="&#xce;" horiz-adv-x="272" 
d="M267 877l-173 -140h33l154 84l113 -84h34l-121 140h-40zM101 0h72l123 694h-73z" />
    <glyph glyph-name="Idieresis" unicode="&#xcf;" horiz-adv-x="272" 
d="M229 810h-66l-12 -64h66zM389 810h-66l-12 -64h66zM101 0h72l123 694h-73z" />
    <glyph glyph-name="Eth" unicode="&#xd0;" horiz-adv-x="894" 
d="M209 392l41 230h400q59 0 99.5 -7t65 -23.5t35.5 -43t11 -66.5q0 -9 -1 -21t-3.5 -31t-7 -46t-11.5 -66q-14 -79 -31 -127.5t-46 -74.5t-74.5 -35t-115.5 -9h-418l43 247h161l13 73h-161zM124 319l-56 -319h482q94 0 155 12.5t101 47t63 96.5t41 162q7 39 11.5 68t7 50
t3.5 36.5t1 29.5q0 92 -63 142t-200 50h-480l-53 -302h-86l-13 -73h86z" />
    <glyph glyph-name="Ntilde" unicode="&#xd1;" horiz-adv-x="874" 
d="M413 760h54q5 13 18 26.5t36 13.5t35 -5.5t23 -13.5t25 -15.5t48 -7.5q52 0 77 25t34 57h-53q-2 -6 -5.5 -13t-10 -12.5t-16.5 -9.5t-26 -4q-20 0 -31.5 6.5t-21.5 14.5q-11 8 -26.5 14t-44.5 6q-48 0 -74.5 -23.5t-40.5 -58.5zM180 694l-122 -694h72l112 639h39
l439 -639h104l123 694h-73l-110 -622l-425 622h-159z" />
    <glyph glyph-name="Ograve" unicode="&#xd2;" horiz-adv-x="906" 
d="M593 749l31 25l-131 136l-50 -49zM847 313q-14 -81 -31.5 -128.5t-51.5 -72.5t-90 -32t-148 -7h-155q-62 0 -101.5 5.5t-63 18.5t-32.5 35t-9 56q0 14 1 29.5t4 37.5t8 51.5t13 71.5q10 56 20.5 96t25.5 67.5t37 44t54.5 25t78 11.5t107.5 3h127q73 0 118.5 -6.5
t71 -21.5t34.5 -39.5t9 -59.5q0 -10 -1.5 -23.5t-4.5 -35t-8 -52t-13 -74.5zM372 0h142q111 0 181.5 11.5t114.5 44.5t67.5 92t40.5 154q9 49 14.5 83.5t8.5 57.5t4 38t1 25q0 51 -15.5 87.5t-50 60t-89.5 34t-135 10.5h-136q-109 0 -178.5 -12.5t-113.5 -48t-68 -98
t-41 -161.5q-8 -43 -13 -74t-8 -53.5t-4 -38.5t-1 -29q0 -47 14 -81.5t47 -57t86.5 -33.5t131.5 -11z" />
    <glyph glyph-name="Oacute" unicode="&#xd3;" horiz-adv-x="906" 
d="M707 858l-46 46l-133 -121l23 -24zM847 313q-14 -81 -31.5 -128.5t-51.5 -72.5t-90 -32t-148 -7h-155q-62 0 -101.5 5.5t-63 18.5t-32.5 35t-9 56q0 14 1 29.5t4 37.5t8 51.5t13 71.5q10 56 20.5 96t25.5 67.5t37 44t54.5 25t78 11.5t107.5 3h127q73 0 118.5 -6.5
t71 -21.5t34.5 -39.5t9 -59.5q0 -10 -1.5 -23.5t-4.5 -35t-8 -52t-13 -74.5zM372 0h142q111 0 181.5 11.5t114.5 44.5t67.5 92t40.5 154q9 49 14.5 83.5t8.5 57.5t4 38t1 25q0 51 -15.5 87.5t-50 60t-89.5 34t-135 10.5h-136q-109 0 -178.5 -12.5t-113.5 -48t-68 -98
t-41 -161.5q-8 -43 -13 -74t-8 -53.5t-4 -38.5t-1 -29q0 -47 14 -81.5t47 -57t86.5 -33.5t131.5 -11z" />
    <glyph glyph-name="Ocircumflex" unicode="&#xd4;" horiz-adv-x="906" 
d="M573 877l-172 -140h32l150 84l118 -84h33l-121 140h-40zM847 313q-14 -81 -31.5 -128.5t-51.5 -72.5t-90 -32t-148 -7h-155q-62 0 -101.5 5.5t-63 18.5t-32.5 35t-9 56q0 14 1 29.5t4 37.5t8 51.5t13 71.5q10 56 20.5 96t25.5 67.5t37 44t54.5 25t78 11.5t107.5 3h127
q73 0 118.5 -6.5t71 -21.5t34.5 -39.5t9 -59.5q0 -10 -1.5 -23.5t-4.5 -35t-8 -52t-13 -74.5zM372 0h142q111 0 181.5 11.5t114.5 44.5t67.5 92t40.5 154q9 49 14.5 83.5t8.5 57.5t4 38t1 25q0 51 -15.5 87.5t-50 60t-89.5 34t-135 10.5h-136q-109 0 -178.5 -12.5
t-113.5 -48t-68 -98t-41 -161.5q-8 -43 -13 -74t-8 -53.5t-4 -38.5t-1 -29q0 -47 14 -81.5t47 -57t86.5 -33.5t131.5 -11z" />
    <glyph glyph-name="Otilde" unicode="&#xd5;" horiz-adv-x="906" 
d="M401 760h54q5 13 18 26.5t36 13.5t35 -5.5t23 -13.5t25 -15.5t48 -7.5q52 0 77 25t34 57h-53q-2 -6 -5.5 -13t-10 -12.5t-16.5 -9.5t-26 -4q-20 0 -31.5 6.5t-21.5 14.5q-11 8 -26.5 14t-44.5 6q-48 0 -74.5 -23.5t-40.5 -58.5zM847 313q-14 -81 -31.5 -128.5
t-51.5 -72.5t-90 -32t-148 -7h-155q-62 0 -101.5 5.5t-63 18.5t-32.5 35t-9 56q0 14 1 29.5t4 37.5t8 51.5t13 71.5q10 56 20.5 96t25.5 67.5t37 44t54.5 25t78 11.5t107.5 3h127q73 0 118.5 -6.5t71 -21.5t34.5 -39.5t9 -59.5q0 -10 -1.5 -23.5t-4.5 -35t-8 -52t-13 -74.5z
M372 0h142q111 0 181.5 11.5t114.5 44.5t67.5 92t40.5 154q9 49 14.5 83.5t8.5 57.5t4 38t1 25q0 51 -15.5 87.5t-50 60t-89.5 34t-135 10.5h-136q-109 0 -178.5 -12.5t-113.5 -48t-68 -98t-41 -161.5q-8 -43 -13 -74t-8 -53.5t-4 -38.5t-1 -29q0 -47 14 -81.5t47 -57
t86.5 -33.5t131.5 -11z" />
    <glyph glyph-name="Odieresis" unicode="&#xd6;" horiz-adv-x="906" 
d="M536 810h-66l-12 -64h65zM696 810h-66l-12 -64h65zM847 313q-14 -81 -31.5 -128.5t-51.5 -72.5t-90 -32t-148 -7h-155q-62 0 -101.5 5.5t-63 18.5t-32.5 35t-9 56q0 14 1 29.5t4 37.5t8 51.5t13 71.5q10 56 20.5 96t25.5 67.5t37 44t54.5 25t78 11.5t107.5 3h127
q73 0 118.5 -6.5t71 -21.5t34.5 -39.5t9 -59.5q0 -10 -1.5 -23.5t-4.5 -35t-8 -52t-13 -74.5zM372 0h142q111 0 181.5 11.5t114.5 44.5t67.5 92t40.5 154q9 49 14.5 83.5t8.5 57.5t4 38t1 25q0 51 -15.5 87.5t-50 60t-89.5 34t-135 10.5h-136q-109 0 -178.5 -12.5
t-113.5 -48t-68 -98t-41 -161.5q-8 -43 -13 -74t-8 -53.5t-4 -38.5t-1 -29q0 -47 14 -81.5t47 -57t86.5 -33.5t131.5 -11z" />
    <glyph glyph-name="multiply" unicode="&#xd7;" horiz-adv-x="516" 
d="M128 494l-56 -43l140 -185l-168 -224l59 -42l158 209l159 -209l59 42l-169 225l140 184l-57 43l-132 -177z" />
    <glyph glyph-name="Oslash" unicode="&#xd8;" horiz-adv-x="906" 
d="M734 772l-48 -74h-30h-136q-109 0 -178.5 -12.5t-113.5 -48t-68 -98t-41 -161.5q-8 -43 -13 -74t-8 -53.5t-4 -38.5t-1 -29q0 -71 32 -112.5t111 -58.5l-60 -92h85l54 82q14 -1 28 -1.5t29 -0.5h142q111 0 181.5 11.5t114.5 44.5t67.5 92t40.5 154q9 49 14.5 83.5
t8.5 57.5t4 38t1 25q0 87 -42.5 131t-137.5 54l53 81h-85zM361 73l360 549q47 -3 76.5 -12t46.5 -24t23.5 -36.5t6.5 -51.5q0 -10 -1.5 -23.5t-4.5 -35t-8 -52t-13 -74.5q-14 -81 -31.5 -128.5t-51.5 -72.5t-90 -32t-148 -7h-165zM638 625h3l-363 -549q-65 7 -89 33t-24 79
q0 14 1 29.5t4 37.5t8 51.5t13 71.5q10 56 20.5 96t25.5 67.5t37 44t54.5 25t78 11.5t107.5 3h124z" />
    <glyph glyph-name="Ugrave" unicode="&#xd9;" horiz-adv-x="916" 
d="M593 749l31 25l-131 136l-50 -49zM173 201q0 18 4 48t11 69l66 376h-72l-66 -376q-8 -41 -11.5 -73.5t-3.5 -52.5q0 -53 15.5 -89.5t50 -59t89 -33t132.5 -10.5h164q97 0 161 12t105 44.5t64.5 88.5t38.5 143l71 406h-72l-66 -376q-10 -55 -20 -94.5t-25 -67t-37 -43.5
t-54.5 -25t-78 -12t-107.5 -3h-107q-72 0 -120.5 4t-77.5 17.5t-41.5 38.5t-12.5 68z" />
    <glyph glyph-name="Uacute" unicode="&#xda;" horiz-adv-x="916" 
d="M727 858l-46 46l-133 -121l23 -24zM173 201q0 18 4 48t11 69l66 376h-72l-66 -376q-8 -41 -11.5 -73.5t-3.5 -52.5q0 -53 15.5 -89.5t50 -59t89 -33t132.5 -10.5h164q97 0 161 12t105 44.5t64.5 88.5t38.5 143l71 406h-72l-66 -376q-10 -55 -20 -94.5t-25 -67t-37 -43.5
t-54.5 -25t-78 -12t-107.5 -3h-107q-72 0 -120.5 4t-77.5 17.5t-41.5 38.5t-12.5 68z" />
    <glyph glyph-name="Ucircumflex" unicode="&#xdb;" horiz-adv-x="916" 
d="M591 877l-172 -140h32l155 84l113 -84h33l-121 140h-40zM173 201q0 18 4 48t11 69l66 376h-72l-66 -376q-8 -41 -11.5 -73.5t-3.5 -52.5q0 -53 15.5 -89.5t50 -59t89 -33t132.5 -10.5h164q97 0 161 12t105 44.5t64.5 88.5t38.5 143l71 406h-72l-66 -376
q-10 -55 -20 -94.5t-25 -67t-37 -43.5t-54.5 -25t-78 -12t-107.5 -3h-107q-72 0 -120.5 4t-77.5 17.5t-41.5 38.5t-12.5 68z" />
    <glyph glyph-name="Udieresis" unicode="&#xdc;" horiz-adv-x="916" 
d="M538 810h-66l-12 -64h66zM698 810h-66l-12 -64h66zM173 201q0 18 4 48t11 69l66 376h-72l-66 -376q-8 -41 -11.5 -73.5t-3.5 -52.5q0 -53 15.5 -89.5t50 -59t89 -33t132.5 -10.5h164q97 0 161 12t105 44.5t64.5 88.5t38.5 143l71 406h-72l-66 -376q-10 -55 -20 -94.5
t-25 -67t-37 -43.5t-54.5 -25t-78 -12t-107.5 -3h-107q-72 0 -120.5 4t-77.5 17.5t-41.5 38.5t-12.5 68z" />
    <glyph glyph-name="Yacute" unicode="&#xdd;" horiz-adv-x="799" 
d="M221 694h-98l298 -362l-59 -332h78l59 332l424 362h-101l-351 -300zM654 808l-46 46l-133 -121l23 -24z" />
    <glyph glyph-name="Thorn" unicode="&#xde;" horiz-adv-x="811" 
d="M840 423q0 30 -11.5 56.5t-35.5 46.5t-62.5 32t-92.5 12h-404l22 124h-77l-122 -694h77l31 174h404q61 0 106.5 8.5t76.5 27.5t50 49.5t28 74.5q6 32 8 53.5t2 35.5zM222 498h423q64 0 92 -22.5t28 -65.5q0 -9 -1.5 -23t-6.5 -39t-16 -44t-32 -32t-53 -19.5t-79 -6.5
h-400z" />
    <glyph glyph-name="germandbls" unicode="&#xdf;" horiz-adv-x="689" 
d="M66 0h72l93 528q9 53 39 77t84 24h133q54 0 76 -20.5t22 -70.5q0 -27 -6 -49t-23 -37.5t-47.5 -24t-80.5 -8.5l-11 -60q47 0 86 -3t67.5 -13.5t44 -32t15.5 -58.5q0 -88 -41.5 -136t-122.5 -48h-196l-12 -68h201q68 0 113.5 19.5t73 54t39 81.5t11.5 101q0 48 -13.5 75.5
t-33 42.5t-41 20.5t-36.5 8.5q52 13 69.5 49t17.5 92q0 78 -41 115t-131 37h-122q-95 0 -143 -42.5t-61 -113.5l-8 -46h-39l-9 -54h39z" />
    <glyph glyph-name="agrave" unicode="&#xe0;" horiz-adv-x="718" 
d="M467 567l31 25l-131 136l-50 -49zM248 302q-81 0 -123 -31t-52 -85q-3 -19 -5 -32t-3 -22.5t-1 -16.5v-12q0 -27 10.5 -46.5t28 -32t40.5 -18.5t49 -6h314q35 0 58.5 8t37.5 31l-7 -39h72l53 297q4 23 4.5 40.5t0.5 28.5q0 25 -9 48t-29.5 41t-54.5 28.5t-83 10.5h-228
q-85 0 -132.5 -34t-58.5 -97l-2 -12h74l2 12q6 35 38.5 52.5t96.5 17.5h210q57 0 81 -22.5t24 -57.5q0 -5 -0.5 -11t-1.5 -11l-12 -70q-5 9 -11.5 16.5t-19 13t-33.5 8.5t-55 3h-273zM526 241q47 0 71.5 -17t24.5 -52q0 -18 -4.5 -38t-18.5 -36t-39 -26.5t-65 -10.5h-264
q-56 0 -75.5 15t-19.5 41q0 8 0.5 19t5.5 33q3 18 9.5 31.5t18.5 22.5t31 13.5t48 4.5h277z" />
    <glyph glyph-name="aacute" unicode="&#xe1;" horiz-adv-x="718" 
d="M609 680l-50 51l-149 -134l26 -27zM248 302q-81 0 -123 -31t-52 -85q-3 -19 -5 -32t-3 -22.5t-1 -16.5v-12q0 -27 10.5 -46.5t28 -32t40.5 -18.5t49 -6h314q35 0 58.5 8t37.5 31l-7 -39h72l53 297q4 23 4.5 40.5t0.5 28.5q0 25 -9 48t-29.5 41t-54.5 28.5t-83 10.5h-228
q-85 0 -132.5 -34t-58.5 -97l-2 -12h74l2 12q6 35 38.5 52.5t96.5 17.5h210q57 0 81 -22.5t24 -57.5q0 -5 -0.5 -11t-1.5 -11l-12 -70q-5 9 -11.5 16.5t-19 13t-33.5 8.5t-55 3h-273zM526 241q47 0 71.5 -17t24.5 -52q0 -18 -4.5 -38t-18.5 -36t-39 -26.5t-65 -10.5h-264
q-56 0 -75.5 15t-19.5 41q0 8 0.5 19t5.5 33q3 18 9.5 31.5t18.5 22.5t31 13.5t48 4.5h277z" />
    <glyph glyph-name="acircumflex" unicode="&#xe2;" horiz-adv-x="718" 
d="M456 717l-173 -140h33l150 84l117 -84h34l-121 140h-40zM248 302q-81 0 -123 -31t-52 -85q-3 -19 -5 -32t-3 -22.5t-1 -16.5v-12q0 -27 10.5 -46.5t28 -32t40.5 -18.5t49 -6h314q35 0 58.5 8t37.5 31l-7 -39h72l53 297q4 23 4.5 40.5t0.5 28.5q0 25 -9 48t-29.5 41
t-54.5 28.5t-83 10.5h-228q-85 0 -132.5 -34t-58.5 -97l-2 -12h74l2 12q6 35 38.5 52.5t96.5 17.5h210q57 0 81 -22.5t24 -57.5q0 -5 -0.5 -11t-1.5 -11l-12 -70q-5 9 -11.5 16.5t-19 13t-33.5 8.5t-55 3h-273zM526 241q47 0 71.5 -17t24.5 -52q0 -18 -4.5 -38t-18.5 -36
t-39 -26.5t-65 -10.5h-264q-56 0 -75.5 15t-19.5 41q0 8 0.5 19t5.5 33q3 18 9.5 31.5t18.5 22.5t31 13.5t48 4.5h277z" />
    <glyph glyph-name="atilde" unicode="&#xe3;" horiz-adv-x="718" 
d="M225 589h67q6 17 22.5 33.5t45.5 16.5t44 -6.5t28 -16.5l14 -10t17.5 -9.5t25 -7t35.5 -2.5q32 0 55.5 8.5t40 22.5t26.5 32.5t16 38.5h-66q-3 -7 -7 -15.5t-12 -15.5t-21 -12t-32 -5q-26 0 -40 8t-27 18q-14 9 -33.5 17t-54.5 8q-30 0 -53 -8t-40.5 -22t-29.5 -32.5
t-21 -40.5zM248 302q-81 0 -123 -31t-52 -85q-3 -19 -5 -32t-3 -22.5t-1 -16.5v-12q0 -27 10.5 -46.5t28 -32t40.5 -18.5t49 -6h314q35 0 58.5 8t37.5 31l-7 -39h72l53 297q4 23 4.5 40.5t0.5 28.5q0 25 -9 48t-29.5 41t-54.5 28.5t-83 10.5h-228q-85 0 -132.5 -34
t-58.5 -97l-2 -12h74l2 12q6 35 38.5 52.5t96.5 17.5h210q57 0 81 -22.5t24 -57.5q0 -5 -0.5 -11t-1.5 -11l-12 -70q-5 9 -11.5 16.5t-19 13t-33.5 8.5t-55 3h-273zM526 241q47 0 71.5 -17t24.5 -52q0 -18 -4.5 -38t-18.5 -36t-39 -26.5t-65 -10.5h-264q-56 0 -75.5 15
t-19.5 41q0 8 0.5 19t5.5 33q3 18 9.5 31.5t18.5 22.5t31 13.5t48 4.5h277z" />
    <glyph glyph-name="adieresis" unicode="&#xe4;" horiz-adv-x="718" 
d="M416 694h-73l-13 -72h72zM593 694h-72l-13 -72h72zM248 302q-81 0 -123 -31t-52 -85q-3 -19 -5 -32t-3 -22.5t-1 -16.5v-12q0 -27 10.5 -46.5t28 -32t40.5 -18.5t49 -6h314q35 0 58.5 8t37.5 31l-7 -39h72l53 297q4 23 4.5 40.5t0.5 28.5q0 25 -9 48t-29.5 41t-54.5 28.5
t-83 10.5h-228q-85 0 -132.5 -34t-58.5 -97l-2 -12h74l2 12q6 35 38.5 52.5t96.5 17.5h210q57 0 81 -22.5t24 -57.5q0 -5 -0.5 -11t-1.5 -11l-12 -70q-5 9 -11.5 16.5t-19 13t-33.5 8.5t-55 3h-273zM526 241q47 0 71.5 -17t24.5 -52q0 -18 -4.5 -38t-18.5 -36t-39 -26.5
t-65 -10.5h-264q-56 0 -75.5 15t-19.5 41q0 8 0.5 19t5.5 33q3 18 9.5 31.5t18.5 22.5t31 13.5t48 4.5h277z" />
    <glyph glyph-name="aring" unicode="&#xe5;" horiz-adv-x="718" 
d="M438 737q-20 0 -33.5 -6t-22.5 -15t-14 -19t-7 -19q-2 -11 -2.5 -16.5t-2.5 -15.5q-2 -9 -1 -19t7 -18.5t17.5 -14.5t31.5 -6h55q19 0 32.5 6t22 14.5t13 18.5t6.5 19q2 10 3 15.5l3 16.5q1 9 0 19t-6.5 19t-17 15t-30.5 6h-54zM414 609q-19 0 -29.5 8.5t-6.5 28.5
q2 11 2.5 16t2.5 16q4 20 17.5 28t32.5 8h55q18 0 28.5 -7.5t6.5 -28.5q-2 -11 -2.5 -16t-2.5 -16q-4 -20 -17.5 -28.5t-31.5 -8.5h-55zM248 302q-81 0 -123 -31t-52 -85q-3 -19 -5 -32t-3 -22.5t-1 -16.5v-12q0 -27 10.5 -46.5t28 -32t40.5 -18.5t49 -6h314q35 0 58.5 8
t37.5 31l-7 -39h72l53 297q4 23 4.5 40.5t0.5 28.5q0 25 -9 48t-29.5 41t-54.5 28.5t-83 10.5h-228q-85 0 -132.5 -34t-58.5 -97l-2 -12h74l2 12q6 35 38.5 52.5t96.5 17.5h210q57 0 81 -22.5t24 -57.5q0 -5 -0.5 -11t-1.5 -11l-12 -70q-5 9 -11.5 16.5t-19 13t-33.5 8.5
t-55 3h-273zM526 241q47 0 71.5 -17t24.5 -52q0 -18 -4.5 -38t-18.5 -36t-39 -26.5t-65 -10.5h-264q-56 0 -75.5 15t-19.5 41q0 8 0.5 19t5.5 33q3 18 9.5 31.5t18.5 22.5t31 13.5t48 4.5h277z" />
    <glyph glyph-name="ae" unicode="&#xe6;" horiz-adv-x="1269" 
d="M889 496q-117 0 -181 -66q-17 28 -55 46t-104 18h-228q-85 0 -132.5 -34t-58.5 -97l-2 -12h74l2 12q6 35 38.5 52.5t96.5 17.5h210q57 0 81 -22.5t24 -57.5q0 -5 -0.5 -11t-1.5 -11l-12 -70q-5 9 -11.5 16.5t-19 13t-33.5 8.5t-55 3h-273q-81 0 -123 -31t-52 -85
q-3 -19 -5 -32t-3 -22.5t-1 -16.5v-12q0 -27 10.5 -46.5t28 -32t40.5 -18.5t49 -6h314q35 0 58.5 8t37.5 31l-7 -39h72l7 38q20 -18 49.5 -28t66.5 -10h256q51 0 87 12t60 32.5t37 47t18 56.5l2 10h-72l-2 -10q-6 -35 -37.5 -61t-90.5 -26h-235q-52 0 -83.5 21t-31.5 75v9
q0 6 1 16t3 26t7 42h557q7 37 9.5 61t2.5 41q0 30 -10.5 56t-33 45.5t-57.5 31t-83 11.5h-205zM526 241q47 0 71.5 -17t24.5 -52q0 -18 -4.5 -38t-18.5 -36t-39 -26.5t-65 -10.5h-264q-56 0 -75.5 15t-19.5 41q0 8 0.5 19t5.5 33q3 18 9.5 31.5t18.5 22.5t31 13.5t48 4.5
h277zM1208 336v-12t-2 -13h-486q11 58 51 90.5t97 32.5h226q56 0 85 -26.5t29 -71.5z" />
    <glyph glyph-name="ccedilla" unicode="&#xe7;" horiz-adv-x="708" 
d="M241 0h89l-12 -50q-3 -14 -9.5 -23t-17 -13.5t-25.5 -6t-37 -1.5l-11 -73q36 0 66 2.5t52 12t36.5 29t20.5 54.5l12 69h58q61 0 103.5 11t70 33t43 55t23.5 76h-72q-11 -64 -50 -89t-107 -25h-222q-45 0 -74 24t-29 73q0 8 1.5 23.5t4 35.5t6 43t7.5 46q11 66 52 97
t104 31h216q66 0 92.5 -24t26.5 -63q0 -6 -0.5 -12.5t-1.5 -13.5h72q2 11 3 20.5t1 18.5q0 28 -11.5 53t-36 43.5t-62.5 29t-91 10.5h-198q-53 0 -94 -14t-70.5 -39t-47.5 -59t-25 -74q-6 -36 -10.5 -61.5t-6.5 -45t-3 -35t-1 -29.5q0 -26 9 -51t29 -44.5t51.5 -31.5
t75.5 -12z" />
    <glyph glyph-name="egrave" unicode="&#xe8;" horiz-adv-x="724" 
d="M473 567l31 25l-131 136l-50 -49zM665 336v-12t-2 -13h-486q11 58 51 90.5t97 32.5h226q56 0 85 -26.5t29 -71.5zM247 0h256q51 0 87 12t60 32.5t37 47t18 56.5l2 10h-72l-2 -10q-6 -35 -37.5 -61t-90.5 -26h-235q-52 0 -83.5 21t-31.5 75v9q0 6 1 16t3 26t7 42h557
q7 37 9.5 61t2.5 41q0 30 -10.5 56t-33 45.5t-57.5 31t-83 11.5h-205q-103 0 -164.5 -51t-78.5 -142q-6 -36 -9.5 -61t-5.5 -44t-2.5 -33t-0.5 -28q0 -29 11 -53.5t32 -43.5t51 -29.5t68 -10.5z" />
    <glyph glyph-name="eacute" unicode="&#xe9;" horiz-adv-x="724" 
d="M602 680l-50 51l-149 -134l26 -27zM665 336v-12t-2 -13h-486q11 58 51 90.5t97 32.5h226q56 0 85 -26.5t29 -71.5zM247 0h256q51 0 87 12t60 32.5t37 47t18 56.5l2 10h-72l-2 -10q-6 -35 -37.5 -61t-90.5 -26h-235q-52 0 -83.5 21t-31.5 75v9q0 6 1 16t3 26t7 42h557
q7 37 9.5 61t2.5 41q0 30 -10.5 56t-33 45.5t-57.5 31t-83 11.5h-205q-103 0 -164.5 -51t-78.5 -142q-6 -36 -9.5 -61t-5.5 -44t-2.5 -33t-0.5 -28q0 -29 11 -53.5t32 -43.5t51 -29.5t68 -10.5z" />
    <glyph glyph-name="ecircumflex" unicode="&#xea;" horiz-adv-x="724" 
d="M467 717l-173 -140h33l150 84l117 -84h34l-121 140h-40zM665 336v-12t-2 -13h-486q11 58 51 90.5t97 32.5h226q56 0 85 -26.5t29 -71.5zM247 0h256q51 0 87 12t60 32.5t37 47t18 56.5l2 10h-72l-2 -10q-6 -35 -37.5 -61t-90.5 -26h-235q-52 0 -83.5 21t-31.5 75v9
q0 6 1 16t3 26t7 42h557q7 37 9.5 61t2.5 41q0 30 -10.5 56t-33 45.5t-57.5 31t-83 11.5h-205q-103 0 -164.5 -51t-78.5 -142q-6 -36 -9.5 -61t-5.5 -44t-2.5 -33t-0.5 -28q0 -29 11 -53.5t32 -43.5t51 -29.5t68 -10.5z" />
    <glyph glyph-name="edieresis" unicode="&#xeb;" horiz-adv-x="724" 
d="M420 694h-72l-14 -72h73zM598 694h-72l-14 -72h72zM665 336v-12t-2 -13h-486q11 58 51 90.5t97 32.5h226q56 0 85 -26.5t29 -71.5zM247 0h256q51 0 87 12t60 32.5t37 47t18 56.5l2 10h-72l-2 -10q-6 -35 -37.5 -61t-90.5 -26h-235q-52 0 -83.5 21t-31.5 75v9q0 6 1 16
t3 26t7 42h557q7 37 9.5 61t2.5 41q0 30 -10.5 56t-33 45.5t-57.5 31t-83 11.5h-205q-103 0 -164.5 -51t-78.5 -142q-6 -36 -9.5 -61t-5.5 -44t-2.5 -33t-0.5 -28q0 -29 11 -53.5t32 -43.5t51 -29.5t68 -10.5z" />
    <glyph glyph-name="igrave" unicode="&#xec;" horiz-adv-x="222" 
d="M191 567l31 25l-131 136l-50 -49zM236 494h-73l-86 -494h72z" />
    <glyph glyph-name="iacute" unicode="&#xed;" horiz-adv-x="222" 
d="M384 680l-50 51l-148 -134l25 -27zM236 494h-73l-86 -494h72z" />
    <glyph glyph-name="icircumflex" unicode="&#xee;" horiz-adv-x="222" 
d="M218 717l-172 -140h32l150 84l118 -84h33l-121 140h-40zM236 494h-73l-86 -494h72z" />
    <glyph glyph-name="idieresis" unicode="&#xef;" horiz-adv-x="222" 
d="M180 694h-72l-14 -72h73zM358 694h-72l-14 -72h72zM236 494h-73l-86 -494h72z" />
    <glyph glyph-name="eth" unicode="&#xf0;" horiz-adv-x="712" 
d="M149 159q0 25 5.5 58t14.5 84q13 72 56 102.5t118 30.5h185q126 0 126 -101q0 -19 -4 -49.5t-15 -90.5q-13 -72 -58.5 -102.5t-114.5 -30.5h-185q-128 0 -128 99zM402 648l-45 -45l46 -47l73 73q31 -10 60 -24.5t53 -33.5t40.5 -43.5t23.5 -54.5q-43 23 -108 23h-199
q-59 0 -102 -13.5t-73.5 -39t-48.5 -61.5t-26 -81q-10 -57 -13.5 -93.5t-3.5 -62.5q0 -72 46.5 -109t133.5 -37h199q60 0 103.5 14t73.5 39.5t47 61t25 79.5q9 52 13 89.5t4 64.5v17q0 15 -0.5 32t-0.5 30v14q0 48 -16 85.5t-43 67t-63 50.5t-75 36l46 46l-46 47l-72 -72
q-42 11 -82.5 15t-72.5 4h-37l-12 -61h49q23 0 49 -2.5t54 -7.5z" />
    <glyph glyph-name="ntilde" unicode="&#xf1;" horiz-adv-x="732" 
d="M227 589h67q6 17 22.5 33.5t45.5 16.5t44 -6.5t28 -16.5l14 -10t17.5 -9.5t25 -7t35.5 -2.5q32 0 55.5 8.5t40 22.5t26.5 32.5t16 38.5h-66q-3 -7 -7 -15.5t-12 -15.5t-21 -12t-32 -5q-26 0 -40 8t-27 18q-14 9 -33.5 17t-54.5 8q-30 0 -53 -8t-40.5 -22t-29.5 -32.5
t-21 -40.5zM551 494h-190q-60 0 -98 -21t-61 -59l14 80h-72l-87 -494h72l52 293q5 28 18.5 53t34.5 44.5t50.5 31t65.5 11.5h190q57 0 90.5 -27.5t33.5 -78.5q0 -7 -1 -16t-4 -27l-51 -284h72l50 281q3 17 3.5 31.5t0.5 26.5q0 33 -11.5 61.5t-34.5 49t-57 32.5t-80 12z" />
    <glyph glyph-name="ograve" unicode="&#xf2;" horiz-adv-x="712" 
d="M453 567l31 25l-131 136l-50 -49zM346 496q-59 0 -102 -13.5t-73.5 -39t-48.5 -61.5t-26 -81q-10 -57 -13.5 -93.5t-3.5 -62.5q0 -72 46.5 -109t133.5 -37h199q60 0 103.5 14t73.5 39.5t47 61t25 79.5q9 52 13 89.5t4 64.5q0 31 -10.5 58t-32 47t-55.5 32t-81 12h-199z
M149 159q0 25 5.5 58t14.5 84q13 72 56 102.5t118 30.5h185q126 0 126 -101q0 -19 -4 -49.5t-15 -90.5q-13 -72 -58.5 -102.5t-114.5 -30.5h-185q-128 0 -128 99z" />
    <glyph glyph-name="oacute" unicode="&#xf3;" horiz-adv-x="712" 
d="M609 680l-50 51l-149 -134l26 -27zM346 496q-59 0 -102 -13.5t-73.5 -39t-48.5 -61.5t-26 -81q-10 -57 -13.5 -93.5t-3.5 -62.5q0 -72 46.5 -109t133.5 -37h199q60 0 103.5 14t73.5 39.5t47 61t25 79.5q9 52 13 89.5t4 64.5q0 31 -10.5 58t-32 47t-55.5 32t-81 12h-199z
M149 159q0 25 5.5 58t14.5 84q13 72 56 102.5t118 30.5h185q126 0 126 -101q0 -19 -4 -49.5t-15 -90.5q-13 -72 -58.5 -102.5t-114.5 -30.5h-185q-128 0 -128 99z" />
    <glyph glyph-name="ocircumflex" unicode="&#xf4;" horiz-adv-x="712" 
d="M453 717l-172 -140h32l150 84l118 -84h33l-121 140h-40zM346 496q-59 0 -102 -13.5t-73.5 -39t-48.5 -61.5t-26 -81q-10 -57 -13.5 -93.5t-3.5 -62.5q0 -72 46.5 -109t133.5 -37h199q60 0 103.5 14t73.5 39.5t47 61t25 79.5q9 52 13 89.5t4 64.5q0 31 -10.5 58t-32 47
t-55.5 32t-81 12h-199zM149 159q0 25 5.5 58t14.5 84q13 72 56 102.5t118 30.5h185q126 0 126 -101q0 -19 -4 -49.5t-15 -90.5q-13 -72 -58.5 -102.5t-114.5 -30.5h-185q-128 0 -128 99z" />
    <glyph glyph-name="otilde" unicode="&#xf5;" horiz-adv-x="712" 
d="M212 589h67q6 17 22.5 33.5t45.5 16.5t44 -6.5t28 -16.5l14 -10t17.5 -9.5t25 -7t35.5 -2.5q32 0 55.5 8.5t40 22.5t26.5 32.5t16 38.5h-66q-3 -7 -7 -15.5t-12 -15.5t-21 -12t-32 -5q-26 0 -40 8t-27 18q-14 9 -33.5 17t-54.5 8q-30 0 -53 -8t-40.5 -22t-29.5 -32.5
t-21 -40.5zM346 496q-59 0 -102 -13.5t-73.5 -39t-48.5 -61.5t-26 -81q-10 -57 -13.5 -93.5t-3.5 -62.5q0 -72 46.5 -109t133.5 -37h199q60 0 103.5 14t73.5 39.5t47 61t25 79.5q9 52 13 89.5t4 64.5q0 31 -10.5 58t-32 47t-55.5 32t-81 12h-199zM149 159q0 25 5.5 58
t14.5 84q13 72 56 102.5t118 30.5h185q126 0 126 -101q0 -19 -4 -49.5t-15 -90.5q-13 -72 -58.5 -102.5t-114.5 -30.5h-185q-128 0 -128 99z" />
    <glyph glyph-name="odieresis" unicode="&#xf6;" horiz-adv-x="712" 
d="M416 694h-73l-13 -72h72zM593 694h-72l-13 -72h72zM346 496q-59 0 -102 -13.5t-73.5 -39t-48.5 -61.5t-26 -81q-10 -57 -13.5 -93.5t-3.5 -62.5q0 -72 46.5 -109t133.5 -37h199q60 0 103.5 14t73.5 39.5t47 61t25 79.5q9 52 13 89.5t4 64.5q0 31 -10.5 58t-32 47
t-55.5 32t-81 12h-199zM149 159q0 25 5.5 58t14.5 84q13 72 56 102.5t118 30.5h185q126 0 126 -101q0 -19 -4 -49.5t-15 -90.5q-13 -72 -58.5 -102.5t-114.5 -30.5h-185q-128 0 -128 99z" />
    <glyph glyph-name="divide" unicode="&#xf7;" horiz-adv-x="433" 
d="M439 327h-328l-13 -73h328zM210 166l-13 -78h78l13 78h-78zM268 493l-13 -78h78l13 78h-78z" />
    <glyph glyph-name="oslash" unicode="&#xf8;" horiz-adv-x="712" 
d="M560 549l-34 -53h-180q-59 0 -102 -13.5t-73.5 -39t-48.5 -61.5t-26 -81q-10 -57 -13.5 -93.5t-3.5 -62.5q0 -60 32.5 -95.5t93.5 -46.5l-40 -61h60l37 57h196q60 0 103.5 14t73.5 39.5t47 61t25 79.5q9 52 13 89.5t4 64.5q0 55 -33.5 96t-107.5 51l36 55h-59zM343 434
h142l-242 -372q-94 12 -94 97q0 25 5.5 58t14.5 84q13 72 56 102.5t118 30.5zM302 60l242 374q110 -7 110 -101q0 -19 -4 -49.5t-15 -90.5q-13 -72 -58.5 -102.5t-114.5 -30.5h-160z" />
    <glyph glyph-name="ugrave" unicode="&#xf9;" horiz-adv-x="726" 
d="M471 567l31 25l-131 136l-50 -49zM269 0h194q36 0 61.5 5t43.5 13t30 18.5t21 22.5l-10 -59h70l87 494h-72l-52 -294q-6 -37 -23 -63.5t-40.5 -43t-52.5 -24.5t-59 -8h-187q-59 0 -91.5 21t-32.5 68q0 14 1 24.5t5 30.5l51 289h-73l-49 -280q-5 -28 -6 -42.5t-1 -26.5
q0 -31 10.5 -57.5t33 -46t57.5 -30.5t84 -11z" />
    <glyph glyph-name="uacute" unicode="&#xfa;" horiz-adv-x="726" 
d="M613 680l-50 51l-149 -134l26 -27zM269 0h194q36 0 61.5 5t43.5 13t30 18.5t21 22.5l-10 -59h70l87 494h-72l-52 -294q-6 -37 -23 -63.5t-40.5 -43t-52.5 -24.5t-59 -8h-187q-59 0 -91.5 21t-32.5 68q0 14 1 24.5t5 30.5l51 289h-73l-49 -280q-5 -28 -6 -42.5t-1 -26.5
q0 -31 10.5 -57.5t33 -46t57.5 -30.5t84 -11z" />
    <glyph glyph-name="ucircumflex" unicode="&#xfb;" horiz-adv-x="726" 
d="M464 717l-172 -140h32l150 84l118 -84h34l-122 140h-40zM269 0h194q36 0 61.5 5t43.5 13t30 18.5t21 22.5l-10 -59h70l87 494h-72l-52 -294q-6 -37 -23 -63.5t-40.5 -43t-52.5 -24.5t-59 -8h-187q-59 0 -91.5 21t-32.5 68q0 14 1 24.5t5 30.5l51 289h-73l-49 -280
q-5 -28 -6 -42.5t-1 -26.5q0 -31 10.5 -57.5t33 -46t57.5 -30.5t84 -11z" />
    <glyph glyph-name="udieresis" unicode="&#xfc;" horiz-adv-x="726" 
d="M433 694h-72l-13 -72h72zM611 694h-72l-13 -72h72zM269 0h194q36 0 61.5 5t43.5 13t30 18.5t21 22.5l-10 -59h70l87 494h-72l-52 -294q-6 -37 -23 -63.5t-40.5 -43t-52.5 -24.5t-59 -8h-187q-59 0 -91.5 21t-32.5 68q0 14 1 24.5t5 30.5l51 289h-73l-49 -280
q-5 -28 -6 -42.5t-1 -26.5q0 -31 10.5 -57.5t33 -46t57.5 -30.5t84 -11z" />
    <glyph glyph-name="yacute" unicode="&#xfd;" horiz-adv-x="628" 
d="M163 494h-80l178 -494q-45 -68 -100 -103t-107 -35l-13 -73q61 0 111 23.5t89.5 56.5t68 69t46.5 62l348 494h-80l-295 -416h-17zM563 680l-50 51l-149 -134l25 -27z" />
    <glyph glyph-name="thorn" unicode="&#xfe;" horiz-adv-x="714" 
d="M725 349q0 72 -47 108.5t-129 36.5h-194q-36 0 -60.5 -4t-41.5 -10.5t-28.5 -15.5t-20.5 -19l44 249h-73l-158 -895h73l44 254q5 -11 15 -21t27.5 -18t43.5 -12.5t63 -4.5h179q108 0 168 53.5t76 141.5q10 57 14.5 95.5t4.5 61.5zM154 164q0 28 6.5 60t14.5 76
q5 28 18.5 52.5t36 42.5t53 28t70.5 10h160q72 0 106.5 -24t34.5 -76q0 -17 -5.5 -53.5t-14.5 -87.5q-12 -68 -56 -100.5t-131 -32.5h-160q-70 0 -101.5 29.5t-31.5 75.5z" />
    <glyph glyph-name="ydieresis" unicode="&#xff;" horiz-adv-x="628" 
d="M367 694h-73l-13 -72h72zM544 694h-72l-13 -72h72zM163 494h-80l178 -494q-45 -68 -100 -103t-107 -35l-13 -73q61 0 111 23.5t89.5 56.5t68 69t46.5 62l348 494h-80l-295 -416h-17z" />
    <glyph glyph-name="OE" unicode="&#x152;" horiz-adv-x="1431" 
d="M904 694l-11 -55q-33 31 -92.5 45t-150.5 14h-136q-109 0 -178.5 -12.5t-113.5 -48t-68 -98t-41 -161.5q-8 -43 -13 -74t-8 -53.5t-4 -38.5t-1 -29q0 -47 14 -81.5t47 -57t86.5 -33.5t131.5 -11h142q105 0 172.5 10t111.5 38l-10 -48h617l12 72h-539l45 250h522l13 72
h-522l40 228h539l12 72h-617zM841 313q-14 -81 -31.5 -128.5t-51.5 -72.5t-90 -32t-148 -7h-155q-62 0 -101.5 5.5t-63 18.5t-32.5 35t-9 56q0 14 1 29.5t4 37.5t8 51.5t13 71.5q10 56 20.5 96t25.5 67.5t37 44t54.5 25t78 11.5t107.5 3h127q73 0 118.5 -6.5t71 -21.5
t34.5 -39.5t9 -59.5q0 -10 -1.5 -23.5t-4.5 -35t-8 -52t-13 -74.5z" />
    <glyph glyph-name="oe" unicode="&#x153;" horiz-adv-x="1249" 
d="M895 496q-63 0 -110 -19.5t-79 -54.5q-20 33 -59 53.5t-102 20.5h-199q-59 0 -102 -13.5t-73.5 -39t-48.5 -61.5t-26 -81q-10 -57 -13.5 -93.5t-3.5 -62.5q0 -72 46.5 -109t133.5 -37h199q70 0 117 18.5t77 51.5q20 -31 56 -50t88 -19h256q51 0 87 12t60 32.5t37 47
t18 56.5l2 10h-72l-2 -10q-6 -35 -37.5 -61t-90.5 -26h-235q-52 0 -83.5 21t-31.5 75v9q0 6 1 16t3 26t7 42h557q7 37 9.5 61t2.5 41q0 30 -10.5 56t-33 45.5t-57.5 31t-83 11.5h-205zM149 159q0 25 5.5 58t14.5 84q13 72 56 102.5t118 30.5h185q126 0 126 -101v-13t-2 -15
q-2 -17 -5.5 -43.5t-11.5 -68.5q-13 -72 -58.5 -102.5t-114.5 -30.5h-185q-128 0 -128 99zM1214 336v-12t-2 -13h-486q11 58 51 90.5t97 32.5h226q56 0 85 -26.5t29 -71.5z" />
    <glyph glyph-name="Scaron" unicode="&#x160;" horiz-adv-x="914" 
d="M751 694h-382q-60 0 -104 -16.5t-73 -45.5t-43 -69t-14 -87q0 -41 11.5 -69t40 -46t76 -26.5t118.5 -9.5l242 -6q63 -1 104 -6.5t65 -17t34 -30.5t10 -47q0 -43 -14 -71t-39 -44.5t-59 -23.5t-73 -7h-329q-90 0 -124.5 25.5t-34.5 71.5v13q0 7 2 15h-72q-2 -12 -3 -23.5
t-1 -22.5q0 -38 16 -66.5t43 -47.5t62.5 -28t74.5 -9h357q75 0 126.5 14.5t82.5 42.5t44.5 70t13.5 96q0 51 -15 83t-49.5 50.5t-90.5 25.5t-138 9l-231 5q-51 1 -84.5 5.5t-53.5 14t-28.5 25.5t-8.5 41q0 71 41 105.5t120 34.5h351q45 0 76 -6.5t49.5 -19t26.5 -31t8 -41.5
q0 -6 -0.5 -12.5t-1.5 -13.5h73q2 12 3 23t1 22q0 76 -52 113.5t-154 37.5zM576 728l172 140h-32l-150 -85l-118 85h-33l121 -140h40z" />
    <glyph glyph-name="scaron" unicode="&#x161;" horiz-adv-x="720" 
d="M69 94q0 -19 7.5 -36t25 -30t45 -20.5t66.5 -7.5h296q163 0 183 121q3 16 3.5 33t0.5 24q0 45 -36.5 72.5t-105.5 29.5l-299 6q-36 1 -54.5 12t-18.5 40q0 10 3 30q12 66 106 66h281q30 0 48.5 -4.5t29 -11.5t14.5 -16t4 -18q0 -5 -0.5 -10t-1.5 -10l-4 -25h72l4 22
q2 11 3 20t1 14q0 17 -7.5 35t-26.5 32.5t-52 24t-84 9.5h-278q-78 0 -123.5 -32.5t-55.5 -83.5q-4 -22 -4.5 -34.5t-0.5 -19.5q0 -47 34 -73t91 -28l310 -6q81 -2 81 -57q0 -3 -0.5 -12t-2.5 -17q-6 -38 -34.5 -55.5t-85.5 -17.5h-269q-53 0 -73 13t-20 34q0 8 0.5 13.5
t1.5 10.5l5 26h-72l-6 -32q-2 -9 -1.5 -16.5t0.5 -14.5zM457 538l172 140h-32l-150 -85l-118 85h-33l121 -140h40z" />
    <glyph glyph-name="Ydieresis" unicode="&#x178;" horiz-adv-x="799" 
d="M478 810h-66l-12 -64h66zM638 810h-66l-12 -64h66zM221 694h-98l298 -362l-59 -332h78l59 332l424 362h-101l-351 -300z" />
    <glyph glyph-name="florin" unicode="&#x192;" horiz-adv-x="649" 
d="M686 533h-534l-94 -533h533z" />
    <glyph glyph-name="circumflex" unicode="&#x2c6;" horiz-adv-x="400" 
d="M218 717l-172 -140h32l150 84l118 -84h33l-121 140h-40z" />
    <glyph glyph-name="tilde" unicode="&#x2dc;" horiz-adv-x="511" 
d="M50 589h67q6 17 22.5 33.5t45.5 16.5t44 -6.5t28 -16.5l14 -10t17.5 -9.5t25 -7t35.5 -2.5q32 0 55.5 8.5t40 22.5t26.5 32.5t16 38.5h-66q-3 -7 -7 -15.5t-12 -15.5t-21 -12t-32 -5q-26 0 -40 8t-27 18q-14 9 -33.5 17t-54.5 8q-30 0 -53 -8t-40.5 -22t-29.5 -32.5
t-21 -40.5z" />
    <glyph glyph-name="endash" unicode="&#x2013;" horiz-adv-x="572" 
d="M569 327h-458l-13 -73h458z" />
    <glyph glyph-name="emdash" unicode="&#x2014;" horiz-adv-x="944" 
d="M913 327h-763l-13 -73h763z" />
    <glyph glyph-name="quoteleft" unicode="&#x2018;" horiz-adv-x="183" 
d="M229 546l15 77h-41l7 43q3 21 12.5 36t26.5 27h-38q-11 -9 -21.5 -22t-14.5 -33l-24 -128h78z" />
    <glyph glyph-name="quoteright" unicode="&#x2019;" horiz-adv-x="183" 
d="M180 694l-15 -77h41l-7 -43q-3 -21 -12.5 -36t-26.5 -27h38q11 9 21.5 22t14.5 33l24 128h-78z" />
    <glyph glyph-name="quotesinglbase" unicode="&#x201a;" horiz-adv-x="183" 
d="M82 156l-15 -77h41l-7 -43q-3 -21 -12.5 -36t-26.5 -27h38q11 9 21.5 22t14.5 33l24 128h-78z" />
    <glyph glyph-name="quotedblleft" unicode="&#x201c;" horiz-adv-x="344" 
d="M232 546l15 77h-41l7 43q3 21 12.5 36t26.5 27h-38q-11 -9 -21.5 -22t-14.5 -33l-24 -128h78zM358 546l15 77h-41l7 43q3 21 12.5 36t26.5 27h-38q-11 -9 -21.5 -22t-14.5 -33l-24 -128h78z" />
    <glyph glyph-name="quotedblright" unicode="&#x201d;" horiz-adv-x="350" 
d="M310 694l-15 -77h41l-7 -43q-3 -21 -12.5 -36t-26.5 -27h38q11 9 21.5 22t14.5 33l24 128h-78zM184 694l-15 -77h41l-7 -43q-3 -21 -12.5 -36t-26.5 -27h38q11 9 21.5 22t14.5 33l24 128h-78z" />
    <glyph glyph-name="quotedblbase" unicode="&#x201e;" horiz-adv-x="314" 
d="M208 156l-15 -77h41l-7 -43q-3 -21 -12.5 -36t-26.5 -27h38q11 9 21.5 22t14.5 33l24 128h-78zM82 156l-15 -77h41l-7 -43q-3 -21 -12.5 -36t-26.5 -27h38q11 9 21.5 22t14.5 33l24 128h-78z" />
    <glyph glyph-name="dagger" unicode="&#x2020;" horiz-adv-x="244" 
d="M263 736h-26l-21 -119h-68l-5 -27h68l-71 -420h26l72 420h68l4 27h-68z" />
    <glyph glyph-name="daggerdbl" unicode="&#x2021;" horiz-adv-x="244" 
d="M140 186h27l45 262h68l4 26h-67l20 120h67l6 28h-68l21 114h-26l-21 -114h-68l-6 -28h68l-20 -120h-68l-4 -26h68z" />
    <glyph glyph-name="bullet" unicode="&#x2022;" horiz-adv-x="467" 
d="M451 295q0 28 -9 54.5t-28 47t-47 33t-67 12.5q-44 0 -78 -15.5t-56.5 -40t-34 -56t-11.5 -63.5q0 -29 9.5 -55.5t29 -47t49 -33t69.5 -12.5q42 0 74.5 15.5t54.5 40.5t33.5 56.5t11.5 63.5z" />
    <glyph glyph-name="ellipsis" unicode="&#x2026;" 
d="M132 78l-13 -78h78l13 78h-78zM400 78l-13 -78h78l13 78h-78zM667 78l-13 -78h78l13 78h-78z" />
    <glyph glyph-name="perthousand" unicode="&#x2030;" horiz-adv-x="1640" 
d="M547 566q0 -19 -4 -52t-15 -94q-9 -53 -34 -72.5t-78 -19.5h-149q-43 0 -62.5 16t-19.5 51q0 20 4.5 55t14.5 86q5 28 13 46.5t21 29.5t32.5 15.5t49.5 4.5h149q44 0 61 -16t17 -50zM411 267q82 0 123 33.5t55 113.5q11 64 16.5 102t5.5 61q0 57 -32.5 86.5t-96.5 29.5
h-158q-44 0 -75 -8t-52 -26t-34 -47t-20 -71q-5 -26 -8.5 -50.5t-6 -45.5t-4 -36t-1.5 -22q0 -52 32.5 -86t96.5 -34h159zM500 -33l339 761h-59l-339 -761h59zM1097 300q0 -19 -4 -52t-15 -94q-9 -53 -34 -72.5t-78 -19.5h-149q-43 0 -62.5 16t-19.5 51q0 20 4.5 55t14.5 86
q5 28 13 46.5t21 29.5t32.5 15.5t49.5 4.5h149q44 0 61 -16t17 -50zM961 1q82 0 123 33.5t55 113.5q11 64 16.5 102t5.5 61q0 57 -32.5 86.5t-96.5 29.5h-158q-44 0 -75 -8t-52 -26t-34 -47t-20 -71q-5 -26 -8.5 -50.5t-6 -45.5t-4 -36t-1.5 -22q0 -52 32.5 -86t96.5 -34
h159zM1613 300q0 -19 -4 -52t-15 -94q-9 -53 -34 -72.5t-78 -19.5h-149q-43 0 -62.5 16t-19.5 51q0 20 4.5 55t14.5 86q5 28 13 46.5t21 29.5t32.5 15.5t49.5 4.5h149q44 0 61 -16t17 -50zM1477 1q82 0 123 33.5t55 113.5q11 64 16.5 102t5.5 61q0 57 -32.5 86.5t-96.5 29.5
h-158q-44 0 -75 -8t-52 -26t-34 -47t-20 -71q-5 -26 -8.5 -50.5t-6 -45.5t-4 -36t-1.5 -22q0 -52 32.5 -86t96.5 -34h159z" />
    <glyph glyph-name="guilsinglleft" unicode="&#x2039;" horiz-adv-x="333" 
d="M253 78l37 31l-142 168l205 173l-27 33l-243 -205z" />
    <glyph glyph-name="guilsinglright" unicode="&#x203a;" horiz-adv-x="342" 
d="M162 454l141 -172l-204 -171l27 -33l241 200l-169 205z" />
    <glyph glyph-name="trademark" unicode="&#x2122;" horiz-adv-x="400" 
d="M310 707h-124l-3 -14h56l-29 -161h13l29 161h56zM343 709l-69 -176h14l50 131l29 -140l77 140v-131h12v176l-83 -148z" />
    <glyph glyph-name="NUL" unicode="&#xe000;" horiz-adv-x="0" 
 />
    <glyph glyph-name="HT" unicode="&#xe001;" horiz-adv-x="0" 
 />
    <glyph glyph-name="minus" unicode="&#xe003;" horiz-adv-x="488" 
d="M443 327h-390v-73h390v73z" />
    <glyph glyph-name="notequal" unicode="&#xe004;" horiz-adv-x="428" 
d="M416 243h-144l59 89h100l12 72h-66l45 69h-76l-46 -69h-176l-12 -72h142l-57 -89h-100l-14 -72h65l-42 -67h77l43 67h176z" />
    <glyph glyph-name="lessequal" unicode="&#xe005;" horiz-adv-x="427" 
d="M430 220h-319l-13 -72h319zM467 629l-320 -195l253 -188l13 77l-150 111l190 117z" />
    <glyph glyph-name="greaterequal" unicode="&#xe006;" horiz-adv-x="422" 
d="M430 220h-319l-13 -72h319zM149 319l-13 -78l317 189l-251 194l-13 -77l148 -117z" />
    <glyph glyph-name="partialdiff" unicode="&#xe007;" horiz-adv-x="499" 
d="M480 376h-377l-6 -33h376zM225 175l-5 -32h97q15 0 26.5 -1t19 -5.5t11.5 -14t4 -26.5q0 -22 -7 -35t-22 -20t-38.5 -9t-57.5 -2h-51q-52 0 -71 9t-19 33v6q0 4 1 8h-32q-2 -8 -2.5 -11.5t-0.5 -10.5q0 -29 24.5 -47.5t89.5 -18.5h61q42 0 72 4t49.5 15t28.5 31t9 52
q0 29 -7.5 40.5t-21.5 15.5q53 11 53 76q0 38 -27.5 58t-100.5 20h-62q-41 0 -67 -7t-41.5 -19t-23 -28.5t-10.5 -35.5h32q3 15 9.5 25.5t19 18t32.5 11t52 3.5h47q32 0 52.5 -2.5t32.5 -8t16.5 -14t4.5 -21.5q0 -32 -18 -44.5t-61 -12.5h-98zM285 405h34l56 312h-51
l-109 -93l19 -23l100 84z" />
    <glyph glyph-name="summation" unicode="&#xe008;" horiz-adv-x="499" 
d="M480 376h-377l-6 -33h376zM362 99l38 212h-35l-296 -212l-6 -33h261l-12 -67h33l11 67h43l6 33h-43zM285 405h34l56 312h-51l-109 -93l19 -23l100 84zM360 270l-31 -171h-211z" />
    <glyph glyph-name="product" unicode="&#xe009;" horiz-adv-x="499" 
d="M480 376h-377l-6 -33h376zM288 521h50q53 0 86.5 7.5t52 22.5t25 36.5t6.5 50.5q0 45 -29 64t-106 19h-55q-72 0 -106.5 -21t-42.5 -66h36q3 13 8.5 23.5t18 17.5t33.5 10.5t54 3.5h48q32 0 52.5 -2.5t32.5 -9t17 -17t5 -25.5q0 -26 -7 -42t-23 -24.5t-42 -11.5t-63 -3
h-48q-77 0 -111.5 -22.5t-43.5 -70.5l-9 -54h339l6 32h-307l1 5q4 21 10.5 35.5t19.5 24t35 13.5t57 4zM225 175l-5 -32h97q15 0 26.5 -1t19 -5.5t11.5 -14t4 -26.5q0 -22 -7 -35t-22 -20t-38.5 -9t-57.5 -2h-51q-52 0 -71 9t-19 33v6q0 4 1 8h-32q-2 -8 -2.5 -11.5
t-0.5 -10.5q0 -29 24.5 -47.5t89.5 -18.5h61q42 0 72 4t49.5 15t28.5 31t9 52q0 29 -7.5 40.5t-21.5 15.5q53 11 53 76q0 38 -27.5 58t-100.5 20h-62q-41 0 -67 -7t-41.5 -19t-23 -28.5t-10.5 -35.5h32q3 15 9.5 25.5t19 18t32.5 11t52 3.5h47q32 0 52.5 -2.5t32.5 -8
t16.5 -14t4.5 -21.5q0 -32 -18 -44.5t-61 -12.5h-98z" />
    <glyph glyph-name="pi" unicode="&#xe00a;" horiz-adv-x="499" 
d="M476 371h-377l-7 -32h377zM285 579l-5 -32h97q15 0 26.5 -1t19 -5.5t11.5 -14t4 -26.5q0 -22 -7 -35t-22 -20t-38.5 -9t-57.5 -2h-51q-52 0 -71 9t-19 33v6q0 4 1 8h-32q-2 -8 -2.5 -11.5t-0.5 -10.5q0 -29 24.5 -47.5t89.5 -18.5h61q42 0 72 4t49.5 15t28.5 31t9 52
q0 29 -7.5 40.5t-21.5 15.5q53 11 53 76q0 38 -27.5 58t-100.5 20h-62q-41 0 -67 -7t-41.5 -19t-23 -28.5t-10.5 -35.5h32q3 15 9.5 25.5t19 18t32.5 11t52 3.5h47q32 0 52.5 -2.5t32.5 -8t16.5 -14t4.5 -21.5q0 -32 -18 -44.5t-61 -12.5h-98zM360 99l38 212h-35l-296 -212
l-6 -33h261l-12 -67h33l11 67h43l6 33h-43zM358 270l-31 -171h-211z" />
    <glyph glyph-name="integral" unicode="&#xe00b;" horiz-adv-x="811" 
d="M857 667h-667l-118 -667h667zM830 644l-109 -622h-622l109 622h622z" />
    <glyph glyph-name="radical" unicode="&#xe00c;" horiz-adv-x="703" 
d="M129 249l-45 -90q34 -36 52.5 -75.5t34.5 -89.5q56 80 125 155.5t143.5 141.5t151 121t148.5 94l17 111q-87 -48 -173 -117t-162 -145.5t-137.5 -153t-99.5 -138.5q-10 52 -22.5 100t-32.5 86z" />
    <glyph glyph-name="approxequal" unicode="&#xe00d;" horiz-adv-x="776" 
d="M316 249l19 150h146l-19 -150h-146zM303 436h-67q-60 0 -86.5 25t-26.5 60q0 48 29.5 74t70.5 26q40 0 64.5 -23t24.5 -74v-11q0 -5 -1 -11zM532 513q7 57 35 84t75 27q23 0 40 -7.5t27.5 -19.5t15.5 -26.5t5 -29.5q0 -21 -8.5 -40t-24.5 -33.5t-40.5 -23t-55.5 -8.5h-78
zM267 146q-8 -63 -37.5 -92t-73.5 -29q-36 0 -61.5 22t-25.5 56q0 50 33 79.5t107 29.5h66zM299 399l-20 -150h-81q-45 0 -77 -12.5t-53 -32.5t-31 -46.5t-10 -54.5q0 -58 37 -87t92 -29t95.5 31t49.5 106l11 88h146l-8 -66q-1 -8 -1.5 -15.5t-0.5 -14.5q0 -33 10.5 -57
t27.5 -39.5t38.5 -22.5t44.5 -7q69 0 107.5 38t38.5 98q0 23 -8 45t-26 39.5t-46.5 28t-68.5 10.5h-66l19 150h77q45 0 78 12t54.5 32.5t31.5 46t10 52.5q0 28 -10 50t-27 37t-40 23t-50 8q-26 0 -51 -7.5t-45 -23.5t-33.5 -41t-17.5 -61l-11 -91h-146l9 66q2 8 2 16v16
q0 34 -10.5 58t-27.5 39t-39 21.5t-45 6.5q-37 0 -64.5 -12t-46 -32t-27.5 -45t-9 -50q0 -54 38 -87.5t113 -33.5h67zM495 212h67q60 0 86.5 -26.5t26.5 -64.5q0 -42 -27 -68.5t-74 -26.5q-35 0 -61.5 23.5t-26.5 74.5v10q0 6 1 12z" />
    <glyph glyph-name="nonbreakingspace" unicode="&#xe00e;" horiz-adv-x="582" 
 />
    <glyph glyph-name="lozenge" unicode="&#xe00f;" horiz-adv-x="472" 
d="M293 433l155 -155l-155 -155l-155 155zM88 278l205 -205l205 205l-205 205z" />
    <glyph glyph-name="apple" unicode="&#xe010;" horiz-adv-x="790" 
d="M275 530q-44 0 -79.5 -14.5t-60 -40.5t-38 -62t-13.5 -78q0 -71 27 -134t64.5 -110t77 -74.5t65.5 -27.5q19 0 36 7.5t30 23.5q7 8 18 12t22 4t21.5 -4t17.5 -12q27 -33 73 -33q39 0 70.5 21.5t56.5 52.5t42.5 65t28.5 59q-20 6 -38 18t-32.5 30t-23 41.5t-8.5 52.5
q0 26 6.5 46t17 35.5t25 29t31.5 25.5q-3 15 -17 27.5t-33 21.5t-42 14t-44 5q-25 0 -47 -6.5t-37 -18.5q-20 -16 -35.5 -21.5t-30.5 -5.5t-27 6.5t-33 20.5q-17 12 -41 18t-50 6zM534 669q-21 0 -42.5 -12.5t-39.5 -32t-29.5 -43t-11.5 -46.5q0 -6 2 -11.5t10 -5.5
q24 0 46 15t38.5 37t26.5 46.5t10 43.5q0 9 -10 9z" />
    </font>
</defs>
</svg>
